<?xml version="1.0" encoding="utf-8"?>
<!-- Generator: Adobe Illustrator 18.1.1, SVG Export Plug-In . SVG Version: 6.00 Build 0)  -->
<svg version="1.1" id="Layer_1" xmlns="http://www.w3.org/2000/svg" xmlns:xlink="http://www.w3.org/1999/xlink" x="0px" y="0px"
	 viewBox="149.3 -10.7 481.7 481.7" width="481.7" height="481.7" enable-background="new 149.3 -10.7 481.7 481.7" xml:space="preserve">
<circle fill="#FFFFFF" stroke="#D2D7DD" stroke-width="40" stroke-miterlimit="10" cx="390.1" cy="230.1" r="220.8"/>
<g>
	<g>
		<g>
			<g>
				<g>
					<defs>
						<rect id="SVGID_1_" x="248.9" y="133.7" width="282.3" height="193.3"/>
					</defs>
					<clipPath id="SVGID_2_">
						<use xlink:href="#SVGID_1_"  overflow="visible"/>
					</clipPath>
					<path clip-path="url(#SVGID_2_)" fill="#CCD4DC" d="M526.5,221l-83.8-83.8c-5.1-5.1-13.4-5.1-18.5,0c-5.1,5.1-5.1,13.4,0,18.5
						l61.4,61.5H262.1c-7.2,0-13.1,5.9-13.1,13.1c0,7.2,5.9,13.1,13.1,13.1h223.6l-61.4,61.4c-5.1,5.1-5.1,13.4,0,18.5
						c2.6,2.6,5.9,3.7,9.2,3.7c3.4,0,6.7-1.3,9.2-3.7l83.8-83.8C531.5,234.6,531.5,226.1,526.5,221L526.5,221z"/>
				</g>
			</g>
		</g>
	</g>
</g>
</svg>
