<?xml version="1.0" encoding="utf-8"?>
<!-- Generator: Adobe Illustrator 18.1.0, SVG Export Plug-In . SVG Version: 6.00 Build 0)  -->
<!DOCTYPE svg PUBLIC "-//W3C//DTD SVG 1.1//EN" "http://www.w3.org/Graphics/SVG/1.1/DTD/svg11.dtd">
<svg version="1.1" id="Layer_1" xmlns="http://www.w3.org/2000/svg" xmlns:xlink="http://www.w3.org/1999/xlink" x="0px" y="0px"
	 viewBox="0 0 215.8 148" width="215.8" height="148" enable-background="new 0 0 215.8 148" xml:space="preserve">
<g>
	<g>
		<defs>
			<rect id="SVGID_1_" x="0" y="0.2" width="215.8" height="147.8"/>
		</defs>
		<clipPath id="SVGID_2_">
			<use xlink:href="#SVGID_1_"  overflow="visible"/>
		</clipPath>
		<path clip-path="url(#SVGID_2_)" fill="#D2D2D2" d="M2.9,81.1l64,64c3.9,3.9,10.2,3.9,14.1,0c3.9-3.9,3.9-10.2,0-14.1L34.1,84
			h170.9c5.5,0,10-4.5,10-10c0-5.5-4.5-10-10-10H34.1l46.9-46.9c3.9-3.9,3.9-10.2,0-14.1C79.1,1,76.6,0,74,0c-2.6,0-5.1,1-7.1,2.9
			l-64,64C-1,70.8-1,77.2,2.9,81.1L2.9,81.1z M2.9,81.1"/>
	</g>
</g>
</svg>
