<?xml version="1.0" encoding="utf-8"?>
<!-- Generator: Adobe Illustrator 18.1.1, SVG Export Plug-In . SVG Version: 6.00 Build 0)  -->
<svg version="1.1" id="Layer_1" xmlns="http://www.w3.org/2000/svg" xmlns:xlink="http://www.w3.org/1999/xlink" x="0px" y="0px"
	 viewBox="150.1 -9.9 500.1 500.1" width="500.1" height="500.1" enable-background="new 150.1 -9.9 500.1 500.1" xml:space="preserve">
<circle fill="none" stroke="#D2D7DD" stroke-width="40" stroke-miterlimit="10" cx="400.2" cy="240.2" r="230"/>
<g>
	<g>
		<g>
			<g>
				<g>
					<defs>
						<rect id="SVGID_1_" x="255.8" y="141.3" width="289" height="197.9"/>
					</defs>
					<clipPath id="SVGID_2_">
						<use xlink:href="#SVGID_1_"  overflow="visible"/>
					</clipPath>
					<path clip-path="url(#SVGID_2_)" fill="#D2D2D2" d="M259.6,249.6l85.8,85.8c5.2,5.2,13.7,5.2,18.9,0c5.2-5.2,5.2-13.7,0-18.9
						l-62.7-62.9h228.7c7.3,0,13.4-6.1,13.4-13.4s-6.1-13.4-13.4-13.4H301.4l62.7-62.7c5.2-5.2,5.2-13.7,0-18.9
						c-2.5-2.7-5.8-4.1-9.4-4.1s-6.8,1.4-9.5,3.9l-85.8,85.8C254.4,235.7,254.4,244.4,259.6,249.6L259.6,249.6z"/>
				</g>
			</g>
		</g>
	</g>
</g>
</svg>
