<?xml version="1.0" encoding="utf-8"?>
<!-- Generator: Adobe Illustrator 18.1.1, SVG Export Plug-In . SVG Version: 6.00 Build 0)  -->
<svg version="1.1" id="Layer_1" xmlns="http://www.w3.org/2000/svg" xmlns:xlink="http://www.w3.org/1999/xlink" x="0px" y="0px"
	 viewBox="70.1 -9.9 499.7 499.7" width="499.7" height="499.7" enable-background="new 70.1 -9.9 499.7 499.7" xml:space="preserve">
<g>
	<g>
		<g>
			<g>
				<defs>
					<rect id="SVGID_1_" x="173" y="139.6" width="293.9" height="201.2"/>
				</defs>
				<clipPath id="SVGID_2_">
					<use xlink:href="#SVGID_1_"  overflow="visible"/>
				</clipPath>
				<path clip-path="url(#SVGID_2_)" fill="#D2D2D2" d="M461.9,230.5l-87.2-87.2c-5.3-5.3-13.9-5.3-19.3,0c-5.3,5.3-5.3,13.9,0,19.3
					l63.9,64H186.7c-7.5,0-13.6,6.1-13.6,13.6c0,7.5,6.1,13.6,13.6,13.6h232.8l-63.9,63.9c-5.3,5.3-5.3,13.9,0,19.3
					c2.7,2.7,6.1,3.9,9.6,3.9c3.5,0,7-1.4,9.6-3.9l87.2-87.2C467.2,244.6,467.2,235.8,461.9,230.5L461.9,230.5z"/>
			</g>
		</g>
	</g>
</g>
<circle fill="none" stroke="#D2D7DD" stroke-width="40" stroke-miterlimit="10" cx="320" cy="240" r="229.9"/>
</svg>
