<?xml version="1.0" encoding="utf-8"?>
<!-- Generator: Adobe Illustrator 18.1.0, SVG Export Plug-In . SVG Version: 6.00 Build 0)  -->
<!DOCTYPE svg PUBLIC "-//W3C//DTD SVG 1.1//EN" "http://www.w3.org/Graphics/SVG/1.1/DTD/svg11.dtd">
<svg version="1.1" id="Layer_1" xmlns="http://www.w3.org/2000/svg" xmlns:xlink="http://www.w3.org/1999/xlink" x="0px" y="0px"
	 viewBox="0 0 215.8 148" width="215.8" height="148" enable-background="new 0 0 215.8 148" xml:space="preserve">
<g>
	<g>
		<defs>
			<rect id="SVGID_1_" x="0" y="0.2" width="215.8" height="147.8"/>
		</defs>
		<clipPath id="SVGID_2_">
			<use xlink:href="#SVGID_1_"  overflow="visible"/>
		</clipPath>
		<path clip-path="url(#SVGID_2_)" fill="#D2D2D2" d="M212.1,66.9l-64-64C144.2-1,137.9-1,134,2.9c-3.9,3.9-3.9,10.2,0,14.1
			L180.9,64H10C4.5,64,0,68.5,0,74c0,5.5,4.5,10,10,10h170.9L134,130.9c-3.9,3.9-3.9,10.2,0,14.1c2,2,4.5,2.9,7.1,2.9
			c2.6,0,5.1-1,7.1-2.9l64-64C216,77.2,216,70.8,212.1,66.9L212.1,66.9z M212.1,66.9"/>
	</g>
</g>
</svg>
