<?xml version="1.0" encoding="utf-8"?>
<!-- Generator: Adobe Illustrator 18.1.0, SVG Export Plug-In . SVG Version: 6.00 Build 0)  -->
<!DOCTYPE svg PUBLIC "-//W3C//DTD SVG 1.1//EN" "http://www.w3.org/Graphics/SVG/1.1/DTD/svg11.dtd">
<svg version="1.1" id="Layer_1" xmlns="http://www.w3.org/2000/svg" xmlns:xlink="http://www.w3.org/1999/xlink" x="0px" y="0px"
	 viewBox="0 0 367 411.8" width="367" height="411.8" enable-background="new 0 0 367 411.8" xml:space="preserve">
<g>
	<polygon opacity="0.34" fill="#65A832" points="367,331.3 275.1,384.4 183.1,331.3 183.1,225.1 275.1,172.1 367,225.1 	"/>
	<polygon fill="#355570" points="273.9,411.8 273.6,411.6 159,345.5 159,212.9 159.3,212.7 273.9,146.6 311,168 310.4,168.9 
		273.9,147.8 160.1,213.5 160.1,344.9 273.9,410.6 347.2,368.2 347.7,369.2 	"/>
	<polygon fill="#355570" points="152.8,201.5 152.5,201.3 54.2,144.6 54.2,30.7 107.4,0 107.9,0.9 55.2,31.3 55.2,144 152.8,200.3 
		250.3,144 250.3,98.1 251.4,98.1 251.4,144.6 	"/>
	<polygon fill="#355570" points="73.4,340.5 36.3,319.1 36.8,318.2 73.4,339.3 146.1,297.4 146.1,213.5 73.4,171.5 0.5,213.6 
		0,212.7 73.4,170.3 147.2,212.9 147.2,298 	"/>
	<g>
		<path fill="#355570" d="M70.6,291.5c-21.4-1.8-38.2-20-38.2-41.5c0-5.9,1.2-11.7,3.6-17l1.9,0.9c-2.3,5.1-3.4,10.5-3.4,16.1
			c0,20.4,15.9,37.7,36.2,39.4L70.6,291.5z"/>
		<g>
			<polygon fill="#355570" points="42.1,242.2 40.3,242.9 36.9,234.1 28.4,238.2 27.5,236.5 37.9,231.5 			"/>
		</g>
	</g>
	<g>
		<path fill="#355570" d="M79.2,291.3l-0.3-2.1c19.8-2.4,34.6-19.3,34.6-39.2c0-6.2-1.4-12.1-4.1-17.6l1.9-0.9
			c2.9,5.8,4.3,12,4.3,18.5C115.7,271,100,288.7,79.2,291.3z"/>
		<g>
			<polygon fill="#355570" points="84,281.3 85.5,282.5 79.8,290 87.6,295.2 86.6,296.8 77,290.4 			"/>
		</g>
	</g>
	<g>
		<path fill="#355570" d="M40.8,228.7l-1.8-1.1c7.7-12,20.8-19.2,35.1-19.2c12.9,0,24.9,5.9,32.9,16.1l-1.7,1.3
			c-7.5-9.7-18.9-15.2-31.2-15.2C60.5,210.5,48.1,217.3,40.8,228.7z"/>
		<g>
			<polygon fill="#355570" points="95.9,225.4 96.1,223.5 105.5,224.6 105.9,215.2 107.8,215.2 107.3,226.7 			"/>
		</g>
	</g>
	<g>
		<g>
			<path fill="none" stroke="#355570" stroke-width="0.5" stroke-miterlimit="10" d="M74.1,301.6"/>
			<path fill="none" stroke="#355570" stroke-width="0.5" stroke-miterlimit="10" d="M74.1,250"/>
			<path fill="none" stroke="#355570" stroke-width="0.5" stroke-miterlimit="10" d="M118.8,224.1"/>
			<path fill="none" stroke="#355570" stroke-width="0.5" stroke-miterlimit="10" d="M74.1,250"/>
			<path fill="none" stroke="#355570" stroke-width="0.5" stroke-miterlimit="10" d="M29.3,224.1"/>
			<path fill="none" stroke="#355570" stroke-width="0.5" stroke-miterlimit="10" d="M74.1,250"/>
		</g>
	</g>
	<rect x="223.6" y="238.8" fill="#FFFFFF" width="51.4" height="13.8"/>
	<rect x="258.6" y="267.3" fill="#4DB1DC" width="28.9" height="13.8"/>
	<rect x="223.7" y="228.3" fill="#FFFFFF" width="2.1" height="93.5"/>
	<rect x="257.2" y="228.3" fill="#FFFFFF" width="2.1" height="93.5"/>
	<rect x="290.8" y="228.3" fill="#FFFFFF" width="2.1" height="93.5"/>
	<rect x="324.3" y="228.3" fill="#FFFFFF" width="2.1" height="93.5"/>
	<path opacity="9.000000e-02" fill="#FF6F02" d="M108.1,218.6c34.5,47.6-18.3,100.4-65.9,65.9c-0.9-0.6-1.7-1.4-2.3-2.3
		c-34.6-47.6,18.3-100.4,65.9-65.9C106.6,216.9,107.4,217.7,108.1,218.6z"/>
	<rect x="268.8" y="295.8" fill="#FF6F02" width="75.1" height="13.8"/>
	<g>
		<polygon fill="#FFFFFF" points="197.4,148.5 103.8,148.5 103.8,28.6 157.6,28.6 197.4,66.1 		"/>
		<path fill="#355570" d="M198.5,149.6h-95.7v-122H158l0.3,0.3l40.2,37.8V149.6z M104.9,147.4h91.4V66.6l-39.2-36.9h-52.2V147.4z"/>
	</g>
	<g>
		<polygon fill="#FFFFFF" points="213,133.5 119.4,133.5 119.4,13.7 173.2,13.7 213,51.1 		"/>
		<path fill="#355570" d="M214.1,134.6h-95.7v-122h55.2l0.3,0.3l40.2,37.8V134.6z M120.5,132.5h91.4V51.6l-39.2-36.9h-52.2V132.5z"
			/>
	</g>
	<g>
		<polygon fill="#FFFFFF" points="213,51.1 174,51.1 174,13.7 		"/>
		<path fill="#355570" d="M213.1,52.2C213,52.2,213,52.2,213.1,52.2h-39c-0.6,0-1.1-0.5-1.1-1.1V13.7c0-0.4,0.3-0.8,0.6-1
			c0.4-0.2,0.8-0.1,1.2,0.2l38.8,37.3c0.3,0.2,0.6,0.5,0.6,0.9C214.1,51.7,213.6,52.2,213.1,52.2z M175.1,50.1h35.3l-35.3-33.9V50.1
			z"/>
	</g>
	<path opacity="9.000000e-02" fill="#355570" d="M305.9,47.8c52.3,72-27.6,151.8-99.6,99.6c-1.3-1-2.5-2.1-3.4-3.4
		c-52.3-72,27.6-151.8,99.6-99.6C303.8,45.3,305,46.5,305.9,47.8z"/>
	<path fill="#355570" d="M198.4,85.2h-26.6V64.7h26.6V85.2z M173.9,83.1h22.4V66.8h-22.4V83.1z"/>
	<path fill="#355570" d="M157,85.2h-26.6V64.7H157V85.2z M132.5,83.1h22.4V66.8h-22.4V83.1z"/>
	<g>
		<line fill="#355570" x1="155.9" y1="75" x2="174.3" y2="75"/>
		<rect x="155.9" y="73.9" fill="#355570" width="18.4" height="2.1"/>
	</g>
	<path fill="#355570" d="M157,115.9h-26.6V95.3H157V115.9z M132.5,113.7h22.4V97.5h-22.4V113.7z"/>
	
		<rect x="164.1" y="79.2" transform="matrix(0.5547 0.8321 -0.8321 0.5547 148.6493 -97.1994)" fill="#355570" width="2.1" height="22.1"/>
	<path fill="#65A832" d="M194.3,97c9.3,12.9-5,27.1-17.9,17.9c-0.3-0.2-0.5-0.4-0.7-0.7c-9.3-12.9,5-27.1,17.9-17.9
		C193.9,96.5,194.1,96.8,194.3,97z"/>
	<rect x="201.9" y="111.7" fill="#65A832" width="0" height="0"/>
	<g>
		<line fill="#355570" x1="155.9" y1="105.6" x2="174.3" y2="105.6"/>
		<g>
			<rect x="155.9" y="104.5" fill="#355570" width="17.1" height="2.1"/>
			<g>
				<polygon fill="#355570" points="169,110.6 168.2,109.7 172.5,105.6 168.2,101.5 169,100.6 174.3,105.6 				"/>
			</g>
		</g>
	</g>
</g>
</svg>
