<?xml version="1.0" encoding="utf-8"?>
<!-- Generator: Adobe Illustrator 18.1.0, SVG Export Plug-In . SVG Version: 6.00 Build 0)  -->
<!DOCTYPE svg PUBLIC "-//W3C//DTD SVG 1.1//EN" "http://www.w3.org/Graphics/SVG/1.1/DTD/svg11.dtd">
<svg version="1.1" id="Layer_1" xmlns="http://www.w3.org/2000/svg" xmlns:xlink="http://www.w3.org/1999/xlink" x="0px" y="0px"
	 viewBox="0 0 412 459.8" width="412" height="459.8" enable-background="new 0 0 412 459.8" xml:space="preserve">
<g>
	<polygon opacity="0.18" fill="#355570" points="0,89 102.5,29.8 205,89 205,207.3 102.5,266.5 0,207.3 	"/>
	<polygon fill="#355570" points="104.9,295.7 63.5,271.8 64.1,270.8 104.9,294.3 231.7,221.1 231.7,74.6 104.9,1.4 23.2,48.5 
		22.6,47.5 104.9,0 105.2,0.2 232.9,73.9 232.9,221.7 232.6,221.9 	"/>
	<polygon fill="#355570" points="289.7,459.8 289.2,458.8 347.9,424.9 347.9,299.3 239.2,236.6 130.4,299.3 130.4,354.8 
		129.2,354.8 129.2,298.7 129.5,298.5 239.2,235.2 239.4,235.4 349.1,298.7 349.1,425.6 	"/>
	<polygon fill="#355570" points="328,269.6 245.8,222.2 245.8,127.3 328,79.8 369.4,103.8 368.8,104.8 328,81.2 247,128 247,221.5 
		328,268.2 409.3,221.3 409.9,222.3 	"/>
	<g>
		<g>
			<path fill="none" d="M214.3,328c15.1-13.2,39.6-13.2,54.7,0"/>
			<path fill="#65A832" d="M214.3,329.2c-0.3,0-0.7-0.1-0.9-0.4c-0.4-0.5-0.4-1.2,0.1-1.7c15.5-13.5,40.7-13.5,56.2,0
				c0.5,0.4,0.5,1.2,0.1,1.7c-0.4,0.5-1.2,0.5-1.7,0.1c-14.6-12.8-38.5-12.8-53.1,0C214.8,329.1,214.5,329.2,214.3,329.2z"/>
		</g>
		<g>
			<path fill="#FFFFFF" d="M251.9,288.9c10.4,14.4-5.5,30.3-19.9,19.9c-0.3-0.2-0.5-0.4-0.7-0.7c-10.4-14.4,5.5-30.3,19.9-19.9
				C251.5,288.4,251.7,288.6,251.9,288.9z"/>
			<path fill="#65A832" d="M241.6,313.3c-8.2,0-14.9-6.7-14.9-14.9c0-8.2,6.7-14.9,14.9-14.9c8.2,0,14.9,6.7,14.9,14.9
				C256.5,306.7,249.8,313.3,241.6,313.3z M241.6,286c-6.9,0-12.5,5.6-12.5,12.5s5.6,12.5,12.5,12.5c6.9,0,12.5-5.6,12.5-12.5
				S248.5,286,241.6,286z"/>
		</g>
	</g>
	<g>
		<g>
			<path fill="#FF6F02" d="M257.3,405.3l-1.6-1.8c20.4-17.8,53.7-17.8,74.2,0l-1.6,1.8C308.8,388.2,276.9,388.2,257.3,405.3z"/>
			<path fill="#FF6F02" d="M256.6,405.6c-0.3,0-0.7-0.1-0.9-0.4c-0.4-0.5-0.4-1.2,0.1-1.7c20.4-17.8,53.7-17.8,74.2,0
				c0.5,0.4,0.5,1.2,0.1,1.7c-0.4,0.5-1.2,0.5-1.7,0.1c-19.6-17.1-51.5-17.1-71,0C257.1,405.5,256.8,405.6,256.6,405.6z"/>
		</g>
		<g>
			<path fill="#FFFFFF" d="M306.5,352.4c13.9,19.1-7.3,40.3-26.4,26.4c-0.3-0.3-0.7-0.6-0.9-0.9c-13.9-19.1,7.3-40.3,26.4-26.4
				C306,351.8,306.3,352.1,306.5,352.4z"/>
			<path fill="#FF6F02" d="M292.9,384.5c-10.7,0-19.3-8.7-19.3-19.3s8.7-19.3,19.3-19.3s19.3,8.7,19.3,19.3S303.5,384.5,292.9,384.5
				z M292.9,348.2c-9.4,0-17,7.6-17,17s7.6,17,17,17s17-7.6,17-17S302.2,348.2,292.9,348.2z"/>
		</g>
	</g>
	<g>
		<g>
			<path fill="#4DB1DC" d="M141.9,434l-1.6-1.8c25.9-22.6,68-22.6,93.8,0l-1.6,1.8C207.6,412.2,166.9,412.2,141.9,434z"/>
			<path fill="#4DB1DC" d="M233.4,434.3c-0.3,0-0.6-0.1-0.8-0.3c-25-21.8-65.7-21.8-90.7,0c-0.5,0.4-1.2,0.4-1.7-0.1
				c-0.4-0.5-0.4-1.2,0.1-1.7c25.9-22.6,68-22.6,93.8,0c0.5,0.4,0.5,1.2,0.1,1.7C234,434.2,233.7,434.3,233.4,434.3z"/>
		</g>
		<g>
			<path fill="#FFFFFF" d="M204.6,367.1c17.7,24.3-9.3,51.3-33.6,33.6c-0.4-0.3-0.8-0.7-1.1-1.1c-17.7-24.3,9.3-51.3,33.6-33.6
				C203.9,366.3,204.3,366.7,204.6,367.1z"/>
			<path fill="#4DB1DC" d="M187.3,407.6c-13.4,0-24.2-10.9-24.2-24.2c0-13.4,10.9-24.2,24.2-24.2c13.4,0,24.2,10.9,24.2,24.2
				C211.5,396.7,200.6,407.6,187.3,407.6z M187.3,361.5c-12.1,0-21.9,9.8-21.9,21.9s9.8,21.9,21.9,21.9s21.9-9.8,21.9-21.9
				S199.3,361.5,187.3,361.5z"/>
		</g>
	</g>
	<path fill="#FFFFFF" d="M138.5,131.3c-1.7-16.9-16-30.1-33.3-30.1c-14.4,0-26.6,9.1-31.4,21.8c-1-0.1-2-0.2-3-0.2
		c-10.3,0-18.8,8-19.5,18.2c-0.2,0-0.4,0-0.6,0c-10.8,0-19.5,8.7-19.5,19.5c0,10.5,8.7,19.5,18.8,19.5c10.1,0,73.7,0.1,86.6,0.1
		c13.5,0,24.4-10.9,24.4-24.4C161,142.8,151.1,132.3,138.5,131.3z"/>
	<g>
		<path fill="#65A832" d="M77.7,149.2h-4.4v-12.1l0-2l0.1-2.2c-0.7,0.7-1.2,1.2-1.5,1.4l-2.4,1.9l-2.1-2.7l6.7-5.4h3.6V149.2z"/>
		<path fill="#65A832" d="M96.7,138.8c0,3.6-0.6,6.3-1.8,8.1c-1.2,1.8-3,2.6-5.5,2.6c-2.4,0-4.2-0.9-5.4-2.7c-1.2-1.8-1.8-4.5-1.8-8
			c0-3.7,0.6-6.4,1.8-8.1c1.2-1.7,3-2.6,5.5-2.6c2.4,0,4.2,0.9,5.5,2.7C96.1,132.6,96.7,135.3,96.7,138.8z M86.5,138.8
			c0,2.6,0.2,4.4,0.7,5.5c0.4,1.1,1.2,1.7,2.2,1.7c1,0,1.8-0.6,2.2-1.7c0.5-1.1,0.7-2.9,0.7-5.5c0-2.6-0.2-4.4-0.7-5.5
			c-0.5-1.1-1.2-1.7-2.2-1.7c-1,0-1.8,0.6-2.2,1.7C86.8,134.4,86.5,136.3,86.5,138.8z"/>
		<path fill="#65A832" d="M108.7,149.2h-4.4v-12.1l0-2l0.1-2.2c-0.7,0.7-1.2,1.2-1.5,1.4l-2.4,1.9l-2.1-2.7l6.7-5.4h3.6V149.2z"/>
		<path fill="#65A832" d="M127.8,138.8c0,3.6-0.6,6.3-1.8,8.1c-1.2,1.8-3,2.6-5.5,2.6c-2.4,0-4.2-0.9-5.4-2.7
			c-1.2-1.8-1.8-4.5-1.8-8c0-3.7,0.6-6.4,1.8-8.1c1.2-1.7,3-2.6,5.5-2.6c2.4,0,4.2,0.9,5.5,2.7C127.1,132.6,127.8,135.3,127.8,138.8
			z M117.6,138.8c0,2.6,0.2,4.4,0.7,5.5c0.4,1.1,1.2,1.7,2.2,1.7c1,0,1.8-0.6,2.2-1.7c0.5-1.1,0.7-2.9,0.7-5.5
			c0-2.6-0.2-4.4-0.7-5.5c-0.5-1.1-1.2-1.7-2.2-1.7c-1,0-1.8,0.6-2.2,1.7C117.8,134.4,117.6,136.3,117.6,138.8z"/>
		<path fill="#65A832" d="M77.7,174.6h-4.4v-12.1l0-2l0.1-2.2c-0.7,0.7-1.2,1.2-1.5,1.4l-2.4,1.9l-2.1-2.7l6.7-5.4h3.6V174.6z"/>
		<path fill="#65A832" d="M93.2,174.6h-4.4v-12.1l0-2l0.1-2.2c-0.7,0.7-1.2,1.2-1.5,1.4l-2.4,1.9l-2.1-2.7l6.7-5.4h3.6V174.6z"/>
		<path fill="#65A832" d="M112.3,164.1c0,3.6-0.6,6.3-1.8,8.1c-1.2,1.8-3,2.6-5.5,2.6c-2.4,0-4.2-0.9-5.4-2.7
			c-1.2-1.8-1.8-4.5-1.8-8c0-3.7,0.6-6.4,1.8-8.1c1.2-1.7,3-2.6,5.5-2.6c2.4,0,4.2,0.9,5.5,2.7C111.6,157.9,112.3,160.6,112.3,164.1
			z M102.1,164.1c0,2.6,0.2,4.4,0.7,5.5c0.4,1.1,1.2,1.7,2.2,1.7c1,0,1.8-0.6,2.2-1.7c0.5-1.1,0.7-2.9,0.7-5.5
			c0-2.6-0.2-4.4-0.7-5.5c-0.5-1.1-1.2-1.7-2.2-1.7c-1,0-1.8,0.6-2.2,1.7C102.3,159.7,102.1,161.6,102.1,164.1z"/>
		<path fill="#65A832" d="M124.2,174.6h-4.4v-12.1l0-2l0.1-2.2c-0.7,0.7-1.2,1.2-1.5,1.4l-2.4,1.9l-2.1-2.7l6.7-5.4h3.6V174.6z"/>
	</g>
	<g opacity="0.44">
		<g>
			<g>
				<path fill="#355570" d="M319.4,143.8c0,5.3,4.3,8,9.4,11.2c5.3,3.3,11.3,7.1,11.3,14.7c0,7.6-6,11.4-11.3,14.7
					c-5,3.1-9.4,5.9-9.4,11.2s4.3,8,9.4,11.2c5.3,3.3,11.3,7.3,11.3,14.7H336c0-5.8-4.3-8-9.4-11.2c-5.3-3.3-11.3-7.1-11.3-14.7
					c0-7.6,6-11.4,11.3-14.7c5-3.1,9.4-5.9,9.4-11.2c0-5.3-4.3-8-9.4-11.2c-5.3-3.3-11.3-7.1-11.3-14.7"/>
			</g>
		</g>
		<g>
			<g>
				<path fill="#355570" d="M315.3,221.5c0-7.6,6-11.4,11.3-14.7c5-3.1,9.4-5.9,9.4-11.2c0-5.3-4.3-8-9.4-11.2
					c-5.3-3.3-11.3-7.1-11.3-14.7c0-7.6,6-11.4,11.3-14.7c5-3.1,9.4-6.2,9.4-11.2h4.1c0,7.4-6,11.4-11.3,14.7
					c-5,3.1-9.4,5.9-9.4,11.2c0,5.3,4.3,8,9.4,11.2c5.3,3.3,11.3,7.1,11.3,14.7c0,7.6-6,11.4-11.3,14.7c-5,3.1-9.4,5.9-9.4,11.2"/>
			</g>
		</g>
		<g>
			<g>
				
					<rect x="317.1" y="166.1" transform="matrix(0.9683 0.2498 -0.2498 0.9683 52.1055 -76.425)" fill="#355570" width="20.3" height="2.1"/>
			</g>
		</g>
		<g>
			<g>
				
					<rect x="317.1" y="172.3" transform="matrix(0.9683 0.2498 -0.2498 0.9683 53.6576 -76.228)" fill="#355570" width="20.3" height="2.1"/>
			</g>
		</g>
		<g>
			
				<rect x="317.1" y="192.2" transform="matrix(0.9683 0.2497 -0.2497 0.9683 58.5576 -75.5895)" fill="#355570" width="20.3" height="1.7"/>
		</g>
		<g>
			
				<rect x="317.1" y="198.4" transform="matrix(0.9683 0.2497 -0.2497 0.9683 60.1093 -75.3927)" fill="#355570" width="20.3" height="1.7"/>
		</g>
	</g>
	<g opacity="0.44">
		<g>
			<g>
				<path fill="#355570" d="M290.9,130.1c0,5.3,4.3,8,9.4,11.2c5.3,3.3,11.3,7.1,11.3,14.7c0,7.6-6,11.4-11.3,14.7
					c-5,3.1-9.4,5.9-9.4,11.2c0,5.3,4.3,8,9.4,11.2c5.3,3.3,11.3,7.3,11.3,14.7h-4.1c0-5.8-4.3-8-9.4-11.2
					c-5.3-3.3-11.3-7.1-11.3-14.7c0-7.6,6-11.4,11.3-14.7c5-3.1,9.4-5.9,9.4-11.2c0-5.3-4.3-8-9.4-11.2c-5.3-3.3-11.3-7.1-11.3-14.7
					"/>
			</g>
		</g>
		<g>
			<g>
				<path fill="#355570" d="M286.7,207.8c0-7.6,6-11.4,11.3-14.7c5-3.1,9.4-5.9,9.4-11.2c0-5.3-4.3-8-9.4-11.2
					c-5.3-3.3-11.3-7.1-11.3-14.7c0-7.6,6-11.4,11.3-14.7c5-3.1,9.4-6.2,9.4-11.2h4.1c0,7.4-6,11.4-11.3,14.7
					c-5,3.1-9.4,5.9-9.4,11.2c0,5.3,4.3,8,9.4,11.2c5.3,3.3,11.3,7.1,11.3,14.7c0,7.6-6,11.4-11.3,14.7c-5,3.1-9.4,5.9-9.4,11.2"/>
			</g>
		</g>
		<g>
			<g>
				
					<rect x="288.5" y="152.4" transform="matrix(0.9683 0.2497 -0.2497 0.9683 47.7823 -69.717)" fill="#355570" width="20.3" height="2.1"/>
			</g>
		</g>
		<g>
			<g>
				
					<rect x="288.5" y="158.6" transform="matrix(0.9683 0.2497 -0.2497 0.9683 49.3343 -69.5201)" fill="#355570" width="20.3" height="2.1"/>
			</g>
		</g>
		<g>
			
				<rect x="288.5" y="178.5" transform="matrix(0.9683 0.2497 -0.2497 0.9683 54.2419 -68.8898)" fill="#355570" width="20.3" height="1.7"/>
		</g>
		<g>
			
				<rect x="288.5" y="184.7" transform="matrix(0.9683 0.2497 -0.2497 0.9683 55.7936 -68.693)" fill="#355570" width="20.3" height="1.7"/>
		</g>
	</g>
	<g opacity="0.44">
		<g>
			<g>
				<path fill="#355570" d="M348,130.1c0,5.3,4.3,8,9.4,11.2c5.3,3.3,11.3,7.1,11.3,14.7c0,7.6-6,11.4-11.3,14.7
					c-5,3.1-9.4,5.9-9.4,11.2c0,5.3,4.3,8,9.4,11.2c5.3,3.3,11.3,7.3,11.3,14.7h-4.1c0-5.8-4.3-8-9.4-11.2
					c-5.3-3.3-11.3-7.1-11.3-14.7c0-7.6,6-11.4,11.3-14.7c5-3.1,9.4-5.9,9.4-11.2c0-5.3-4.3-8-9.4-11.2c-5.3-3.3-11.3-7.1-11.3-14.7
					"/>
			</g>
		</g>
		<g>
			<g>
				<path fill="#355570" d="M343.9,207.8c0-7.6,6-11.4,11.3-14.7c5-3.1,9.4-5.9,9.4-11.2c0-5.3-4.3-8-9.4-11.2
					c-5.3-3.3-11.3-7.1-11.3-14.7c0-7.6,6-11.4,11.3-14.7c5-3.1,9.4-6.2,9.4-11.2h4.1c0,7.4-6,11.4-11.3,14.7
					c-5,3.1-9.4,5.9-9.4,11.2c0,5.3,4.3,8,9.4,11.2c5.3,3.3,11.3,7.1,11.3,14.7c0,7.6-6,11.4-11.3,14.7c-5,3.1-9.4,5.9-9.4,11.2"/>
			</g>
		</g>
		<g>
			<g>
				
					<rect x="345.6" y="152.4" transform="matrix(0.9683 0.2497 -0.2497 0.9683 49.5923 -83.9847)" fill="#355570" width="20.3" height="2.1"/>
			</g>
		</g>
		<g>
			<g>
				
					<rect x="345.6" y="158.6" transform="matrix(0.9683 0.2497 -0.2497 0.9683 51.1442 -83.7878)" fill="#355570" width="20.3" height="2.1"/>
			</g>
		</g>
		<g>
			
				<rect x="345.6" y="178.5" transform="matrix(0.9683 0.2497 -0.2497 0.9683 56.0513 -83.1558)" fill="#355570" width="20.3" height="1.7"/>
		</g>
		<g>
			
				<rect x="345.6" y="184.7" transform="matrix(0.9683 0.2497 -0.2497 0.9683 57.603 -82.9589)" fill="#355570" width="20.3" height="1.7"/>
		</g>
	</g>
	<path fill="#355570" d="M284.8,338.4H198c-2.8,0-5.1-2.3-5.1-5.1v-52.6c0-2.8,2.3-5.1,5.1-5.1h86.7c2.8,0,5.1,2.3,5.1,5.1v52.6
		C289.8,336.1,287.6,338.4,284.8,338.4z M198,276.9c-2.1,0-3.9,1.7-3.9,3.9v52.6c0,2.1,1.7,3.9,3.9,3.9h86.7c2.1,0,3.9-1.7,3.9-3.9
		v-52.6c0-2.1-1.7-3.9-3.9-3.9H198z"/>
	<g>
		<path fill="#355570" d="M220.7,358.6c-0.4,0-0.7-0.2-0.7-0.6c0-0.3,0.3-0.6,0.6-0.6h0c0,0,0.1,0,0.1,0c3.4,0,6.2-1.1,8.3-3.2
			c4.5-4.5,4.3-12.4,4.3-12.5c0-0.3,0.3-0.6,0.6-0.6c0,0,0,0,0,0c0.3,0,0.6,0.3,0.6,0.6c0,0.3,0.1,8.4-4.7,13.3
			C227.6,357.4,224.5,358.6,220.7,358.6z"/>
		<path fill="#355570" d="M262,358.6c-3.8,0-6.9-1.2-9.2-3.6c-4.8-4.9-4.7-13-4.7-13.3c0-0.3,0.3-0.6,0.6-0.6c0,0,0,0,0,0
			c0.3,0,0.6,0.3,0.6,0.6c0,0.1-0.1,7.9,4.3,12.5c2.1,2.1,4.9,3.2,8.3,3.2c0,0,0.1,0,0.1,0h0c0.3,0,0.6,0.3,0.6,0.6
			C262.8,358.4,262.4,358.7,262,358.6z"/>
		<path fill="#355570" d="M261.9,358.9h-41c-0.3,0-0.6-0.3-0.6-0.6c0-0.3,0.3-0.6,0.6-0.6h41c0.3,0,0.6,0.3,0.6,0.6
			C262.5,358.6,262.2,358.9,261.9,358.9z"/>
	</g>
	<path opacity="9.000000e-02" fill="#FF6F02" d="M399.5,247.5c38.8,53.2-20.3,112.3-73.5,73.5c-0.9-0.6-1.7-1.4-2.3-2.3
		c-38.8-53.2,20.3-112.3,73.5-73.5C398.1,245.9,398.9,246.6,399.5,247.5z"/>
</g>
</svg>
