<?xml version="1.0" encoding="utf-8"?>
<!-- Generator: Adobe Illustrator 18.1.0, SVG Export Plug-In . SVG Version: 6.00 Build 0)  -->
<!DOCTYPE svg PUBLIC "-//W3C//DTD SVG 1.1//EN" "http://www.w3.org/Graphics/SVG/1.1/DTD/svg11.dtd">
<svg version="1.1" id="Layer_1" xmlns="http://www.w3.org/2000/svg" xmlns:xlink="http://www.w3.org/1999/xlink" x="0px" y="0px"
	 viewBox="0 0 360 405.8" width="360" height="405.8" enable-background="new 0 0 360 405.8" xml:space="preserve">
<g>
	<g>
		<g>
			<path fill="#FFFFFF" d="M246.6,277c22-22,57.6-22,79.6,0"/>
		</g>
		<path fill="#355570" d="M246.6,278.6c-0.4,0-0.8-0.2-1.1-0.5c-0.6-0.6-0.6-1.6,0-2.2c10.9-10.9,25.4-16.9,40.9-16.9
			c15.4,0,30,6,40.9,16.9c0.6,0.6,0.6,1.6,0,2.2c-0.6,0.6-1.6,0.6-2.2,0c-10.3-10.3-24-16-38.6-16c-14.6,0-28.3,5.7-38.6,16
			C247.4,278.4,247,278.6,246.6,278.6z"/>
	</g>
	<g>
		<circle fill="#FFFFFF" cx="286.5" cy="228.1" r="21.2"/>
		<path fill="#355570" d="M286.5,250.8c-12.5,0-22.7-10.2-22.7-22.7c0-12.5,10.2-22.7,22.7-22.7s22.7,10.2,22.7,22.7
			C309.3,240.6,299,250.8,286.5,250.8z M286.5,208.5c-10.8,0-19.6,8.8-19.6,19.6c0,10.8,8.8,19.6,19.6,19.6s19.6-8.8,19.6-19.6
			C306.1,217.3,297.3,208.5,286.5,208.5z"/>
	</g>
	<polygon opacity="0.16" fill="#FF6F02" points="0,326.5 90.7,378.9 181.5,326.5 181.5,221.7 90.7,169.4 0,221.7 	"/>
	<polygon fill="#355570" points="90.4,405.8 17.5,363.7 18,362.8 90.4,404.5 202.7,339.7 202.7,210 90.4,145.2 54.3,166 53.7,165.1 
		90.4,144 90.6,144.1 203.7,209.4 203.7,340.3 203.4,340.5 	"/>
	<polygon fill="#355570" points="209.2,198.9 111.9,142.7 111.9,96.1 113,96.1 113,142.1 209.2,197.7 305.5,142.1 305.5,30.9 
		253.5,0.9 254,0 306.5,30.3 306.5,142.7 	"/>
	<polygon fill="#355570" points="287.5,335.9 214.8,293.9 214.8,209.9 287.5,167.8 360,209.7 359.5,210.6 287.5,169.1 215.8,210.5 
		215.8,293.3 287.5,334.7 323.7,313.8 324.2,314.7 	"/>
	<g>
		<g>
			<path fill="none" stroke="#355570" stroke-width="0.5" stroke-miterlimit="10" d="M288.8,297.6"/>
			<path fill="none" stroke="#355570" stroke-width="0.5" stroke-miterlimit="10" d="M288.8,246.7"/>
			<path fill="none" stroke="#355570" stroke-width="0.5" stroke-miterlimit="10" d="M244.6,221.2"/>
			<path fill="none" stroke="#355570" stroke-width="0.5" stroke-miterlimit="10" d="M288.8,246.7"/>
			<path fill="none" stroke="#355570" stroke-width="0.5" stroke-miterlimit="10" d="M332.9,221.2"/>
			<path fill="none" stroke="#355570" stroke-width="0.5" stroke-miterlimit="10" d="M288.8,246.7"/>
		</g>
	</g>
	<path fill="#FFFFFF" d="M144.9,299.7H42.2c-0.6,0-1.2-0.5-1.2-1.2v-65.2c0-0.6,0.5-1.2,1.2-1.2h102.8c0.6,0,1.2,0.5,1.2,1.2v65.2
		C146.1,299.2,145.6,299.7,144.9,299.7z"/>
	<g>
		<path fill="#355570" d="M70.9,322.6c-0.4,0-0.7-0.2-0.7-0.5c0-0.3,0.2-0.5,0.5-0.5h0c0,0,0.1,0,0.1,0c3.8,0,6.9-1.2,9.3-3.6
			c4.9-5,4.8-13.7,4.8-13.8c0-0.3,0.2-0.5,0.5-0.5c0.2,0,0.5,0.2,0.5,0.5c0,0.4,0.2,9.2-5.1,14.6C78.3,321.2,75,322.6,70.9,322.6z"
			/>
		<path fill="#355570" d="M116.2,322.6c-4.1,0-7.5-1.3-10-3.9c-5.3-5.3-5.1-14.2-5.1-14.6c0-0.3,0.2-0.5,0.5-0.5c0,0,0,0,0,0
			c0.3,0,0.5,0.2,0.5,0.5c0,0.1-0.1,8.8,4.8,13.8c2.3,2.4,5.4,3.6,9.3,3.6c0,0,0.1,0,0.1,0h0c0.3,0,0.5,0.2,0.5,0.5
			C116.9,322.4,116.6,322.6,116.2,322.6z"/>
		<path fill="#355570" d="M116.1,322.8H71c-0.3,0-0.5-0.2-0.5-0.5c0-0.3,0.2-0.5,0.5-0.5h45c0.3,0,0.5,0.2,0.5,0.5
			C116.6,322.6,116.4,322.8,116.1,322.8z"/>
	</g>
	<rect x="49.7" y="241.3" fill="#355570" width="87.7" height="8.3"/>
	<rect x="49.7" y="253.4" opacity="0.22" fill="#355570" width="87.7" height="37.8"/>
	<rect x="64.6" y="257.9" fill="none" width="99.8" height="52.2"/>
	<text transform="matrix(1 0 0 1 64.6405 285.481)" fill="#FF6F02" font-family="'OpenSans-Bold'" font-size="36.2962">&lt;/&gt;</text>
	<path opacity="9.000000e-02" fill="#4DB1DC" d="M167,39.3c51,70.8-27.4,149.2-98.2,98.2c-1.5-1.1-2.9-2.4-3.9-3.9
		C13.8,62.7,92.2-15.6,163,35.4C164.5,36.5,165.9,37.8,167,39.3z"/>
	<g>
		<g>
			<g>
				<rect x="211.7" y="39.9" fill="#65A832" width="3.2" height="56"/>
				<g>
					<circle fill="#65A832" cx="213.3" cy="40.3" r="7.2"/>
				</g>
			</g>
			<g>
				
					<rect x="187.5" y="81.9" transform="matrix(0.4995 0.8663 -0.8663 0.4995 189.8181 -108.8003)" fill="#4DB1DC" width="3.2" height="56"/>
				<g>
					<circle fill="#4DB1DC" cx="165.1" cy="123.7" r="7.2"/>
				</g>
			</g>
			<g>
				
					<rect x="209.6" y="108.3" transform="matrix(0.866 0.5 -0.5 0.866 86.7694 -104.0617)" fill="#FF6F02" width="56" height="3.2"/>
				<g>
					<circle fill="#FF6F02" cx="261.5" cy="123.7" r="7.2"/>
				</g>
			</g>
		</g>
	</g>
</g>
</svg>
