<?xml version="1.0" encoding="utf-8"?>
<!-- Generator: Adobe Illustrator 18.1.0, SVG Export Plug-In . SVG Version: 6.00 Build 0)  -->
<!DOCTYPE svg PUBLIC "-//W3C//DTD SVG 1.1//EN" "http://www.w3.org/Graphics/SVG/1.1/DTD/svg11.dtd">
<svg version="1.1" id="Artwork" xmlns="http://www.w3.org/2000/svg" xmlns:xlink="http://www.w3.org/1999/xlink" x="0px" y="0px"
	 viewBox="0 0 485 351.8" width="485" height="351.8" enable-background="new 0 0 485 351.8" xml:space="preserve">
<g>
	<g>
		<path d="M155.2,204.8v-0.3c0-27.1,20.9-49.8,50.4-49.8c29.6,0,50.2,22.4,50.2,49.5v0.3c0,27.1-20.9,49.8-50.4,49.8
			C175.8,254.2,155.2,231.8,155.2,204.8z M238,204.8v-0.3c0-18.7-13.6-34.2-32.7-34.2c-19.1,0-32.4,15.3-32.4,34v0.3
			c0,18.7,13.6,34.2,32.7,34.2C224.7,238.7,238,223.5,238,204.8z"/>
		<path d="M270.3,156.4h16.9v96.2h-16.9V156.4z"/>
		<path d="M301.8,204.8v-0.3c0-27.4,20.5-49.8,49.6-49.8c17.7,0,28.5,6.2,37.7,15l-10.9,12.5c-7.7-7.1-15.9-12-26.9-12
			c-18.4,0-31.8,15.1-31.8,34v0.3c0,18.8,13.3,34.2,31.8,34.2c11.8,0,19.4-4.8,27.6-12.5l10.9,11c-10,10.4-21,17-39,17
			C322.7,254.2,301.8,232.4,301.8,204.8z"/>
		<path d="M403.4,156.4h42.9c12.1,0,21.6,3.6,27.8,9.6c5.1,5.2,8,12.4,8,20.8v0.3c0,15.8-9.5,25.3-23,29.1l26,36.4h-19.9l-23.6-33.5
			h-0.3h-20.9v33.5h-16.9V156.4z M445,204.1c12.1,0,19.8-6.3,19.8-16.1v-0.3c0-10.3-7.4-15.9-19.9-15.9h-24.6v32.3H445z"/>
	</g>
	<path fill="#38793B" d="M116,194.1l-37.4-4.9c0.7-5.6,1.8-11.1,3.2-16.5l36.4,9.8C117.2,186.3,116.5,190.1,116,194.1z M61.3,289.6
		l-33.8,19.5c4.5,7.8,9.5,15.3,15,22.4l31-23.8C69,302,65,296,61.3,289.6z M87.7,87.6L60.4,60.4c6.4-6.4,13.1-12.3,20.3-17.8
		l23.5,30.5C98.4,77.6,92.9,82.5,87.7,87.6z M270.9,51.2l14.8-35.3c-8.2-3.4-16.8-6.4-25.5-8.7l-10,36.9
		C257.3,46,264.2,48.4,270.9,51.2z M38.9,206.1l-38.9,0c0,0,0,0.1,0,0.1c0,9.1,0.6,18,1.7,26.7l38.6-5
		C39.4,220.8,38.9,213.5,38.9,206.1z M206.4,38.3c0.1,0,0.2,0,0.4,0l0-38.3c-0.2,0-0.4,0-0.6,0c-9.1,0-18.1,0.6-26.9,1.7l5,38
		C191.5,38.8,198.9,38.3,206.4,38.3z M189.3,78.1l-5-38.3c-7.3,1-14.5,2.4-21.5,4.3l10,37.3C178.1,79.9,183.6,78.8,189.3,78.1z
		 M127.7,103.8l-23.5-30.6c-5.8,4.5-11.3,9.3-16.5,14.5L115,115C119,111,123.2,107.2,127.7,103.8z M285.2,103.8l23.6-30.6
		c-5.8-4.5-11.9-8.6-18.2-12.3l-19.4,33.4C276,97.2,280.7,100.3,285.2,103.8z M81.8,172.7l-37.3-10c-1.9,7-3.3,14.1-4.2,21.5l38.3,5
		C79.3,183.6,80.4,178.1,81.8,172.7z M122,171.3l-34.8-14.5c-2.1,5.1-3.9,10.4-5.4,15.9l36.4,9.8C119.3,178.7,120.5,174.9,122,171.3
		z M171.2,121.7l-14.4-34.8c-5.2,2.2-10.2,4.7-15.1,7.5l18.9,32.6C164,125,167.6,123.2,171.2,121.7z M122.2,240.9l-34.9,14.4
		c2.2,5.2,4.7,10.2,7.4,15l32.7-18.9C125.5,248,123.7,244.5,122.2,240.9z M44.5,162.7L7,152.7c-2.3,8.6-4.1,17.4-5.3,26.4l38.5,5
		C41.2,176.9,42.6,169.7,44.5,162.7z M94.8,270.3l-33.5,19.3C65,296,69,302,73.5,307.8l30.7-23.5C100.7,279.8,97.6,275.2,94.8,270.3
		z M194.1,115.5l-4.9-37.4c-5.6,0.7-11.2,1.9-16.5,3.3l9.7,36.4C186.3,116.8,190.2,116,194.1,115.5z"/>
	
		<radialGradient id="SVGID_1_" cx="206.0512" cy="206.1842" r="205.9912" fx="206.1894" fy="206.3056" gradientUnits="userSpaceOnUse">
		<stop  offset="0" style="stop-color:#FFFFFF"/>
		<stop  offset="7.311704e-02" style="stop-color:#F9FBF5"/>
		<stop  offset="0.1917" style="stop-color:#EDF5E2"/>
		<stop  offset="0.341" style="stop-color:#DCECC5"/>
		<stop  offset="0.515" style="stop-color:#C5DF9C"/>
		<stop  offset="0.7074" style="stop-color:#A7D16A"/>
		<stop  offset="0.8611" style="stop-color:#8DC63F"/>
		<stop  offset="1" style="stop-color:#8DC63F"/>
	</radialGradient>
	<path fill="url(#SVGID_1_)" d="M73.3,104.2L42.6,80.6c-5.5,7.1-10.5,14.6-15,22.4l33.5,19.4C64.8,116,68.8,110,73.3,104.2z
		 M44.6,249.4l-37.7,10c-2.3-8.6-4.1-17.4-5.2-26.5l38.6-5C41.3,235.2,42.7,242.4,44.6,249.4z M87.9,324.3l-27.6,27.6
		c-6.4-6.4-12.3-13.1-17.8-20.3l31-23.8C77.9,313.6,82.7,319.1,87.9,324.3z M290.6,60.9l19.2-33c7.8,4.5,15.3,9.6,22.4,15.1
		l-23.4,30.2C303,68.7,296.9,64.6,290.6,60.9z M142,51.1l-14.7-35.5c8.3-3.4,16.8-6.3,25.5-8.7l9.9,37.1
		C155.6,46,148.7,48.3,142,51.1z M206.8,76.9l0-38.6c7.4,0,14.7,0.5,21.9,1.5l-5.1,38.3C218.1,77.3,212.5,76.9,206.8,76.9z
		 M94.6,141.8l-33.5-19.4c3.7-6.4,7.7-12.4,12.2-18.2l30.6,23.5C100.5,132.2,97.4,136.9,94.6,141.8z M81.9,239.4l-37.3,9.9
		c-1.9-7-3.3-14.1-4.3-21.4l38.3-5C79.4,228.6,80.5,234.1,81.9,239.4z M81.8,172.7l-37.3-10c1.9-7.1,4.2-14,7-20.7l35.7,14.8
		C85,162,83.3,167.3,81.8,172.7z M156.8,86.8L142,51.1c6.7-2.8,13.6-5.2,20.7-7.1l10,37.3C167.3,82.9,161.9,84.7,156.8,86.8z
		 M127.7,103.8l-23.5-30.6c5.8-4.5,11.9-8.6,18.2-12.2l19.4,33.5C136.8,97.2,132.2,100.3,127.7,103.8z M127.9,308.1l-23.6,30.6
		c-5.8-4.5-11.3-9.3-16.5-14.4l27.3-27.3C119.2,301,123.4,304.7,127.9,308.1z M230.2,117.8l9.8-36.4c5.5,1.5,10.8,3.3,15.9,5.4
		l-14.6,34.8C237.8,120.1,234.1,118.8,230.2,117.8z M118.4,229.7l-36.4,9.7c-1.4-5.3-2.5-10.8-3.3-16.4l37.4-4.8
		C116.6,222.1,117.4,225.9,118.4,229.7z M134,261.3l-29.9,23c-3.4-4.4-6.5-9.1-9.3-14l32.7-18.9C129.4,254.9,131.6,258.2,134,261.3z
		 M194.1,115.5l-4.9-37.4c5.6-0.8,11.4-1.2,17.2-1.2c0.1,0,0.3,0,0.4,0l0,37.7c-0.1,0-0.3,0-0.4,0
		C202.3,114.6,198.2,114.9,194.1,115.5z M171.2,121.7l-14.4-34.8c5.1-2.1,10.5-4,15.9-5.4l9.7,36.4
		C178.6,118.9,174.9,120.2,171.2,121.7z M133.8,150.7l-29.9-23c3.4-4.5,7.1-8.8,11.1-12.8l26.7,26.7
		C138.8,144.5,136.2,147.5,133.8,150.7z M116.1,218.1L78.7,223c-0.7-5.5-1.2-11.2-1.2-16.9l37.7,0
		C115.2,210.1,115.5,214.2,116.1,218.1z"/>
	<path d="M160.6,127l-18.9-32.6c-4.9,2.8-9.6,6-14,9.4l23,29.9C153.8,131.2,157.1,129,160.6,127z M115.2,297l-27.3,27.3
		c-5.2-5.2-10-10.7-14.4-16.5l30.7-23.5C107.5,288.8,111.2,293,115.2,297z M206.4,76.9c0.1,0,0.3,0,0.4,0l0-38.6c-0.1,0-0.2,0-0.4,0
		c-7.5,0-14.9,0.5-22.2,1.5l5,38.3C194.9,77.3,200.6,76.9,206.4,76.9z M94.6,141.8l-33.5-19.4c-3.6,6.3-6.8,12.9-9.6,19.6l35.7,14.8
		C89.3,151.6,91.8,146.6,94.6,141.8z M271.1,94.3l19.4-33.4c-6.3-3.7-12.9-6.9-19.6-9.8L256,86.8C261.2,89,266.3,91.5,271.1,94.3z
		 M81.9,239.4l-37.3,9.9c1.9,7.1,4.3,14,7,20.7l35.7-14.8C85.2,250.2,83.4,244.9,81.9,239.4z M133.8,150.7l-29.9-23
		c-3.4,4.5-6.5,9.2-9.3,14.1l32.6,18.9C129.2,157.2,131.4,153.9,133.8,150.7z M115.2,205.9c0-4,0.3-7.9,0.8-11.8l-37.4-4.9
		c-0.7,5.5-1.1,11-1.1,16.7c0,0.1,0,0.1,0,0.2l37.7,0C115.2,206,115.2,205.9,115.2,205.9z M230.2,117.8l9.8-36.4
		c-5.4-1.4-10.9-2.6-16.5-3.3l-5,37.4C222.5,116,226.4,116.8,230.2,117.8z"/>
</g>
<g>
	<g>
		<path d="M173.7,295c-6.9,0-11.8-5-11.8-12.7c0-6.8,4-12.8,11.7-12.8c7.9,0,11.6,6.4,11.6,12.6C185.4,289.5,181,295,173.7,295z
			 M173.7,271.6c-5,0-8.2,4.6-8.2,10.6c0,6.9,3.8,10.7,8.3,10.7c5.2,0,8.1-4.6,8.1-10.8C181.9,276.8,179.3,271.6,173.7,271.6z"/>
		<path d="M204,294.3h-3.1v-9.8c0-1.9,0-2.8-0.2-3.7c-0.5-1.9-2.4-2.3-3.4-2.3c-1.7,0-3.5,0.9-4.7,2.9v12.9h-3.1v-17.3h3.1v2.4
			c0.7-0.9,2.3-3.1,5.9-3.1c2.5,0,3.6,1,4,1.3c1.4,1.3,1.5,3,1.5,4.6V294.3z"/>
		<path d="M212.3,288.8c0,2.2,0,4.4,2.5,4.4c0.9,0,1.5-0.3,2.1-0.6c0.1,0.2,0.3,0.6,0.5,0.8c-0.6,0.5-1.7,1.5-3.7,1.5
			c-1.3,0-2.3-0.5-2.8-0.8c-1.4-1-1.5-2.4-1.5-4.5v-10.8h-2.4v-2h2.4v-4.6h3.1v4.6h3.6v2h-3.6V288.8z"/>
		<path d="M232.4,294.3h-3v-2c-1.8,2.5-4.1,2.7-5.4,2.7c-4.1,0-6.1-2.6-6.1-5.4c0-2.9,2.2-6.1,7.7-6.1c0.5,0,1.7,0,3.8,0.5
			c0-1.4,0-2.5-0.8-3.6c-0.3-0.4-1.2-1.7-3.5-1.7c-2.3,0-4.1,1.1-5.3,3.1c-0.2-0.1-0.6-0.2-0.9-0.3c0.9-3.4,3.3-5.2,6.9-5.2
			c0.7,0,3.5,0,5.3,2.2c1.3,1.6,1.3,3.4,1.3,5.4V294.3z M229.4,285.9c-0.6-0.1-1.9-0.5-3.5-0.5c-3.6,0-4.8,2.2-4.8,3.9
			c0,2.2,1.9,3.6,3.8,3.6c2.3,0,3.9-1.6,4.4-2.1V285.9z"/>
		<path d="M239.7,294.3h-3.1v-17.3h3.1v2.4c0.6-0.8,1.9-2.8,4.4-2.8c0.9,0,1.3,0.2,1.8,0.4v2.8c-0.5-0.2-1.5-0.7-2.7-0.7
			c-2.1,0-3.2,1.6-3.6,2.1V294.3z"/>
		<path d="M249.9,270c1.1,0,1.8,0.9,1.8,1.8c0,1.6-1.3,1.9-1.8,1.9c-0.9,0-1.8-0.7-1.8-1.8C248,270.8,248.8,270,249.9,270z
			 M251.4,294.3h-3.1v-17.4h3.1V294.3z"/>
		<path d="M269.1,292c-0.9,1.1-2.9,3-6.6,3c-1.4,0-3.5-0.3-5.4-1.9c-2.6-2.2-2.8-5.6-2.8-7.2c0-6.7,3.9-9.7,8.5-9.7
			c5.1,0,8.2,3.8,8.2,9.1C271,288.3,270.3,290.5,269.1,292z M262.7,278.1c-3.8,0-5.1,3.7-5.1,7.4c0,2.2,0.4,3.7,0.7,4.4
			c0.9,2.3,2.7,3.3,4.4,3.3c2.7,0,5.1-2,5.1-7.6C267.7,281.6,266.2,278.1,262.7,278.1z"/>
		<path d="M289.1,294.3h-3.3v-24h3.3V294.3z"/>
		<path d="M308.1,294.3h-3.1v-9.8c0-1.9,0-2.8-0.2-3.7c-0.5-1.9-2.4-2.3-3.4-2.3c-1.7,0-3.5,0.9-4.7,2.9v12.9h-3.1v-17.3h3.1v2.4
			c0.7-0.9,2.3-3.1,5.9-3.1c2.5,0,3.6,1,4,1.3c1.4,1.3,1.5,3,1.5,4.6V294.3z"/>
		<path d="M323.5,281.3c-0.6-1-1.8-2.9-5-2.9c-2.2,0-3.7,1.1-3.7,2.7c0,1.4,1.2,2.1,2.9,2.7c0.1,0,1.6,0.5,1.8,0.5
			c1.7,0.5,5.2,1.5,5.2,5.2c0,1.6-0.7,3-1.9,4c-1.4,1.1-3.2,1.5-5,1.5c-1.7,0-3.4-0.4-4.8-1.4c-1.8-1.4-2.1-3.1-2.3-4
			c0.3-0.1,0.7-0.2,0.9-0.3c0.3,0.5,0.7,1.2,1.5,1.9c1.1,1,2.8,1.6,4.5,1.6c2.4,0,3.9-1.2,3.9-2.9c0-1.6-1.3-2.3-1.7-2.6
			c-0.7-0.3-1.6-0.6-3.4-1.2c-1.7-0.5-4.7-1.5-4.7-4.8c0-2.9,2.4-5.1,6.3-5.1c1.4,0,3,0.3,4.3,1.2c1.8,1.2,2,2.9,2.1,3.6
			C324.1,281.1,323.7,281.2,323.5,281.3z"/>
		<path d="M331.4,288.8c0,2.2,0,4.4,2.5,4.4c0.9,0,1.5-0.3,2.1-0.6c0.1,0.2,0.3,0.6,0.5,0.8c-0.6,0.5-1.7,1.5-3.7,1.5
			c-1.3,0-2.3-0.5-2.8-0.8c-1.4-1-1.5-2.4-1.5-4.5v-10.8h-2.4v-2h2.4v-4.6h3.1v4.6h3.6v2h-3.6V288.8z"/>
		<path d="M339.3,270c1.1,0,1.8,0.9,1.8,1.8c0,1.6-1.3,1.9-1.8,1.9c-0.9,0-1.8-0.7-1.8-1.8C337.5,270.8,338.2,270,339.3,270z
			 M340.8,294.3h-3.1v-17.4h3.1V294.3z"/>
		<path d="M349.1,288.8c0,2.2,0,4.4,2.5,4.4c0.9,0,1.5-0.3,2.1-0.6c0.1,0.2,0.3,0.6,0.5,0.8c-0.6,0.5-1.7,1.5-3.7,1.5
			c-1.3,0-2.3-0.5-2.8-0.8c-1.4-1-1.5-2.4-1.5-4.5v-10.8h-2.4v-2h2.4v-4.6h3.1v4.6h3.6v2h-3.6V288.8z"/>
		<path d="M369.9,276.9v17.3h-3.1v-2.2c-0.5,0.8-1.9,2.9-5.4,2.9c-2.1,0-3.8-0.9-4.7-1.9c-1-1.3-1.2-2.8-1.2-4.7v-11.4h3.1V287
			c0,1.9,0.1,3,0.5,3.9c0.4,0.9,1.5,1.9,3.3,1.9c0.4,0,2.6,0,4.5-2.3v-13.6H369.9z"/>
		<path d="M377.5,288.8c0,2.2,0,4.4,2.5,4.4c0.9,0,1.5-0.3,2.1-0.6c0.1,0.2,0.3,0.6,0.5,0.8c-0.6,0.5-1.7,1.5-3.7,1.5
			c-1.3,0-2.3-0.5-2.8-0.8c-1.4-1-1.5-2.4-1.5-4.5v-10.8h-2.4v-2h2.4v-4.6h3.1v4.6h3.6v2h-3.6V288.8z"/>
		<path d="M385.6,285.6c0.1,1,0.2,3,1.5,4.8c1.7,2.2,4.2,2.2,4.7,2.2c3.7,0,5.4-2.6,6-3.5c0.2,0.1,0.6,0.3,0.9,0.3
			c-0.3,1.2-1.7,5.6-7.6,5.6c-4.6,0-8.7-3.1-8.7-9.3c0-6,4-9.5,8.7-9.5c2.2,0,4.1,0.7,5.4,2c2.7,2.5,2.6,6.2,2.6,7.4H385.6z
			 M396,283.7c-0.2-4.4-3.3-5.4-5-5.4c-2.1,0-4.8,1.4-5.3,5.4H396z"/>
		<path d="M168.4,329.9h-3.1v-15.4h-2.5v-2h2.5v-2.1c0-1.6,0-3.2,1.6-4.3c0.6-0.4,1.6-1,3.1-1c2.1,0,3,1.1,3.4,1.5
			c-0.1,0.2-0.4,0.5-0.5,0.7c-0.5-0.2-1.1-0.4-1.9-0.4c-1.1,0-1.8,0.5-2.1,1.1c-0.4,0.6-0.4,1.4-0.4,2.9v1.7h3.6v2h-3.6V329.9z"/>
		<path d="M187.3,327.6c-0.9,1.1-2.9,3-6.6,3c-1.4,0-3.5-0.3-5.4-1.9c-2.6-2.2-2.8-5.6-2.8-7.2c0-6.7,3.9-9.7,8.5-9.7
			c5.1,0,8.2,3.8,8.2,9.1C189.1,323.9,188.4,326.1,187.3,327.6z M180.8,313.7c-3.8,0-5.1,3.7-5.1,7.4c0,2.2,0.4,3.7,0.7,4.4
			c0.9,2.3,2.7,3.3,4.4,3.3c2.7,0,5.1-2,5.1-7.6C185.8,317.2,184.3,313.7,180.8,313.7z"/>
		<path d="M195.8,329.9h-3.1v-17.3h3.1v2.4c0.6-0.8,1.9-2.8,4.4-2.8c0.9,0,1.3,0.2,1.8,0.4v2.8c-0.5-0.2-1.5-0.7-2.7-0.7
			c-2.1,0-3.2,1.6-3.6,2.1V329.9z"/>
		<path d="M232.6,328.5c-2.3,1.9-5,2-6.4,2c-7.9,0-11.7-6.2-11.7-12.6c0-6.8,4.1-12.8,11.9-12.8c2.9,0,4.9,0.9,6.3,2.1
			c1.9,1.6,2.3,3.4,2.5,4.3c-0.2,0.1-0.6,0.3-0.9,0.4c-0.7-1.2-2.8-4.4-7.6-4.4c-5.9,0-8.8,4.5-8.8,10.4c0,6.6,4,10.4,8.8,10.4
			c4.8,0,7.1-3.4,7.7-4.4c0.3,0.1,0.7,0.3,0.9,0.4C235.1,325.2,234.5,326.9,232.6,328.5z"/>
		<path d="M251.7,329.9h-3v-2c-1.8,2.5-4.1,2.7-5.4,2.7c-4.1,0-6.1-2.6-6.1-5.4c0-2.9,2.2-6.1,7.7-6.1c0.5,0,1.7,0,3.8,0.5
			c0-1.4,0-2.5-0.8-3.6c-0.3-0.4-1.2-1.7-3.5-1.7c-2.4,0-4.1,1.1-5.3,3.1c-0.2-0.1-0.6-0.2-0.9-0.3c0.9-3.4,3.3-5.2,6.9-5.2
			c0.7,0,3.5,0,5.3,2.2c1.3,1.6,1.3,3.4,1.3,5.4V329.9z M248.7,321.5c-0.6-0.1-1.9-0.5-3.5-0.5c-3.6,0-4.8,2.2-4.8,3.9
			c0,2.2,1.9,3.6,3.8,3.6c2.3,0,3.9-1.6,4.4-2.1V321.5z"/>
		<path d="M270.3,329.9h-3.1V320c0-1.9,0-2.8-0.2-3.7c-0.5-1.9-2.4-2.3-3.4-2.3c-1.7,0-3.5,0.9-4.7,2.9v12.9h-3.1v-17.3h3.1v2.4
			c0.7-0.9,2.3-3.1,5.9-3.1c2.5,0,3.6,1,4,1.3c1.4,1.3,1.5,3,1.5,4.6V329.9z"/>
		<path d="M286.5,328.9c-0.6,0.5-2.1,1.7-5.1,1.7c-4.9,0-8.2-3.6-8.2-9.1c0-5.4,3.2-9.6,8.6-9.6c1.6,0,3.2,0.4,4.5,1.3
			c2,1.4,2.3,3.3,2.5,4.2c-0.3,0.1-0.7,0.2-1,0.3c-0.5-0.9-1.1-1.9-2.2-2.7c-1-0.7-2.2-1-3.3-1c-3.1,0-5.9,2.5-5.9,7.1
			c0,4.8,2.8,7.2,5.7,7.2c1.3,0,2.4-0.4,3.4-1.1c1.4-1,1.9-1.9,2.2-2.6c0.3,0.1,0.7,0.2,1,0.3C288.5,326,288,327.6,286.5,328.9z"/>
		<path d="M293.8,321.2c0.1,1,0.2,3,1.5,4.8c1.7,2.2,4.2,2.2,4.7,2.2c3.7,0,5.4-2.6,6-3.5c0.2,0.1,0.6,0.3,0.9,0.3
			c-0.3,1.2-1.7,5.6-7.6,5.6c-4.6,0-8.7-3.1-8.7-9.3c0-6,4-9.5,8.7-9.5c2.2,0,4.1,0.7,5.4,2c2.7,2.5,2.6,6.2,2.6,7.4H293.8z
			 M304.2,319.3c-0.2-4.4-3.3-5.4-5-5.4c-2.1,0-4.8,1.4-5.3,5.4H304.2z"/>
		<path d="M313.3,329.9h-3.1v-17.3h3.1v2.4c0.6-0.8,1.9-2.8,4.4-2.8c0.9,0,1.3,0.2,1.8,0.4v2.8c-0.5-0.2-1.5-0.7-2.7-0.7
			c-2.1,0-3.2,1.6-3.6,2.1V329.9z"/>
		<path d="M351.2,329.9h-3.6l-6.4-11.1c-0.6,0.1-1.3,0.2-3.1,0.2c-0.7,0-1.1,0-1.6-0.1v10.9h-3.3v-24h6.5c3.5,0,5.2,0.3,6.7,1.4
			c1.5,1.1,2.3,2.9,2.3,4.8c0,1.4-0.4,2.8-1.2,3.8c-1.1,1.5-2.5,2-3.2,2.3L351.2,329.9z M336.4,317.7c5.6,0.1,8.9-2.1,8.9-5.6
			c0-0.8-0.2-1.8-1-2.7c-1.1-1.3-2.6-1.6-4.6-1.6h-3.3V317.7z"/>
		<path d="M353.9,321.2c0.1,1,0.2,3,1.5,4.8c1.7,2.2,4.2,2.2,4.7,2.2c3.7,0,5.4-2.6,6-3.5c0.2,0.1,0.6,0.3,0.9,0.3
			c-0.3,1.2-1.7,5.6-7.6,5.6c-4.6,0-8.7-3.1-8.7-9.3c0-6,4-9.5,8.7-9.5c2.2,0,4.1,0.7,5.4,2c2.7,2.5,2.6,6.2,2.6,7.4H353.9z
			 M364.2,319.3c-0.2-4.4-3.3-5.4-5-5.4c-2.1,0-4.8,1.4-5.3,5.4H364.2z"/>
		<path d="M381.2,316.9c-0.6-1-1.8-2.9-5-2.9c-2.2,0-3.7,1.1-3.7,2.7c0,1.4,1.2,2.1,2.9,2.7c0.1,0,1.6,0.5,1.8,0.5
			c1.7,0.5,5.2,1.5,5.2,5.2c0,1.6-0.7,3-1.9,4c-1.4,1.1-3.2,1.5-5,1.5c-1.7,0-3.4-0.4-4.8-1.4c-1.8-1.4-2.1-3.1-2.3-4
			c0.3-0.1,0.7-0.2,0.9-0.3c0.3,0.5,0.7,1.2,1.5,1.9c1.1,1,2.8,1.6,4.5,1.6c2.4,0,3.9-1.2,3.9-2.9c0-1.6-1.3-2.3-1.7-2.6
			c-0.7-0.3-1.6-0.6-3.4-1.2c-1.7-0.5-4.7-1.5-4.7-4.8c0-2.9,2.4-5.1,6.3-5.1c1.4,0,3,0.3,4.3,1.2c1.8,1.2,2,2.9,2.1,3.6
			C381.9,316.7,381.5,316.8,381.2,316.9z"/>
		<path d="M387.9,321.2c0.1,1,0.2,3,1.5,4.8c1.7,2.2,4.2,2.2,4.7,2.2c3.7,0,5.4-2.6,6-3.5c0.2,0.1,0.6,0.3,0.9,0.3
			c-0.3,1.2-1.7,5.6-7.6,5.6c-4.6,0-8.7-3.1-8.7-9.3c0-6,4-9.5,8.7-9.5c2.2,0,4.1,0.7,5.4,2c2.7,2.5,2.6,6.2,2.6,7.4H387.9z
			 M398.3,319.3c-0.2-4.4-3.3-5.4-5-5.4c-2.1,0-4.8,1.4-5.3,5.4H398.3z"/>
		<path d="M416.8,329.9h-3v-2c-1.8,2.5-4.1,2.7-5.4,2.7c-4.1,0-6.1-2.6-6.1-5.4c0-2.9,2.2-6.1,7.7-6.1c0.5,0,1.7,0,3.8,0.5
			c0-1.4,0-2.5-0.8-3.6c-0.3-0.4-1.2-1.7-3.5-1.7c-2.4,0-4.1,1.1-5.3,3.1c-0.2-0.1-0.6-0.2-0.9-0.3c0.9-3.4,3.3-5.2,6.9-5.2
			c0.7,0,3.5,0,5.3,2.2c1.3,1.6,1.3,3.4,1.3,5.4V329.9z M413.9,321.5c-0.6-0.1-1.9-0.5-3.5-0.5c-3.6,0-4.8,2.2-4.8,3.9
			c0,2.2,1.9,3.6,3.8,3.6c2.3,0,3.9-1.6,4.4-2.1V321.5z"/>
		<path d="M423.5,329.9h-3.1v-17.3h3.1v2.4c0.6-0.8,1.9-2.8,4.4-2.8c0.9,0,1.3,0.2,1.8,0.4v2.8c-0.5-0.2-1.5-0.7-2.7-0.7
			c-2.1,0-3.2,1.6-3.6,2.1V329.9z"/>
		<path d="M443.2,328.9c-0.6,0.5-2.1,1.7-5.1,1.7c-4.9,0-8.2-3.6-8.2-9.1c0-5.4,3.2-9.6,8.6-9.6c1.6,0,3.2,0.4,4.5,1.3
			c2,1.4,2.3,3.3,2.5,4.2c-0.3,0.1-0.7,0.2-1,0.3c-0.5-0.9-1.1-1.9-2.2-2.7c-1-0.7-2.2-1-3.3-1c-3.1,0-5.9,2.5-5.9,7.1
			c0,4.8,2.8,7.2,5.7,7.2c1.3,0,2.4-0.4,3.4-1.1c1.4-1,1.9-1.9,2.2-2.6c0.3,0.1,0.7,0.2,1,0.3C445.1,326,444.7,327.6,443.2,328.9z"
			/>
		<path d="M462.5,329.9h-3.1v-11.1c0-1.7,0-4.7-3.5-4.7c-1.5,0-2.5,0.6-2.8,0.9c-1,0.6-2,2-2,2.1v12.8h-3.1v-24.1h3.1v9.3
			c1-1.3,2.7-3.3,6.1-3.3c1.4,0,2.8,0.4,3.8,1.4c1.4,1.4,1.5,3,1.5,4.4V329.9z"/>
	</g>
</g>
</svg>
