<?xml version="1.0" encoding="utf-8"?>
<!-- Generator: Adobe Illustrator 18.1.0, SVG Export Plug-In . SVG Version: 6.00 Build 0)  -->
<!DOCTYPE svg PUBLIC "-//W3C//DTD SVG 1.1//EN" "http://www.w3.org/Graphics/SVG/1.1/DTD/svg11.dtd">
<svg version="1.1" id="Layer_1" xmlns="http://www.w3.org/2000/svg" xmlns:xlink="http://www.w3.org/1999/xlink" x="0px" y="0px"
	 viewBox="0 0 760.2 91.4" width="760.2" height="91.4" enable-background="new 0 0 760.2 91.4" xml:space="preserve">
<g>
	<g>
		<path fill="#BF063B" d="M183.5,13.1h5v22.3h-5l-10.6-14v14h-5V13.1h4.7l10.9,14.4V13.1z"/>
		<path fill="#BF063B" d="M209.8,35.4l-2.1-4.8h-9.4l-2.1,4.8H191l9.6-22.3h4.8l9.6,22.3H209.8z M203.1,19.7l-2.8,6.5h5.6
			L203.1,19.7z"/>
		<path fill="#BF063B" d="M225.5,17.4v18h-5v-18h-6.3v-4.3h17.6v4.3H225.5z"/>
		<path fill="#BF063B" d="M235.5,13.1h5v22.3h-5V13.1z"/>
		<path fill="#BF063B" d="M264.7,32.3c-2.3,2.2-5,3.3-8.3,3.3c-3.3,0-6.1-1.1-8.3-3.3c-2.3-2.2-3.4-4.9-3.4-8.2s1.1-6,3.4-8.2
			c2.3-2.2,5-3.3,8.3-3.3c3.3,0,6.1,1.1,8.3,3.3c2.3,2.2,3.4,4.9,3.4,8.2S267,30.1,264.7,32.3z M263.1,24.1c0-2-0.6-3.7-1.9-5.1
			c-1.3-1.4-2.8-2.1-4.7-2.1c-1.9,0-3.4,0.7-4.7,2.1c-1.3,1.4-1.9,3.1-1.9,5.1c0,2,0.6,3.7,1.9,5.1c1.3,1.4,2.8,2.1,4.7,2.1
			c1.9,0,3.4-0.7,4.7-2.1C262.4,27.8,263.1,26.1,263.1,24.1z"/>
		<path fill="#BF063B" d="M288,13.1h5v22.3h-5l-10.6-14v14h-5V13.1h4.7L288,27.4V13.1z"/>
		<path fill="#BF063B" d="M314.3,35.4l-2.1-4.8h-9.4l-2.1,4.8h-5.3l9.6-22.3h4.8l9.6,22.3H314.3z M307.6,19.7l-2.8,6.5h5.6
			L307.6,19.7z"/>
		<path fill="#BF063B" d="M322.2,35.4V13.1h5v17.9h9.5v4.4H322.2z"/>
		<path fill="#BF063B" d="M359,31c2.4,0,4.4-1,6-2.9l3.2,3.3c-2.5,2.9-5.5,4.3-9,4.3c-3.4,0-6.3-1.1-8.5-3.3
			c-2.2-2.2-3.3-4.9-3.3-8.2c0-3.3,1.1-6.1,3.4-8.3c2.3-2.2,5-3.3,8.3-3.3c3.7,0,6.7,1.4,9.2,4.2l-3.1,3.5c-1.6-2-3.5-2.9-5.9-2.9
			c-1.9,0-3.5,0.6-4.8,1.8c-1.3,1.2-2,2.9-2,4.9c0,2.1,0.6,3.7,1.9,5C355.7,30.3,357.2,31,359,31z"/>
		<path fill="#BF063B" d="M387.9,35.4l-2.1-4.8h-9.4l-2.1,4.8h-5.3l9.6-22.3h4.8l9.6,22.3H387.9z M381.1,19.7l-2.8,6.5h5.6
			L381.1,19.7z"/>
		<path fill="#BF063B" d="M411.4,13.1h5v22.3h-5l-10.6-14v14h-5V13.1h4.7l10.9,14.4V13.1z"/>
		<path fill="#BF063B" d="M432.1,31c2.4,0,4.4-1,6-2.9l3.2,3.3c-2.5,2.9-5.5,4.3-9,4.3s-6.3-1.1-8.5-3.3c-2.2-2.2-3.3-4.9-3.3-8.2
			c0-3.3,1.1-6.1,3.4-8.3c2.3-2.2,5-3.3,8.3-3.3c3.7,0,6.7,1.4,9.2,4.2l-3.1,3.5c-1.6-2-3.5-2.9-5.9-2.9c-1.9,0-3.5,0.6-4.8,1.8
			c-1.3,1.2-2,2.9-2,4.9c0,2.1,0.6,3.7,1.9,5C428.8,30.3,430.3,31,432.1,31z"/>
		<path fill="#BF063B" d="M461.3,13.1v4.4h-11.1v4.6h10v4.2h-10V31h11.5v4.4h-16.4V13.1H461.3z"/>
		<path fill="#BF063B" d="M484.2,20.5c0,3.6-1.4,5.9-4.2,6.9l5.7,8h-6.1l-4.9-7.1h-3.4v7.1h-5V13.1h8.5c3.5,0,5.9,0.6,7.4,1.8
			C483.5,16,484.2,17.9,484.2,20.5z M478.2,23.1c0.6-0.6,0.9-1.4,0.9-2.6c0-1.2-0.3-2-1-2.5c-0.6-0.4-1.8-0.7-3.4-0.7h-3.7v6.6h3.6
			C476.4,23.9,477.6,23.7,478.2,23.1z"/>
		<path fill="#BF063B" d="M497.7,13.1h5v22.3h-5V13.1z"/>
		<path fill="#BF063B" d="M523.8,13.1h5v22.3h-5l-10.6-14v14h-5V13.1h4.7l10.9,14.4V13.1z"/>
		<path fill="#BF063B" d="M539.5,17.5c-0.5,0.4-0.7,0.9-0.7,1.6c0,0.6,0.3,1.2,0.9,1.5c0.6,0.4,1.9,0.8,4.1,1.4
			c2.1,0.5,3.8,1.3,4.9,2.3c1.2,1,1.8,2.6,1.8,4.6c0,2-0.8,3.6-2.3,4.9c-1.5,1.2-3.5,1.9-5.9,1.9c-3.5,0-6.7-1.3-9.5-3.9l3-3.6
			c2.4,2.1,4.6,3.2,6.7,3.2c0.9,0,1.6-0.2,2.2-0.6c0.5-0.4,0.8-0.9,0.8-1.6c0-0.7-0.3-1.2-0.8-1.6c-0.6-0.4-1.6-0.8-3.3-1.2
			c-2.6-0.6-4.5-1.4-5.7-2.4c-1.2-1-1.8-2.5-1.8-4.7c0-2.1,0.8-3.8,2.3-4.9c1.5-1.1,3.4-1.7,5.7-1.7c1.5,0,3,0.3,4.5,0.8
			c1.5,0.5,2.8,1.2,3.9,2.2l-2.5,3.6c-1.9-1.5-3.9-2.2-6-2.2C540.6,16.9,540,17.1,539.5,17.5z"/>
		<path fill="#BF063B" d="M563.9,17.4v18h-5v-18h-6.3v-4.3h17.6v4.3H563.9z"/>
		<path fill="#BF063B" d="M573.9,13.1h5v22.3h-5V13.1z"/>
		<path fill="#BF063B" d="M593.8,17.4v18h-5v-18h-6.3v-4.3h17.6v4.3H593.8z"/>
		<path fill="#BF063B" d="M609.7,29.6c0.8,1,1.9,1.5,3.4,1.5c1.4,0,2.5-0.5,3.3-1.5c0.8-1,1.2-2.4,1.2-4.2V13.1h5v12.5
			c0,3.2-0.9,5.7-2.7,7.5c-1.8,1.7-4.1,2.6-6.9,2.6s-5.1-0.9-6.9-2.6c-1.8-1.7-2.7-4.2-2.7-7.4V13.1h5v12.3
			C608.4,27.2,608.8,28.6,609.7,29.6z"/>
		<path fill="#BF063B" d="M637.2,17.4v18h-5v-18h-6.3v-4.3h17.6v4.3H637.2z"/>
		<path fill="#BF063B" d="M663.2,13.1v4.4h-11.1v4.6h10v4.2h-10V31h11.5v4.4h-16.4V13.1H663.2z"/>
		<path fill="#65666A" d="M190.8,66h7.5v11.8c-3.3,3.7-7.9,5.5-13.7,5.5c-4.9,0-9-1.6-12.3-4.9c-3.3-3.2-5-7.3-5-12.2
			c0-4.9,1.7-9,5.1-12.3c3.4-3.3,7.4-4.9,12.2-4.9c4.8,0,8.9,1.6,12.4,4.7l-3.9,5.6c-1.5-1.3-2.9-2.2-4.1-2.7
			c-1.3-0.5-2.6-0.7-4.1-0.7c-2.8,0-5.2,1-7.1,2.9c-1.9,1.9-2.9,4.4-2.9,7.6c0,3.1,0.9,5.7,2.8,7.5c1.9,1.9,4.1,2.8,6.6,2.8
			c2.6,0,4.7-0.5,6.4-1.5V66z"/>
		<path fill="#65666A" d="M226.3,79.2c-2.9,2.7-6.3,4.1-10.2,4.1c-3.9,0-7.1-1.2-9.6-3.6c-2.5-2.4-3.8-5.6-3.8-9.6s1.3-7.2,3.9-9.6
			c2.6-2.4,5.6-3.6,9.2-3.6c3.5,0,6.5,1.1,9,3.2c2.5,2.1,3.7,5,3.7,8.7v3.8h-18.6c0.2,1.4,1,2.5,2.2,3.4c1.2,0.9,2.6,1.3,4.2,1.3
			c2.5,0,4.6-0.8,6.2-2.5L226.3,79.2z M219.5,64c-1-0.8-2.2-1.2-3.6-1.2c-1.4,0-2.7,0.4-3.9,1.3c-1.2,0.9-1.9,2-2,3.5h11.2
			C221,66,220.4,64.9,219.5,64z"/>
		<path fill="#65666A" d="M240.7,68.7v14.3h-7.1V57.3h7.1v2.9c2.2-2.2,4.6-3.3,7.3-3.3s5,1,6.8,2.9c1.8,1.9,2.7,4.4,2.7,7.6v15.5
			h-7.1V68.5c0-3.9-1.4-5.9-4.3-5.9c-1.4,0-2.7,0.5-3.7,1.5C241.2,65.2,240.7,66.7,240.7,68.7z"/>
		<path fill="#65666A" d="M289.5,70.1c0,3.7-1.3,6.8-3.9,9.4c-2.6,2.5-5.8,3.8-9.7,3.8c-3.9,0-7.1-1.3-9.7-3.8
			c-2.6-2.5-3.9-5.7-3.9-9.4c0-3.7,1.3-6.8,3.9-9.4c2.6-2.6,5.8-3.8,9.7-3.8c3.9,0,7.1,1.3,9.7,3.8
			C288.2,63.3,289.5,66.4,289.5,70.1z M269.6,70.1c0,2.1,0.6,3.8,1.8,5.1c1.2,1.3,2.7,2,4.6,2c1.9,0,3.4-0.7,4.6-2
			c1.2-1.3,1.8-3,1.8-5.1s-0.6-3.8-1.8-5.1c-1.2-1.3-2.7-2-4.6-2c-1.9,0-3.4,0.7-4.6,2C270.2,66.3,269.6,68,269.6,70.1z"/>
		<path fill="#65666A" d="M318.3,69.1v13.8h-7.2v-14c0-2-0.3-3.5-0.9-4.5c-0.6-1-1.6-1.4-3-1.4c-1.4,0-2.6,0.5-3.7,1.5
			c-1.1,1-1.6,2.5-1.6,4.5v13.8h-7.1V57.3h7.1v2.9c2-2.2,4.2-3.3,6.8-3.3c1.6,0,3.1,0.5,4.4,1.4c1.3,1,2.3,2.1,3,3.5
			c1-1.6,2.3-2.8,4-3.6c1.7-0.9,3.3-1.3,5-1.3c3,0,5.4,0.9,7.3,2.7c1.8,1.8,2.8,4.4,2.8,7.8v15.5h-7.2v-14c0-3.9-1.4-5.9-4.3-5.9
			c-1.4,0-2.7,0.5-3.7,1.5C318.8,65.6,318.3,67.1,318.3,69.1z"/>
		<path fill="#65666A" d="M342.1,54.1c-0.8-0.8-1.2-1.8-1.2-3c0-1.2,0.4-2.2,1.2-3c0.8-0.8,1.8-1.2,3-1.2c1.2,0,2.2,0.4,3,1.2
			c0.8,0.8,1.2,1.8,1.2,3c0,1.2-0.4,2.2-1.2,3c-0.8,0.8-1.8,1.2-3,1.2C343.9,55.3,342.9,54.9,342.1,54.1z M348.6,82.9h-7.1V57.3h7.1
			V82.9z"/>
		<path fill="#65666A" d="M367.7,77c2.4,0,4.5-1.2,6.4-3.6l4.2,4.8c-3.3,3.4-6.9,5.1-10.7,5.1c-3.8,0-7.1-1.2-9.7-3.6
			c-2.6-2.4-4-5.6-4-9.5c0-3.9,1.3-7.1,4-9.6c2.7-2.5,5.9-3.7,9.5-3.7c1.8,0,3.7,0.4,5.6,1.1c1.9,0.8,3.5,1.9,5,3.4l-3.7,4.9
			c-0.8-1-1.8-1.7-3-2.3c-1.2-0.5-2.4-0.8-3.5-0.8c-1.9,0-3.5,0.6-4.8,1.8c-1.3,1.2-2,2.9-2,5.1c0,2.2,0.7,3.9,2,5.1
			C364.3,76.4,365.9,77,367.7,77z"/>
		<path fill="#65666A" d="M421.7,54c3.2,2.9,4.8,6.9,4.8,12.1c0,5.2-1.5,9.3-4.6,12.3c-3.1,3-7.8,4.5-14.1,4.5h-11.4V49.7h11.7
			C414,49.7,418.6,51.1,421.7,54z M416.3,73.8c1.8-1.7,2.7-4.2,2.7-7.5c0-3.3-0.9-5.8-2.7-7.5c-1.8-1.8-4.6-2.6-8.4-2.6h-4.1v20.2
			h4.7C411.8,76.4,414.5,75.5,416.3,73.8z"/>
		<path fill="#65666A" d="M453.6,82.9h-6.7v-3.1c-1.8,2.3-4.1,3.5-6.8,3.5c-2.7,0-5-0.8-6.8-2.4c-1.8-1.6-2.8-3.7-2.8-6.3
			s1-4.6,2.9-5.9c1.9-1.3,4.5-1.9,7.8-1.9h5.3v-0.1c0-2.7-1.4-4.1-4.3-4.1c-1.2,0-2.5,0.2-3.9,0.7c-1.4,0.5-2.5,1.1-3.5,1.8
			l-3.2-4.6c3.4-2.4,7.2-3.7,11.5-3.7c3.1,0,5.6,0.8,7.6,2.3c2,1.6,2.9,4,2.9,7.4V82.9z M446.4,73.2v-1.2h-4.5
			c-2.9,0-4.3,0.9-4.3,2.7c0,0.9,0.3,1.6,1,2.1c0.7,0.5,1.7,0.7,2.9,0.7c1.3,0,2.4-0.4,3.4-1.2C445.9,75.5,446.4,74.5,446.4,73.2z"
			/>
		<path fill="#65666A" d="M468.3,62.5v11.5c0,1,0.3,1.8,0.8,2.3c0.5,0.6,1.1,0.8,1.8,0.8c1.3,0,2.5-0.6,3.4-1.8l2.7,5
			c-2.2,2-4.6,3-7,3c-2.5,0-4.5-0.8-6.2-2.4c-1.7-1.6-2.5-3.8-2.5-6.6V62.5h-3v-5.1h3v-7.7h7.2v7.7h6.2v5.1H468.3z"/>
		<path fill="#65666A" d="M502.5,82.9h-6.7v-3.1c-1.8,2.3-4.1,3.5-6.8,3.5c-2.7,0-5-0.8-6.8-2.4c-1.8-1.6-2.8-3.7-2.8-6.3
			s1-4.6,2.9-5.9c1.9-1.3,4.5-1.9,7.8-1.9h5.3v-0.1c0-2.7-1.4-4.1-4.3-4.1c-1.2,0-2.5,0.2-3.9,0.7c-1.4,0.5-2.5,1.1-3.5,1.8
			l-3.2-4.6c3.4-2.4,7.2-3.7,11.5-3.7c3.1,0,5.6,0.8,7.6,2.3c2,1.6,2.9,4,2.9,7.4V82.9z M495.3,73.2v-1.2h-4.5
			c-2.9,0-4.3,0.9-4.3,2.7c0,0.9,0.3,1.6,1,2.1c0.7,0.5,1.7,0.7,2.9,0.7c1.3,0,2.4-0.4,3.4-1.2C494.8,75.5,495.3,74.5,495.3,73.2z"
			/>
		<path fill="#65666A" d="M537.5,76.4c3.6,0,6.6-1.4,8.9-4.3l4.8,4.9c-3.8,4.2-8.2,6.4-13.3,6.4s-9.3-1.6-12.6-4.9
			c-3.3-3.2-5-7.3-5-12.2c0-4.9,1.7-9,5.1-12.3c3.4-3.3,7.5-4.9,12.4-4.9c5.5,0,10,2.1,13.7,6.2l-4.6,5.2c-2.3-2.9-5.3-4.4-8.7-4.4
			c-2.8,0-5.2,0.9-7.2,2.7c-2,1.8-3,4.3-3,7.4c0,3.1,0.9,5.6,2.8,7.4C532.6,75.4,534.8,76.4,537.5,76.4z"/>
		<path fill="#65666A" d="M580.9,70.1c0,3.7-1.3,6.8-3.9,9.4c-2.6,2.5-5.8,3.8-9.7,3.8c-3.9,0-7.1-1.3-9.7-3.8
			c-2.6-2.5-3.9-5.7-3.9-9.4c0-3.7,1.3-6.8,3.9-9.4c2.6-2.6,5.8-3.8,9.7-3.8c3.9,0,7.1,1.3,9.7,3.8
			C579.6,63.3,580.9,66.4,580.9,70.1z M561,70.1c0,2.1,0.6,3.8,1.8,5.1c1.2,1.3,2.7,2,4.6,2s3.4-0.7,4.6-2c1.2-1.3,1.8-3,1.8-5.1
			s-0.6-3.8-1.8-5.1c-1.2-1.3-2.7-2-4.6-2s-3.4,0.7-4.6,2C561.6,66.3,561,68,561,70.1z"/>
		<path fill="#65666A" d="M609.7,69.1v13.8h-7.2v-14c0-2-0.3-3.5-0.9-4.5c-0.6-1-1.6-1.4-3-1.4s-2.6,0.5-3.7,1.5
			c-1.1,1-1.6,2.5-1.6,4.5v13.8h-7.1V57.3h7.1v2.9c2-2.2,4.2-3.3,6.8-3.3c1.6,0,3.1,0.5,4.4,1.4c1.3,1,2.3,2.1,3,3.5
			c1-1.6,2.3-2.8,4-3.6c1.7-0.9,3.3-1.3,5-1.3c3,0,5.4,0.9,7.3,2.7c1.8,1.8,2.8,4.4,2.8,7.8v15.5h-7.2v-14c0-3.9-1.4-5.9-4.3-5.9
			c-1.4,0-2.7,0.5-3.7,1.5C610.2,65.6,609.7,67.1,609.7,69.1z"/>
		<path fill="#65666A" d="M656.4,69.1v13.8h-7.2v-14c0-2-0.3-3.5-0.9-4.5c-0.6-1-1.6-1.4-3-1.4c-1.4,0-2.6,0.5-3.7,1.5
			c-1.1,1-1.6,2.5-1.6,4.5v13.8h-7.1V57.3h7.1v2.9c2-2.2,4.2-3.3,6.8-3.3c1.6,0,3.1,0.5,4.4,1.4c1.3,1,2.3,2.1,3,3.5
			c1-1.6,2.3-2.8,4-3.6c1.7-0.9,3.3-1.3,5-1.3c3,0,5.4,0.9,7.3,2.7c1.8,1.8,2.8,4.4,2.8,7.8v15.5H666v-14c0-3.9-1.4-5.9-4.3-5.9
			c-1.4,0-2.7,0.5-3.7,1.5C656.9,65.6,656.4,67.1,656.4,69.1z"/>
		<path fill="#65666A" d="M705.2,70.1c0,3.7-1.3,6.8-3.9,9.4c-2.6,2.5-5.8,3.8-9.7,3.8s-7.1-1.3-9.7-3.8c-2.6-2.5-3.9-5.7-3.9-9.4
			c0-3.7,1.3-6.8,3.9-9.4c2.6-2.6,5.8-3.8,9.7-3.8s7.1,1.3,9.7,3.8C704,63.3,705.2,66.4,705.2,70.1z M685.4,70.1
			c0,2.1,0.6,3.8,1.8,5.1c1.2,1.3,2.7,2,4.6,2c1.9,0,3.4-0.7,4.6-2c1.2-1.3,1.8-3,1.8-5.1s-0.6-3.8-1.8-5.1c-1.2-1.3-2.7-2-4.6-2
			c-1.9,0-3.4,0.7-4.6,2C686,66.3,685.4,68,685.4,70.1z"/>
		<path fill="#65666A" d="M717.7,68.7v14.3h-7.1V57.3h7.1v2.9c2.2-2.2,4.6-3.3,7.3-3.3c2.7,0,5,1,6.8,2.9c1.8,1.9,2.7,4.4,2.7,7.6
			v15.5h-7.1V68.5c0-3.9-1.4-5.9-4.3-5.9c-1.4,0-2.7,0.5-3.7,1.5C718.2,65.2,717.7,66.7,717.7,68.7z"/>
		<path fill="#65666A" d="M760.2,75c0,2.5-0.9,4.5-2.8,6.1c-1.9,1.5-4.2,2.3-7.1,2.3c-1.9,0-3.9-0.3-5.9-1c-2.1-0.7-3.9-1.7-5.6-3
			l3.1-4.5c2.7,2.1,5.5,3.1,8.5,3.1c0.9,0,1.6-0.2,2.2-0.5c0.5-0.4,0.8-0.8,0.8-1.5c0-0.6-0.4-1.2-1.1-1.7c-0.7-0.5-1.8-1-3.2-1.4
			c-1.4-0.4-2.5-0.8-3.2-1.1c-0.7-0.3-1.6-0.8-2.5-1.4c-1.9-1.2-2.9-3-2.9-5.3c0-2.4,1-4.3,2.9-5.8c1.9-1.5,4.4-2.2,7.4-2.2
			c3,0,6,1,9,3l-2.7,4.8c-2.2-1.5-4.4-2.3-6.6-2.3c-2.2,0-3.3,0.6-3.3,1.8c0,0.7,0.3,1.2,1,1.6c0.7,0.4,1.9,0.8,3.5,1.3
			c1.6,0.5,2.8,0.9,3.4,1.2c0.7,0.3,1.5,0.7,2.4,1.3C759.3,70.6,760.2,72.4,760.2,75z"/>
	</g>
	<path fill="#BF063B" d="M117,0h-7.9l24.6,45.2l-25.6,45.9h7.9c3,0,5.8-1.6,7.2-4.2l23.2-41.6L124.3,4.3C122.8,1.7,120,0,117,0z"/>
	<path fill="#65666A" d="M102.2,0.3H6.9C3.1,0.3,0,3.4,0,7.2v77.3c0,3.8,3.1,6.9,6.9,6.9h94.3l25.6-45.9L102.2,0.3z"/>
	<g>
		<polygon fill="#FFFFFF" points="41.6,54.4 21.4,24 15.1,24 15.1,65.8 21.5,65.8 21.5,36.1 41.1,65.7 41.2,65.8 48,65.8 48,24 
			41.6,24 		"/>
		<rect x="55.4" y="24" fill="#FFFFFF" width="7.2" height="41.8"/>
		<polygon fill="#FFFFFF" points="96,24 96,41.9 76.6,41.9 76.6,24 69.4,24 69.4,65.8 76.6,65.8 76.6,48.9 96,48.9 96,65.8 
			103.2,65.8 103.2,24 		"/>
	</g>
</g>
</svg>
