<?xml version="1.0" encoding="utf-8"?>
<!-- Generator: Adobe Illustrator 18.1.0, SVG Export Plug-In . SVG Version: 6.00 Build 0)  -->
<!DOCTYPE svg PUBLIC "-//W3C//DTD SVG 1.1//EN" "http://www.w3.org/Graphics/SVG/1.1/DTD/svg11.dtd">
<svg version="1.1" id="Layer_1" xmlns="http://www.w3.org/2000/svg" xmlns:xlink="http://www.w3.org/1999/xlink" x="0px" y="0px"
	 viewBox="0 0 439.7 176" width="439.7" height="176" enable-background="new 0 0 439.7 176" xml:space="preserve">
<g>
	<g>
		<path d="M126.1,168.9L126.1,168.9c0-2.8,2.1-5.1,4.9-5.1c1.8,0,2.8,0.6,3.8,1.5l-0.8,0.8c-0.8-0.8-1.7-1.3-3.1-1.3
			c-2.2,0-3.8,1.8-3.8,4v0c0,2.3,1.6,4,3.8,4c1.3,0,2.2-0.5,3.2-1.4l0.7,0.7c-1,1-2.1,1.7-3.9,1.7
			C128.2,173.9,126.1,171.7,126.1,168.9z"/>
		<path d="M137.1,163.6h1.1v10.2h-1.1V163.6z"/>
		<path d="M140.5,170.2L140.5,170.2c0-2.1,1.6-3.8,3.8-3.8c2.2,0,3.8,1.7,3.8,3.7v0c0,2-1.6,3.8-3.8,3.8
			C142,173.9,140.5,172.2,140.5,170.2z M146.9,170.2L146.9,170.2c0-1.6-1.2-2.8-2.7-2.8c-1.6,0-2.6,1.3-2.6,2.8v0
			c0,1.5,1.1,2.8,2.7,2.8C145.8,173,146.9,171.7,146.9,170.2z"/>
		<path d="M150.1,171v-4.5h1.1v4.2c0,1.3,0.7,2.2,2,2.2c1.2,0,2.2-0.9,2.2-2.3v-4.1h1.1v7.2h-1.1v-1.3c-0.5,0.8-1.2,1.4-2.5,1.4
			C151.1,173.9,150.1,172.7,150.1,171z"/>
		<path d="M158.7,170.2L158.7,170.2c0-2.4,1.7-3.8,3.4-3.8c1.3,0,2.2,0.7,2.8,1.5v-4.4h1.1v10.2h-1.1v-1.5c-0.6,0.9-1.4,1.6-2.8,1.6
			C160.4,173.9,158.7,172.5,158.7,170.2z M164.9,170.1L164.9,170.1c0-1.7-1.3-2.8-2.6-2.8c-1.4,0-2.5,1-2.5,2.8v0
			c0,1.7,1.2,2.8,2.5,2.8C163.7,172.9,164.9,171.8,164.9,170.1z"/>
		<path d="M172.1,170.2L172.1,170.2c0-2.1,1.6-3.8,3.7-3.8c1.4,0,2.2,0.6,2.9,1.3l-0.7,0.8c-0.6-0.6-1.2-1.1-2.2-1.1
			c-1.5,0-2.6,1.2-2.6,2.8v0c0,1.6,1.1,2.8,2.7,2.8c0.9,0,1.6-0.5,2.2-1.1l0.7,0.6c-0.7,0.8-1.6,1.4-2.9,1.4
			C173.7,173.9,172.1,172.2,172.1,170.2z"/>
		<path d="M180.1,170.2L180.1,170.2c0-2.1,1.6-3.8,3.8-3.8c2.2,0,3.8,1.7,3.8,3.7v0c0,2-1.6,3.8-3.8,3.8
			C181.7,173.9,180.1,172.2,180.1,170.2z M186.6,170.2L186.6,170.2c0-1.6-1.2-2.8-2.7-2.8c-1.6,0-2.6,1.3-2.6,2.8v0
			c0,1.5,1.1,2.8,2.7,2.8C185.5,173,186.6,171.7,186.6,170.2z"/>
		<path d="M189.9,166.5h1.1v1.2c0.5-0.7,1.1-1.4,2.3-1.4c1.2,0,1.9,0.6,2.3,1.4c0.5-0.8,1.3-1.4,2.5-1.4c1.7,0,2.7,1.1,2.7,2.9v4.5
			h-1.1v-4.2c0-1.4-0.7-2.2-1.9-2.2c-1.1,0-2,0.8-2,2.2v4.2h-1.1v-4.2c0-1.4-0.7-2.2-1.9-2.2c-1.1,0-2,0.9-2,2.3v4.1h-1.1V166.5z"/>
		<path d="M203.4,166.5h1.1v1.5c0.6-0.9,1.4-1.6,2.8-1.6c1.7,0,3.4,1.4,3.4,3.7v0c0,2.4-1.7,3.8-3.4,3.8c-1.3,0-2.2-0.7-2.8-1.5v3.6
			h-1.1V166.5z M209.6,170.2L209.6,170.2c0-1.7-1.2-2.8-2.5-2.8c-1.3,0-2.6,1.1-2.6,2.8v0c0,1.7,1.3,2.8,2.6,2.8
			C208.5,172.9,209.6,171.9,209.6,170.2z"/>
		<path d="M212.9,171v-4.5h1.1v4.2c0,1.3,0.7,2.2,2,2.2c1.2,0,2.2-0.9,2.2-2.3v-4.1h1.1v7.2h-1.1v-1.3c-0.5,0.8-1.2,1.4-2.5,1.4
			C213.9,173.9,212.9,172.7,212.9,171z"/>
		<path d="M222.2,171.8v-4.4h-1v-0.9h1v-2.2h1.1v2.2h2.3v0.9h-2.3v4.2c0,0.9,0.5,1.2,1.2,1.2c0.4,0,0.7-0.1,1-0.3v0.9
			c-0.4,0.2-0.8,0.3-1.3,0.3C223.1,173.9,222.2,173.3,222.2,171.8z"/>
		<path d="M227.8,163.8h1.2v1.2h-1.2V163.8z M227.9,166.5h1.1v7.2h-1.1V166.5z"/>
		<path d="M231.7,166.5h1.1v1.3c0.5-0.8,1.2-1.4,2.5-1.4c1.7,0,2.8,1.2,2.8,2.9v4.5H237v-4.2c0-1.3-0.7-2.2-2-2.2
			c-1.2,0-2.2,0.9-2.2,2.3v4.1h-1.1V166.5z"/>
		<path d="M240.5,175l0.5-0.8c0.8,0.6,1.7,0.9,2.8,0.9c1.6,0,2.6-0.9,2.6-2.6v-0.9c-0.6,0.8-1.5,1.5-2.8,1.5c-1.7,0-3.4-1.3-3.4-3.4
			v0c0-2.1,1.7-3.4,3.4-3.4c1.4,0,2.2,0.7,2.8,1.5v-1.3h1.1v6c0,1.1-0.3,2-0.9,2.6c-0.6,0.6-1.6,1-2.8,1
			C242.6,176,241.5,175.7,240.5,175z M246.4,169.8L246.4,169.8c0-1.5-1.3-2.5-2.7-2.5s-2.5,1-2.5,2.4v0c0,1.5,1.2,2.5,2.5,2.5
			C245.1,172.2,246.4,171.3,246.4,169.8z"/>
		<path d="M254.5,167.5h-1v-0.9h1v-0.6c0-0.8,0.2-1.5,0.6-1.9c0.4-0.4,0.9-0.6,1.5-0.6c0.5,0,0.8,0.1,1.2,0.2v0.9
			c-0.4-0.1-0.7-0.2-1-0.2c-0.8,0-1.3,0.5-1.3,1.5v0.6h2.3v0.9h-2.3v6.3h-1.1V167.5z"/>
		<path d="M258.9,170.2L258.9,170.2c0-2.1,1.6-3.8,3.8-3.8c2.2,0,3.8,1.7,3.8,3.7v0c0,2-1.6,3.8-3.8,3.8
			C260.4,173.9,258.9,172.2,258.9,170.2z M265.3,170.2L265.3,170.2c0-1.6-1.2-2.8-2.7-2.8c-1.6,0-2.6,1.3-2.6,2.8v0
			c0,1.5,1.1,2.8,2.7,2.8C264.2,173,265.3,171.7,265.3,170.2z"/>
		<path d="M268.6,166.5h1.1v1.9c0.5-1.2,1.6-2.1,2.9-2v1.2h-0.1c-1.6,0-2.9,1.1-2.9,3.3v2.9h-1.1V166.5z"/>
		<path d="M278,170.2L278,170.2c0-2.1,1.6-3.8,3.7-3.8c1.4,0,2.2,0.6,2.9,1.3l-0.7,0.8c-0.6-0.6-1.2-1.1-2.2-1.1
			c-1.5,0-2.6,1.2-2.6,2.8v0c0,1.6,1.1,2.8,2.7,2.8c0.9,0,1.6-0.5,2.2-1.1l0.7,0.6c-0.7,0.8-1.6,1.4-2.9,1.4
			C279.6,173.9,278,172.2,278,170.2z"/>
		<path d="M286,170.2L286,170.2c0-2.1,1.6-3.8,3.8-3.8c2.2,0,3.8,1.7,3.8,3.7v0c0,2-1.6,3.8-3.8,3.8
			C287.6,173.9,286,172.2,286,170.2z M292.5,170.2L292.5,170.2c0-1.6-1.2-2.8-2.7-2.8c-1.6,0-2.6,1.3-2.6,2.8v0
			c0,1.5,1.1,2.8,2.7,2.8C291.4,173,292.5,171.7,292.5,170.2z"/>
		<path d="M295.9,163.6h1.1v10.2h-1.1V163.6z"/>
		<path d="M299.8,163.6h1.1v10.2h-1.1V163.6z"/>
		<path d="M303.1,171.7L303.1,171.7c0-1.6,1.3-2.4,3.1-2.4c0.9,0,1.6,0.1,2.2,0.3v-0.2c0-1.3-0.8-2-2.1-2c-0.9,0-1.5,0.2-2.2,0.5
			l-0.3-0.9c0.8-0.4,1.6-0.6,2.6-0.6c1,0,1.8,0.3,2.3,0.8c0.5,0.5,0.8,1.2,0.8,2.1v4.4h-1.1v-1.1c-0.5,0.6-1.3,1.2-2.6,1.2
			C304.5,173.9,303.1,173.1,303.1,171.7z M308.4,171.1v-0.7c-0.5-0.2-1.2-0.3-2.1-0.3c-1.3,0-2.1,0.6-2.1,1.5v0
			c0,0.9,0.8,1.4,1.8,1.4C307.4,173,308.4,172.2,308.4,171.1z"/>
		<path d="M313.1,172.4v1.4H312v-10.2h1.1v4.4c0.6-0.9,1.4-1.6,2.8-1.6c1.7,0,3.4,1.4,3.4,3.7v0c0,2.4-1.7,3.8-3.4,3.8
			C314.5,173.9,313.7,173.2,313.1,172.4z M318.2,170.2L318.2,170.2c0-1.7-1.2-2.8-2.5-2.8c-1.3,0-2.6,1.1-2.6,2.8v0
			c0,1.7,1.3,2.8,2.6,2.8C317.1,172.9,318.2,171.9,318.2,170.2z"/>
		<path d="M321.1,170.2L321.1,170.2c0-2.1,1.6-3.8,3.8-3.8c2.2,0,3.8,1.7,3.8,3.7v0c0,2-1.6,3.8-3.8,3.8
			C322.7,173.9,321.1,172.2,321.1,170.2z M327.6,170.2L327.6,170.2c0-1.6-1.2-2.8-2.7-2.8c-1.6,0-2.6,1.3-2.6,2.8v0
			c0,1.5,1.1,2.8,2.7,2.8C326.5,173,327.6,171.7,327.6,170.2z"/>
		<path d="M330.9,166.5h1.1v1.9c0.5-1.2,1.6-2.1,2.9-2v1.2h-0.1c-1.6,0-2.9,1.1-2.9,3.3v2.9h-1.1V166.5z"/>
		<path d="M335.9,171.7L335.9,171.7c0-1.6,1.3-2.4,3.1-2.4c0.9,0,1.6,0.1,2.2,0.3v-0.2c0-1.3-0.8-2-2.1-2c-0.9,0-1.5,0.2-2.2,0.5
			l-0.3-0.9c0.8-0.4,1.6-0.6,2.6-0.6c1,0,1.8,0.3,2.3,0.8c0.5,0.5,0.8,1.2,0.8,2.1v4.4h-1.1v-1.1c-0.5,0.6-1.3,1.2-2.6,1.2
			C337.3,173.9,335.9,173.1,335.9,171.7z M341.2,171.1v-0.7c-0.5-0.2-1.2-0.3-2.1-0.3c-1.3,0-2.1,0.6-2.1,1.5v0
			c0,0.9,0.8,1.4,1.8,1.4C340.2,173,341.2,172.2,341.2,171.1z"/>
		<path d="M345.1,171.8v-4.4h-1v-0.9h1v-2.2h1.1v2.2h2.3v0.9h-2.3v4.2c0,0.9,0.5,1.2,1.2,1.2c0.4,0,0.7-0.1,1-0.3v0.9
			c-0.4,0.2-0.8,0.3-1.3,0.3C346,173.9,345.1,173.3,345.1,171.8z"/>
		<path d="M350.7,163.8h1.2v1.2h-1.2V163.8z M350.8,166.5h1.1v7.2h-1.1V166.5z"/>
		<path d="M353.9,166.5h1.2l2.4,6l2.4-6h1.2l-3.1,7.3H357L353.9,166.5z"/>
		<path d="M365.9,173c1,0,1.7-0.4,2.3-1l0.7,0.6c-0.7,0.8-1.6,1.4-3,1.4c-2,0-3.6-1.5-3.6-3.8c0-2.1,1.5-3.8,3.5-3.8
			c2.1,0,3.4,1.7,3.4,3.8c0,0.1,0,0.2,0,0.4h-5.7C363.5,172.1,364.6,173,365.9,173z M368,169.7c-0.1-1.3-0.9-2.4-2.3-2.4
			c-1.2,0-2.2,1-2.3,2.4H368z"/>
		<path d="M375.1,166.5h1.1v1.9c0.5-1.2,1.6-2.1,2.9-2v1.2h-0.1c-1.6,0-2.9,1.1-2.9,3.3v2.9h-1.1V166.5z"/>
		<path d="M383.9,173c1,0,1.7-0.4,2.3-1l0.7,0.6c-0.7,0.8-1.6,1.4-3,1.4c-2,0-3.6-1.5-3.6-3.8c0-2.1,1.5-3.8,3.5-3.8
			c2.1,0,3.4,1.7,3.4,3.8c0,0.1,0,0.2,0,0.4h-5.7C381.5,172.1,382.7,173,383.9,173z M386,169.7c-0.1-1.3-0.9-2.4-2.3-2.4
			c-1.2,0-2.2,1-2.3,2.4H386z"/>
		<path d="M388.7,172.8l0.5-0.8c0.8,0.6,1.6,0.9,2.5,0.9c0.9,0,1.5-0.4,1.5-1.1v0c0-0.7-0.9-1-1.8-1.3c-1.1-0.3-2.4-0.7-2.4-2v0
			c0-1.2,1-2.1,2.5-2.1c0.9,0,1.9,0.3,2.6,0.8l-0.5,0.8c-0.7-0.4-1.4-0.7-2.1-0.7c-0.9,0-1.4,0.4-1.4,1v0c0,0.7,0.9,0.9,1.9,1.2
			c1.1,0.3,2.3,0.8,2.3,2.1v0c0,1.4-1.1,2.2-2.6,2.2C390.6,173.9,389.5,173.5,388.7,172.8z"/>
		<path d="M399.7,173c1,0,1.7-0.4,2.3-1l0.7,0.6c-0.7,0.8-1.6,1.4-3,1.4c-2,0-3.6-1.5-3.6-3.8c0-2.1,1.5-3.8,3.5-3.8
			c2.1,0,3.4,1.7,3.4,3.8c0,0.1,0,0.2,0,0.4h-5.7C397.3,172.1,398.4,173,399.7,173z M401.8,169.7c-0.1-1.3-0.9-2.4-2.3-2.4
			c-1.2,0-2.2,1-2.3,2.4H401.8z"/>
		<path d="M404.5,171.7L404.5,171.7c0-1.6,1.3-2.4,3.1-2.4c0.9,0,1.6,0.1,2.2,0.3v-0.2c0-1.3-0.8-2-2.1-2c-0.9,0-1.5,0.2-2.2,0.5
			l-0.3-0.9c0.8-0.4,1.6-0.6,2.6-0.6c1,0,1.8,0.3,2.3,0.8c0.5,0.5,0.8,1.2,0.8,2.1v4.4h-1.1v-1.1c-0.5,0.6-1.3,1.2-2.6,1.2
			C405.9,173.9,404.5,173.1,404.5,171.7z M409.8,171.1v-0.7c-0.5-0.2-1.2-0.3-2.1-0.3c-1.3,0-2.1,0.6-2.1,1.5v0
			c0,0.9,0.8,1.4,1.8,1.4C408.7,173,409.8,172.2,409.8,171.1z"/>
		<path d="M413.4,166.5h1.1v1.9c0.5-1.2,1.6-2.1,2.9-2v1.2h-0.1c-1.6,0-2.9,1.1-2.9,3.3v2.9h-1.1V166.5z"/>
		<path d="M418.6,170.2L418.6,170.2c0-2.1,1.6-3.8,3.7-3.8c1.4,0,2.2,0.6,2.9,1.3l-0.7,0.8c-0.6-0.6-1.2-1.1-2.2-1.1
			c-1.5,0-2.6,1.2-2.6,2.8v0c0,1.6,1.1,2.8,2.7,2.8c0.9,0,1.6-0.5,2.2-1.1l0.7,0.6c-0.7,0.8-1.6,1.4-2.9,1.4
			C420.2,173.9,418.6,172.2,418.6,170.2z"/>
		<path d="M427.3,163.6h1.1v4.2c0.5-0.8,1.2-1.4,2.5-1.4c1.7,0,2.8,1.2,2.8,2.9v4.5h-1.1v-4.2c0-1.3-0.7-2.2-2-2.2
			c-1.2,0-2.2,0.9-2.2,2.3v4.1h-1.1V163.6z"/>
	</g>
	<g>
		<g>
			<rect x="97.1" y="88.5" fill="#999999" width="16" height="61"/>
		</g>
		<g>
			<path fill="#C1272D" d="M124.9,101.3L124.9,101.3c0-7.3,5.6-13,13.1-13c5.1,0,8.3,2.1,10.5,5.2l-5.2,4c-1.4-1.8-3-2.9-5.4-2.9
				c-3.5,0-5.9,2.9-5.9,6.6v0.1c0,3.7,2.4,6.6,5.9,6.6c2.6,0,4.1-1.2,5.6-3l5.2,3.7c-2.3,3.2-5.5,5.6-11,5.6
				C130.6,114.1,124.9,108.7,124.9,101.3z"/>
			<path fill="#C1272D" d="M149.5,108.1L149.5,108.1c0-4,3-6.1,7.5-6.1c1.8,0,3.5,0.4,4.6,0.7v-0.3c0-2-1.2-3.1-3.8-3.1
				c-2,0-3.6,0.4-5.3,1.1l-1.4-4.7c2.2-0.9,4.5-1.5,7.8-1.5c3.4,0,5.8,0.8,7.3,2.3c1.5,1.4,2.1,3.4,2.1,6.1v11h-6.7v-2
				c-1.3,1.5-3.1,2.4-5.6,2.4C152.3,114.1,149.5,112,149.5,108.1z M161.7,106.7v-0.9c-0.7-0.3-1.6-0.5-2.6-0.5c-1.9,0-3.1,1-3.1,2.4
				v0.1c0,1.3,1,2.1,2.4,2.1C160.3,109.8,161.7,108.6,161.7,106.7z"/>
			<path fill="#C1272D" d="M171,94.5h6.7v2.7c1.2-1.6,3-3.1,5.7-3.1c4.1,0,6.5,2.7,6.5,7.1v12.5h-6.7v-10.4c0-2.1-1.1-3.2-2.7-3.2
				c-1.6,0-2.8,1.1-2.8,3.2v10.4H171V94.5z"/>
			<path fill="#C1272D" d="M192,104.1L192,104.1c0-5.5,4.2-10.1,10.3-10.1c3.9,0,6.6,1.7,8.2,4.3l-4.6,3.4c-0.9-1.3-1.9-2-3.6-2
				c-2.2,0-3.8,1.9-3.8,4.3v0.1c0,2.5,1.6,4.4,3.8,4.4c1.6,0,2.6-0.7,3.7-2l4.5,3.3c-1.8,2.6-4.3,4.4-8.5,4.4
				C196.2,114.1,192,109.6,192,104.1z"/>
			<path fill="#C1272D" d="M210.9,104.1L210.9,104.1c0-5.7,4-10.1,9.7-10.1c6.6,0,9.7,4.9,9.7,10.5c0,0.4,0,0.9,0,1.4h-12.8
				c0.5,2.1,2.1,3.2,4.1,3.2c1.6,0,2.9-0.6,4.3-1.9l3.7,3.1c-1.8,2.3-4.5,3.9-8.3,3.9C215.1,114.1,210.9,110.1,210.9,104.1z
				 M223.9,102.5c-0.2-2.1-1.5-3.5-3.3-3.5c-1.8,0-3,1.4-3.3,3.5H223.9z"/>
			<path fill="#C1272D" d="M232.4,94.5h6.7v3.9c1.1-2.6,2.9-4.3,6.1-4.2v7.1h-0.6c-3.5,0-5.5,2-5.5,6.4v6h-6.7V94.5z"/>
			<path fill="#4D4D4D" d="M254.1,101.3L254.1,101.3c0-7.3,5.7-13,13.4-13c4.4,0,7.4,1.3,10.1,3.6l-4,4.9c-1.8-1.5-3.5-2.3-6-2.3
				c-3.6,0-6.3,3-6.3,6.8v0.1c0,4,2.8,6.9,6.7,6.9c1.7,0,2.9-0.4,4-1v-3h-4.9v-5h11.4v11.2c-2.6,2.2-6.3,3.8-10.8,3.8
				C259.8,114.1,254.1,108.8,254.1,101.3z"/>
			<path fill="#4D4D4D" d="M280.3,104.1L280.3,104.1c0-5.7,4-10.1,9.7-10.1c6.6,0,9.7,4.9,9.7,10.5c0,0.4,0,0.9,0,1.4h-12.8
				c0.5,2.1,2.1,3.2,4.1,3.2c1.6,0,2.9-0.6,4.3-1.9l3.7,3.1c-1.8,2.3-4.5,3.9-8.3,3.9C284.5,114.1,280.3,110.1,280.3,104.1z
				 M293.3,102.5c-0.2-2.1-1.5-3.5-3.3-3.5c-1.8,0-3,1.4-3.3,3.5H293.3z"/>
			<path fill="#4D4D4D" d="M301.8,94.5h6.7v2.7c1.2-1.6,3-3.1,5.7-3.1c4.1,0,6.5,2.7,6.5,7.1v12.5h-6.7v-10.4c0-2.1-1.1-3.2-2.7-3.2
				c-1.6,0-2.8,1.1-2.8,3.2v10.4h-6.7V94.5z"/>
			<path fill="#4D4D4D" d="M322.8,104.1L322.8,104.1c0-5.5,4.5-10.1,10.6-10.1c6.1,0,10.6,4.5,10.6,10v0.1c0,5.5-4.5,10-10.6,10
				C327.2,114.1,322.8,109.6,322.8,104.1z M337.4,104.1L337.4,104.1c0-2.4-1.7-4.4-4.1-4.4c-2.4,0-4,1.9-4,4.3v0.1
				c0,2.3,1.7,4.3,4.1,4.3C335.8,108.4,337.4,106.4,337.4,104.1z"/>
			<path fill="#4D4D4D" d="M345.4,94.5h6.7v2.6c1.2-1.6,3-3,5.7-3c2.6,0,4.5,1.1,5.5,3.1c1.7-1.9,3.6-3.1,6.4-3.1
				c4.1,0,6.6,2.6,6.6,7v12.6h-6.7v-10.4c0-2.1-1-3.2-2.6-3.2c-1.6,0-2.8,1.1-2.8,3.2v10.4h-6.7v-10.4c0-2.1-1-3.2-2.6-3.2
				c-1.6,0-2.7,1.1-2.7,3.2v10.4h-6.7V94.5z"/>
			<path fill="#4D4D4D" d="M378.3,104.1L378.3,104.1c0-5.7,4-10.1,9.7-10.1c6.6,0,9.7,4.9,9.7,10.5c0,0.4,0,0.9,0,1.4h-12.8
				c0.5,2.1,2.1,3.2,4.1,3.2c1.6,0,2.9-0.6,4.3-1.9l3.7,3.1c-1.8,2.3-4.5,3.9-8.3,3.9C382.5,114.1,378.3,110.1,378.3,104.1z
				 M391.3,102.5c-0.2-2.1-1.5-3.5-3.3-3.5c-1.8,0-3,1.4-3.3,3.5H391.3z"/>
			<path fill="#4D4D4D" d="M124.9,136.1L124.9,136.1c0-7.3,5.6-13,13.1-13c5.1,0,8.3,2.1,10.5,5.2l-5.2,4c-1.4-1.8-3-2.9-5.4-2.9
				c-3.5,0-5.9,2.9-5.9,6.6v0.1c0,3.7,2.4,6.6,5.9,6.6c2.6,0,4.1-1.2,5.6-3l5.2,3.7c-2.3,3.2-5.5,5.6-11,5.6
				C130.6,148.9,124.9,143.5,124.9,136.1z"/>
			<path fill="#4D4D4D" d="M148.6,136.1L148.6,136.1c0-7.2,5.7-13,13.4-13s13.3,5.7,13.3,12.8v0.1c0,7.1-5.7,12.9-13.4,12.9
				C154.3,148.9,148.6,143.2,148.6,136.1z M168.3,136.1L168.3,136.1c0-3.6-2.6-6.8-6.4-6.8c-3.8,0-6.3,3-6.3,6.6v0.1
				c0,3.6,2.6,6.7,6.3,6.7C165.8,142.7,168.3,139.7,168.3,136.1z"/>
			<path fill="#4D4D4D" d="M177.5,123.6h6.9v18.8h12v6h-18.9V123.6z"/>
			<path fill="#4D4D4D" d="M198.6,123.6h6.9v18.8h12v6h-18.9V123.6z"/>
			<path fill="#4D4D4D" d="M227.6,123.4h6.6l10.6,25h-7.4l-1.8-4.4H226l-1.8,4.4H217L227.6,123.4z M233.6,138.6l-2.8-7.1l-2.8,7.1
				H233.6z"/>
			<path fill="#4D4D4D" d="M246.5,123.6h12.7c3.1,0,5.3,0.8,6.8,2.2c1,1,1.6,2.3,1.6,4v0.1c0,2.9-1.6,4.6-3.8,5.5
				c3,1,4.9,2.7,4.9,6.1v0.1c0,4.3-3.5,6.8-9.4,6.8h-12.8V123.6z M257.5,133.5c2.1,0,3.3-0.7,3.3-2.2v-0.1c0-1.3-1.1-2.1-3.1-2.1
				h-4.5v4.4H257.5z M258.5,142.9c2.1,0,3.3-0.8,3.3-2.3v-0.1c0-1.3-1.1-2.2-3.4-2.2h-5.2v4.6H258.5z"/>
			<path fill="#4D4D4D" d="M269.5,136.1L269.5,136.1c0-7.2,5.7-13,13.4-13s13.3,5.7,13.3,12.8v0.1c0,7.1-5.7,12.9-13.4,12.9
				C275.2,148.9,269.5,143.2,269.5,136.1z M289.2,136.1L289.2,136.1c0-3.6-2.6-6.8-6.4-6.8c-3.8,0-6.3,3-6.3,6.6v0.1
				c0,3.6,2.6,6.7,6.3,6.7C286.7,142.7,289.2,139.7,289.2,136.1z"/>
			<path fill="#4D4D4D" d="M297.7,123.6h11.7c3.8,0,6.4,1,8.1,2.7c1.5,1.4,2.2,3.3,2.2,5.8v0.1c0,3.8-2,6.3-5.1,7.6l5.9,8.6h-7.9
				l-5-7.5h-3v7.5h-6.9V123.6z M309.1,135.5c2.3,0,3.7-1.1,3.7-2.9v-0.1c0-1.9-1.4-2.9-3.7-2.9h-4.5v6H309.1z"/>
			<path fill="#4D4D4D" d="M329.9,123.4h6.6l10.6,25h-7.4l-1.8-4.4h-9.6l-1.8,4.4h-7.2L329.9,123.4z M335.9,138.6l-2.8-7.1l-2.8,7.1
				H335.9z"/>
			<path fill="#4D4D4D" d="M350.9,129.6h-7.4v-6h21.8v6h-7.4v18.8h-6.9V129.6z"/>
			<path fill="#4D4D4D" d="M364.2,136.1L364.2,136.1c0-7.2,5.7-13,13.4-13s13.3,5.7,13.3,12.8v0.1c0,7.1-5.7,12.9-13.4,12.9
				C369.9,148.9,364.2,143.2,364.2,136.1z M383.9,136.1L383.9,136.1c0-3.6-2.6-6.8-6.4-6.8c-3.8,0-6.3,3-6.3,6.6v0.1
				c0,3.6,2.6,6.7,6.3,6.7C381.4,142.7,383.9,139.7,383.9,136.1z"/>
			<path fill="#4D4D4D" d="M393.1,123.6h11.7c3.8,0,6.4,1,8.1,2.7c1.5,1.4,2.2,3.3,2.2,5.8v0.1c0,3.8-2,6.3-5.1,7.6l5.9,8.6h-7.9
				l-5-7.5h-3v7.5h-6.9V123.6z M404.5,135.5c2.3,0,3.7-1.1,3.7-2.9v-0.1c0-1.9-1.4-2.9-3.7-2.9h-4.5v6H404.5z"/>
			<path fill="#4D4D4D" d="M423.4,139.1l-9.4-15.5h7.8l5.1,9l5.1-9h7.7l-9.4,15.4v9.4h-6.9V139.1z"/>
		</g>
		<path fill="#C1272D" d="M25.7,25.9C10,41.7,0.9,62.1,0,84.7h16c0.9-18.3,8.3-34.7,21-47.4c13.4-13.4,31.4-21,50.4-21.2V0
			C64.1,0.2,42.2,9.5,25.7,25.9z"/>
		<path fill="#ED1C24" d="M37,138.8c-12.6-12.6-19.9-28.9-21-46.6H0c1,22,10.1,42.4,25.7,58c16.5,16.5,38.4,25.6,61.7,25.8v-16.1
			C68.3,159.7,50.5,152.3,37,138.8z"/>
		<linearGradient id="SVGID_1_" gradientUnits="userSpaceOnUse" x1="26.597" y1="87.9643" x2="89.0114" y2="87.9643">
			<stop  offset="0" style="stop-color:#666666"/>
			<stop  offset="1" style="stop-color:#B3B3B3"/>
		</linearGradient>
		<path fill="url(#SVGID_1_)" d="M42.6,88c0-24.8,20.1-45,44.8-45.3v-16C71.2,26.8,56,33.2,44.6,44.6c-11.6,11.6-18,27-18,43.4
			c0,16.4,6.4,31.8,17.9,43.4c11.4,11.4,26.7,17.8,42.8,17.9v-16C62.6,133,42.6,112.8,42.6,88z"/>
		<path fill="#29ABE2" d="M69.7,92.2H53.5c2.1,17,16.4,30.3,33.9,30.6v-16.2C78.8,106.3,71.6,100.6,69.7,92.2z"/>
		<path fill="#3FA9F5" d="M53.4,84.7h16.2c1.7-8.9,9-14.9,17.8-15.2v-16C69.8,53.8,55.3,67.2,53.4,84.7z"/>
	</g>
</g>
</svg>
