<?xml version="1.0" encoding="utf-8"?>
<!-- Generator: Adobe Illustrator 18.1.0, SVG Export Plug-In . SVG Version: 6.00 Build 0)  -->
<!DOCTYPE svg PUBLIC "-//W3C//DTD SVG 1.1//EN" "http://www.w3.org/Graphics/SVG/1.1/DTD/svg11.dtd">
<svg version="1.1" id="Layer_1" xmlns="http://www.w3.org/2000/svg" xmlns:xlink="http://www.w3.org/1999/xlink" x="0px" y="0px"
	 viewBox="0 0 768.4 187.5" width="768.4" height="187.5" enable-background="new 0 0 768.4 187.5" xml:space="preserve">
<g>
	<g>
		<path d="M201.6,106.1L201.6,106.1c0-8.2,6.1-15.4,15.1-15.4c9,0,15,7.1,15,15.2v0.1c0,8.2-6.1,15.3-15.1,15.3
			C207.6,121.3,201.6,114.3,201.6,106.1z M228.3,106.1L228.3,106.1c0-6.8-4.9-12.3-11.7-12.3c-6.8,0-11.6,5.4-11.6,12.1v0.1
			c0,6.7,4.9,12.2,11.7,12.2C223.5,118.2,228.3,112.8,228.3,106.1z"/>
		<path d="M236.5,99h3.3v3.8c1.4-2.4,3.7-4.3,7.5-4.3c5.3,0,8.4,3.5,8.4,8.7v13.6h-3.3V108c0-4.1-2.2-6.6-6-6.6
			c-3.8,0-6.5,2.7-6.5,6.8v12.5h-3.3V99z"/>
		<path d="M262.9,115v-13.2h-3V99h3v-6.6h3.3V99h6.9v2.9h-6.9v12.8c0,2.7,1.5,3.6,3.7,3.6c1.1,0,2-0.2,3.2-0.8v2.8
			c-1.1,0.6-2.4,0.9-3.9,0.9C265.5,121.2,262.9,119.5,262.9,115z"/>
		<path d="M276.3,114.5L276.3,114.5c0-4.8,3.8-7.2,9.3-7.2c2.8,0,4.7,0.4,6.7,0.9v-0.7c0-3.9-2.4-5.9-6.5-5.9
			c-2.6,0-4.6,0.6-6.6,1.6l-1-2.7c2.4-1.1,4.7-1.9,7.9-1.9c3.1,0,5.5,0.8,7.1,2.4c1.5,1.5,2.3,3.6,2.3,6.4v13.4h-3.2v-3.3
			c-1.5,1.9-4,3.7-7.9,3.7C280.4,121.3,276.3,118.9,276.3,114.5z M292.3,112.8v-2c-1.6-0.5-3.7-0.9-6.4-0.9c-4.1,0-6.4,1.8-6.4,4.4
			v0.1c0,2.7,2.5,4.4,5.5,4.4C289.1,118.6,292.3,116.2,292.3,112.8z"/>
		<path d="M301.6,99h3.3v5.7c1.6-3.6,4.8-6.3,8.9-6.1v3.5h-0.3c-4.8,0-8.7,3.4-8.7,10v8.7h-3.3V99z"/>
		<path d="M317.9,90.6h3.7v3.6h-3.7V90.6z M318.1,99h3.3v21.8h-3.3V99z"/>
		<path d="M326.7,110L326.7,110c0-6.3,4.8-11.5,11.4-11.5c6.5,0,11.4,5.2,11.4,11.3v0.1c0,6.2-4.9,11.4-11.5,11.4
			C331.5,121.3,326.7,116.2,326.7,110z M346.2,110L346.2,110c0-4.8-3.5-8.6-8.1-8.6c-4.7,0-8,3.8-8,8.5v0.1c0,4.7,3.5,8.5,8.1,8.5
			C342.9,118.4,346.2,114.6,346.2,110z"/>
		<path d="M365.2,91.2h3.4l10.8,16.1l10.8-16.1h3.4v29.6h-3.3v-24l-10.8,15.8h-0.2l-10.8-15.8v23.9h-3.3V91.2z"/>
		<path d="M399.1,110L399.1,110c0-6.3,4.8-11.5,11.4-11.5c6.5,0,11.4,5.2,11.4,11.3v0.1c0,6.2-4.9,11.4-11.5,11.4
			C403.9,121.3,399.1,116.2,399.1,110z M418.6,110L418.6,110c0-4.8-3.5-8.6-8.1-8.6c-4.7,0-8,3.8-8,8.5v0.1c0,4.7,3.5,8.5,8.1,8.5
			C415.3,118.4,418.6,114.6,418.6,110z"/>
		<path d="M426.4,90h3.3v30.8h-3.3V90z"/>
		<path d="M446,118.5c3,0,5.1-1.2,6.9-3.1l2,1.8c-2.2,2.5-4.9,4.1-9,4.1c-6,0-10.9-4.6-10.9-11.4c0-6.3,4.4-11.4,10.5-11.4
			c6.5,0,10.2,5.2,10.2,11.6c0,0.3,0,0.6,0,1.1h-17.3C438.8,115.8,442.1,118.5,446,118.5z M452.4,108.6c-0.4-4-2.7-7.4-7-7.4
			c-3.8,0-6.6,3.1-7.1,7.4H452.4z"/>
		<path d="M459.2,110L459.2,110c0-6.3,4.8-11.5,11.2-11.5c4.1,0,6.7,1.7,8.7,3.9l-2.2,2.3c-1.7-1.8-3.7-3.3-6.6-3.3
			c-4.4,0-7.8,3.8-7.8,8.5v0.1c0,4.7,3.5,8.5,8,8.5c2.8,0,4.9-1.4,6.7-3.3l2.1,1.9c-2.2,2.5-4.8,4.2-8.9,4.2
			C464,121.3,459.2,116.1,459.2,110z"/>
		<path d="M483.5,112.5V99h3.3v12.8c0,4.1,2.2,6.6,6,6.6c3.7,0,6.5-2.7,6.5-6.8V99h3.2v21.8h-3.2V117c-1.5,2.4-3.7,4.3-7.5,4.3
			C486.5,121.3,483.5,117.7,483.5,112.5z"/>
		<path d="M509.3,90h3.3v30.8h-3.3V90z"/>
		<path d="M517.6,114.5L517.6,114.5c0-4.8,3.8-7.2,9.3-7.2c2.8,0,4.7,0.4,6.7,0.9v-0.7c0-3.9-2.4-5.9-6.5-5.9
			c-2.6,0-4.6,0.6-6.6,1.6l-1-2.7c2.4-1.1,4.7-1.9,7.9-1.9c3.1,0,5.5,0.8,7.1,2.4c1.5,1.5,2.3,3.6,2.3,6.4v13.4h-3.2v-3.3
			c-1.5,1.9-4,3.7-7.9,3.7C521.6,121.3,517.6,118.9,517.6,114.5z M533.6,112.8v-2c-1.6-0.5-3.7-0.9-6.4-0.9c-4.1,0-6.4,1.8-6.4,4.4
			v0.1c0,2.7,2.5,4.4,5.5,4.4C530.4,118.6,533.6,116.2,533.6,112.8z"/>
		<path d="M542.9,99h3.3v5.7c1.6-3.6,4.8-6.3,8.9-6.1v3.5h-0.3c-4.8,0-8.7,3.4-8.7,10v8.7h-3.3V99z"/>
		<path d="M569.8,91.2h11.1c6.7,0,11.1,3.5,11.1,9.4v0.1c0,6.4-5.3,9.7-11.6,9.7h-7.2v10.4h-3.3V91.2z M580.5,107.3
			c4.9,0,8.1-2.6,8.1-6.5v-0.1c0-4.2-3.2-6.4-7.9-6.4h-7.5v13H580.5z"/>
		<path d="M593.5,114.5L593.5,114.5c0-4.8,3.8-7.2,9.3-7.2c2.8,0,4.7,0.4,6.7,0.9v-0.7c0-3.9-2.4-5.9-6.5-5.9
			c-2.6,0-4.6,0.6-6.6,1.6l-1-2.7c2.4-1.1,4.7-1.9,7.9-1.9c3.1,0,5.5,0.8,7.1,2.4c1.5,1.5,2.3,3.6,2.3,6.4v13.4h-3.2v-3.3
			c-1.5,1.9-4,3.7-7.9,3.7C597.6,121.3,593.5,118.9,593.5,114.5z M609.6,112.8v-2c-1.6-0.5-3.7-0.9-6.4-0.9c-4.1,0-6.4,1.8-6.4,4.4
			v0.1c0,2.7,2.5,4.4,5.5,4.4C606.3,118.6,609.6,116.2,609.6,112.8z"/>
		<path d="M619.7,115v-13.2h-3V99h3v-6.6h3.3V99h6.9v2.9h-6.9v12.8c0,2.7,1.5,3.6,3.7,3.6c1.1,0,2-0.2,3.2-0.8v2.8
			c-1.1,0.6-2.4,0.9-3.9,0.9C622.4,121.2,619.7,119.5,619.7,115z"/>
		<path d="M634.8,90h3.3v12.8c1.4-2.4,3.7-4.3,7.5-4.3c5.3,0,8.4,3.5,8.4,8.7v13.6h-3.3V108c0-4.1-2.2-6.6-6-6.6
			c-3.8,0-6.5,2.7-6.5,6.8v12.5h-3.3V90z"/>
		<path d="M658.6,110L658.6,110c0-6.3,4.8-11.5,11.4-11.5c6.5,0,11.4,5.2,11.4,11.3v0.1c0,6.2-4.9,11.4-11.5,11.4
			C663.4,121.3,658.6,116.2,658.6,110z M678,110L678,110c0-4.8-3.5-8.6-8.1-8.6c-4.7,0-8,3.8-8,8.5v0.1c0,4.7,3.5,8.5,8.1,8.5
			C674.7,118.4,678,114.6,678,110z"/>
		<path d="M685.8,90h3.3v30.8h-3.3V90z"/>
		<path d="M693.6,110L693.6,110c0-6.3,4.8-11.5,11.4-11.5c6.5,0,11.4,5.2,11.4,11.3v0.1c0,6.2-4.9,11.4-11.5,11.4
			C698.4,121.3,693.6,116.2,693.6,110z M713.1,110L713.1,110c0-4.8-3.5-8.6-8.1-8.6c-4.7,0-8,3.8-8,8.5v0.1c0,4.7,3.5,8.5,8.1,8.5
			C709.8,118.4,713.1,114.6,713.1,110z"/>
		<path d="M721.2,124.6l1.5-2.5c2.5,1.8,5.3,2.8,8.4,2.8c4.8,0,7.9-2.7,7.9-7.8v-2.6c-1.9,2.5-4.6,4.6-8.6,4.6
			c-5.2,0-10.3-3.9-10.3-10.2v-0.1c0-6.4,5.1-10.3,10.3-10.3c4.1,0,6.8,2,8.5,4.4V99h3.3v18c0,3.4-1,6-2.8,7.7
			c-1.9,1.9-4.9,2.9-8.3,2.9C727.5,127.6,724.1,126.6,721.2,124.6z M739.1,108.8L739.1,108.8c0-4.6-3.9-7.5-8-7.5s-7.6,2.9-7.6,7.4
			v0.1c0,4.4,3.5,7.4,7.6,7.4C735.2,116.2,739.1,113.2,739.1,108.8z"/>
		<path d="M747.4,126.6l1.1-2.6c1.1,0.5,2,0.8,3.4,0.8c1.9,0,3.2-1,4.5-4.1L746.4,99h3.6l7.9,18.2l7-18.2h3.5l-9.2,22.6
			c-1.9,4.5-4,6.2-7.3,6.2C750.2,127.7,748.8,127.3,747.4,126.6z"/>
		<path d="M202.9,137.2h12.7c3.6,0,6.5,1.1,8.4,3c1.4,1.4,2.3,3.5,2.3,5.8v0.1c0,4.9-3.4,7.8-8,8.6l9.1,12.1h-4.1l-8.6-11.5h-8.5
			v11.5h-3.3V137.2z M215.3,152.3c4.4,0,7.6-2.3,7.6-6.1v-0.1c0-3.6-2.8-5.8-7.6-5.8h-9.1v12H215.3z"/>
		<path d="M241.2,164.5c3,0,5.1-1.2,6.9-3.1l2,1.8c-2.2,2.5-4.9,4.1-9,4.1c-6,0-10.9-4.6-10.9-11.4c0-6.3,4.4-11.4,10.5-11.4
			c6.5,0,10.2,5.2,10.2,11.6c0,0.3,0,0.6,0,1.1h-17.3C234,161.8,237.4,164.5,241.2,164.5z M247.6,154.6c-0.4-4-2.7-7.4-7-7.4
			c-3.8,0-6.6,3.1-7.1,7.4H247.6z"/>
		<path d="M253.9,164l1.6-2.3c2.4,1.8,5,2.8,7.6,2.8c2.6,0,4.5-1.4,4.5-3.5v-0.1c0-2.2-2.6-3-5.5-3.8c-3.4-1-7.2-2.2-7.2-6.2v-0.1
			c0-3.8,3.1-6.3,7.4-6.3c2.7,0,5.6,0.9,7.9,2.4l-1.5,2.5c-2-1.3-4.4-2.1-6.5-2.1c-2.6,0-4.2,1.4-4.2,3.2v0.1c0,2.1,2.7,2.9,5.6,3.8
			c3.4,1,7,2.3,7,6.3v0.1c0,4.1-3.4,6.5-7.8,6.5C259.9,167.2,256.4,166,253.9,164z"/>
		<path d="M285.6,164.5c3,0,5.1-1.2,6.9-3.1l2,1.8c-2.2,2.5-4.9,4.1-9,4.1c-6,0-10.9-4.6-10.9-11.4c0-6.3,4.4-11.4,10.5-11.4
			c6.5,0,10.2,5.2,10.2,11.6c0,0.3,0,0.6,0,1.1h-17.3C278.4,161.8,281.7,164.5,285.6,164.5z M292,154.6c-0.4-4-2.7-7.4-7-7.4
			c-3.8,0-6.6,3.1-7.1,7.4H292z"/>
		<path d="M298.5,160.5L298.5,160.5c0-4.8,3.8-7.2,9.3-7.2c2.8,0,4.7,0.4,6.7,0.9v-0.7c0-3.9-2.4-5.9-6.5-5.9
			c-2.6,0-4.6,0.6-6.6,1.6l-1-2.7c2.4-1.1,4.7-1.9,7.9-1.9c3.1,0,5.5,0.8,7.1,2.4c1.5,1.5,2.3,3.6,2.3,6.4v13.4h-3.2v-3.3
			c-1.5,1.9-4,3.7-7.9,3.7C302.5,167.3,298.5,165,298.5,160.5z M314.5,158.8v-2c-1.6-0.5-3.7-0.9-6.4-0.9c-4.1,0-6.4,1.8-6.4,4.4
			v0.1c0,2.7,2.5,4.4,5.5,4.4C311.3,164.7,314.5,162.3,314.5,158.8z"/>
		<path d="M323.7,145h3.3v5.7c1.6-3.6,4.8-6.3,8.9-6.1v3.5h-0.3c-4.8,0-8.7,3.4-8.7,10v8.7h-3.3V145z"/>
		<path d="M337.7,156L337.7,156c0-6.3,4.8-11.5,11.2-11.5c4.1,0,6.7,1.7,8.7,3.9l-2.2,2.3c-1.7-1.8-3.7-3.3-6.6-3.3
			c-4.4,0-7.8,3.8-7.8,8.5v0.1c0,4.7,3.5,8.5,8,8.5c2.8,0,4.9-1.4,6.7-3.3l2.1,1.9c-2.2,2.5-4.8,4.2-8.9,4.2
			C342.5,167.3,337.7,162.1,337.7,156z"/>
		<path d="M362.3,136h3.3v12.8c1.4-2.4,3.7-4.3,7.5-4.3c5.3,0,8.4,3.5,8.4,8.7v13.6h-3.3v-12.8c0-4.1-2.2-6.6-6-6.6
			c-3.8,0-6.5,2.7-6.5,6.8v12.5h-3.3V136z"/>
		<path d="M399.1,137.2h3.1l18.6,23.7v-23.7h3.3v29.6h-2.7l-19.1-24.3v24.3h-3.3V137.2z"/>
		<path d="M440.7,164.5c3,0,5.1-1.2,6.9-3.1l2,1.8c-2.2,2.5-4.9,4.1-9,4.1c-6,0-10.9-4.6-10.9-11.4c0-6.3,4.4-11.4,10.5-11.4
			c6.5,0,10.2,5.2,10.2,11.6c0,0.3,0,0.6,0,1.1H433C433.4,161.8,436.8,164.5,440.7,164.5z M447,154.6c-0.4-4-2.7-7.4-7-7.4
			c-3.8,0-6.6,3.1-7.1,7.4H447z"/>
		<path d="M456.3,161v-13.2h-3V145h3v-6.6h3.3v6.6h6.9v2.9h-6.9v12.8c0,2.7,1.5,3.6,3.7,3.6c1.1,0,2-0.2,3.2-0.8v2.8
			c-1.1,0.6-2.4,0.9-3.9,0.9C459,167.2,456.3,165.5,456.3,161z"/>
		<path d="M469.6,145h3.5l5.7,17.5l5.9-17.6h2.7l5.9,17.6L499,145h3.4l-7.7,22h-2.8l-5.9-17.2l-5.9,17.2h-2.9L469.6,145z"/>
		<path d="M504.5,156L504.5,156c0-6.3,4.8-11.5,11.4-11.5c6.5,0,11.4,5.2,11.4,11.3v0.1c0,6.2-4.9,11.4-11.5,11.4
			C509.3,167.3,504.5,162.2,504.5,156z M524,156L524,156c0-4.8-3.5-8.6-8.1-8.6c-4.7,0-8,3.8-8,8.5v0.1c0,4.7,3.5,8.5,8.1,8.5
			C520.7,164.4,524,160.6,524,156z"/>
		<path d="M532.3,145h3.3v5.7c1.6-3.6,4.8-6.3,8.9-6.1v3.5h-0.3c-4.8,0-8.7,3.4-8.7,10v8.7h-3.3V145z"/>
		<path d="M548.6,136h3.3v21.3l11.8-12.3h4.1l-9.2,9.4l9.5,12.5h-3.9l-7.8-10.2l-4.4,4.5v5.7h-3.3V136z"/>
	</g>
	<g>
		<g>
			<path fill="#2A5B2D" d="M196.1,47.8v-0.1c0-14.9,12-27,28.1-27s27.9,12,27.9,26.9v0.1c0,14.9-12,27-28.1,27
				C207.9,74.7,196.1,62.7,196.1,47.8z M237.3,47.8v-0.1c0-7.5-5.4-14-13.4-14c-7.9,0-13.1,6.4-13.1,13.9v0.1c0,7.5,5.4,14,13.3,14
				C232.1,61.7,237.3,55.3,237.3,47.8z"/>
			<path fill="#2A5B2D" d="M256.6,21.7h15.2l12.4,20.1l12.4-20.1h15.2v52h-14.3V43.8l-13.3,20.3h-0.3l-13.2-20.2v29.7h-14.1V21.7z"
				/>
			<path fill="#2A5B2D" d="M319.5,21.7h22.3c13.1,0,21.6,6.8,21.6,18.3v0.1c0,12.3-9.4,18.7-22.3,18.7h-7.1v14.8h-14.4V21.7z
				 M340.8,47.5c5.1,0,8.2-2.7,8.2-6.8v-0.1c0-4.5-3.1-6.8-8.3-6.8h-6.8v13.7H340.8z"/>
			<path fill="#2A5B2D" d="M366.5,21.7h24.6c7.9,0,13.4,2.1,16.9,5.6c3,3,4.6,7,4.6,12.1v0.1c0,7.9-4.2,13.2-10.7,16l12.4,18.1
				h-16.6l-10.5-15.7h-6.3v15.7h-14.4V21.7z M390.4,46.6c4.9,0,7.7-2.4,7.7-6.2v-0.1c0-4.1-3-6.2-7.8-6.2h-9.4v12.5H390.4z"/>
			<path fill="#2A5B2D" d="M418.4,21.7h13.4l21.4,27.5V21.7h14.3v52h-12.6l-22.2-28.5v28.5h-14.3V21.7z"/>
		</g>
	</g>
	<g>
		<circle fill="#2A5B2D" cx="93.7" cy="93.8" r="93.6"/>
		<g>
			<defs>
				<circle id="SVGID_1_" cx="93.8" cy="93.8" r="93.8"/>
			</defs>
			<clipPath id="SVGID_2_">
				<use xlink:href="#SVGID_1_"  overflow="visible"/>
			</clipPath>
			<g clip-path="url(#SVGID_2_)">
				<path fill="#FFFFFF" d="M183.7,52.2c0.1-0.5,0.1-0.9,0.1-1.4c0-3.6-2.3-6.6-5.5-7.7c0.3-2.4,0.4-4.9,0.4-7.4
					c0-37.2-30.3-67.5-67.5-67.5C74-31.8,43.7-1.5,43.7,35.7c0,2.5,0.1,4.9,0.4,7.3c-3.2,1.1-5.6,4.1-5.6,7.7c0,0.6,0.1,1.1,0.2,1.6
					C14.2,62.5-3,86.6-3,114.8c0,37.2,30.3,67.5,67.5,67.5c15.5,0,29.8-5.3,41.2-14.1c1.4,1.2,3.2,1.9,5.2,1.9
					c2.2,0,4.1-0.9,5.6-2.2c11.4,8.9,25.8,14.2,41.4,14.2c37.2,0,67.5-30.3,67.5-67.5C225.3,86.4,208.1,62.3,183.7,52.2z
					 M111.2-29.9c36.2,0,65.6,29.4,65.6,65.6c0,2.4-0.1,4.7-0.4,7c-0.2,0-0.5,0-0.7,0c-3.4,0-6.4,2.1-7.5,5.1
					c-3.4-0.5-6.8-0.8-10.4-0.8c-15.6,0-30,5.3-41.4,14.3c-1.4-1.3-3.3-2.1-5.4-2.1c-2.1,0-4,0.8-5.4,2.1c-11.4-8.8-25.6-14-41.1-14
					c-3.5,0-6.9,0.3-10.2,0.8c-1.1-3.1-4.1-5.4-7.6-5.4c-0.2,0-0.4,0-0.6,0c-0.2-2.3-0.4-4.6-0.4-7C45.6-0.5,75.1-29.9,111.2-29.9z
					 M121.2,100.6c-3.2,0.5-6.5,0.7-9.9,0.7c-3.4,0-6.8-0.3-10-0.8c0-0.2,0-0.3,0-0.5c0-3.4-2.2-6.4-5.2-7.5
					c2.4-6.8,5.9-13.1,10.3-18.6c1.3,0.9,2.9,1.5,4.6,1.5c1.8,0,3.4-0.6,4.7-1.5c4.5,5.6,8,11.9,10.5,18.7c-3,1.2-5,4.1-5,7.5
					C121.1,100.2,121.1,100.4,121.2,100.6z M54.7,49.9c3.2-0.5,6.4-0.7,9.8-0.7c15,0,28.8,5.1,39.8,13.5c-0.9,1.3-1.4,2.9-1.4,4.6
					c0,2.1,0.8,3.9,2.1,5.4c-4.6,5.8-8.3,12.3-10.8,19.4c-0.3,0-0.7-0.1-1-0.1c-3.1,0-5.8,1.7-7.1,4.3c-16.8-7-30.1-20.8-36.4-38
					c3-1.2,5.1-4.1,5.1-7.5C54.7,50.4,54.7,50.2,54.7,49.9z M117.1,72.6c1.2-1.4,2-3.3,2-5.3c0-1.7-0.5-3.3-1.4-4.6
					c11.1-8.6,25-13.8,40.2-13.8c3.4,0,6.7,0.3,9.9,0.7c0,0.4-0.1,0.7-0.1,1.1c0,3.5,2.2,6.4,5.2,7.6c-6.3,17.2-19.6,31-36.4,38
					c-1.4-2.6-4.1-4.3-7.2-4.3c-0.4,0-0.8,0-1.2,0.1C125.5,84.9,121.7,78.3,117.1,72.6z M104.4,166.7c-11.1,8.5-24.9,13.6-39.9,13.6
					c-36.2,0-65.6-29.4-65.6-65.6c0-27.3,16.7-50.7,40.5-60.6c1.3,2.7,4.1,4.6,7.3,4.6c0.4,0,0.8,0,1.1-0.1
					c6.5,17.7,20.2,32,37.5,39.3c-0.2,0.6-0.3,1.3-0.3,2c0,3.6,2.4,6.7,5.6,7.7c-0.2,2.2-0.3,4.5-0.3,6.7c0,15.8,5.5,30.4,14.6,41.9
					c-1.4,1.4-2.2,3.4-2.2,5.5C102.8,163.7,103.4,165.4,104.4,166.7z M115.8,155.5c-1.4-1.1-3.1-1.7-4.9-1.7c-1.6,0-3.2,0.5-4.5,1.3
					c-8.9-11.2-14.2-25.3-14.2-40.7c0-2.2,0.1-4.3,0.3-6.4c0.2,0,0.4,0,0.6,0c3.6,0,6.7-2.4,7.7-5.7c3.4,0.5,6.8,0.8,10.4,0.8
					c3.5,0,6.9-0.3,10.3-0.8c1,3.3,4.1,5.7,7.7,5.7c0.2,0,0.3,0,0.5,0c0.2,2.2,0.3,4.4,0.3,6.6C130,130.2,124.7,144.3,115.8,155.5z
					 M157.8,180.1c-15.1,0-29.1-5.2-40.2-13.8c0.8-1.3,1.3-2.8,1.3-4.4c0-1.9-0.7-3.7-1.8-5.1c9.2-11.6,14.8-26.2,14.8-42.1
					c0-2.4-0.1-4.7-0.4-7c3.3-1,5.7-4.1,5.7-7.7c0-0.7-0.1-1.3-0.3-2c17.4-7.2,31.2-21.5,37.6-39.3c0.3,0,0.7,0.1,1,0.1
					c3.3,0,6.2-2,7.4-4.8c23.6,9.9,40.3,33.3,40.3,60.5C223.4,150.7,194,180.1,157.8,180.1z"/>
				<path fill="#FFFFFF" d="M64.5,182.8c-37.5,0-68-30.5-68-68c0-27.5,16.4-52,41.7-62.7c-0.1-0.4-0.1-0.9-0.1-1.3
					c0-3.6,2.2-6.8,5.6-8c-0.2-2.4-0.4-4.7-0.4-7c0-37.5,30.5-68,68-68s68,30.5,68,68c0,2.3-0.1,4.7-0.4,7c3.3,1.3,5.4,4.4,5.4,8
					c0,0.4,0,0.7-0.1,1.1c25.3,10.7,41.6,35.2,41.6,62.7c0,37.5-30.5,68-68,68c-15.1,0-29.4-4.9-41.3-14.1c-1.6,1.4-3.5,2.1-5.6,2.1
					c-1.9,0-3.7-0.6-5.2-1.7C93.7,177.9,79.5,182.8,64.5,182.8z M111.2-31.3c-36.9,0-67,30.1-67,67c0,2.4,0.1,4.8,0.4,7.3l0,0.4
					l-0.4,0.1c-3.1,1-5.2,3.9-5.2,7.2c0,0.5,0.1,1,0.2,1.5l0.1,0.4l-0.4,0.2C13.7,63.3-2.5,87.6-2.5,114.8c0,36.9,30.1,67,67,67
					c14.9,0,29.1-4.8,40.9-14l0.3-0.2l0.3,0.3c1.4,1.1,3.1,1.8,4.9,1.8c2,0,3.8-0.7,5.2-2.1l0.3-0.3l0.3,0.3
					c11.9,9.2,26.1,14.1,41.1,14.1c36.9,0,67-30.1,67-67c0-27.1-16.2-51.4-41.3-61.9l-0.4-0.2l0.1-0.4c0.1-0.5,0.1-0.9,0.1-1.3
					c0-3.2-2.1-6.1-5.1-7.2l-0.4-0.1l0-0.4c0.3-2.5,0.4-4.9,0.4-7.3C178.2-1.2,148.2-31.3,111.2-31.3z M64.5,180.9
					c-36.4,0-66.1-29.7-66.1-66.1c0-26.8,16-50.7,40.8-61l0.4-0.2l0.2,0.4c1.2,2.6,3.9,4.4,6.9,4.4c0.3,0,0.7,0,1.1-0.1l0.4-0.1
					l0.1,0.4c6.4,17.6,20,31.8,37.2,39l0.4,0.2l-0.1,0.4c-0.2,0.6-0.3,1.3-0.3,1.9c0,3.3,2.1,6.2,5.3,7.2l0.4,0.1l0,0.4
					c-0.2,2.2-0.3,4.5-0.3,6.7c0,15.2,5,29.6,14.5,41.6l0.3,0.3l-0.3,0.3c-1.3,1.4-2.1,3.3-2.1,5.2c0,1.6,0.5,3.2,1.5,4.5l0.3,0.4
					l-0.4,0.3C93,176.1,79.1,180.9,64.5,180.9z M39.1,54.8C14.9,65.1-0.6,88.5-0.6,114.8c0,35.9,29.2,65.1,65.1,65.1
					c14.3,0,27.8-4.6,39.2-13.2c-0.9-1.4-1.4-3-1.4-4.7c0-2,0.7-4,2-5.5c-9.5-12.1-14.5-26.6-14.5-41.9c0-2.1,0.1-4.3,0.3-6.4
					c-3.4-1.2-5.6-4.4-5.6-8c0-0.6,0.1-1.1,0.2-1.7c-17.2-7.3-30.8-21.5-37.3-39c-0.3,0-0.6,0-0.8,0C43.5,59.3,40.6,57.6,39.1,54.8z
					 M157.8,180.6c-14.8,0-28.8-4.8-40.5-13.9l-0.4-0.3l0.2-0.4c0.8-1.2,1.2-2.7,1.2-4.1c0-1.8-0.6-3.4-1.7-4.8l-0.3-0.3l0.3-0.3
					c9.6-12,14.7-26.4,14.7-41.8c0-2.3-0.1-4.6-0.4-6.9l0-0.4l0.4-0.1c3.2-1,5.4-3.9,5.4-7.3c0-0.6-0.1-1.2-0.2-1.8l-0.1-0.4
					l0.4-0.2c17.3-7.2,30.9-21.4,37.3-39l0.1-0.4l0.4,0c0.3,0,0.6,0.1,1,0.1c3,0,5.7-1.8,7-4.5l0.2-0.5l0.5,0.2
					c24.7,10.4,40.6,34.3,40.6,61C223.9,150.9,194.3,180.6,157.8,180.6z M118.3,166.2c11.4,8.8,25.1,13.4,39.5,13.4
					c35.9,0,65.1-29.2,65.1-65.1c0-26.1-15.5-49.6-39.5-59.9c-1.5,2.9-4.4,4.7-7.7,4.7c-0.2,0-0.4,0-0.7,0
					c-6.5,17.6-20.1,31.8-37.4,39.1c0.1,0.6,0.2,1.1,0.2,1.7c0,3.7-2.3,6.9-5.7,8.1c0.2,2.2,0.3,4.4,0.3,6.6
					c0,15.4-5.1,30-14.7,42.1c1.1,1.5,1.7,3.3,1.7,5.1C119.5,163.4,119.1,164.9,118.3,166.2z M115.9,156.2l-0.4-0.3
					c-1.3-1-2.9-1.6-4.6-1.6c-1.5,0-2.9,0.4-4.2,1.3l-0.4,0.3l-0.3-0.4c-9.4-11.8-14.3-26-14.3-41c0-2.1,0.1-4.3,0.3-6.4l0-0.5
					l0.5,0c0.2,0,0.4,0,0.6,0c3.4,0,6.3-2.2,7.3-5.4l0.1-0.4l0.4,0.1c6.8,1,13.8,1,20.5,0l0.4-0.1l0.1,0.4c1,3.2,3.9,5.3,7.3,5.3
					c0.1,0,0.2,0,0.3,0l0.6,0l0,0.5c0.2,2.2,0.3,4.5,0.3,6.7c0,15.1-5,29.3-14.4,41.1L115.9,156.2z M110.9,153.3
					c1.7,0,3.4,0.5,4.8,1.5c9.1-11.6,13.9-25.4,13.9-40.1c0-2-0.1-4.1-0.3-6.1c0,0,0,0,0,0c-3.6,0-6.8-2.2-8.1-5.6
					c-6.6,1-13.4,1-19.9,0c-1.2,3.4-4.4,5.7-8.1,5.7c0,0-0.1,0-0.1,0c-0.2,2-0.3,3.9-0.3,5.9c0,14.6,4.8,28.5,13.8,40
					C107.8,153.7,109.3,153.3,110.9,153.3z M111.2,101.8c-3.4,0-6.8-0.3-10.1-0.8l-0.5-0.1l0-0.6c0-0.1,0-0.2,0-0.3
					c0-3.2-1.9-5.9-4.9-7.1l-0.5-0.2l0.2-0.5c2.4-6.8,5.9-13.1,10.4-18.8l0.3-0.4l0.4,0.3c2.6,1.8,6.2,1.8,8.7-0.1l0.4-0.3l0.3,0.4
					c4.6,5.7,8.1,12.1,10.6,18.9l0.2,0.5l-0.4,0.2c-2.9,1.2-4.7,3.9-4.7,7c0,0.1,0,0.3,0,0.4l0,0.6l-0.5,0.1
					C117.9,101.6,114.6,101.8,111.2,101.8z M101.7,100.1c6.2,0.9,12.7,0.9,18.9,0c0,0,0-0.1,0-0.1c0-3.3,1.9-6.3,4.9-7.8
					c-2.4-6.4-5.7-12.4-10-17.8c-2.7,1.7-6.4,1.8-9.1,0.1c-4.2,5.4-7.5,11.3-9.8,17.7C99.7,93.6,101.7,96.7,101.7,100.1
					C101.7,100.1,101.7,100.1,101.7,100.1z M136.2,96.9l-0.2-0.4c-1.3-2.5-3.9-4.1-6.7-4.1c-0.3,0-0.7,0-1.1,0.1l-0.4,0.1l-0.1-0.4
					c-2.5-7-6.2-13.5-10.9-19.4l-0.3-0.3l0.3-0.3c1.2-1.4,1.9-3.1,1.9-5c0-1.5-0.5-3-1.3-4.3l-0.3-0.4l0.4-0.3
					c11.7-9.1,25.7-13.9,40.5-13.9c3.3,0,6.7,0.3,10,0.8l0.5,0.1l-0.1,0.5c-0.1,0.4-0.1,0.7-0.1,1c0,3.1,2,6,4.9,7.1l0.5,0.2
					l-0.2,0.5c-6.3,17.3-19.7,31.2-36.7,38.3L136.2,96.9z M129.2,91.4c3.1,0,5.8,1.6,7.4,4.2c16.4-7,29.3-20.4,35.6-37.1
					c-3.1-1.4-5.1-4.5-5.1-7.8c0-0.2,0-0.4,0-0.7c-3.1-0.4-6.2-0.7-9.3-0.7c-14.4,0-28,4.6-39.5,13.4c0.8,1.3,1.2,2.9,1.2,4.4
					c0,1.9-0.7,3.8-1.8,5.3c4.6,5.7,8.1,12.1,10.6,18.9C128.7,91.5,128.9,91.4,129.2,91.4z M86.2,96.9l-0.4-0.2
					c-17-7.1-30.3-21.1-36.6-38.3L49,58l0.5-0.2c2.9-1.2,4.8-3.9,4.8-7c0-0.3,0-0.5,0-0.8l0-0.5l0.5-0.1c3.3-0.5,6.6-0.7,9.8-0.7
					c14.6,0,28.5,4.7,40.1,13.6l0.4,0.3l-0.3,0.4c-0.9,1.3-1.3,2.7-1.3,4.3c0,1.9,0.7,3.6,1.9,5l0.3,0.3l-0.3,0.3
					c-4.6,5.8-8.2,12.3-10.7,19.3l-0.1,0.4l-0.4-0.1c-0.4,0-0.7-0.1-1-0.1c-2.8,0-5.4,1.5-6.7,4L86.2,96.9z M50.3,58.5
					c6.2,16.6,19.1,30.1,35.5,37.1c1.6-2.6,4.3-4.2,7.4-4.2c0.2,0,0.5,0,0.7,0c2.4-6.8,6-13.1,10.5-18.9c-1.2-1.5-1.9-3.4-1.9-5.4
					c0-1.6,0.4-3.1,1.2-4.4c-11.4-8.6-24.9-13.1-39.2-13.1c-3.1,0-6.2,0.2-9.2,0.7c0,0.1,0,0.3,0,0.4C55.2,54.1,53.3,57.1,50.3,58.5
					z M116.4,61.9l-0.3-0.3c-1.4-1.3-3.2-2-5.1-2c-1.9,0-3.7,0.7-5.1,2l-0.3,0.3l-0.3-0.3c-11.8-9.1-25.9-13.9-40.8-13.9
					c-3.4,0-6.8,0.3-10.1,0.8l-0.4,0.1l-0.1-0.4c-1.1-3-3.9-5.1-7.1-5.1c-0.2,0-0.4,0-0.6,0l-0.5,0l-0.1-0.5c-0.2-2.4-0.4-4.7-0.4-7
					c0-36.4,29.7-66.1,66.1-66.1c36.4,0,66.1,29.7,66.1,66.1c0,2.3-0.1,4.7-0.4,7l-0.1,0.5l-0.5,0c-0.2,0-0.5,0-0.7,0
					c-3.1,0-5.9,1.9-7.1,4.8l-0.1,0.4l-0.4-0.1c-3.4-0.5-6.9-0.8-10.3-0.8c-15,0-29.2,4.9-41.1,14.2L116.4,61.9z M64.5,46.8
					c15,0,29.2,4.8,41.1,13.9c1.5-1.3,3.5-2,5.4-2c2,0,3.9,0.7,5.4,2c12-9.2,26.3-14.1,41.4-14.1c3.4,0,6.7,0.3,10.1,0.7
					c1.4-3.1,4.4-5.1,7.8-5.1c0.1,0,0.2,0,0.3,0c0.2-2.2,0.3-4.3,0.3-6.4c0-35.9-29.2-65.1-65.1-65.1c-35.9,0-65.1,29.2-65.1,65.1
					c0,2.1,0.1,4.3,0.3,6.4c0.1,0,0.1,0,0.2,0c3.5,0,6.6,2.1,7.9,5.3C57.8,47,61.2,46.8,64.5,46.8z"/>
			</g>
		</g>
	</g>
</g>
</svg>
