<?xml version="1.0" encoding="utf-8"?>
<!-- Generator: Adobe Illustrator 18.1.0, SVG Export Plug-In . SVG Version: 6.00 Build 0)  -->
<!DOCTYPE svg PUBLIC "-//W3C//DTD SVG 1.1//EN" "http://www.w3.org/Graphics/SVG/1.1/DTD/svg11.dtd">
<svg version="1.1" id="Layer_1" xmlns="http://www.w3.org/2000/svg" xmlns:xlink="http://www.w3.org/1999/xlink" x="0px" y="0px"
	 viewBox="0 0 770.9 268" width="770.9" height="268" enable-background="new 0 0 770.9 268" xml:space="preserve">
<g>
	<g>
		<defs>
			<rect id="SVGID_1_" width="770.9" height="268"/>
		</defs>
		<clipPath id="SVGID_2_">
			<use xlink:href="#SVGID_1_"  overflow="visible"/>
		</clipPath>
		<path clip-path="url(#SVGID_2_)" fill="#4053A9" d="M767.9,226.9c-14.1,10.6-35.7,19-64.6,25.3c-28.9,6.3-58.4,9.4-88.5,9.4
			c-45.9,0-84.9-7.7-117.2-23.2c-32.3-15.5-55.9-35.3-70.8-59.4c-10.8-17.3-17.6-33.2-20.7-47.7c-5.8-0.5-2.3,17.8-8.3,17.8
			c-8,0-1.5,24.1-7.7,20.1c-1.2,5.8-3.1-12.1-3.1-6.2c0,35.3-2.4,42.2,33.9,67.6c36.2,25.3,96.3,38,180.3,38
			c22.7,0,40.8-0.6,54.3-1.8c13.5-1.2,42.9-4.9,88.3-11.3l28-27.9L767.9,226.9z M767.9,226.9"/>
	</g>
	<path fill="#4053A9" d="M400.7,111.9c1.4,4.3,2.4,8.7,3.2,13.1C404.6,119.4,403.6,114.7,400.7,111.9 M366.5,125.4
		c-0.4,0.5-0.9,1-1.3,1.5c-11.7,14.7-15.1,31.4-7.5,37.4c3.6,2.8,8.9,2.8,14.9,0.4c-4.7-4-9.3-7.9-13.9-12
		C362.8,143.1,365.4,134,366.5,125.4 M403.9,124.9c-1,7.2-4.9,15.8-11.3,23.8c-6.2,7.7-13.4,13.3-20,16c7.4,6.3,14.7,12.7,21.5,19.7
		c7.4-13.9,11-28.8,11-44.7C405.1,134.8,404.7,129.8,403.9,124.9 M400.1,111.3c0.2,0.2,0.4,0.4,0.6,0.6
		c-4.5-13.9-12.3-27.6-23.5-40.8c-18.6-22-45.4-39.3-80.5-52c-35-12.7-75.1-19-120.1-19c-22.5,0-42,1.3-58.4,4
		c-16.4,2.7-30.1,5.4-41,8.2l-18,4.4c-0.5,0.1-0.9,0.2-1.1,0.4l-15,27.7h3.6C85.6,19.6,131.4,6.9,184.1,6.9
		c54.7,0,98.9,10.6,132.6,31.7c33.7,21.1,50.6,46.6,50.6,76.6c0,3.3-0.3,6.7-0.7,10.2C378.1,111.8,392.8,105.5,400.1,111.3"/>
	<path fill="#0492D2" d="M528.3,168.5v0.9h-35.8c-6.9,0-12.9-0.7-18.1-2.2c-5.2-1.5-10.4-4.3-15.8-8.5c-5.4-4.2-9.7-9.3-13-15.5
		c-3.3-6.2-5-12.5-5-19c0-7.1,2.1-14.1,6.2-21.2c4.2-7,10.1-12.8,17.8-17.1c7.7-4.4,16.4-6.6,26.1-6.6c8.7,0,18,1.9,27.7,5.9
		l3.7,10.4h-0.8c-3.1-3.9-7.3-7.2-12.7-9.8c-5.4-2.6-11.3-3.9-17.9-3.9c-11.5,0-20.9,4.3-28.2,12.9c-7.3,8.6-11,19.2-11,32
		c0,5.3,0.6,10,1.8,14.1c1.2,4.1,3.5,8.2,6.8,12.2c3.3,4,6.9,7,10.7,8.9c3.8,1.9,8.1,3.2,12.8,4c4.7,0.7,8.4,1.1,11.2,1l4.8-0.1
		c5.4-0.2,8.8-0.7,10.1-1.5c1.3-0.8,2-2.8,2-6.1v-13.4c0-2.6-0.5-4.3-1.6-5.2c-1.1-0.9-2.6-1.3-4.6-1.2v-0.9h23v0.9
		c-2.6,0-4.3,0.5-5.2,1.5c-0.9,1-1.3,2.9-1.3,5.8v14c0,2.8,0.4,4.8,1.1,6c0.7,1.2,2.1,1.8,4.1,1.8H528.3z M528.3,168.5"/>
	<path fill="#0492D2" d="M535,81.4v-0.9h56v12.3h-0.9c-1.2-4.6-2.2-7.2-3.1-8c-0.8-0.8-2.9-1.2-6.1-1.2h-29.4v39.8h27.4
		c2.7,0,4.4-0.3,5.2-0.8c0.7-0.5,1.1-1.2,1.2-2.2h0.9v8.5h-0.9c-0.2-1.2-0.7-2-1.4-2.4c-0.8-0.4-2.1-0.6-4.2-0.6h-28.1v27.4
		c0,4.1,0.4,7.1,1.1,9c0.8,1.8,2,3,3.7,3.4c1.7,0.5,4.2,0.7,7.6,0.7h15.7c5,0,8.2-0.2,9.6-0.5c1.4-0.3,2.6-1,3.5-2
		c1-1,1.7-3.3,2.2-6.7h0.9v12.3H535v-0.9c2.1-0.1,3.6-0.5,4.7-1.2c1.1-0.7,1.6-2.4,1.6-5.2V90.3c0-3.3-0.3-5.6-0.8-6.9
		C539.9,82.1,538.1,81.4,535,81.4"/>
	<path fill="#0492D2" d="M675,80.5h17.1v0.9c-2.6,0.1-4.4,0.6-5.4,1.7c-1,1-1.5,3.2-1.5,6.5v80.9L614.3,95v65.8
		c0,2.1,0.2,3.6,0.5,4.6c0.3,1,0.8,1.7,1.4,2.1c0.6,0.4,2.1,0.7,4.4,1.1v0.9h-17v-0.9c3.1,0,5-0.5,5.7-1.6c0.8-1.1,1.1-3.7,1.1-7.8
		V98.9c0-5.3-0.7-9.6-2.2-12.9c-1.5-3.3-4.8-4.9-10.1-4.6v-0.9h16.7l66.7,71V88.7c0-3.4-0.6-5.4-1.8-6.2c-1.2-0.7-2.8-1.1-4.7-1.1
		V80.5z M675,80.5"/>
	<path fill="#0492D2" d="M701,81.4v-0.9h56v12.3h-0.9c-1.2-4.6-2.2-7.2-3.1-8c-0.8-0.8-2.9-1.2-6.1-1.2h-29.4v39.8h27.4
		c2.7,0,4.4-0.3,5.2-0.8c0.7-0.5,1.1-1.2,1.2-2.2h0.9v8.5h-0.9c-0.2-1.2-0.7-2-1.4-2.4c-0.8-0.4-2.1-0.6-4.2-0.6h-28.1v27.4
		c0,4.1,0.4,7.1,1.1,9c0.8,1.8,2,3,3.7,3.4c1.7,0.5,4.2,0.7,7.6,0.7h15.7c5,0,8.2-0.2,9.6-0.5c1.4-0.3,2.6-1,3.5-2
		c1-1,1.7-3.3,2.2-6.7h0.9v12.3H701v-0.9c2-0.1,3.6-0.5,4.7-1.2c1.1-0.7,1.6-2.4,1.6-5.2V90.3c0-3.3-0.3-5.6-0.8-6.9
		C705.8,82.1,704,81.4,701,81.4"/>
	<path fill="#4053A9" d="M100.7,86.3l3.3,9.5h-0.8c-8.6-8.6-18.7-12.8-30.4-12.8c-12.1,0-21.9,3.6-29.3,10.7
		c-7.5,7.2-11.2,15.8-11.2,26c0,6.3,1.7,13.5,5,21.7c3.3,8.2,8.5,14.9,15.7,20.1c7.1,5.3,15.8,7.9,26,7.9c6.7,0,13.2-1.1,19.6-3.2
		c6.4-2.1,11.2-5,14.3-8.6l0.9,0.2l-6.2,9.6c-10.1,2.2-16.6,3.5-19.6,3.9c-3,0.4-7,0.6-12,0.6c-18.6,0-31.9-4.3-40-12.9
		c-8-8.6-12-18.9-12-30.9c0-8.1,2.1-15.9,6.2-23.4c4.1-7.5,10.1-13.4,17.8-17.7c7.8-4.3,16.6-6.5,26.6-6.5c5,0,9.3,0.5,12.9,1.4
		s6.7,1.9,9.1,2.8l4,1.5C100.6,86.2,100.6,86.2,100.7,86.3"/>
	<path fill="#4053A9" d="M135.5,126.7h24l-12-30.2L135.5,126.7z M160.6,129.2h-26l-13.4,33.6c-0.9,2.4-1.4,3.9-1.4,4.5
		c0,1.3,1,2,3,2v0.9h-13.2v-0.9c1.8,0,3.3-0.4,4.5-1.3c1.2-0.9,2.5-3.1,4-6.7L150.2,80h1.6l31.6,78.4c0,0.4,0.8,2.3,2.4,5.7
		c1.6,3.4,4.1,5.1,7.4,5.1v0.9h-20.7v-0.9c1.9,0,2.8-0.7,2.8-2.2c0-1-0.5-2.6-1.4-4.8c-0.2-0.2-0.3-0.4-0.4-0.8
		c-0.1-0.4-0.1-0.6-0.2-0.6L160.6,129.2z M160.6,129.2"/>
	<path fill="#4053A9" d="M215.3,83.8v41.6h9.3c7.3,0,12.8-1.7,16.3-5.2c3.6-3.4,5.3-8,5.3-13.6c0-5.5-1.7-10.6-5.2-15.5
		c-3.5-4.9-9.6-7.3-18.4-7.3H215.3z M198.8,82.2v-0.9H224c6.4,0,11,0.1,13.8,0.4c2.9,0.3,5.8,1.2,8.8,2.8c3,1.6,5.2,3.7,6.8,6.5
		c1.5,2.7,2.3,6.1,2.3,10c0,4.5-1.4,8.8-4.1,12.9c-2.7,4.1-6.6,7.5-11.5,10.4l6.3,9.6c1.4,2.4,5,7.7,10.9,15.8
		c5.9,8.2,10.5,13.1,13.7,14.9c3.2,1.8,6.3,2.7,9.3,2.7c3,0,6.4-1.2,10.3-3.5l0.4,1.2c-4.8,4-11.1,5.9-18.8,5.9
		c-5.1,0-9.6-1.5-13.3-4.6c-3.7-3-10.1-11.4-19.3-25.1c-0.1-0.1-0.1-0.2-0.1-0.2l-8.9-13.7l-7.9,0.2h-7.2v34c0,2.7,0.4,4.7,1.1,5.9
		c0.7,1.2,2.4,1.8,5.2,1.8v0.9h-22.8v-0.9c2.8-0.1,4.5-0.7,5.2-1.8c0.7-1.1,1-3.3,1-6.6V90.2c0-2.3-0.3-4.2-0.9-5.7
		C203.6,83,201.8,82.2,198.8,82.2"/>
	<path fill="#4053A9" d="M346.2,78.3L342,88.9h-0.9c0.2-0.6,0.2-1.5,0.2-2.6c0-0.9-0.3-1.5-1-1.8c-0.7-0.3-1.7-0.4-3.2-0.4H314v76.1
		c0,3.1,0.3,5.3,0.8,6.4c0.5,1.1,1.2,1.9,2.1,2.2s2.3,0.5,4.2,0.5v0.9h-24.1v-0.9c3-0.2,4.9-0.8,5.7-1.7c0.8-1,1.2-3,1.2-6V84.2
		h-22.2c-2.2,0-3.7,0.1-4.4,0.4c-0.7,0.3-1,0.9-1,1.9c0,0.5,0.2,1.3,0.5,2.4h-0.9l-4.2-10.6h0.9c0.7,1.4,1.4,2.3,2.1,2.5
		c0.7,0.3,2.2,0.4,4.5,0.4h59c2.3,0,4-0.1,5-0.4c1-0.3,1.8-1.1,2.3-2.5H346.2z M346.2,78.3"/>
	<path fill="#0492D2" d="M404.8,131.2c0.7,1-2.4,4.1,2.2,4.1c-1.5-4.6-1.5-7.7-1.5-12.3c-1.5,3.1-4.6,6.2-5,8.8
		C401.9,131.6,403.4,131.4,404.8,131.2"/>
	<g>
		<defs>
			<rect id="SVGID_3_" width="770.9" height="268"/>
		</defs>
		<clipPath id="SVGID_4_">
			<use xlink:href="#SVGID_3_"  overflow="visible"/>
		</clipPath>
		<path clip-path="url(#SVGID_4_)" fill="#0492D2" d="M713.6,17.1c-0.2-0.1-0.6-0.2-1.1-0.4l-18-4.4c-10.9-2.8-24.6-5.6-41-8.2
			c-16.4-2.7-35.9-4-58.4-4C550,0,510,6.3,474.9,19c-8.8,3.2-17,6.6-24.7,10.4c-3.9,1.9-7.6,3.8-11.2,5.8
			c-36.6,19.8-69,53.8-72.1,97c7.7-12.4,21.6-26.2,37.1-18.5c0-34,24.7-58.7,51-75.1c3.4-2.1,6.8-4.1,10.4-6
			c32.2-17.1,73-25.7,122.2-25.7c52.7,0,98.5,12.6,137.4,37.8h3.6L713.6,17.1z M713.6,17.1"/>
		<path clip-path="url(#SVGID_4_)" fill="#0492D2" d="M400.5,131.8c-8.9,14.3-21.2,37.5-36.7,31.3c-7.7-4.6,0-18.5,1.5-27.8
			c-6.2,9.3-6.2,23.2-13.9,32.4c-2,3.7-4.2,7.5-6.6,11.4c-15,24.1-38.6,43.8-70.8,59.4c-32.3,15.5-71.3,23.2-117.2,23.2
			c-30.1,0-59.6-3.1-88.5-9.4c-28.9-6.3-50.4-14.7-64.6-25.3l-3.9,0.7l28,27.9c45.4,6.4,74.8,10.1,88.3,11.3
			c13.5,1.2,31.6,1.8,54.3,1.8c84,0,144.1-12.7,180.3-38c13.6-9.5,24.6-19.7,33.1-30.6c2.8-3.6,5.4-7.3,7.6-11.1
			c9.3-18.1,15.5-38.2,13.3-57.8C403.4,131.4,401.9,131.6,400.5,131.8"/>
	</g>
	<path fill="#3F51AB" d="M395,140c-7.3,10.2-13.4,17.2-18.1,21c-4.8,3.9-9.1,5.8-13.2,5.8c-3.5,0-6.3-1.2-8.6-3.7
		c-2.3-2.5-3.4-5.7-3.4-9.7c0-9.3,4.5-19.2,13.5-29.7c9.1-10.6,19.3-15.9,30.6-15.9c2.2,0,4,0.2,5.6,0.6c1.6,0.4,2.4,1,2.4,1.9
		c0,0.9-0.8,2.9-2.5,6c-3.3-2.3-6.5-3.5-9.5-3.5c-6.3,0-12.4,5.2-18.4,15.6c-5.9,10.4-8.9,18.5-8.9,24.3c0,2,0.5,3.5,1.6,4.6
		c1,1,2.3,1.5,3.7,1.5c3,0,6-1.6,9.2-4.8c3.2-3.2,7.4-8.5,12.4-15.9c4.6-6.4,8.2-11.9,10.7-16.5c2.7-4.7,4.6-8.3,5.9-10.7
		c0.4-0.8,1.4-1.2,3.1-1.2h4.3c1,0,1.8,0.2,2.2,0.5c0.4,0.2,0.6,0.6,0.6,1.1c0,0.5-1.4,4.5-4.1,11.9c-6.8,19.1-10.2,29.8-10.2,32
		c0,2.5,0.9,3.7,2.8,3.7c1.8,0,4-1.2,6.7-3.6c2.8-2.5,5.4-4.9,7.7-7.2c0.4-0.5,0.9-0.7,1.4-0.7c0.3,0,0.6,0.1,0.7,0.4
		c0.2,0.2,0.4,0.6,0.4,1c0,1.4-2.8,4.8-8.4,10.3c-5.6,5.4-10.7,8.1-15.2,8.1c-2.3,0-4.4-0.8-6.1-2.5c-1.7-1.8-2.5-4.1-2.5-7.1
		C391.4,153.5,392.6,147.8,395,140"/>
	<path fill="none" stroke="#FFFFFF" stroke-width="3.087" d="M395,140c-7.3,10.2-13.4,17.2-18.1,21c-4.8,3.9-9.1,5.8-13.2,5.8
		c-3.5,0-6.3-1.2-8.6-3.7c-2.3-2.5-3.4-5.7-3.4-9.7c0-9.3,4.5-19.2,13.5-29.7c9.1-10.6,19.3-15.9,30.6-15.9c2.2,0,4,0.2,5.6,0.6
		c1.6,0.4,2.4,1,2.4,1.9c0,0.9-0.8,2.9-2.5,6c-3.3-2.3-6.5-3.5-9.5-3.5c-6.3,0-12.4,5.2-18.4,15.6c-5.9,10.4-8.9,18.5-8.9,24.3
		c0,2,0.5,3.5,1.6,4.6c1,1,2.3,1.5,3.7,1.5c3,0,6-1.6,9.2-4.8c3.2-3.2,7.4-8.5,12.4-15.9c4.6-6.4,8.2-11.9,10.7-16.5
		c2.7-4.7,4.6-8.3,5.9-10.7c0.4-0.8,1.4-1.2,3.1-1.2h4.3c1,0,1.8,0.2,2.2,0.5c0.4,0.2,0.6,0.6,0.6,1.1c0,0.5-1.4,4.5-4.1,11.9
		c-6.8,19.1-10.2,29.8-10.2,32c0,2.5,0.9,3.7,2.8,3.7c1.8,0,4-1.2,6.7-3.6c2.8-2.5,5.4-4.9,7.7-7.2c0.4-0.5,0.9-0.7,1.4-0.7
		c0.3,0,0.6,0.1,0.7,0.4c0.2,0.2,0.4,0.6,0.4,1c0,1.4-2.8,4.8-8.4,10.3c-5.6,5.4-10.7,8.1-15.2,8.1c-2.3,0-4.4-0.8-6.1-2.5
		c-1.7-1.8-2.5-4.1-2.5-7.1C391.4,153.5,392.6,147.8,395,140L395,140z M395,140"/>
</g>
</svg>
