<?xml version="1.0" encoding="utf-8"?>
<!-- Generator: Adobe Illustrator 18.1.0, SVG Export Plug-In . SVG Version: 6.00 Build 0)  -->
<!DOCTYPE svg PUBLIC "-//W3C//DTD SVG 1.1//EN" "http://www.w3.org/Graphics/SVG/1.1/DTD/svg11.dtd">
<svg version="1.1" id="Layer_1_copy" xmlns="http://www.w3.org/2000/svg" xmlns:xlink="http://www.w3.org/1999/xlink" x="0px"
	 y="0px" viewBox="0 0 134.2 133.1" width="134.2" height="133.1" enable-background="new 0 0 134.2 133.1" xml:space="preserve">
<g id="XMLID_1_">
	<g id="XMLID_4_">
		<g>
			<path fill="#FFFFFF" d="M10,110.5l-0.5-1c-1.6-2.8-3-5.7-4.2-8.7l-0.4-1l25.3-10.2c-0.6-1.6-1.1-3.1-1.5-4.7l-0.3-1.1l15-3.9
				l0.3,1.1c0.3,1.3,0.8,2.5,1.3,3.8l0.4,1l-12.3,5c0.6,1.4,1.3,2.8,2.1,4.2l0.5,1L10,110.5z M7.5,100.9c1,2.3,2.1,4.6,3.3,6.8
				L33,95.2c-0.7-1.2-1.3-2.5-1.8-3.8L7.5,100.9z M30.9,85.3c0.4,1.3,0.8,2.5,1.3,3.8l10.7-4.3c-0.3-0.8-0.6-1.6-0.8-2.4L30.9,85.3z
				"/>
			<path fill="#FFFFFF" d="M10.1,110.2l-0.5-0.9c-1.5-2.7-2.9-5.6-4.1-8.4l-0.4-0.9l14.4-5.8l0.4,0.9c0.3,0.8,0.6,1.5,1,2.3
				c0.7,1.5,1.4,2.9,2.2,4.3l0.5,0.9L10.1,110.2z M7.8,101c0.9,2.2,1.9,4.3,3.1,6.4l10-5.7c-0.6-1.2-1.2-2.4-1.8-3.6
				c-0.2-0.5-0.4-1-0.6-1.4L7.8,101z"/>
			<path fill="#FFFFFF" d="M22.1,103.4l-0.5-0.9c-0.6-1.1-1.2-2.2-1.8-3.3c-0.6-1.1-1.1-2.3-1.5-3.5l-0.4-0.9l14.2-5.7l0.4,0.9
				c0.7,1.7,1.5,3.4,2.4,5l0.5,0.9L22.1,103.4z M20.5,95.9c0.3,0.8,0.7,1.6,1.1,2.4c0.4,0.8,0.8,1.6,1.2,2.4l9.9-5.6
				c-0.6-1.1-1.2-2.3-1.7-3.5L20.5,95.9z"/>
			<path fill="#FFFFFF" d="M31.2,91.4l-0.4-0.9c-0.7-1.8-1.3-3.7-1.8-5.5l-0.3-1l14.6-3.7l0.3,1c0.3,1.2,0.7,2.4,1.2,3.6l0.4,0.9
				L31.2,91.4z M31.2,85.4c0.3,1.1,0.7,2.2,1.1,3.3l10.2-4.1c-0.2-0.7-0.5-1.3-0.7-2L31.2,85.4z"/>
			<path fill="#FFFFFF" d="M15.9,73.9L0,73.7l0-1.1c0-3.2,0.3-6.4,0.7-9.6L0.9,62L2,62.1l14.6,2.1l-0.2,1.1c-0.3,2.5-0.5,5-0.6,7.5
				L15.9,73.9z M2,71.8l11.9,0.1c0-2,0.2-4,0.4-6L2.6,64.2C2.3,66.7,2.1,69.3,2,71.8z"/>
			<path fill="#FFFFFF" d="M15.7,73.7L0.2,73.5l0-1c0-3.1,0.3-6.2,0.7-9.3l0.1-1l15.3,2.1l-0.1,1c-0.3,2.4-0.5,4.9-0.5,7.3
				L15.7,73.7z M2.3,71.5l11.5,0.1c0.1-1.9,0.2-3.7,0.4-5.6L2.8,64.5C2.5,66.8,2.3,69.2,2.3,71.5z"/>
			<path fill="#FFFFFF" d="M43.6,66.1L2.4,54.7l0.3-1.1c0.9-3.1,1.9-6.1,3.2-9.1l0.4-1l25.1,10.7c0.7-1.5,1.4-3,2.3-4.4l0.6-1
				l13.3,7.9l-0.6,1c-0.7,1.2-1.3,2.4-1.8,3.6c-0.5,1.2-0.9,2.5-1.3,3.8L43.6,66.1z M4.9,53.3l37.3,10.3c0.3-1.1,0.7-2.1,1.1-3.1
				c0.4-1.1,0.9-2.1,1.5-3.1l-9.9-5.8c-0.8,1.4-1.5,2.8-2.1,4.3l-0.4,0.9l-25-10.6C6.4,48.5,5.6,50.9,4.9,53.3z"/>
			<path fill="#FFFFFF" d="M43.4,65.8l-14.5-4l0.3-1c0.5-1.9,1.2-3.7,1.9-5.5l0.4-0.9l13.8,5.9l-0.4,0.9c-0.5,1.1-0.9,2.4-1.2,3.6
				L43.4,65.8z M31.4,60.4L42,63.4c0.2-0.7,0.4-1.3,0.7-2l-10.2-4.3C32.1,58.2,31.8,59.3,31.4,60.4z"/>
			<path fill="#FFFFFF" d="M30.6,62.3l-14.8-4.1l0.3-1c0.7-2.4,1.5-4.8,2.5-7.1l0.4-0.9l14.1,6l-0.4,0.9c-0.7,1.7-1.3,3.4-1.8,5.3
				L30.6,62.3z M18.3,56.8l10.9,3c0.4-1.2,0.8-2.4,1.2-3.6l-10.4-4.4C19.4,53.4,18.8,55.1,18.3,56.8z"/>
			<path fill="#FFFFFF" d="M44.6,62l-13.8-5.9l0.4-0.9c0.7-1.8,1.6-3.5,2.6-5.2l0.5-0.9l12.9,7.6l-0.5,0.9c-0.6,1.1-1.2,2.2-1.7,3.4
				L44.6,62z M33.4,55l10.2,4.3c0.3-0.6,0.6-1.2,0.9-1.8L35,51.9C34.4,52.9,33.9,54,33.4,55z"/>
			<path fill="#FFFFFF" d="M17.6,58.7L2.7,54.5l0.3-1c0.8-3,1.9-6,3.1-8.8l0.4-0.9l14.2,6l-0.4,0.9c-1,2.3-1.8,4.6-2.4,6.9
				L17.6,58.7z M5.2,53.1l11,3.1c0.5-1.8,1.1-3.6,1.8-5.3L7.5,46.4C6.6,48.6,5.8,50.9,5.2,53.1z"/>
			<path fill="#FFFFFF" d="M61,45l-5.8-14.4l1-0.4c1.9-0.8,3.8-1.4,5.8-1.9l1.1-0.3L67,43l-1.1,0.3c-1.3,0.3-2.6,0.8-3.8,1.3L61,45z
				 M57.8,31.8l4.3,10.7c0.8-0.3,1.6-0.6,2.4-0.8l-2.9-11.1C60.4,30.9,59.1,31.3,57.8,31.8z"/>
			<path fill="#FFFFFF" d="M61.1,44.7l-5.6-13.9l0.9-0.4c1.8-0.7,3.7-1.4,5.5-1.8l1-0.3l3.8,14.5l-1,0.3c-1.2,0.3-2.4,0.7-3.6,1.2
				L61.1,44.7z M58.1,31.9l4.1,10.2c0.7-0.2,1.3-0.5,2-0.7l-2.8-10.7C60.4,31.1,59.2,31.5,58.1,31.9z"/>
			<path fill="#FFFFFF" d="M106.1,43.2l-0.8-0.8c-1.3-1.4-2.8-2.7-4.3-3.9l-0.9-0.7l9.8-12.4l0.9,0.7c2.1,1.6,4,3.4,5.8,5.3l0.8,0.8
				L106.1,43.2z M102.9,37.5c1.1,0.9,2.2,1.9,3.2,2.9l8.5-8.2c-1.4-1.4-2.8-2.7-4.3-3.9L102.9,37.5z"/>
			<path fill="#FFFFFF" d="M106.1,42.9l-0.7-0.7c-1.3-1.3-2.7-2.6-4.2-3.7l-0.8-0.6l9.5-12.1l0.8,0.6c2,1.6,3.9,3.3,5.7,5.1l0.7,0.7
				L106.1,42.9z M103.3,37.5c1,0.8,2,1.7,2.9,2.6l8.1-7.9c-1.3-1.3-2.6-2.4-4-3.6L103.3,37.5z"/>
			<path fill="#FFFFFF" d="M67.3,29.3L65.5,14l1-0.1c2.4-0.3,4.8-0.4,7.3-0.4l1.3,0l-0.2,15.4l-1.3,0c-1.7,0-3.5,0.1-5.3,0.3
				L67.3,29.3z M67.7,15.8l1.4,11.3c1.3-0.1,2.6-0.2,3.8-0.2L73,15.5C71.2,15.5,69.4,15.6,67.7,15.8z"/>
			<path fill="#FFFFFF" d="M82.8,16l-1-0.2c-2.4-0.3-5-0.5-7.5-0.6l-1,0L73.4,0l1,0c3.2,0,6.4,0.3,9.5,0.7l1,0.1L82.8,16z
				 M75.3,13.3c2,0.1,3.9,0.2,5.8,0.4l1.6-11.1c-2.4-0.3-4.9-0.5-7.3-0.6L75.3,13.3z"/>
			<path fill="#FFFFFF" d="M46.1,38.7L28.5,15.2l0.9-0.7c2.5-1.9,5.3-3.7,8.1-5.3l1-0.6l14.5,25.5l-1,0.6c-1.7,1-3.3,2-4.8,3.2
				L46.1,38.7z M31.3,15.6l15.3,20.3c1.1-0.8,2.3-1.6,3.6-2.4L37.6,11.5C35.4,12.8,33.3,14.2,31.3,15.6z"/>
			<path fill="#FFFFFF" d="M46.2,38.4l-9.2-12.3l0.8-0.6c2-1.5,4.1-2.9,6.3-4.2l0.9-0.5l7.6,13.4l-0.9,0.5c-1.6,0.9-3.2,2-4.7,3.1
				L46.2,38.4z M39.8,26.5l6.8,9.1c1-0.7,2.1-1.5,3.2-2.1l-5.6-9.9C42.7,24.5,41.2,25.5,39.8,26.5z"/>
			<path fill="#FFFFFF" d="M38,27.5l-9.2-12.2l0.8-0.6c2.5-1.9,5.1-3.6,7.8-5.1l0.9-0.5l7.5,13.3L45,22.9c-0.9,0.5-1.8,1.1-2.7,1.6
				c-1.2,0.8-2.3,1.6-3.4,2.4L38,27.5z M31.6,15.7l6.8,9.1c0.9-0.7,1.8-1.3,2.8-1.9c0.6-0.4,1.3-0.8,1.9-1.2l-5.6-9.8
				C35.5,13,33.5,14.3,31.6,15.7z"/>
			<path fill="#FFFFFF" d="M104.1,24.1l-1-0.6c-2.1-1.3-4.4-2.4-6.7-3.4l-1-0.4l6.2-14.4l1,0.4c3,1.3,5.8,2.7,8.6,4.4l1,0.6
				L104.1,24.1z M98,18.7c1.9,0.8,3.7,1.7,5.4,2.7l6-10c-2.2-1.3-4.4-2.4-6.8-3.4L98,18.7z"/>
			<path fill="#FFFFFF" d="M104.1,23.8l-0.9-0.5c-2.1-1.2-4.3-2.4-6.6-3.3l-0.9-0.4l6-14l0.9,0.4c2.9,1.2,5.7,2.7,8.3,4.2l0.9,0.5
				L104.1,23.8z M98.3,18.5c1.7,0.8,3.4,1.6,5,2.5l5.7-9.6c-2-1.2-4.2-2.2-6.3-3.2L98.3,18.5z"/>
		</g>
	</g>
	<g id="XMLID_3_">
		<g>
			<path fill="#FFFFFF" d="M15.7,117.9l-0.2,0c-0.3,0-0.6-0.2-0.8-0.5c-1.8-2.4-3.5-5.1-5.1-7.7c-0.2-0.3-0.2-0.7-0.1-1
				c0.1-0.3,0.3-0.6,0.6-0.8l11.6-6.6c0.6-0.3,1.4-0.1,1.8,0.5c1,1.8,2.1,3.5,3.3,5.2l0.1-0.1L27,107l9.7-7.3
				c0.5-0.4,1.4-0.3,1.8,0.2c1.1,1.4,2.3,2.8,3.6,4.1c0.5,0.5,0.5,1.3,0,1.8l-9.5,9.2c-0.2,0.2-0.6,0.4-0.9,0.4
				c-0.4,0-0.7-0.1-0.9-0.4c-1.5-1.5-2.9-3.2-4.3-4.9l-0.1,0.1l0-0.1l-9.8,7.4C16.2,117.9,16,117.9,15.7,117.9z M11.7,109.3
				c1.3,2.2,2.7,4.3,4.2,6.4l9.6-7.2c-1.2-1.6-2.3-3.3-3.3-5.1L11.7,109.3z M27.9,108.8c1.2,1.5,2.5,3,3.8,4.4l8.4-8.3
				c-1-1.1-1.9-2.1-2.8-3.2L27.9,108.8z"/>
			<path fill="#FFFFFF" d="M15.7,117.7l-0.1,0l-0.4-0.1l-0.3-0.4c-1.8-2.4-3.5-5-5.1-7.7l-0.2-0.3l0.2-0.9l0.4-0.3l11.9-6.7l0.9,0
				l0.3,0.5c1.2,2.1,2.5,4.1,4,6l0.6,0.8l-0.8,0.7l-11,8.2L15.7,117.7z M12,109.4c1.2,2.1,2.5,4,3.9,5.9l9.2-6.9
				c-1.1-1.5-2.1-3.1-3.1-4.7L12,109.4z"/>
			<path fill="#FFFFFF" d="M31.6,115.3l-0.5,0l-0.3-0.3c-1.7-1.8-3.4-3.7-4.9-5.6l-0.2-0.3l0.1-0.9l0.4-0.3l10.8-8.1l0.9,0l0.3,0.4
				c1.1,1.4,2.3,2.8,3.6,4.1l0.7,0.7l-0.7,0.8l-9.7,9.5L31.6,115.3z M28.2,108.9c1.1,1.4,2.2,2.7,3.5,4l8.1-7.9
				c-0.9-1-1.7-1.9-2.5-2.9L28.2,108.9z"/>
			<path fill="#FFFFFF" d="M34.3,96.6l-0.3,0c-0.3-0.1-0.6-0.3-0.8-0.6c-0.9-1.6-1.8-3.4-2.5-5.1c-0.1-0.3-0.1-0.7,0-1
				c0.1-0.3,0.4-0.6,0.7-0.7l12-4.8c0.7-0.3,1.4,0.1,1.7,0.7c0.5,1.1,1,2.3,1.6,3.3c0.3,0.6,0.1,1.4-0.5,1.7l-11.2,6.3
				C34.8,96.5,34.5,96.6,34.3,96.6z M32.8,90.7c0.5,1.2,1.1,2.5,1.7,3.6l10-5.7c-0.4-0.7-0.8-1.5-1.1-2.3L32.8,90.7z"/>
			<path fill="#FFFFFF" d="M34.3,96.4l-0.3,0l-0.4-0.1l-0.3-0.4c-0.9-1.7-1.8-3.4-2.5-5.1l-0.2-0.4l0.3-0.8l0.4-0.2l12.2-4.9l0.9,0
				l0.3,0.6c0.5,1.2,1,2.3,1.6,3.4l0.2,0.4l-0.2,0.8l-0.4,0.2l-11.5,6.5L34.3,96.4z M33.1,90.8c0.5,1.1,1,2.1,1.5,3.2l9.6-5.4
				c-0.3-0.6-0.6-1.3-0.9-1.9L33.1,90.8z"/>
			<path fill="#FFFFFF" d="M1.8,83.2c-0.3,0-0.6-0.1-0.8-0.3c-0.3-0.2-0.4-0.5-0.5-0.9C0.1,79,0,75.9,0,72.8c0-0.4,0.1-0.7,0.4-0.9
				c0.2-0.2,0.5-0.4,0.9-0.4l13.4,0.2c0.1,0,0.1,0,0.2,0c0.1,0,0.1,0,0.2,0l12.3,0.1c0-1.6,0.2-3.2,0.4-4.8c0-0.3,0.2-0.7,0.5-0.9
				c0.2-0.2,0.5-0.3,0.8-0.3l0.2,0l12.8,1.8c0.7,0.1,1.2,0.8,1.1,1.5c-0.2,1.2-0.3,2.5-0.3,3.8c0,0.1,0,0.1,0,0.2c0,0.1,0,0.1,0,0.2
				c0,1.2,0.1,2.5,0.2,3.7c0.1,0.7-0.4,1.4-1.1,1.4l-13,1.6c0,0,0,0,0,0c-0.1,0-0.1,0-0.2,0l-13.3,1.6c0,0,0,0,0,0
				c-0.1,0-0.1,0-0.2,0L1.8,83.2z M2,73.5c0,2.5,0.1,5.1,0.4,7.6l12.3-1.5l0.4-0.4l0.5,0.3L28.2,78l0.4-0.4l0.5,0.3l11.9-1.4
				c-0.1-1-0.1-2-0.2-3l-0.3-0.4l0.3-0.4c0-1,0.1-2.1,0.2-3.1L29.6,68c-0.2,1.5-0.3,3.1-0.3,4.7l0.4,1.5l-1.5-0.4l-12.9-0.1L14.8,74
				l-0.4-0.3L2,73.5z"/>
			<path fill="#FFFFFF" d="M1.8,83H1.4l-0.6-0.5L0.7,82c-0.4-3.1-0.5-6.2-0.5-9.2l0-0.4l0.6-0.6l0.5,0l14.3,0.2l0.1,1
				c0,0.3,0,0.5,0,0.7c0,1.2,0.1,2.4,0.1,3.6c0.1,0.9,0.2,1.9,0.3,2.8l0.1,1l-1,0.2L1.8,83z M2.2,73.8c0,2.4,0.1,4.7,0.4,7.1
				L14,79.5c-0.1-0.7-0.1-1.3-0.2-2c-0.1-1.2-0.1-2.4-0.1-3.6L2.2,73.8z"/>
			<path fill="#FFFFFF" d="M15.4,81.3l-0.9,0l-0.2-0.9c-0.1-1-0.2-2-0.3-3c-0.1-1.2-0.1-2.4-0.1-3.6l0-0.8l0-0.4l0.6-0.6l0.5,0
				l14.2,0.2l0.1,1.4c0,1.2,0.1,2.5,0.2,3.7l0,0.2c0,0.3,0.1,0.6,0.1,0.9l0,0.1l0,0.2l0.1,0.9l-1,0.2L15.4,81.3z M15.9,73.9
				c0,1.1,0.1,2.2,0.1,3.3c0,0.7,0.1,1.3,0.2,2l11.3-1.4c0,0,0-0.1,0-0.1l0,0l0-0.3c-0.1-1.1-0.2-2.2-0.2-3.4L15.9,73.9z"/>
			<path fill="#FFFFFF" d="M28.9,79.7h-0.3l-0.6-0.5l-0.2-1.4l0,0c-0.1-1.4-0.2-2.8-0.2-4.2l0-0.9l0.6-0.6l0.5,0l13.9,0.2l0.1,1
				c0,1.2,0.1,2.5,0.2,3.7l0.1,1l-1.1,0.2L28.9,79.7z M29.7,77.6L29.7,77.6l10.9-1.3c-0.1-0.7-0.1-1.4-0.1-2.1l-11-0.1
				C29.5,75.3,29.6,76.4,29.7,77.6L29.7,77.6z"/>
			<path fill="#FFFFFF" d="M41.5,74L41.5,74l-13.3-0.2l-0.6-0.6l0-0.4c0-2,0.2-3.9,0.4-5.7l0.1-0.4l0.6-0.5l0.5,0l0.1,0l13.7,1.9
				l-0.1,1c-0.2,1.2-0.3,2.5-0.3,3.8l0,0.4L41.9,74L41.5,74z M29.5,71.9l11,0.1c0-0.7,0.1-1.5,0.2-2.2l-10.9-1.5
				C29.7,69.4,29.6,70.6,29.5,71.9z"/>
			<path fill="#FFFFFF" d="M31.9,56.7c-0.2,0-0.4,0-0.5-0.1l-12.2-5.2c-0.3-0.1-0.6-0.4-0.7-0.7c-0.1-0.3-0.1-0.7,0-1
				c1-2.3,2.1-4.5,3.3-6.7c0.2-0.3,0.5-0.5,0.8-0.6l0.3,0c0.2,0,0.5,0.1,0.7,0.2L35,49.3c0.6,0.4,0.8,1.1,0.5,1.8
				c-0.9,1.6-1.7,3.2-2.4,4.8C32.9,56.4,32.4,56.7,31.9,56.7z M20.6,49.8l10.9,4.6c0.6-1.3,1.2-2.6,1.9-3.8l-10.2-6
				C22.3,46.3,21.4,48.1,20.6,49.8z"/>
			<path fill="#FFFFFF" d="M31.9,56.4h-0.2l-0.2-0.1L18.9,51l-0.4-0.8l0.2-0.4c1-2.2,2.1-4.5,3.3-6.6l0.2-0.4l0.7-0.2h0.3l0.3,0.2
				L35.8,50l-0.5,0.9c-0.9,1.6-1.7,3.2-2.4,4.9l-0.3,0.6L31.9,56.4z M20.9,49.7l10.4,4.4c0.5-1.1,1.1-2.3,1.7-3.4L23.3,45
				C22.5,46.5,21.7,48.1,20.9,49.7z"/>
			<path fill="#FFFFFF" d="M51.1,51.5c-0.3,0-0.7-0.1-0.9-0.4l-8.3-8.4l-0.1,0.1l-0.1-0.1c-1,1.1-2,2.2-2.9,3.3
				c-0.4,0.5-1.3,0.6-1.8,0.2l-10.4-8.2c0,0-0.1-0.1-0.1-0.1c-0.1,0-0.1-0.1-0.2-0.1L16,29.7c-0.3-0.2-0.4-0.5-0.5-0.9
				c0-0.3,0.1-0.7,0.3-1c1.9-2.4,4-4.7,6.2-6.9c0.2-0.2,0.5-0.3,0.8-0.4c0.4,0,0.7,0.1,1,0.4l9.2,9.4c0,0,0.1,0.1,0.1,0.1
				c0,0,0.1,0.1,0.1,0.1l8.5,8.7l0.1-0.1l0.1,0.1c1.2-1.1,2.3-2.1,3.6-3c0.2-0.2,0.5-0.3,0.8-0.3l0.2,0c0.4,0.1,0.7,0.2,0.9,0.5
				l7.8,10.3c0.4,0.6,0.3,1.4-0.2,1.8c-1,0.7-1.9,1.6-2.8,2.5C51.8,51.4,51.5,51.5,51.1,51.5z M43.1,41.1l8,8.2
				c0.6-0.6,1.3-1.2,1.9-1.7l-6.9-9.2C45.1,39.2,44.1,40.1,43.1,41.1z M28.1,36.6l9.7,7.6c0.9-1.1,1.9-2.2,2.8-3.2L32,32.3l-0.5-0.1
				l-0.1-0.5l-8.6-8.8c-1.8,1.8-3.5,3.7-5.1,5.7l9.7,7.6l0.5,0L28.1,36.6z"/>
			<path fill="#FFFFFF" d="M51.1,51.3h-0.4L50.4,51l-9.7-9.9l0.7-0.8c1.4-1.3,2.8-2.6,4.3-3.7l0.3-0.2l0.5,0l0.4,0.1l0.3,0.3
				l8.4,11.1l-0.8,0.7c-1,0.8-1.9,1.6-2.9,2.5l-0.3,0.3L51.1,51.3z M43.4,41.1l7.7,7.9c0.5-0.5,1.1-1,1.6-1.4l-6.6-8.8
				C45.2,39.5,44.3,40.2,43.4,41.1z"/>
			<path fill="#FFFFFF" d="M37.9,46.3h-0.3l-0.3-0.2l-11.2-8.8l0.5-0.9c0.4-0.5,0.8-1,1.2-1.4l0.1-0.1c0.5-0.7,1.1-1.3,1.6-1.9
				c0.7-0.8,1.4-1.5,2.1-2.2l0.3-0.3l0.9,0l0.3,0.3L43,41l-0.7,0.8c-1.3,1.3-2.5,2.6-3.6,4.1l-0.3,0.4L37.9,46.3z M28.8,36.9l8.9,7
				c0.8-1,1.7-2,2.6-2.9l-7.9-8.1c-0.5,0.5-0.9,1-1.4,1.5c-0.6,0.6-1.1,1.2-1.6,1.8C29.2,36.4,29,36.7,28.8,36.9z"/>
			<path fill="#FFFFFF" d="M27.2,37.9l-0.3,0l-0.3-0.2l-10.8-8.4l-0.1-0.9l0.3-0.4c1.9-2.4,4-4.7,6.2-6.9l0.3-0.3l0.6,0l0.4,0.1
				l0.3,0.2l9.9,10.1l-0.7,0.8c-0.7,0.7-1.3,1.3-1.9,2l-0.1,0.1c-0.5,0.6-1.1,1.2-1.6,1.9l-0.1,0.1c-0.4,0.4-0.7,0.9-1.1,1.3
				l-0.1,0.1l-0.3,0.3L27.2,37.9z M18.1,28.5l8.9,7c0.2-0.2,0.3-0.4,0.5-0.6l0.1-0.1c0.6-0.7,1.1-1.3,1.7-2l0.1-0.1
				c0.4-0.5,0.9-0.9,1.3-1.4l-7.9-8.1C21.2,24.9,19.6,26.7,18.1,28.5z"/>
			<path fill="#FFFFFF" d="M90,46.7c-0.2,0-0.5-0.1-0.6-0.2c-1.1-0.6-2.2-1.2-3.3-1.7c-0.6-0.3-0.9-1-0.7-1.7l5.1-11.9
				c0.1-0.3,0.4-0.6,0.7-0.7c0.3-0.1,0.7-0.1,1,0c1.7,0.8,3.5,1.6,5.1,2.6c0.3,0.2,0.5,0.5,0.6,0.8c0.1,0.3,0,0.7-0.1,1l-6.6,11.1
				C90.8,46.5,90.4,46.7,90,46.7z M87.5,43.3c0.8,0.4,1.5,0.7,2.2,1.1l5.9-9.9c-1.2-0.7-2.4-1.3-3.6-1.8L87.5,43.3z"/>
			<path fill="#FFFFFF" d="M90,46.5h-0.3l-0.3-0.2c-1-0.6-2.2-1.2-3.3-1.7l-0.9-0.4l0.3-1l5.2-12.2l0.6-0.3l0.5,0l0.2,0.1
				c1.7,0.7,3.4,1.6,5,2.6l0.3,0.2l0.3,0.8l-0.2,0.4l-6.9,11.6L90,46.5z M87.8,43.2c0.6,0.3,1.3,0.6,1.9,0.9l5.6-9.5
				c-1-0.6-2.1-1.1-3.2-1.6L87.8,43.2z"/>
			<path fill="#FFFFFF" d="M65.7,43.3c-0.6,0-1.1-0.4-1.3-1l-3.2-12.5c0-0.1,0-0.1,0-0.2c0-0.1,0-0.1-0.1-0.2l-3.3-12.8
				c0-0.1,0-0.1,0-0.2c0-0.1,0-0.1-0.1-0.2L54.5,3.6c-0.1-0.3,0-0.7,0.1-1c0.2-0.3,0.5-0.5,0.8-0.6c3-0.8,6-1.3,9.1-1.7l0.2,0
				c0.3,0,0.6,0.1,0.8,0.3c0.3,0.2,0.4,0.5,0.5,0.9l1.6,13c0,0.1,0,0.1,0,0.2c0,0.1,0,0.1,0,0.2L69.2,28c0,0.1,0,0.1,0,0.2
				c0,0.1,0,0.1,0,0.2l1.6,12.8c0.1,0.7-0.4,1.3-1.1,1.4c-1.2,0.2-2.4,0.4-3.6,0.7L65.7,43.3z M63.2,29.6l3,11.6
				c0.8-0.2,1.6-0.3,2.5-0.5l-1.4-11.9l-0.4-0.4l0.3-0.5l-1.5-12.7L65.3,15l0.3-0.5L64.1,2.4c-2.5,0.3-5,0.8-7.5,1.4l3.1,11.8
				l0.4,0.3l-0.2,0.5L63,28.8l0.4,0.3L63.2,29.6z"/>
			<path fill="#FFFFFF" d="M65.7,43.1h-0.8l-0.3-0.8l-3.3-12.9l0.4-0.8l0.4-0.1c0.7-0.2,1.3-0.3,2-0.5c1.2-0.2,2.3-0.4,3.5-0.6
				l0.5,0l0.6,0.5l0.1,0.5l1.7,13.8l-1,0.2c-1.2,0.2-2.5,0.4-3.6,0.7L65.7,43.1z M63.6,30.2l2.8,10.7c0.7-0.2,1.4-0.3,2-0.4l-1.3-11
				c-0.8,0.1-1.6,0.3-2.4,0.4C64.3,30.1,64,30.1,63.6,30.2z"/>
			<path fill="#FFFFFF" d="M62.4,30.2h-0.8l-0.3-0.8L58,16.3l0.4-0.8l0.4-0.1c1.1-0.3,2.3-0.6,3.5-0.8c1.3-0.2,2.6-0.5,3.8-0.6
				l0.5,0l0.7,0.5l0.1,0.5L69.1,29l-1,0.2l0,0c0,0,0,0,0,0l-0.1,0l0,0c-1.1,0.1-2.2,0.3-3.3,0.6c-0.7,0.1-1.3,0.3-2,0.5L62.4,30.2z
				 M60.2,17.1l2.8,11c0.4-0.1,0.8-0.2,1.2-0.3c0.9-0.2,1.7-0.3,2.6-0.5l-1.4-11.3c-0.9,0.1-1.8,0.3-2.8,0.5
				C61.9,16.7,61.1,16.9,60.2,17.1z"/>
			<path fill="#FFFFFF" d="M59,17.1h-0.3l-0.6-0.4L58,16.3L54.6,3.2l0.3-0.5l0.2-0.3l0.4-0.1c3-0.8,6-1.3,9.1-1.7l0.5,0L65.6,1
				l0.1,0.4l1.7,14l-1.1,0.2c-1.3,0.2-2.6,0.4-3.9,0.6c-1.1,0.2-2.1,0.4-3.1,0.7L59,17.1z M56.9,4l2.8,10.9c0.8-0.2,1.6-0.4,2.3-0.5
				c1.1-0.2,2.1-0.4,3.2-0.5L63.9,2.7C61.5,3,59.2,3.4,56.9,4z"/>
			<path fill="#FFFFFF" d="M79.1,42.5l-1-0.1c-1.3-0.2-2.7-0.3-4-0.3l-1,0L73,41l0.1-13.3l0.6-0.6l0.5,0l0,0c2,0,3.9,0.2,5.8,0.4
				l0.4,0.1l0.6,0.8L79.1,42.5z M75,40.1c0.8,0,1.6,0.1,2.4,0.2l1.5-10.9c-1.2-0.1-2.5-0.2-3.8-0.3L75,40.1z"/>
			<path fill="#FFFFFF" d="M85.8,30.5l-0.3,0c-1.8-0.5-3.6-0.9-5.3-1.1l-0.4-0.1l-0.5-0.7l0-0.5l1.9-13.5l0.6-0.5l0.5,0l0.1,0
				c2.4,0.4,4.9,0.9,7.3,1.5l0.4,0.1l0.4,0.7l-0.1,0.4l-3.8,13.5L85.8,30.5z M81.4,27.5c1.2,0.2,2.5,0.5,3.7,0.8l3.1-10.9
				c-1.7-0.4-3.5-0.8-5.2-1.1L81.4,27.5z"/>
			<path fill="#FFFFFF" d="M51.4,34.9c-0.5,0-0.9-0.2-1.1-0.6l-6.5-11.5c-0.2-0.3-0.2-0.6-0.1-1c0.1-0.3,0.3-0.6,0.6-0.8
				c2.2-1.2,4.5-2.3,6.7-3.3c0.3-0.1,0.7-0.1,1,0c0.3,0.1,0.6,0.4,0.7,0.7l5,12.3c0.3,0.7,0,1.4-0.7,1.7c-1.7,0.7-3.3,1.5-4.9,2.4
				C51.8,34.9,51.6,34.9,51.4,34.9z M45.8,22.4l5.8,10.3c1.3-0.7,2.5-1.3,3.9-1.9l-4.4-11C49.3,20.6,47.5,21.5,45.8,22.4z"/>
			<path fill="#FFFFFF" d="M51.4,34.7l-0.6,0l-0.3-0.5l-6.7-11.9l0.2-0.8l0.4-0.2c2.2-1.2,4.4-2.3,6.7-3.3l0.2-0.1l0.4,0l0.6,0.2
				l0.2,0.5l5.1,12.6L57.3,32l-0.4,0.2c-1.7,0.7-3.3,1.5-4.9,2.4l-0.2,0.1L51.4,34.7z M46.2,22.5l5.6,9.9c1.1-0.6,2.3-1.2,3.5-1.7
				L51,20.1C49.3,20.9,47.7,21.6,46.2,22.5z"/>
			<path fill="#FFFFFF" d="M115.8,33.2c-0.3,0-0.7-0.1-0.9-0.4c-1.7-1.7-3.5-3.3-5.4-4.8c-0.6-0.4-0.7-1.3-0.2-1.8l8.1-10.3
				c0.2-0.3,0.5-0.4,0.9-0.5l0.2,0c0.3,0,0.6,0.1,0.8,0.3c2.4,1.9,4.7,4,6.9,6.2c0.2,0.2,0.4,0.6,0.4,0.9c0,0.3-0.1,0.7-0.4,0.9
				l-9.4,9.1C116.5,33,116.2,33.2,115.8,33.2z M111.3,26.8c1.6,1.3,3.1,2.6,4.5,4.1l8.4-8.1c-1.8-1.8-3.7-3.5-5.6-5.1L111.3,26.8z"
				/>
			<path fill="#FFFFFF" d="M115.8,32.9h-0.4l-0.3-0.3c-1.7-1.7-3.5-3.4-5.4-4.9l-0.8-0.6l0.6-0.9l8.4-10.6l0.6-0.1h0.4l0.3,0.2
				c2.4,1.9,4.7,4,6.8,6.2l0.7,0.7l-0.7,0.8l-9.6,9.4L115.8,32.9z M111.7,26.8c1.5,1.2,2.9,2.5,4.2,3.8l8-7.8
				c-1.7-1.7-3.4-3.3-5.3-4.7L111.7,26.8z"/>
		</g>
	</g>
	<g id="XMLID_2_">
		<g>
			<path fill="#FFFFFF" d="M26.7,109.7c-0.4,0-0.8-0.2-1-0.5c-1.5-2-2.9-4.1-4.1-6.3c-0.2-0.3-0.2-0.6-0.1-0.9
				c0.1-0.3,0.3-0.6,0.6-0.8l11.6-6.6c0.6-0.3,1.4-0.1,1.7,0.5c0.9,1.6,1.9,3.2,3,4.6c0.2,0.3,0.3,0.6,0.2,0.9
				c0,0.3-0.2,0.6-0.5,0.8l-10.6,8C27.2,109.6,26.9,109.7,26.7,109.7z M23.6,102.6c1,1.7,2.1,3.3,3.2,4.9l9.4-7.1
				c-0.8-1.1-1.6-2.3-2.3-3.6L23.6,102.6z"/>
			<path fill="#FFFFFF" d="M26.7,109.5h-0.5l-0.3-0.4c-1.5-2-2.9-4.1-4.1-6.3l-0.2-0.4l0.2-0.8l0.4-0.2l12.5-7l0.5,0.9
				c0.9,1.6,2,3.2,3,4.7l0.6,0.8l-0.8,0.6L27,109.5L26.7,109.5z M23.9,102.6c0.9,1.5,1.9,3,2.9,4.5l9.1-6.8c-0.7-1-1.4-2.1-2.1-3.2
				L23.9,102.6z"/>
			<path fill="#FFFFFF" d="M16.8,89.1c-0.2,0-0.4-0.1-0.6-0.2c-0.3-0.2-0.5-0.4-0.6-0.8c-0.6-2.4-1.1-4.9-1.4-7.4
				c0-0.3,0.1-0.7,0.3-0.9c0.2-0.3,0.5-0.4,0.8-0.5l13.4-1.6c0.6,0,1.2,0.5,1.2,1.1c0.2,1.8,0.6,3.6,1,5.4c0.1,0.3,0,0.7-0.1,0.9
				c-0.2,0.3-0.4,0.5-0.8,0.6L16.8,89.1z M16.2,81.2c0.3,1.9,0.6,3.8,1.1,5.7L28.8,84c-0.3-1.4-0.6-2.8-0.8-4.2L16.2,81.2z"/>
			<path fill="#FFFFFF" d="M16.6,88.9l-0.7-0.4l-0.1-0.4c-0.6-2.4-1.1-4.9-1.4-7.4l0.8-0.1l-0.2-1l0.3-0.1l13.6-1.6l0.7,0.5l0.1,0.4
				c0.2,1.8,0.6,3.6,1,5.4l0.2,1L16.6,88.9z M16.5,81.4c0.2,1.8,0.6,3.5,1,5.2l11-2.8c-0.3-1.2-0.5-2.5-0.7-3.7L16.5,81.4z"/>
			<path fill="#FFFFFF" d="M42.9,70.1l-14.6-2l-0.7-0.9l0.1-0.4c0.3-1.9,0.7-3.8,1.2-5.7c0.1-0.3,0.3-0.6,0.6-0.8
				c0.2-0.1,0.4-0.2,0.6-0.2l0.3,0L43,63.6c0.3,0.1,0.6,0.3,0.8,0.6c0.2,0.3,0.2,0.6,0.1,0.9c-0.4,1.3-0.6,2.5-0.8,3.8L42.9,70.1z
				 M29.8,66.3l11.4,1.6c0.1-0.8,0.3-1.7,0.5-2.5l-11.1-3.1C30.3,63.6,30,65,29.8,66.3z"/>
			<path fill="#FFFFFF" d="M42.7,69.9l-14.2-2L28,67.2v-0.5c0.3-1.8,0.7-3.7,1.2-5.6l0.8,0.2l0.2-1l0.3,0l13.5,3.8l-0.3,1
				c-0.4,1.3-0.6,2.5-0.8,3.8L42.7,69.9z M30.1,66.1L41,67.6c0.1-0.7,0.3-1.4,0.4-2.1l-10.6-3C30.5,63.8,30.3,64.9,30.1,66.1z"/>
			<path fill="#FFFFFF" d="M48.3,54.7c-0.3,0-0.6-0.1-0.8-0.3L38.1,47c-0.9,1.2-1.7,2.5-2.5,3.8c-0.3,0.6-1.1,0.8-1.7,0.4l-11.5-6.8
				c-0.3-0.2-0.5-0.4-0.6-0.8c-0.1-0.3,0-0.7,0.1-0.9c1.3-2.2,2.7-4.3,4.2-6.3c0.2-0.3,0.5-0.4,0.8-0.5c0.3,0,0.7,0.1,0.9,0.3
				l9.7,7.6c1-1.3,2.1-2.5,3.2-3.6c0.1-0.1,0.4-0.3,0.8-0.4h0c0.4,0,0.7,0.1,1,0.4l-1.4,1.4c0.1,0.1,0.3,0.2,0.5,0.2
				c0.2,0,0.4-0.1,0.5-0.2c-1.1,1.1-2.2,2.3-3.2,3.6l9,7.1c0.7-0.9,1.4-1.7,2.2-2.4c-0.3,0.3-0.3,0.8,0,1l1.4-1.4
				c0.5,0.5,0.5,1.3,0,1.8c-0.9,0.9-1.7,1.8-2.5,2.8c-0.2,0.3-0.5,0.4-0.8,0.5L48.3,54.7z M24.1,43.1l10.2,6
				c0.7-1.2,1.5-2.4,2.4-3.5l-9.3-7.3C26.2,39.9,25.1,41.5,24.1,43.1z"/>
			<path fill="#FFFFFF" d="M34.9,51.6l-13.2-7.8l0.5-0.9c1.3-2.2,2.7-4.3,4.2-6.3l0.6,0.5l0.6-0.8l0.2,0.1l10.5,8.2l-0.5,0.6
				l0.8,0.6l-0.1,0.2c-1.1,1.4-2.2,3-3.1,4.6L34.9,51.6z M24.4,43.1l9.8,5.8c0.7-1.1,1.4-2.1,2.2-3.2l-8.9-7
				C26.4,40.1,25.4,41.5,24.4,43.1z"/>
			<path fill="#FFFFFF" d="M57.9,46.5l-0.3,0c-0.3-0.1-0.6-0.3-0.8-0.6l-6.4-11.3c-0.2-0.3-0.2-0.6-0.1-0.9c0.1-0.3,0.3-0.6,0.6-0.8
				c1.7-0.9,3.4-1.8,5.2-2.5l0.2-0.1l0.3,0c0.2,0,0.3,0,0.5,0.1c0.3,0.1,0.6,0.4,0.7,0.7l4.9,12c0.3,0.6-0.1,1.4-0.7,1.6
				c-1.2,0.5-2.3,1-3.4,1.7C58.3,46.4,58.1,46.5,57.9,46.5z M52.5,34.2l5.7,10c0.8-0.4,1.5-0.8,2.3-1.1l-4.3-10.7
				C54.9,33,53.7,33.6,52.5,34.2z"/>
			<path fill="#FFFFFF" d="M57.9,46.2h-0.6L57,45.7l-6.4-11.3l0.7-0.4l-0.5-0.8L51,33c1.7-0.9,3.4-1.8,5.2-2.5l0.3,0.8l0.9-0.4
				l0.1,0.2l5,12.4l-0.3,0.8l-0.4,0.2c-1.2,0.5-2.4,1.1-3.5,1.7l-0.2,0.1L57.9,46.2z M52.8,34.3l5.4,9.6c0.6-0.3,1.3-0.6,1.9-0.9
				l-4.1-10.2C55,33.2,53.9,33.7,52.8,34.3z"/>
			<path fill="#FFFFFF" d="M86.2,44.9H86l-0.3-0.1c-1.1-0.5-2.3-0.9-3.6-1.2c-0.7-0.2-1-0.9-0.9-1.5l3.5-12.5
				c0.1-0.3,0.3-0.6,0.6-0.8c0.2-0.1,0.4-0.2,0.6-0.2l0.3,0c1.9,0.5,3.7,1.2,5.5,1.9c0.3,0.1,0.6,0.4,0.7,0.7c0.1,0.3,0.1,0.6,0,1
				l-5.1,11.9C87.2,44.6,86.7,44.9,86.2,44.9z M83.5,41.8c0.8,0.3,1.6,0.5,2.4,0.8l4.5-10.6c-1.2-0.5-2.5-0.9-3.8-1.3L83.5,41.8z"/>
			<path fill="#FFFFFF" d="M86.3,44.7l-0.4-0.2c-1.2-0.5-2.4-0.9-3.6-1.3L81.3,43l0.2-1l3.5-12.5l0.8,0.2l0.2-1l0.3,0
				c1.9,0.5,3.7,1.2,5.4,1.9l0.4,0.2l0.3,0.8l-0.1,0.4L87,44.4L86.3,44.7z M83.7,41.6c0.7,0.2,1.3,0.4,2,0.7l4.3-10.1
				c-1.1-0.4-2.2-0.8-3.3-1.2L83.7,41.6z"/>
			<path fill="#FFFFFF" d="M101.7,38.7c-0.3,0-0.6-0.1-0.8-0.3c-1.5-1.2-3-2.2-4.5-3.1c-0.6-0.4-0.8-1.1-0.4-1.7l6.8-11.4
				c0.2-0.3,0.4-0.5,0.8-0.6l0.3,0c0.2,0,0.4,0.1,0.6,0.2c2.2,1.3,4.3,2.7,6.3,4.3c0.3,0.2,0.4,0.5,0.5,0.8c0,0.3-0.1,0.7-0.3,0.9
				l-8.2,10.5C102.4,38.5,102.1,38.7,101.7,38.7z M98,34c1.2,0.7,2.4,1.6,3.5,2.4l7.3-9.3c-1.5-1.2-3.2-2.3-4.8-3.3L98,34z"/>
			<path fill="#FFFFFF" d="M101.3,38.4l-0.2-0.1c-1.4-1.1-3-2.2-4.6-3.2l-0.8-0.5l7.5-12.7l0.8-0.2l0.4,0.2c2.2,1.3,4.2,2.7,6.2,4.3
				l0.3,0.3l0.1,0.8l-0.3,0.3l-8.2,10.5l-0.6-0.5L101.3,38.4z M98.3,33.9c1.1,0.7,2.1,1.4,3.2,2.2l7-8.9c-1.4-1.1-2.9-2.1-4.4-3
				L98.3,33.9z"/>
			<path fill="#FFFFFF" d="M81.1,29.7l-1.2-0.2c-1.9-0.3-3.8-0.4-5.8-0.4c-0.3,0-0.6-0.1-0.9-0.4c-0.2-0.2-0.4-0.6-0.4-0.9L73,14.5
				c0-0.3,0.1-0.6,0.4-0.9c0.2-0.2,0.6-0.4,0.9-0.4c2.6,0,5.2,0.2,7.8,0.6l0.4,0.1l0.7,0.9L81.1,29.7z M74.9,27.1
				c1.5,0,3.1,0.1,4.5,0.3l1.6-11.7c-2-0.3-4-0.4-6-0.5L74.9,27.1z"/>
			<path fill="#FFFFFF" d="M80.9,29.4l-1-0.2c-1.8-0.3-3.8-0.4-5.8-0.4l-1,0l0.2-14.3l0.8,0l-0.1-1l0.2,0l0.1,0
				c2.6,0,5.2,0.2,7.7,0.6l0.4,0.1l0.5,0.7v0.5L80.9,29.4z M75.1,26.9c1.4,0.1,2.8,0.2,4.1,0.3l1.6-11.2c-1.8-0.2-3.7-0.4-5.6-0.4
				L75.1,26.9z"/>
		</g>
	</g>
</g>
<g>
	<g>
		<path fill="#FFFFFF" d="M125,60.1H70.3c-5,0-9.1,4.1-9.1,9.1v36.5c0,5,4.1,9.1,9.1,9.1H84l18.2,18.3v-18.3H125
			c5,0,9.1-4.1,9.1-9.1V69.3C134.2,64.2,130.1,60.1,125,60.1z M129.6,105.8c0,2.5-2,4.6-4.6,4.6H97.7v11.8l-11.8-11.8H70.3
			c-2.5,0-4.6-2-4.6-4.6V69.3c0-2.5,2-4.6,4.6-4.6H125c2.5,0,4.6,2,4.6,4.6V105.8z"/>
	</g>
</g>
<path fill="#B0BEC5" d="M74.9,78.4h45.6v-4.6H74.9V78.4z"/>
<path fill="#B0BEC5" d="M74.9,87.5h45.6v-4.6H74.9V87.5z"/>
<path fill="#B0BEC5" d="M74.9,96.6h27.4v-4.6H74.9V96.6z"/>
</svg>
