<?xml version="1.0" encoding="utf-8"?>
<!-- Generator: Adobe Illustrator 18.1.1, SVG Export Plug-In . SVG Version: 6.00 Build 0)  -->
<svg version="1.1" id="Layer_2" xmlns="http://www.w3.org/2000/svg" xmlns:xlink="http://www.w3.org/1999/xlink" x="0px" y="0px"
	 viewBox="78.7 130.4 640 79.6" enable-background="new 78.7 130.4 640 79.6" xml:space="preserve">
<g>
	<g>
		<path fill="#E8EDF1" d="M706.2,200h-615c-6.8,0-12.5-0.8-12.5-1.6v-68c1.3,0,6.3,0,13.2,0h610.1c6.8,0,15.6,0,16.6,0v68
			C718.7,199.3,713.1,200,706.2,200z"/>
		<path fill="#EE858C" d="M107,155.7L107,155.7c-3.8,0-6.9-3.2-6.8-7l0,0c0-3.8,3.2-6.9,7-6.8l0,0c3.8,0,6.9,3.2,6.8,7l0,0
			C113.9,152.7,110.8,155.8,107,155.7z"/>
		<path fill="#FECB7D" d="M129.5,155.7L129.5,155.7c-3.8,0-6.9-3.2-6.8-7l0,0c0-3.8,3.2-6.9,7-6.8l0,0c3.8,0,6.9,3.2,6.8,7l0,0
			C136.5,152.7,133.3,155.8,129.5,155.7z"/>
		<path fill="#8EC98D" d="M153,155.7L153,155.7c-3.8,0-6.9-3.2-6.8-7l0,0c0-3.8,3.2-6.9,7-6.8l0,0c3.8,0,6.9,3.2,6.8,7l0,0
			C159.9,152.7,156.8,155.8,153,155.7z"/>
		<polygon fill="#FFFFFF" points="276,169.2 283.5,169.2 283.5,169.2 		"/>
	</g>
	<path fill="#FFFFFF" d="M120,185.8h-14.6c-2.8,0-5-2.3-5-5v-11.4c0-2.8,2.3-5,5-5h14.6c2.8,0,5,2.3,5,5v11.4
		C124.9,183.6,122.6,185.8,120,185.8z"/>
	<path fill="#FFFFFF" d="M152,185.8h-14.6c-2.8,0-5-2.3-5-5v-11.4c0-2.8,2.3-5,5-5H152c2.8,0,5,2.3,5,5v11.4
		C157,183.6,154.8,185.8,152,185.8z"/>
	<path fill="#FFFFFF" d="M543.6,185.8H180.8c-2.8,0-5-2.3-5-5v-11.4c0-2.8,2.3-5,5-5h362.8c2.8,0,5,2.3,5,5v11.4
		C548.5,183.6,546.3,185.8,543.6,185.8z"/>
	<path fill="#FFFFFF" d="M690.4,185.8H567.7c-2.8,0-5-2.3-5-5v-11.4c0-2.8,2.3-5,5-5h122.6c2.8,0,5,2.3,5,5v11.4
		C695.4,183.6,693.1,185.8,690.4,185.8z"/>
	<path fill="#D7DCE0" d="M107.9,174.5l5-5c0.4-0.4,1.2-0.4,1.6,0l0.4,0.4c0.4,0.4,0.4,1.2,0,1.6l-3.8,3.8l3.8,3.8
		c0.4,0.4,0.4,1.2,0,1.6l-0.4,0.4c-0.4,0.4-1.2,0.4-1.6,0l-5-4.9c-0.3-0.3-0.3-0.6-0.3-0.9C107.6,175.1,107.7,174.7,107.9,174.5z"/>
	<path fill="#D7DCE0" d="M148.9,176.3l-5,5c-0.4,0.4-1.2,0.4-1.6,0l-0.4-0.4c-0.4-0.4-0.4-1.2,0-1.6l3.8-3.8l-3.8-3.8
		c-0.4-0.4-0.4-1.2,0-1.6l0.4-0.4c0.4-0.4,1.2-0.4,1.6,0l5,5c0.3,0.3,0.3,0.6,0.3,0.9C149.2,175.7,149.2,176,148.9,176.3z"/>
</g>
<rect x="78.7" y="198.4" fill="#FFFFFF" width="640" height="11.6"/>
</svg>
