<?xml version="1.0" encoding="utf-8"?>
<!-- Generator: Adobe Illustrator 18.1.0, SVG Export Plug-In . SVG Version: 6.00 Build 0)  -->
<!DOCTYPE svg PUBLIC "-//W3C//DTD SVG 1.1//EN" "http://www.w3.org/Graphics/SVG/1.1/DTD/svg11.dtd">
<svg version="1.1" id="Layer_1" xmlns="http://www.w3.org/2000/svg" xmlns:xlink="http://www.w3.org/1999/xlink" x="0px" y="0px"
	 viewBox="0 0 63.3 73.1" width="63.3" height="73.1" enable-background="new 0 0 63.3 73.1" xml:space="preserve">
<path fill="#355570" d="M31.7,73.1L0,54.8V18.3L31.7,0l31.7,18.3v36.6L31.7,73.1z M3,53.1l28.7,16.5l28.7-16.5V20L31.7,3.5L3,20
	V53.1z"/>
<path fill="#355570" d="M50.7,31.6H36.4v-10h14.3V31.6z M37.4,30.6h12.3v-8H37.4V30.6z"/>
<path fill="#355570" d="M26.9,31.6H12.6v-10h14.3V31.6z M13.6,30.6h12.3v-8H13.6V30.6z"/>
<path fill="#355570" d="M26.9,51.4H12.6v-10h14.3V51.4z M13.6,50.4h12.3v-8H13.6V50.4z"/>
<rect x="26.2" y="25.9" fill="#355570" width="10.6" height="1"/>
<g>
	<rect x="26.2" y="46" fill="#355570" width="12.9" height="1"/>
	<g>
		<polygon fill="#355570" points="36.7,49.4 36.2,48.9 38.8,46.5 36.2,44.1 36.7,43.6 39.8,46.5 		"/>
	</g>
</g>
<rect x="31.3" y="28.7" transform="matrix(0.7206 0.6933 -0.6933 0.7206 34.0489 -11.9061)" fill="#355570" width="1" height="15.1"/>
<circle fill="#65A832" cx="44.4" cy="46.6" r="4.4"/>
</svg>
