<?xml version="1.0" encoding="utf-8"?>
<!-- Generator: Adobe Illustrator 18.1.0, SVG Export Plug-In . SVG Version: 6.00 Build 0)  -->
<!DOCTYPE svg PUBLIC "-//W3C//DTD SVG 1.1//EN" "http://www.w3.org/Graphics/SVG/1.1/DTD/svg11.dtd">
<svg version="1.1" id="Layer_1" xmlns="http://www.w3.org/2000/svg" xmlns:xlink="http://www.w3.org/1999/xlink" x="0px" y="0px"
	 viewBox="0 0 66.1 74.6" width="66.1" height="74.6" enable-background="new 0 0 66.1 74.6" xml:space="preserve">
<g>
	<polygon fill="none" stroke="#355570" stroke-width="3" stroke-miterlimit="10" points="6.1,21.6 32.9,6.2 59.7,21.6 59.7,52.5 
		32.9,68 6.1,52.5 	"/>
	<circle fill="#355570" stroke="#FFFFFF" stroke-width="2" stroke-miterlimit="10" cx="6.4" cy="21.9" r="5.4"/>
	<circle fill="#355570" stroke="#FFFFFF" stroke-width="2" stroke-miterlimit="10" cx="6.4" cy="52.8" r="5.4"/>
	<circle fill="#355570" stroke="#FFFFFF" stroke-width="2" stroke-miterlimit="10" cx="32.8" cy="68.2" r="5.4"/>
	<circle fill="#355570" stroke="#FFFFFF" stroke-width="2" stroke-miterlimit="10" cx="59.2" cy="52.3" r="5.4"/>
	<circle fill="#355570" stroke="#FFFFFF" stroke-width="2" stroke-miterlimit="10" cx="59.7" cy="21.9" r="5.4"/>
	<circle fill="#4DB1DC" stroke="#FFFFFF" stroke-width="2" stroke-miterlimit="10" cx="32.8" cy="6.4" r="5.4"/>
	<g>
		<g>
			<path fill="none" stroke="#355570" stroke-miterlimit="10" d="M45.6,29c4.6,6.5,3,15.6-3.6,20.1c-6.5,4.6-15.6,3-20.1-3.6
				c-4.6-6.5-3-15.6,3.6-20.1c2.4-1.7,5.2-2.5,8-2.6"/>
			<g>
				<polygon fill="#355570" points="29.8,28.3 28.9,27.4 33,23 28.2,19.3 29,18.3 34.8,22.8 				"/>
			</g>
		</g>
	</g>
</g>
</svg>
