<?xml version="1.0" encoding="utf-8"?>
<!-- Generator: Adobe Illustrator 18.1.1, SVG Export Plug-In . SVG Version: 6.00 Build 0)  -->
<svg version="1.1" id="Layer_1" xmlns="http://www.w3.org/2000/svg" xmlns:xlink="http://www.w3.org/1999/xlink" x="0px" y="0px"
	 viewBox="316.8 -2.7 484 484" width="484" height="484" enable-background="new 316.8 -2.7 484 484" xml:space="preserve">
<g>
	<path fill="#ffffff" d="M679.8,148.2L467.6,358.7c-12.3,12.3-28.1,10.5-33.3-3.5l0,0c-1.8-5.3,0-10.5,3.5-15.8L650,128.9
		c12.3-12.3,28.1-10.5,33.3,3.5l0,0C685.1,137.7,683.3,144.7,679.8,148.2z"/>
	<path fill="#ffffff" d="M437.8,148.2L650,358.7c12.3,12.3,28.1,10.5,33.3-3.5l0,0c1.8-5.3,0-10.5-3.5-15.8L467.6,128.9
		c-12.3-12.3-28.1-10.5-33.3,3.5l0,0C432.5,137.7,434.3,144.7,437.8,148.2z"/>
</g>
</svg>
