<?xml version="1.0" encoding="utf-8"?>
<!-- Generator: Adobe Illustrator 18.1.1, SVG Export Plug-In . SVG Version: 6.00 Build 0)  -->
<svg version="1.1" id="Layer_1" xmlns="http://www.w3.org/2000/svg" xmlns:xlink="http://www.w3.org/1999/xlink" x="0px" y="0px"
	 viewBox="229.4 -10.6 481.5 481.5" width="481.5" height="481.5" enable-background="new 229.4 -10.6 481.5 481.5" xml:space="preserve">
<circle fill="#FFFFFF" stroke="#D2D7DD" stroke-width="40" stroke-miterlimit="10" cx="470.1" cy="230.1" r="220.8"/>
<g>
	<g>
		<g>
			<g>
				<g>
					<g>
						<defs>
							<rect id="SVGID_1_" x="331.6" y="139.4" width="277.4" height="189.9"/>
						</defs>
						<clipPath id="SVGID_2_">
							<use xlink:href="#SVGID_1_"  overflow="visible"/>
						</clipPath>
						<path clip-path="url(#SVGID_2_)" fill="#CCD4DC" d="M342.7,243.4l82.4,82.4c5,5,13.1,5,18.1,0c5-5,5-13.1,0-18.1L383,247.3
							h219.5c7,0,12.9-5.9,12.9-12.9c0-7-5.9-12.9-12.9-12.9H382.8l60.2-60.2c5-5,5-13.1,0-18.1c-2.4-2.6-5.6-3.9-9-3.9
							s-6.5,1.3-9.1,3.7l-82.4,82.4C337.7,230.1,337.7,238.4,342.7,243.4L342.7,243.4z"/>
					</g>
				</g>
			</g>
		</g>
	</g>
</g>
</svg>
