<?xml version="1.0" encoding="utf-8"?>
<!-- Generator: Adobe Illustrator 18.1.0, SVG Export Plug-In . SVG Version: 6.00 Build 0)  -->
<!DOCTYPE svg PUBLIC "-//W3C//DTD SVG 1.1//EN" "http://www.w3.org/Graphics/SVG/1.1/DTD/svg11.dtd">
<svg version="1.1" id="Layer_1" xmlns="http://www.w3.org/2000/svg" xmlns:xlink="http://www.w3.org/1999/xlink" x="0px" y="0px"
	 viewBox="0 0 38 34" width="38" height="34" enable-background="new 0 0 38 34" xml:space="preserve">
<g>
	<g>
		<g>
			<path fill="#355470" d="M29,33H9c-4.4,0-8-3.6-8-8V9c0-4.4,3.6-8,8-8h20c4.4,0,8,3.6,8,8v16C37,29.4,33.4,33,29,33z"/>
			<path fill="#E1E5E8" d="M29,34H9c-5,0-9-4-9-9V9c0-5,4-9,9-9h20c5,0,9,4,9,9v16C38,30,34,34,29,34z M9,2C5.1,2,2,5.1,2,9v16
				c0,3.9,3.1,7,7,7h20c3.9,0,7-3.1,7-7V9c0-3.9-3.1-7-7-7H9z"/>
		</g>
	</g>
	<g>
		<path fill="#FFFFFF" d="M25.9,11.5l-12.1,12c-0.7,0.7-1.6,0.6-1.9-0.2l0,0c-0.1-0.3,0-0.6,0.2-0.9l12.1-12
			c0.7-0.7,1.6-0.6,1.9,0.2v0C26.2,10.9,26.1,11.3,25.9,11.5z"/>
		<path fill="#FFFFFF" d="M12.1,11.5l12.1,12c0.7,0.7,1.6,0.6,1.9-0.2v0c0.1-0.3,0-0.6-0.2-0.9l-12.1-12c-0.7-0.7-1.6-0.6-1.9,0.2
			l0,0C11.8,10.9,11.9,11.3,12.1,11.5z"/>
	</g>
</g>
</svg>
