<?xml version="1.0" encoding="utf-8"?>
<!-- Generator: Adobe Illustrator 16.0.0, SVG Export Plug-In . SVG Version: 6.00 Build 0)  -->
<!DOCTYPE svg PUBLIC "-//W3C//DTD SVG 1.1//EN" "http://www.w3.org/Graphics/SVG/1.1/DTD/svg11.dtd">
<svg version="1.1" id="Layer_1" xmlns="http://www.w3.org/2000/svg" xmlns:xlink="http://www.w3.org/1999/xlink" x="0px" y="0px"
	 width="118.783px" height="117.178px" viewBox="0 0 118.783 117.178" enable-background="new 0 0 118.783 117.178"
	 xml:space="preserve">
<g>
	<g>
		<defs>
			<rect id="SVGID_1_" width="118.783" height="117.178"/>
		</defs>
		<clipPath id="SVGID_2_">
			<use xlink:href="#SVGID_1_"  overflow="visible"/>
		</clipPath>
		<path clip-path="url(#SVGID_2_)" fill="#A0B6C1" d="M115.97,100.795L88.661,73.483c4.64-7.387,7.333-16.117,7.333-25.487
			C95.994,21.487,74.504,0,47.996,0C21.488,0,0,21.487,0,47.996c0,26.51,21.487,47.996,47.996,47.996
			c10.197,0,19.642-3.188,27.414-8.605l26.983,26.986c1.875,1.873,4.332,2.806,6.787,2.806c2.459,0,4.914-0.933,6.791-2.806
			C119.72,110.622,119.72,104.545,115.97,100.795 M47.996,80.44c-17.917,0-32.443-14.523-32.443-32.442
			c0-17.918,14.526-32.444,32.443-32.444c17.918,0,32.442,14.526,32.442,32.444C80.438,65.917,65.914,80.44,47.996,80.44"/>
	</g>
</g>
</svg>
