<?xml version="1.0" encoding="utf-8"?>
<!-- Generator: Adobe Illustrator 18.1.1, SVG Export Plug-In . SVG Version: 6.00 Build 0)  -->
<svg version="1.1" id="Layer_1" xmlns="http://www.w3.org/2000/svg" xmlns:xlink="http://www.w3.org/1999/xlink" x="0px" y="0px"
	 viewBox="151.3 -11.2 481.6 481.6" enable-background="new 151.3 -11.2 481.6 481.6" xml:space="preserve">
<circle fill="none" stroke="#ACB3BB" stroke-width="40" stroke-miterlimit="10" cx="392.1" cy="229.6" r="220.8"/>
<g>
	<g>
		<g>
			<g>
				<g>
					<g>
						<g>
							<defs>
								<rect id="SVGID_1_" x="253.6" y="134.7" width="277.4" height="189.9"/>
							</defs>
							<clipPath id="SVGID_2_">
								<use xlink:href="#SVGID_1_"  overflow="visible"/>
							</clipPath>
							<path clip-path="url(#SVGID_2_)" fill="#ACB3BB" d="M257.2,238.7l82.4,82.4c5,5,13.1,5,18.1,0s5-13.1,0-18.1l-60.2-60.5H517
								c7,0,12.9-5.9,12.9-12.9s-5.9-12.9-12.9-12.9H297.3l60.2-60.2c5-5,5-13.1,0-18.1c-2.4-2.6-5.6-3.9-9-3.9
								c-3.5,0-6.5,1.3-9.1,3.7L257,220.6C252.2,225.3,252.2,233.7,257.2,238.7L257.2,238.7z"/>
						</g>
					</g>
				</g>
			</g>
		</g>
	</g>
</g>
</svg>
