<?xml version="1.0" encoding="utf-8"?>
<!-- Generator: Adobe Illustrator 18.1.0, SVG Export Plug-In . SVG Version: 6.00 Build 0)  -->
<!DOCTYPE svg PUBLIC "-//W3C//DTD SVG 1.1//EN" "http://www.w3.org/Graphics/SVG/1.1/DTD/svg11.dtd">
<svg version="1.1" id="Layer_1" xmlns="http://www.w3.org/2000/svg" xmlns:xlink="http://www.w3.org/1999/xlink" x="0px" y="0px"
	 viewBox="0 0 320 254.8" width="320" height="254.8" enable-background="new 0 0 320 254.8" xml:space="preserve">
<path fill="#355570" d="M227.7,204H57.8c-6.7,0-12.1-5.4-12.1-12.1V84.5c0-6.7,5.4-12.1,12.1-12.1h169.9c6.7,0,12.1,5.4,12.1,12.1
	V192C239.7,198.6,234.3,204,227.7,204z M57.8,78.7c-3.2,0-5.8,2.6-5.8,5.8V192c0,3.2,2.6,5.8,5.8,5.8h169.9c3.2,0,5.8-2.6,5.8-5.8
	V84.5c0-3.2-2.6-5.8-5.8-5.8H57.8z"/>
<path fill="#355570" d="M236.9,188.9H48.8c-0.6,0-1-0.5-1-1s0.5-1,1-1h188.1c0.6,0,1,0.5,1,1S237.5,188.9,236.9,188.9z"/>
<g>
	<path fill="#355570" d="M100.2,236.5c-0.1,0-0.2,0-0.3,0c-1.2,0-2.1-1-2.1-2.1c0-1.2,0.9-2.1,2.1-2.1c0.1,0,0.2,0,0.2,0
		c6.7,0,12.2-2.1,16.3-6.3c8.8-8.9,8.5-24.5,8.5-24.7c0-1.2,0.9-2.1,2-2.1c1.1,0,2.1,0.9,2.1,2c0,0.7,0.3,17.5-9.7,27.7
		C114.6,234,108.1,236.5,100.2,236.5z"/>
	<path fill="#355570" d="M184,236.5c-7.9,0-14.4-2.5-19.3-7.5c-10-10.2-9.7-27-9.7-27.7c0-1.2,1-2.1,2.1-2c1.2,0,2.1,1,2,2.1
		c0,0.2-0.2,15.8,8.5,24.7c4.1,4.2,9.7,6.2,16.5,6.2c0,0,0,0,0,0c1.2,0,2.1,0.9,2.1,2.1c0,1.2-0.9,2.1-2.1,2.1
		C184.2,236.5,184.1,236.5,184,236.5z"/>
	<path fill="#355570" d="M184.7,237h-84.6c-1.2,0-2.1-0.9-2.1-2.1s0.9-2.1,2.1-2.1h84.6c1.2,0,2.1,0.9,2.1,2.1S185.9,237,184.7,237z
		"/>
</g>
<g>
	<g>
		<path fill="#FFFFFF" d="M94.7,172.3c26.5-26.5,69.4-26.5,95.9,0"/>
	</g>
	<g>
		<path fill="#355570" d="M94.8,174.4c-0.5,0-1.1-0.2-1.5-0.6c-0.8-0.8-0.8-2.1,0-3c1.3-1.3,2.6-2.5,4-3.7c0.9-0.8,2.2-0.7,3,0.2
			c0.8,0.9,0.7,2.2-0.2,3c-1.3,1.1-2.5,2.3-3.7,3.5C95.8,174.2,95.3,174.4,94.8,174.4z"/>
		<path fill="#355570" d="M107.2,164.5c-0.7,0-1.4-0.4-1.8-1c-0.6-1-0.3-2.3,0.7-2.9c3.1-1.9,6.4-3.6,9.8-5c1.1-0.4,2.3,0.1,2.7,1.1
			c0.4,1.1-0.1,2.3-1.1,2.7c-3.2,1.3-6.3,2.9-9.2,4.7C108,164.4,107.6,164.5,107.2,164.5z M178.2,164.5c-0.4,0-0.8-0.1-1.1-0.3
			c-2.9-1.8-6-3.4-9.2-4.7c-1.1-0.4-1.6-1.7-1.1-2.7c0.4-1.1,1.7-1.6,2.7-1.1c3.4,1.4,6.7,3.1,9.8,5c1,0.6,1.3,1.9,0.7,2.9
			C179.6,164.2,178.9,164.5,178.2,164.5z M126.8,156.4c-0.9,0-1.8-0.6-2-1.6c-0.3-1.1,0.4-2.3,1.5-2.5c3.6-0.9,7.2-1.4,10.9-1.7
			c1.1-0.1,2.2,0.8,2.3,1.9c0.1,1.2-0.8,2.2-1.9,2.3c-3.4,0.3-6.9,0.8-10.2,1.6C127.2,156.4,127,156.4,126.8,156.4z M158.6,156.4
			c-0.2,0-0.3,0-0.5-0.1c-3.3-0.8-6.8-1.3-10.2-1.6c-1.2-0.1-2-1.1-1.9-2.3c0.1-1.2,1.1-2,2.3-1.9c3.7,0.3,7.3,0.9,10.9,1.7
			c1.1,0.3,1.8,1.4,1.5,2.5C160.4,155.7,159.5,156.4,158.6,156.4z"/>
		<path fill="#355570" d="M190.7,174.4c-0.5,0-1.1-0.2-1.5-0.6c-1.2-1.2-2.4-2.4-3.7-3.5c-0.9-0.8-1-2.1-0.2-3c0.8-0.9,2.1-1,3-0.2
			c1.4,1.2,2.7,2.4,4,3.7c0.8,0.8,0.8,2.1,0,3C191.7,174.2,191.2,174.4,190.7,174.4z"/>
	</g>
</g>
<g>
	<circle fill="#FFFFFF" cx="142.7" cy="114.9" r="24.4"/>
	<path fill="#355570" d="M137.3,140.8c-0.2,0-0.3,0-0.5-0.1c-3.9-0.9-7.5-2.6-10.6-5.1c-0.9-0.7-1.1-2-0.3-2.9
		c0.7-0.9,2-1.1,2.9-0.3c2.6,2.1,5.7,3.6,8.9,4.3c1.1,0.3,1.8,1.4,1.6,2.5C139.1,140.2,138.3,140.8,137.3,140.8z M148.2,140.8
		c-1,0-1.8-0.7-2-1.6c-0.3-1.1,0.4-2.3,1.6-2.5c3.2-0.7,6.3-2.2,8.9-4.3c0.9-0.7,2.2-0.6,2.9,0.3c0.7,0.9,0.6,2.2-0.3,2.9
		c-3.1,2.5-6.8,4.2-10.6,5.1C148.5,140.8,148.3,140.8,148.2,140.8z M120.7,127.7c-0.8,0-1.5-0.4-1.9-1.2c-1.7-3.6-2.6-7.5-2.6-11.5
		c0-1.2,0.9-2.1,2.1-2.1c0,0,0,0,0,0c1.2,0,2.1,0.9,2.1,2.1c0,3.4,0.8,6.6,2.2,9.7c0.5,1,0.1,2.3-1,2.8
		C121.4,127.6,121.1,127.7,120.7,127.7z M164.7,127.6c-0.3,0-0.6-0.1-0.9-0.2c-1-0.5-1.5-1.8-1-2.8c1.5-3,2.2-6.3,2.2-9.7
		c0-1.2,0.9-2.1,2.1-2.1c1.2,0,2.1,0.9,2.1,2h-2.1l2.1,0c0,4.1-0.9,8-2.6,11.6C166.2,127.2,165.5,127.6,164.7,127.6z M120.7,106.5
		c-0.3,0-0.6-0.1-0.9-0.2c-1-0.5-1.5-1.8-1-2.8c1.7-3.6,4.2-6.8,7.3-9.2c0.9-0.7,2.2-0.6,2.9,0.3c0.7,0.9,0.6,2.2-0.3,2.9
		c-2.6,2.1-4.7,4.8-6.2,7.8C122.2,106.1,121.5,106.5,120.7,106.5z M164.7,106.4c-0.8,0-1.5-0.4-1.9-1.2c-1.5-3-3.6-5.7-6.2-7.7
		c-0.9-0.7-1.1-2-0.3-2.9c0.7-0.9,2-1.1,2.9-0.3c3.1,2.5,5.7,5.6,7.4,9.2c0.5,1,0.1,2.3-1,2.8C165.3,106.3,165,106.4,164.7,106.4z
		 M137.2,93.3c-1,0-1.8-0.7-2-1.6c-0.3-1.1,0.4-2.3,1.6-2.5c3.8-0.9,7.9-0.9,11.8,0c1.1,0.3,1.8,1.4,1.6,2.5
		c-0.3,1.1-1.4,1.8-2.5,1.6c-3.2-0.7-6.7-0.7-9.9,0C137.5,93.2,137.4,93.3,137.2,93.3z"/>
</g>
<g>
	<polygon fill="#FFFFFF" points="1,76.4 46.1,50.4 91.2,76.4 91.2,128.4 46.1,154.4 1,128.4 	"/>
	<path fill="#355570" d="M46.1,155.7L0,129V75.8l0.5-0.3l45.6-26.3l46.1,26.6V129l-0.5,0.3L46.1,155.7z M2.1,127.8l44,25.4l44-25.4
		V77l-44-25.4L2.1,77V127.8z"/>
</g>
<g>
	<polygon fill="#FFFFFF" points="216.3,187.5 249.6,168.3 282.9,187.5 282.9,225.9 249.6,245.1 216.3,225.9 	"/>
	<path fill="#355570" d="M249.6,246.3l-34.3-19.8v-39.6l34.3-19.8l34.3,19.8v39.6L249.6,246.3z M217.4,225.3l32.2,18.6l32.2-18.6
		v-37.2l-32.2-18.6l-32.2,18.6V225.3z"/>
</g>
<g>
	<polygon fill="#FFFFFF" points="187,37.4 249.6,1.2 312.2,37.4 312.2,109.7 249.6,145.8 187,109.7 	"/>
	<path fill="#355570" d="M249.6,147L186,110.3V36.8l0.5-0.3L249.6,0l63.7,36.8v73.5l-0.5,0.3L249.6,147z M188.1,109.1l61.6,35.5
		l61.6-35.5V38L249.6,2.4L188.1,38V109.1z"/>
</g>
<path fill="#355570" d="M53,97.4H18.2V80.3H53V97.4z M20.3,95.3h30.7v-13H20.3V95.3z"/>
<g>
	<polygon fill="#355570" points="51.2,118.7 34.1,118.7 34.1,96.4 36.2,96.4 36.2,116.6 51.2,116.6 	"/>
	<g>
		<polygon fill="#355570" points="46.2,123.8 45.2,122.7 50.7,117.6 45.2,112.5 46.2,111.4 52.9,117.6 		"/>
	</g>
</g>
<circle fill="#FF6F02" cx="63.5" cy="117.3" r="8.3"/>
<rect x="229.9" y="185.3" fill="none" width="90.1" height="69.5"/>
<text transform="matrix(1 0 0 1 229.9142 213.9084)"><tspan x="0" y="0" fill="#4DB1DC" font-family="'OpenSans-Extrabold'" font-size="37.7023" letter-spacing="-2">&gt;</tspan><tspan x="19.1" y="0" fill="#4DB1DC" font-family="'OpenSans-Extrabold'" font-size="37.7023">_</tspan></text>
<g>
	<g>
		<rect x="215.6" y="85.1" fill="#355570" width="17.5" height="2.1"/>
		<rect x="215.6" y="90.7" fill="#355570" width="17.5" height="2.1"/>
		<rect x="215.6" y="96.2" fill="#355570" width="17.5" height="2.1"/>
		<rect x="215.6" y="101.8" fill="#355570" width="17.5" height="2.1"/>
		<rect x="215.6" y="107.4" fill="#355570" width="17.5" height="2.1"/>
		<rect x="215.6" y="113" fill="#355570" width="17.5" height="2.1"/>
	</g>
	<g>
		<rect x="240.6" y="85.1" fill="#355570" width="17.5" height="2.1"/>
		<rect x="240.6" y="90.7" fill="#355570" width="17.5" height="2.1"/>
		<rect x="240.6" y="96.2" fill="#355570" width="17.5" height="2.1"/>
		<rect x="240.6" y="101.8" fill="#355570" width="17.5" height="2.1"/>
		<rect x="240.6" y="107.4" fill="#355570" width="17.5" height="2.1"/>
		<rect x="240.6" y="113" fill="#355570" width="17.5" height="2.1"/>
	</g>
	<g>
		<rect x="265.5" y="85.1" fill="#355570" width="17.5" height="2.1"/>
		<rect x="265.5" y="90.7" fill="#355570" width="17.5" height="2.1"/>
		<rect x="265.5" y="96.2" fill="#355570" width="17.5" height="2.1"/>
		<rect x="265.5" y="101.8" fill="#355570" width="17.5" height="2.1"/>
		<rect x="265.5" y="107.4" fill="#355570" width="17.5" height="2.1"/>
		<rect x="265.5" y="113" fill="#355570" width="17.5" height="2.1"/>
	</g>
	<rect x="263.4" y="40.6" fill="#355570" width="3.8" height="27.6"/>
	<rect x="271.8" y="33" fill="#355570" width="3.8" height="35.2"/>
	<rect x="280.2" y="46.8" fill="#355570" width="3.8" height="21.5"/>
	<g>
		<line fill="#FFFFFF" x1="215.2" y1="77.9" x2="283.4" y2="77.9"/>
		<rect x="215.2" y="74.8" fill="#355570" width="68.2" height="6.3"/>
	</g>
	<path fill="#65A832" d="M217.5,47c7.6,1.2,20.1,2.8,20.1,2.8L232.8,30C224.8,31.9,218.6,38.7,217.5,47z"/>
	<g>
		<g>
			<path fill="#355570" d="M237.8,71.6c-12.1,0-21.9-9.8-21.9-21.9s9.8-21.9,21.9-21.9c12.1,0,21.9,9.8,21.9,21.9
				S249.9,71.6,237.8,71.6z M237.8,29.9c-10.9,0-19.8,8.9-19.8,19.8s8.9,19.8,19.8,19.8c10.9,0,19.8-8.9,19.8-19.8
				S248.7,29.9,237.8,29.9z"/>
		</g>
		<g>
			<rect x="236.7" y="49.7" fill="#355570" width="2.1" height="20.8"/>
			
				<rect x="246.7" y="36.3" transform="matrix(0.2942 0.9558 -0.9558 0.2942 219.491 -203.8403)" fill="#355570" width="2.1" height="20.9"/>
			
				<rect x="225.1" y="38.5" transform="matrix(0.221 0.9753 -0.9753 0.221 222.0498 -198.8301)" fill="#355570" width="20.9" height="2.1"/>
			
				<rect x="217.1" y="47.1" transform="matrix(0.9885 0.1512 -0.1512 0.9885 9.8963 -33.8354)" fill="#355570" width="20.9" height="2.1"/>
			
				<rect x="229.5" y="46.8" transform="matrix(0.7206 0.6933 -0.6933 0.7206 104.109 -143.8538)" fill="#355570" width="2.1" height="20.8"/>
		</g>
	</g>
</g>
</svg>
