<?xml version="1.0" encoding="utf-8"?>
<!-- Generator: Adobe Illustrator 18.1.0, SVG Export Plug-In . SVG Version: 6.00 Build 0)  -->
<!DOCTYPE svg PUBLIC "-//W3C//DTD SVG 1.1//EN" "http://www.w3.org/Graphics/SVG/1.1/DTD/svg11.dtd">
<svg version="1.1" id="Layer_1" xmlns="http://www.w3.org/2000/svg" xmlns:xlink="http://www.w3.org/1999/xlink" x="0px" y="0px"
	 viewBox="0 0 380 406.6" width="380" height="406.6" enable-background="new 0 0 380 406.6" xml:space="preserve">
<g>
	<rect x="148.6" y="349.4" fill="#355570" width="39.7" height="2.1"/>
	<g>
		<polygon opacity="0.22" fill="#3FA9F5" points="380,77.7 289.3,25.3 198.5,77.7 198.5,182.5 289.3,234.9 380,182.5 		"/>
		<polygon fill="#355570" points="290.2,261.8 289.9,261.6 176.8,196.3 176.8,65.4 177.1,65.3 290.2,0 363,42.1 362.5,43 290.2,1.2 
			177.9,66.1 177.9,195.7 290.2,260.6 326.3,239.7 326.8,240.6 		"/>
		<polygon fill="#355570" points="126.7,406.6 73.7,376 73.7,262.5 73.9,262.4 171.9,205.8 172.2,205.9 270.2,262.5 270.2,310 
			269.1,310 269.1,263.1 171.9,207 74.7,263.1 74.7,375.4 127.2,405.7 		"/>
		<polygon fill="#355570" points="93,238.6 20.5,196.7 21,195.8 93,237.3 164.7,195.9 164.7,113.1 93,71.7 56.8,92.6 56.3,91.7 
			93,70.5 165.8,112.5 165.8,196.6 		"/>
		<g>
			<g>
				<g>
					<path fill="#FFFFFF" d="M1.5,186.2c22-22,57.6-22,79.6,0"/>
				</g>
				<path fill="#355570" d="M81.1,187.7c-0.4,0-0.8-0.2-1.1-0.5c-21.3-21.3-56-21.3-77.3,0c-0.6,0.6-1.6,0.6-2.2,0
					c-0.6-0.6-0.6-1.6,0-2.2c22.5-22.5,59.2-22.5,81.7,0c0.6,0.6,0.6,1.6,0,2.2C81.9,187.6,81.5,187.7,81.1,187.7z"/>
			</g>
			<g>
				<path fill="#FFFFFF" d="M56.6,124.4c15.4,21.3-8.2,44.8-29.5,29.5c-0.4-0.3-0.8-0.7-1.1-1.1c-15.4-21.3,8.2-44.8,29.5-29.5
					C55.9,123.6,56.3,124,56.6,124.4z"/>
				<path fill="#355570" d="M41.3,160.4c-12,0-21.8-9.8-21.8-21.8c0-12,9.8-21.8,21.8-21.8c12,0,21.8,9.8,21.8,21.8
					C63.1,150.6,53.4,160.4,41.3,160.4z M41.3,119.9c-10.3,0-18.7,8.4-18.7,18.7s8.4,18.7,18.7,18.7S60,148.9,60,138.6
					S51.6,119.9,41.3,119.9z"/>
			</g>
		</g>
		<path fill="#355570" d="M148.6,122.5H92.7c-1.2,0-2.1-0.9-2.1-2.1c0-1.2,0.9-2.1,2.1-2.1h55.9c1.2,0,2.1,0.9,2.1,2.1
			C150.7,121.5,149.8,122.5,148.6,122.5z"/>
		<path fill="#355570" d="M148.6,143.9H92.7c-1.2,0-2.1-0.9-2.1-2.1c0-1.2,0.9-2.1,2.1-2.1h55.9c1.2,0,2.1,0.9,2.1,2.1
			C150.7,142.9,149.8,143.9,148.6,143.9z"/>
		<path fill="#355570" d="M148.6,165.3H92.7c-1.2,0-2.1-0.9-2.1-2.1c0-1.2,0.9-2.1,2.1-2.1h55.9c1.2,0,2.1,0.9,2.1,2.1
			C150.7,164.3,149.8,165.3,148.6,165.3z"/>
		<path fill="#355570" d="M148.6,186.7H92.7c-1.2,0-2.1-0.9-2.1-2.1c0-1.2,0.9-2.1,2.1-2.1h55.9c1.2,0,2.1,0.9,2.1,2.1
			C150.7,185.7,149.8,186.7,148.6,186.7z"/>
		<path fill="#355570" d="M189.4,290.6h-80.7v-20.3h80.7V290.6z M110.8,288.5h76.5v-16.1h-76.5V288.5z"/>
		<path fill="#355570" d="M236.4,353.9h-40.6v-83.5h40.6V353.9z M197.9,351.8h36.4v-79.3h-36.4V351.8z"/>
		<rect x="148.6" y="303.5" fill="#355570" width="39.7" height="2.1"/>
		<rect x="148.6" y="314.9" fill="#355570" width="39.7" height="2.1"/>
		<rect x="148.6" y="326.4" fill="#355570" width="39.7" height="2.1"/>
		<rect x="148.6" y="337.9" fill="#355570" width="39.7" height="2.1"/>
		<g>
			<path fill="#355570" d="M125.6,332.4c-9.9,0-17.9-8-17.9-17.9c0-9.9,8-17.9,17.9-17.9s17.9,8,17.9,17.9
				C143.5,324.4,135.5,332.4,125.6,332.4z M125.6,298.8c-8.7,0-15.8,7.1-15.8,15.8c0,8.7,7.1,15.8,15.8,15.8s15.8-7.1,15.8-15.8
				C141.4,305.9,134.3,298.8,125.6,298.8z"/>
			<path fill="#355570" d="M122.2,351.5h-14.3v-14.3h14.3V351.5z M110,349.4h10.1v-10.1H110V349.4z"/>
			<path fill="#355570" d="M141.4,351.5h-14.3v-14.3h14.3V351.5z M129.2,349.4h10.1v-10.1h-10.1V349.4z"/>
		</g>
		<rect x="216.8" y="83.2" fill="#FFFFFF" width="142.6" height="92.7"/>
		<rect x="231.3" y="93.1" fill="#4DB1DC" width="114.8" height="16.3"/>
		<rect x="266.7" y="119.2" fill="#355570" width="32.7" height="2.1"/>
		<rect x="266.7" y="130.1" fill="#355570" width="32.7" height="2.1"/>
		<rect x="266.7" y="141" fill="#355570" width="32.7" height="2.1"/>
		<rect x="266.7" y="151.9" fill="#355570" width="32.7" height="2.1"/>
		<rect x="266.7" y="162.7" fill="#355570" width="32.7" height="2.1"/>
		<rect x="309.3" y="119.2" fill="#355570" width="32.7" height="2.1"/>
		<rect x="309.3" y="130.1" fill="#355570" width="32.7" height="2.1"/>
		<rect x="309.3" y="141" fill="#355570" width="32.7" height="2.1"/>
		<rect x="309.3" y="151.9" fill="#355570" width="32.7" height="2.1"/>
		<rect x="309.3" y="162.7" fill="#355570" width="32.7" height="2.1"/>
		<circle fill="#65A832" cx="244.9" cy="133.9" r="13.6"/>
		<rect x="231.3" y="152.9" fill="#FF6F02" width="10.9" height="10.9"/>
		<rect x="247.6" y="152.9" fill="#FF6F02" width="10.9" height="10.9"/>
		<path opacity="9.000000e-02" fill="#65A832" d="M102.4,235.3c34.8,48-18.4,101.2-66.4,66.4c-0.9-0.7-1.7-1.5-2.4-2.4
			c-34.8-48,18.4-101.2,66.4-66.4C101,233.6,101.8,234.4,102.4,235.3z"/>
	</g>
</g>
</svg>
