<svg xmlns="http://www.w3.org/2000/svg" xmlns:xlink="http://www.w3.org/1999/xlink" viewBox="0 0 938.49 351.85"><defs><style>.cls-1{fill:#231f20;}.cls-2{fill:#676767;}.cls-3{fill:#007934;}.cls-4{fill:url(#radial-gradient);}</style><radialGradient id="radial-gradient" cx="206.05" cy="206.18" r="205.99" gradientUnits="userSpaceOnUse"><stop offset="0" stop-color="#fdfdfb"/><stop offset="0.07" stop-color="#f9fbf2"/><stop offset="0.19" stop-color="#edf4da"/><stop offset="0.34" stop-color="#d9eab3"/><stop offset="0.52" stop-color="#bedc7d"/><stop offset="0.72" stop-color="#9cca38"/><stop offset="0.86" stop-color="#80bc00"/><stop offset="1" stop-color="#80bc00"/></radialGradient></defs><title>Layer 1 (5)</title><g id="Layer_2" data-name="Layer 2"><g id="Layer_1-2" data-name="Layer 1"><path class="cls-1" d="M212.62,157.71c-29.55,0-50.45,22.68-50.45,49.76v.27c0,27.08,20.62,49.48,50.17,49.48s50.45-22.68,50.45-49.75v-.28C262.79,180.11,242.17,157.71,212.62,157.71Zm32.44,50c0,18.69-13.34,33.95-32.44,33.95s-32.72-15.53-32.72-34.22v-.28c0-18.69,13.34-33.95,32.44-33.95s32.72,15.53,32.72,34.23Z"/><rect class="cls-1" x="277.35" y="159.36" width="16.91" height="96.21"/><path class="cls-1" d="M358.31,241.69c-18.42,0-31.75-15.39-31.75-34.22v-.28c0-18.83,13.33-33.95,31.75-33.95,11,0,19.24,4.81,26.94,12l10.86-12.51c-9.21-8.8-19.93-15-37.66-15-29.14,0-49.62,22.4-49.62,49.76v.27c0,27.63,20.89,49.48,48.93,49.48,18,0,29-6.59,39-17l-10.85-11C377.69,236.88,370.13,241.69,358.31,241.69Z"/><path class="cls-1" d="M466.07,219.15C479.54,215.3,489,205.82,489,190v-.27c0-8.39-2.88-15.54-8-20.76-6.19-6-15.67-9.62-27.77-9.62H410.4v96.21h16.91V222h21.16l23.64,33.53h19.94Zm-38.76-12.1v-32.3h24.6c12.51,0,19.93,5.64,19.93,15.95V191c0,9.76-7.7,16.08-19.79,16.08Z"/><path class="cls-2" d="M513.17,209.36h38.5v14.56h-38.5Z"/><path class="cls-2" d="M570.53,157.56h18.2v82.6H640v15.4H570.53Z"/><path class="cls-2" d="M725.65,232.88h-49L667,255.56H648.23l44.1-98h17.92l44.24,98h-19Zm-6-14.28-18.48-42.84L682.81,218.6Z"/><path class="cls-2" d="M851,229c0,16.8-13.16,26.6-38.36,26.6H764v-98h45.92c23.52,0,36.12,9.94,36.12,25.48,0,10.08-5,17.5-12.6,21.56C843.89,208,851,216.22,851,229Zm-68.88-57.12v27h25.76c12.6,0,19.74-4.48,19.74-13.44s-7.14-13.58-19.74-13.58Zm50.54,55.3c0-9.8-7.42-14.14-21.14-14.14h-29.4v28.28h29.4C825.27,241.28,832.69,236.94,832.69,227.14Z"/><path class="cls-2" d="M860.23,245.2l6.3-14.14c7.84,6.3,20.3,10.78,32.34,10.78,15.26,0,21.7-5.46,21.7-12.74,0-21.14-58.24-7.28-58.24-43.68,0-15.82,12.6-29.26,39.48-29.26,11.76,0,24.08,3.08,32.62,8.68L928.69,179a54.46,54.46,0,0,0-27-7.7c-15.12,0-21.28,5.88-21.28,13.3,0,20.86,58.1,7.28,58.1,43.26,0,15.68-12.74,29.12-39.62,29.12C883.61,257,868.35,252.2,860.23,245.2Z"/><path class="cls-3" d="M116,194.1,78.6,189.2a127.85,127.85,0,0,1,3.21-16.47l36.43,9.76A90.9,90.9,0,0,0,116,194.1ZM61.3,289.63,27.5,309.14a207.85,207.85,0,0,0,15,22.42l31-23.76A167.66,167.66,0,0,1,61.3,289.63Zm26.4-202L60.43,60.36A206.32,206.32,0,0,1,80.71,42.59l23.46,30.55A166.8,166.8,0,0,0,87.7,87.64ZM270.92,51.16l14.75-35.28a202.76,202.76,0,0,0-25.51-8.73l-10,36.93A165.11,165.11,0,0,1,270.92,51.16Zm-232,154.92L0,206.11v.08a208.92,208.92,0,0,0,1.72,26.75l38.61-5A169.56,169.56,0,0,1,38.88,206.08ZM206.44,38.3h.36l0-38.29h-.58a207.53,207.53,0,0,0-26.9,1.75l4.95,38A169.24,169.24,0,0,1,206.44,38.3ZM189.25,78.09l-5-38.33a168,168,0,0,0-21.5,4.3l10,37.33A126.75,126.75,0,0,1,189.25,78.09ZM127.7,103.78,104.17,73.14A166.8,166.8,0,0,0,87.7,87.64L115,115A129.59,129.59,0,0,1,127.7,103.78Zm157.46,0,23.62-30.58a167.68,167.68,0,0,0-18.22-12.26l-19.45,33.4A128.61,128.61,0,0,1,285.16,103.76Zm-203.35,69-37.31-10a166.73,166.73,0,0,0-4.23,21.45l38.33,5A127.85,127.85,0,0,1,81.81,172.73ZM122,171.32,87.16,156.85a127.12,127.12,0,0,0-5.35,15.88l36.43,9.76A91.57,91.57,0,0,1,122,171.32Zm49.24-49.65L156.8,86.83a128.22,128.22,0,0,0-15.07,7.51L160.62,127A92.27,92.27,0,0,1,171.24,121.67ZM122.18,240.86,87.32,255.28a128.71,128.71,0,0,0,7.45,15l32.66-18.85A91.46,91.46,0,0,1,122.18,240.86ZM44.5,162.73,7,152.69a206.1,206.1,0,0,0-5.25,26.44l38.5,5.05A166.73,166.73,0,0,1,44.5,162.73ZM94.77,270.3,61.3,289.63A167.66,167.66,0,0,0,73.46,307.8l30.66-23.51A129.52,129.52,0,0,1,94.77,270.3Zm99.36-154.82-4.88-37.39a126.75,126.75,0,0,0-16.52,3.3l9.73,36.45A88.66,88.66,0,0,1,194.13,115.48Z"/><path class="cls-4" d="M73.27,104.17,42.65,80.63a206.52,206.52,0,0,0-15,22.38l33.48,19.38A166.77,166.77,0,0,1,73.27,104.17ZM44.6,249.36l-37.66,10a206.19,206.19,0,0,1-5.22-26.45l38.61-5A166.34,166.34,0,0,0,44.6,249.36Zm43.29,74.91L60.25,351.85a207.66,207.66,0,0,1-17.76-20.29l31-23.76A169.91,169.91,0,0,0,87.89,324.27ZM290.56,60.92l19.23-33a206.55,206.55,0,0,1,22.35,15.06L308.78,73.18A167.68,167.68,0,0,0,290.56,60.92ZM142,51.14,127.3,15.65A203.65,203.65,0,0,1,152.85,7l9.9,37.08A168.24,168.24,0,0,0,142,51.14Zm64.81,25.78,0-38.62a169.7,169.7,0,0,1,21.87,1.47l-5.11,38.31A130.1,130.1,0,0,0,206.82,76.92ZM94.57,141.76,61.12,122.39a166.77,166.77,0,0,1,12.15-18.22l30.62,23.54A130.05,130.05,0,0,0,94.57,141.76ZM81.93,239.42,44.6,249.36a166.34,166.34,0,0,1-4.27-21.42l38.33-5A127.5,127.5,0,0,0,81.93,239.42Zm-.12-66.69-37.31-10a165,165,0,0,1,7-20.7l35.68,14.82A127.12,127.12,0,0,0,81.81,172.73Zm75-85.9L142,51.14a168.24,168.24,0,0,1,20.74-7.08l10,37.33A128.78,128.78,0,0,0,156.8,86.83Zm-29.1,17L104.17,73.14a166.5,166.5,0,0,1,18.21-12.25l19.35,33.45A127.89,127.89,0,0,0,127.7,103.78Zm.22,204.33-23.58,30.6a167.43,167.43,0,0,1-16.45-14.44L115.22,297A129.25,129.25,0,0,0,127.92,308.11ZM230.24,117.78l9.84-36.41A128.17,128.17,0,0,1,256,86.8l-14.55,34.81A91.49,91.49,0,0,0,230.24,117.78ZM118.38,229.71l-36.45,9.71A127.5,127.5,0,0,1,78.66,223l37.4-4.85A90.23,90.23,0,0,0,118.38,229.71ZM134,261.34l-29.92,23a129.52,129.52,0,0,1-9.35-14l32.66-18.85A91.53,91.53,0,0,0,134,261.34Zm60.09-145.86-4.88-37.39a128.34,128.34,0,0,1,17.19-1.18h.38l0,37.72h-.4A91,91,0,0,0,194.13,115.48Zm-22.89,6.19L156.8,86.83a128.78,128.78,0,0,1,15.93-5.44l9.73,36.45A91.49,91.49,0,0,0,171.24,121.67Zm-37.45,29-29.9-23A129.68,129.68,0,0,1,115,115l26.67,26.67A92.05,92.05,0,0,0,133.79,150.7Zm-17.73,67.43L78.66,223a129.35,129.35,0,0,1-1.16-16.92l37.72,0A89.41,89.41,0,0,0,116.06,218.13Z"/><path class="cls-1" d="M160.62,127,141.73,94.34a127.89,127.89,0,0,0-14,9.44l23,29.9A92.07,92.07,0,0,1,160.62,127Zm-45.4,170L87.89,324.27A169.91,169.91,0,0,1,73.46,307.8l30.66-23.51A128.89,128.89,0,0,0,115.22,297ZM206.44,76.91h.38l0-38.62h-.36a169.24,169.24,0,0,0-22.19,1.46l5,38.33A128.34,128.34,0,0,1,206.44,76.91ZM94.57,141.76,61.12,122.39A167,167,0,0,0,51.48,142l35.68,14.82A127.86,127.86,0,0,1,94.57,141.76ZM271.11,94.32l19.45-33.4a167.73,167.73,0,0,0-19.64-9.76L256,86.8A127.92,127.92,0,0,1,271.11,94.32ZM81.93,239.42,44.6,249.36a167.1,167.1,0,0,0,7,20.68l35.7-14.76A128.1,128.1,0,0,1,81.93,239.42Zm51.86-88.72-29.9-23a130.05,130.05,0,0,0-9.32,14l32.64,18.9A89.78,89.78,0,0,1,133.79,150.7Zm-18.58,55.16A91.33,91.33,0,0,1,116,194.1L78.6,189.2a130.81,130.81,0,0,0-1.11,16.66c0,.06,0,.13,0,.2l37.72,0C115.22,206,115.21,205.92,115.21,205.86Zm115-88.08,9.84-36.41a128.41,128.41,0,0,0-16.52-3.29l-5,37.38A91.6,91.6,0,0,1,230.24,117.78Z"/></g></g></svg>