<?xml version="1.0" encoding="utf-8"?>
<!-- Generator: Adobe Illustrator 18.1.0, SVG Export Plug-In . SVG Version: 6.00 Build 0)  -->
<!DOCTYPE svg PUBLIC "-//W3C//DTD SVG 1.1//EN" "http://www.w3.org/Graphics/SVG/1.1/DTD/svg11.dtd">
<svg version="1.1" id="Layer_1" xmlns="http://www.w3.org/2000/svg" xmlns:xlink="http://www.w3.org/1999/xlink" x="0px" y="0px"
	 viewBox="0 0 929.9 475.6" width="929.9" height="475.6" enable-background="new 0 0 929.9 475.6" xml:space="preserve">
<g>
	<path fill="#231F20" d="M110.5,426.4c1.1,0,2.1,0.4,2.9,1.3l7.7,8.4c-5.9,6.9-13.1,12.2-21.6,16.1c-8.5,3.8-18.6,5.8-30.6,5.8
		c-10.4,0-19.9-1.8-28.4-5.4c-8.5-3.6-15.7-8.7-21.7-15.2c-6-6.5-10.6-14.3-13.9-23.4C1.6,404.9,0,394.9,0,384
		c0-10.9,1.8-20.9,5.3-30s8.5-16.9,14.9-23.4c6.4-6.5,14.1-11.6,23-15.2c8.9-3.6,18.8-5.4,29.5-5.4c10.6,0,19.8,1.7,27.5,4.9
		c7.7,3.3,14.6,7.8,20.6,13.4l-6.4,9c-0.5,0.7-1,1.2-1.6,1.7c-0.6,0.4-1.5,0.7-2.6,0.7c-0.9,0-1.8-0.3-2.8-1c-1-0.6-2.1-1.4-3.5-2.4
		c-1.3-0.9-2.9-2-4.7-3c-1.8-1.1-4-2.1-6.5-3c-2.5-0.9-5.4-1.7-8.7-2.4c-3.3-0.6-7.1-1-11.4-1c-7.7,0-14.8,1.3-21.3,4
		c-6.4,2.7-12,6.4-16.6,11.4s-8.3,10.9-10.9,18c-2.6,7.1-3.9,15-3.9,23.7c0,9,1.3,17.1,3.9,24.1c2.6,7.1,6.1,13,10.6,17.9
		c4.5,4.9,9.8,8.6,15.9,11.2c6.1,2.6,12.7,3.8,19.8,3.8c4.3,0,8.2-0.3,11.6-0.8c3.4-0.5,6.6-1.3,9.5-2.4c2.9-1.1,5.7-2.4,8.2-4.1
		c2.5-1.6,5.1-3.6,7.6-5.9C108.3,426.9,109.4,426.4,110.5,426.4z"/>
	<path fill="#231F20" d="M280.4,384c0,10.8-1.7,20.7-5.2,29.6c-3.4,8.9-8.3,16.5-14.5,22.8c-6.3,6.3-13.8,11.2-22.5,14.7
		c-8.8,3.5-18.4,5.2-29.1,5.2h-54.1V311.5h54.1c10.6,0,20.3,1.7,29.1,5.2c8.8,3.5,16.3,8.4,22.5,14.7c6.3,6.4,11.1,14,14.5,22.9
		C278.7,363.3,280.4,373.1,280.4,384z M260.3,384c0-8.9-1.2-16.8-3.6-23.8c-2.4-7-5.9-12.9-10.3-17.8s-9.8-8.6-16.2-11.1
		c-6.3-2.6-13.4-3.8-21.1-3.8h-34.4v113h34.4c7.7,0,14.8-1.3,21.1-3.8c6.3-2.6,11.7-6.2,16.2-11.1c4.4-4.8,7.9-10.7,10.3-17.7
		C259.1,400.8,260.3,392.9,260.3,384z"/>
	<path fill="#231F20" d="M338.3,456.3h-19.6V311.5h19.6V456.3z"/>
	<path fill="#231F20" d="M487.2,426.4c1.1,0,2.1,0.4,2.9,1.3l7.7,8.4c-5.9,6.9-13.1,12.2-21.6,16.1c-8.5,3.8-18.6,5.8-30.6,5.8
		c-10.4,0-19.9-1.8-28.4-5.4c-8.5-3.6-15.7-8.7-21.7-15.2c-6-6.5-10.6-14.3-13.9-23.4c-3.3-9.1-4.9-19.1-4.9-30
		c0-10.9,1.8-20.9,5.3-30s8.5-16.9,14.9-23.4c6.4-6.5,14.1-11.6,23-15.2c8.9-3.6,18.8-5.4,29.5-5.4c10.6,0,19.8,1.7,27.5,4.9
		c7.7,3.3,14.6,7.8,20.6,13.4l-6.4,9c-0.5,0.7-1,1.2-1.6,1.7c-0.6,0.4-1.5,0.7-2.6,0.7c-0.9,0-1.8-0.3-2.8-1c-1-0.6-2.1-1.4-3.5-2.4
		c-1.3-0.9-2.9-2-4.7-3c-1.8-1.1-4-2.1-6.5-3c-2.5-0.9-5.4-1.7-8.7-2.4c-3.3-0.6-7.1-1-11.4-1c-7.7,0-14.8,1.3-21.3,4
		c-6.4,2.7-12,6.4-16.6,11.4s-8.3,10.9-10.9,18c-2.6,7.1-3.9,15-3.9,23.7c0,9,1.3,17.1,3.9,24.1c2.6,7.1,6.1,13,10.6,17.9
		c4.5,4.9,9.8,8.6,15.9,11.2c6.1,2.6,12.7,3.8,19.8,3.8c4.3,0,8.2-0.3,11.6-0.8c3.4-0.5,6.6-1.3,9.5-2.4c2.9-1.1,5.7-2.4,8.2-4.1
		c2.5-1.6,5.1-3.6,7.6-5.9C485,426.9,486.1,426.4,487.2,426.4z"/>
</g>
<g>
	<path fill="#231F20" d="M615,339.6c0.3,0,0.5,0.1,0.7,0.3l1.9,2.1c-1.5,1.7-3.3,3.1-5.4,4s-4.7,1.4-7.7,1.4c-2.6,0-5-0.5-7.1-1.4
		c-2.1-0.9-4-2.2-5.5-3.8c-1.5-1.6-2.7-3.6-3.5-5.9c-0.8-2.3-1.2-4.8-1.2-7.5c0-2.7,0.4-5.3,1.3-7.5c0.9-2.3,2.1-4.2,3.7-5.9
		s3.5-2.9,5.8-3.8c2.2-0.9,4.7-1.4,7.4-1.4c2.7,0,5,0.4,6.9,1.2c1.9,0.8,3.7,2,5.2,3.4l-1.6,2.3c-0.1,0.2-0.3,0.3-0.4,0.4
		c-0.2,0.1-0.4,0.2-0.7,0.2c-0.2,0-0.5-0.1-0.7-0.2c-0.2-0.2-0.5-0.4-0.9-0.6c-0.3-0.2-0.7-0.5-1.2-0.8c-0.5-0.3-1-0.5-1.6-0.8
		s-1.4-0.4-2.2-0.6s-1.8-0.2-2.9-0.2c-1.9,0-3.7,0.3-5.3,1c-1.6,0.7-3,1.6-4.2,2.9c-1.2,1.2-2.1,2.7-2.7,4.5s-1,3.8-1,6
		c0,2.3,0.3,4.3,1,6.1c0.7,1.8,1.5,3.3,2.7,4.5c1.1,1.2,2.5,2.2,4,2.8c1.5,0.6,3.2,1,5,1c1.1,0,2.1-0.1,2.9-0.2s1.7-0.3,2.4-0.6
		c0.7-0.3,1.4-0.6,2.1-1c0.6-0.4,1.3-0.9,1.9-1.5C614.5,339.7,614.8,339.6,615,339.6z"/>
	<path fill="#231F20" d="M640.3,347.1h-2c-0.4,0-0.8-0.1-1.1-0.2c-0.3-0.1-0.4-0.4-0.5-0.9l-0.5-2.4c-0.7,0.6-1.3,1.2-2,1.6
		s-1.3,0.9-2,1.2s-1.5,0.6-2.3,0.7s-1.7,0.3-2.7,0.3c-1,0-1.9-0.1-2.8-0.4c-0.9-0.3-1.6-0.7-2.3-1.3c-0.6-0.6-1.2-1.3-1.5-2.1
		s-0.6-1.9-0.6-3c0-1,0.3-2,0.8-2.9s1.5-1.8,2.7-2.5c1.2-0.7,2.9-1.3,4.9-1.8c2-0.5,4.5-0.7,7.4-0.7v-2c0-2-0.4-3.5-1.3-4.6
		c-0.9-1-2.1-1.5-3.8-1.5c-1.1,0-2,0.1-2.8,0.4c-0.8,0.3-1.4,0.6-2,0.9c-0.5,0.3-1,0.7-1.4,0.9s-0.8,0.4-1.2,0.4
		c-0.3,0-0.6-0.1-0.8-0.2c-0.2-0.2-0.4-0.4-0.5-0.6l-0.8-1.4c1.4-1.4,3-2.4,4.6-3.1c1.6-0.7,3.5-1,5.5-1c1.4,0,2.7,0.2,3.8,0.7
		c1.1,0.5,2.1,1.1,2.8,2c0.8,0.8,1.3,1.9,1.7,3.1c0.4,1.2,0.6,2.5,0.6,4V347.1z M628.6,344.3c0.8,0,1.5-0.1,2.2-0.2s1.3-0.4,1.9-0.7
		c0.6-0.3,1.1-0.7,1.7-1.1s1.1-0.9,1.6-1.4v-5.3c-2.1,0-3.9,0.1-5.3,0.4c-1.5,0.3-2.6,0.6-3.6,1c-0.9,0.4-1.6,0.9-2,1.5
		c-0.4,0.6-0.6,1.2-0.6,1.9c0,0.7,0.1,1.3,0.3,1.8c0.2,0.5,0.5,0.9,0.9,1.2c0.4,0.3,0.8,0.5,1.3,0.7
		C627.4,344.2,628,344.3,628.6,344.3z"/>
	<path fill="#231F20" d="M646.2,347.1v-25.7h2.7c0.6,0,1,0.3,1.2,0.9l0.4,2.8c1.1-1.2,2.4-2.2,3.7-3c1.4-0.8,3-1.1,4.8-1.1
		c1.4,0,2.6,0.2,3.7,0.7c1.1,0.5,2,1.1,2.7,2c0.7,0.9,1.3,1.9,1.6,3.1c0.4,1.2,0.6,2.5,0.6,4v16.4H663v-16.4c0-1.9-0.4-3.5-1.3-4.5
		c-0.9-1.1-2.2-1.6-4.1-1.6c-1.3,0-2.6,0.3-3.7,1c-1.2,0.6-2.2,1.5-3.2,2.6v18.9H646.2z"/>
	<path fill="#231F20" d="M692.3,347.1h-2c-0.4,0-0.8-0.1-1.1-0.2c-0.3-0.1-0.4-0.4-0.5-0.9l-0.5-2.4c-0.7,0.6-1.3,1.2-2,1.6
		c-0.6,0.5-1.3,0.9-2,1.2s-1.5,0.6-2.3,0.7c-0.8,0.2-1.7,0.3-2.7,0.3c-1,0-1.9-0.1-2.8-0.4c-0.9-0.3-1.6-0.7-2.3-1.3
		c-0.6-0.6-1.2-1.3-1.5-2.1s-0.6-1.9-0.6-3c0-1,0.3-2,0.8-2.9c0.6-0.9,1.5-1.8,2.7-2.5c1.2-0.7,2.9-1.3,4.9-1.8
		c2-0.5,4.5-0.7,7.4-0.7v-2c0-2-0.4-3.5-1.3-4.6c-0.9-1-2.1-1.5-3.8-1.5c-1.1,0-2,0.1-2.8,0.4s-1.4,0.6-2,0.9
		c-0.5,0.3-1,0.7-1.4,0.9c-0.4,0.3-0.8,0.4-1.2,0.4c-0.3,0-0.6-0.1-0.8-0.2c-0.2-0.2-0.4-0.4-0.5-0.6l-0.8-1.4
		c1.4-1.4,3-2.4,4.6-3.1c1.6-0.7,3.5-1,5.5-1c1.4,0,2.7,0.2,3.8,0.7c1.1,0.5,2.1,1.1,2.8,2c0.8,0.8,1.3,1.9,1.7,3.1
		c0.4,1.2,0.6,2.5,0.6,4V347.1z M680.5,344.3c0.8,0,1.5-0.1,2.2-0.2c0.7-0.2,1.3-0.4,1.9-0.7s1.1-0.7,1.7-1.1s1.1-0.9,1.6-1.4v-5.3
		c-2.1,0-3.8,0.1-5.3,0.4c-1.5,0.3-2.6,0.6-3.6,1c-0.9,0.4-1.6,0.9-2,1.5c-0.4,0.6-0.6,1.2-0.6,1.9c0,0.7,0.1,1.3,0.3,1.8
		c0.2,0.5,0.5,0.9,0.9,1.2c0.4,0.3,0.8,0.5,1.3,0.7C679.4,344.2,679.9,344.3,680.5,344.3z"/>
	<path fill="#231F20" d="M716.2,347.1c-0.6,0-1-0.3-1.2-0.9l-0.4-3.1c-1.1,1.3-2.4,2.4-3.8,3.2s-3,1.2-4.9,1.2c-1.5,0-2.8-0.3-4-0.9
		c-1.2-0.6-2.2-1.4-3.1-2.5c-0.8-1.1-1.5-2.5-2-4.1c-0.5-1.6-0.7-3.5-0.7-5.7c0-1.9,0.3-3.7,0.8-5.3s1.2-3.1,2.2-4.3
		c1-1.2,2.1-2.1,3.5-2.8c1.4-0.7,2.9-1,4.7-1c1.6,0,2.9,0.3,4,0.8c1.1,0.5,2.1,1.3,3,2.2v-14.3h4.5v37.4H716.2z M707.4,343.8
		c1.5,0,2.8-0.3,3.9-1c1.1-0.7,2.1-1.6,3.1-2.9v-12.4c-0.8-1.1-1.7-1.9-2.7-2.3c-1-0.4-2.1-0.7-3.3-0.7c-2.4,0-4.2,0.9-5.5,2.6
		c-1.3,1.7-1.9,4.1-1.9,7.3c0,1.7,0.1,3.1,0.4,4.3c0.3,1.2,0.7,2.2,1.3,2.9c0.6,0.8,1.2,1.3,2.1,1.7S706.4,343.8,707.4,343.8z"/>
	<path fill="#231F20" d="M731.5,313.3c0,0.4-0.1,0.9-0.3,1.2s-0.4,0.7-0.7,1s-0.6,0.5-1,0.7c-0.4,0.2-0.8,0.3-1.2,0.3
		c-0.4,0-0.9-0.1-1.2-0.3c-0.4-0.2-0.7-0.4-1-0.7s-0.5-0.6-0.7-1c-0.2-0.4-0.3-0.8-0.3-1.2c0-0.4,0.1-0.9,0.3-1.3
		c0.2-0.4,0.4-0.7,0.7-1s0.6-0.5,1-0.7s0.8-0.3,1.2-0.3c0.4,0,0.9,0.1,1.2,0.3c0.4,0.2,0.7,0.4,1,0.7s0.5,0.6,0.7,1
		C731.4,312.4,731.5,312.9,731.5,313.3z M730.5,321.4v25.7H726v-25.7H730.5z"/>
	<path fill="#231F20" d="M756.3,347.1h-2c-0.4,0-0.8-0.1-1.1-0.2c-0.3-0.1-0.4-0.4-0.5-0.9l-0.5-2.4c-0.7,0.6-1.3,1.2-2,1.6
		c-0.6,0.5-1.3,0.9-2,1.2s-1.5,0.6-2.3,0.7c-0.8,0.2-1.7,0.3-2.7,0.3c-1,0-1.9-0.1-2.8-0.4c-0.9-0.3-1.6-0.7-2.3-1.3
		c-0.6-0.6-1.2-1.3-1.5-2.1s-0.6-1.9-0.6-3c0-1,0.3-2,0.8-2.9c0.6-0.9,1.5-1.8,2.7-2.5c1.2-0.7,2.9-1.3,4.9-1.8
		c2-0.5,4.5-0.7,7.4-0.7v-2c0-2-0.4-3.5-1.3-4.6c-0.9-1-2.1-1.5-3.8-1.5c-1.1,0-2,0.1-2.8,0.4s-1.4,0.6-2,0.9
		c-0.5,0.3-1,0.7-1.4,0.9c-0.4,0.3-0.8,0.4-1.2,0.4c-0.3,0-0.6-0.1-0.8-0.2c-0.2-0.2-0.4-0.4-0.5-0.6l-0.8-1.4
		c1.4-1.4,3-2.4,4.6-3.1c1.6-0.7,3.5-1,5.5-1c1.4,0,2.7,0.2,3.8,0.7c1.1,0.5,2.1,1.1,2.8,2c0.8,0.8,1.3,1.9,1.7,3.1
		c0.4,1.2,0.6,2.5,0.6,4V347.1z M744.6,344.3c0.8,0,1.5-0.1,2.2-0.2c0.7-0.2,1.3-0.4,1.9-0.7s1.1-0.7,1.7-1.1s1.1-0.9,1.6-1.4v-5.3
		c-2.1,0-3.8,0.1-5.3,0.4c-1.5,0.3-2.6,0.6-3.6,1c-0.9,0.4-1.6,0.9-2,1.5c-0.4,0.6-0.6,1.2-0.6,1.9c0,0.7,0.1,1.3,0.3,1.8
		c0.2,0.5,0.5,0.9,0.9,1.2c0.4,0.3,0.8,0.5,1.3,0.7C743.5,344.2,744,344.3,744.6,344.3z"/>
	<path fill="#231F20" d="M762.2,347.1v-25.7h2.7c0.6,0,1,0.3,1.2,0.9l0.4,2.8c1.1-1.2,2.4-2.2,3.7-3c1.4-0.8,3-1.1,4.8-1.1
		c1.4,0,2.6,0.2,3.7,0.7c1.1,0.5,2,1.1,2.7,2c0.7,0.9,1.3,1.9,1.6,3.1c0.4,1.2,0.6,2.5,0.6,4v16.4H779v-16.4c0-1.9-0.4-3.5-1.3-4.5
		c-0.9-1.1-2.2-1.6-4.1-1.6c-1.3,0-2.6,0.3-3.7,1c-1.2,0.6-2.2,1.5-3.2,2.6v18.9H762.2z"/>
	<path fill="#231F20" d="M620.9,383.8c0,2.7-0.4,5.2-1.3,7.4c-0.9,2.2-2.1,4.1-3.7,5.7c-1.6,1.6-3.5,2.8-5.7,3.7
		c-2.2,0.9-4.6,1.3-7.3,1.3h-13.6v-36.4H603c2.7,0,5.1,0.4,7.3,1.3c2.2,0.9,4.1,2.1,5.7,3.7c1.6,1.6,2.8,3.5,3.7,5.7
		C620.5,378.6,620.9,381.1,620.9,383.8z M615.9,383.8c0-2.2-0.3-4.2-0.9-6c-0.6-1.8-1.5-3.2-2.6-4.5s-2.5-2.1-4.1-2.8
		c-1.6-0.6-3.4-1-5.3-1h-8.7V398h8.7c1.9,0,3.7-0.3,5.3-1c1.6-0.6,2.9-1.6,4.1-2.8s2-2.7,2.6-4.5
		C615.6,388.1,615.9,386.1,615.9,383.8z"/>
	<path fill="#231F20" d="M642.8,402h-2c-0.4,0-0.8-0.1-1.1-0.2c-0.3-0.1-0.4-0.4-0.5-0.9l-0.5-2.4c-0.7,0.6-1.3,1.2-2,1.6
		s-1.3,0.9-2,1.2s-1.5,0.6-2.3,0.7s-1.7,0.3-2.7,0.3c-1,0-1.9-0.1-2.8-0.4c-0.9-0.3-1.6-0.7-2.3-1.3c-0.6-0.6-1.2-1.3-1.5-2.1
		s-0.6-1.9-0.6-3c0-1,0.3-2,0.8-2.9s1.5-1.8,2.7-2.5c1.2-0.7,2.9-1.3,4.9-1.8c2-0.5,4.5-0.7,7.4-0.7v-2c0-2-0.4-3.5-1.3-4.6
		c-0.9-1-2.1-1.5-3.8-1.5c-1.1,0-2,0.1-2.8,0.4c-0.8,0.3-1.4,0.6-2,0.9c-0.5,0.3-1,0.7-1.4,0.9s-0.8,0.4-1.2,0.4
		c-0.3,0-0.6-0.1-0.8-0.2c-0.2-0.2-0.4-0.4-0.5-0.6l-0.8-1.4c1.4-1.4,3-2.4,4.6-3.1c1.6-0.7,3.5-1,5.5-1c1.4,0,2.7,0.2,3.8,0.7
		c1.1,0.5,2.1,1.1,2.8,2c0.8,0.8,1.3,1.9,1.7,3.1c0.4,1.2,0.6,2.5,0.6,4V402z M631,399.2c0.8,0,1.5-0.1,2.2-0.2s1.3-0.4,1.9-0.7
		c0.6-0.3,1.1-0.7,1.7-1.1s1.1-0.9,1.6-1.4v-5.3c-2.1,0-3.9,0.1-5.3,0.4c-1.5,0.3-2.6,0.6-3.6,1c-0.9,0.4-1.6,0.9-2,1.5
		c-0.4,0.6-0.6,1.2-0.6,1.9c0,0.7,0.1,1.3,0.3,1.8c0.2,0.5,0.5,0.9,0.9,1.2c0.4,0.3,0.8,0.5,1.3,0.7
		C629.9,399.2,630.4,399.2,631,399.2z"/>
	<path fill="#231F20" d="M656.4,402.4c-2,0-3.6-0.6-4.7-1.7c-1.1-1.1-1.6-2.8-1.6-4.9v-15.7H647c-0.3,0-0.5-0.1-0.7-0.2
		c-0.2-0.2-0.3-0.4-0.3-0.7v-1.8l4.2-0.5l1-7.9c0-0.3,0.1-0.5,0.3-0.6c0.2-0.2,0.4-0.2,0.7-0.2h2.3v8.9h7.4v3.3h-7.4v15.4
		c0,1.1,0.3,1.9,0.8,2.4s1.2,0.8,2,0.8c0.5,0,0.9-0.1,1.2-0.2s0.6-0.3,0.9-0.4s0.5-0.3,0.6-0.4s0.3-0.2,0.5-0.2
		c0.2,0,0.4,0.1,0.6,0.4l1.3,2.2c-0.8,0.7-1.7,1.3-2.8,1.7C658.7,402.2,657.6,402.4,656.4,402.4z"/>
	<path fill="#231F20" d="M684.4,402h-2c-0.4,0-0.8-0.1-1.1-0.2c-0.3-0.1-0.4-0.4-0.5-0.9l-0.5-2.4c-0.7,0.6-1.3,1.2-2,1.6
		c-0.6,0.5-1.3,0.9-2,1.2s-1.5,0.6-2.3,0.7c-0.8,0.2-1.7,0.3-2.7,0.3c-1,0-1.9-0.1-2.8-0.4c-0.9-0.3-1.6-0.7-2.3-1.3
		c-0.6-0.6-1.2-1.3-1.5-2.1s-0.6-1.9-0.6-3c0-1,0.3-2,0.8-2.9c0.6-0.9,1.5-1.8,2.7-2.5c1.2-0.7,2.9-1.3,4.9-1.8
		c2-0.5,4.5-0.7,7.4-0.7v-2c0-2-0.4-3.5-1.3-4.6c-0.9-1-2.1-1.5-3.8-1.5c-1.1,0-2,0.1-2.8,0.4s-1.4,0.6-2,0.9
		c-0.5,0.3-1,0.7-1.4,0.9c-0.4,0.3-0.8,0.4-1.2,0.4c-0.3,0-0.6-0.1-0.8-0.2c-0.2-0.2-0.4-0.4-0.5-0.6l-0.8-1.4
		c1.4-1.4,3-2.4,4.6-3.1c1.6-0.7,3.5-1,5.5-1c1.4,0,2.7,0.2,3.8,0.7c1.1,0.5,2.1,1.1,2.8,2c0.8,0.8,1.3,1.9,1.7,3.1
		c0.4,1.2,0.6,2.5,0.6,4V402z M672.7,399.2c0.8,0,1.5-0.1,2.2-0.2c0.7-0.2,1.3-0.4,1.9-0.7s1.1-0.7,1.7-1.1s1.1-0.9,1.6-1.4v-5.3
		c-2.1,0-3.8,0.1-5.3,0.4c-1.5,0.3-2.6,0.6-3.6,1c-0.9,0.4-1.6,0.9-2,1.5c-0.4,0.6-0.6,1.2-0.6,1.9c0,0.7,0.1,1.3,0.3,1.8
		c0.2,0.5,0.5,0.9,0.9,1.2c0.4,0.3,0.8,0.5,1.3,0.7C671.5,399.2,672.1,399.2,672.7,399.2z"/>
	<path fill="#231F20" d="M705.6,402h-4.9v-36.4h4.9V402z"/>
	<path fill="#231F20" d="M713.6,402v-25.7h2.7c0.6,0,1,0.3,1.2,0.9l0.4,2.8c1.1-1.2,2.4-2.2,3.7-3c1.4-0.8,3-1.1,4.8-1.1
		c1.4,0,2.6,0.2,3.7,0.7c1.1,0.5,2,1.1,2.7,2c0.7,0.9,1.3,1.9,1.6,3.1c0.4,1.2,0.6,2.5,0.6,4V402h-4.5v-16.4c0-1.9-0.4-3.5-1.3-4.5
		c-0.9-1.1-2.2-1.6-4.1-1.6c-1.3,0-2.6,0.3-3.7,1c-1.2,0.6-2.2,1.5-3.2,2.6V402H713.6z"/>
	<path fill="#231F20" d="M748.6,402.4c-2,0-3.6-0.6-4.7-1.7c-1.1-1.1-1.6-2.8-1.6-4.9v-15.7h-3.1c-0.3,0-0.5-0.1-0.7-0.2
		c-0.2-0.2-0.3-0.4-0.3-0.7v-1.8l4.2-0.5l1-7.9c0-0.3,0.1-0.5,0.3-0.6c0.2-0.2,0.4-0.2,0.7-0.2h2.3v8.9h7.4v3.3h-7.4v15.4
		c0,1.1,0.3,1.9,0.8,2.4c0.5,0.5,1.2,0.8,2,0.8c0.5,0,0.9-0.1,1.2-0.2c0.3-0.1,0.6-0.3,0.9-0.4s0.5-0.3,0.6-0.4
		c0.2-0.1,0.3-0.2,0.5-0.2c0.2,0,0.4,0.1,0.6,0.4l1.3,2.2c-0.8,0.7-1.7,1.3-2.8,1.7C750.9,402.2,749.8,402.4,748.6,402.4z"/>
	<path fill="#231F20" d="M767.9,375.9c1.5,0,3,0.3,4.3,0.8c1.3,0.5,2.4,1.3,3.4,2.2c0.9,1,1.7,2.2,2.2,3.6c0.5,1.4,0.8,3.1,0.8,4.9
		c0,0.7-0.1,1.2-0.2,1.4s-0.4,0.4-0.9,0.4h-17.1c0,1.6,0.3,3,0.7,4.2s1,2.2,1.7,3s1.6,1.4,2.5,1.8s2.1,0.6,3.3,0.6
		c1.1,0,2.1-0.1,2.9-0.4c0.8-0.3,1.5-0.5,2.1-0.9c0.6-0.3,1.1-0.6,1.5-0.9c0.4-0.3,0.7-0.4,1-0.4c0.4,0,0.7,0.1,0.9,0.4l1.3,1.7
		c-0.6,0.7-1.2,1.3-2,1.8c-0.8,0.5-1.6,0.9-2.5,1.2c-0.9,0.3-1.8,0.6-2.8,0.7c-0.9,0.2-1.9,0.2-2.8,0.2c-1.8,0-3.4-0.3-4.9-0.9
		c-1.5-0.6-2.8-1.5-3.9-2.6c-1.1-1.2-1.9-2.6-2.6-4.3c-0.6-1.7-0.9-3.7-0.9-5.9c0-1.8,0.3-3.5,0.8-5s1.3-2.9,2.4-4
		c1-1.1,2.3-2,3.8-2.7C764.3,376.2,766,375.9,767.9,375.9z M768,379.2c-2.2,0-3.9,0.6-5.2,1.9c-1.3,1.3-2,3-2.3,5.2h14
		c0-1-0.1-2-0.4-2.9c-0.3-0.9-0.7-1.6-1.3-2.3c-0.6-0.6-1.2-1.1-2-1.5S769,379.2,768,379.2z"/>
	<path fill="#231F20" d="M791.9,375.9c1.1,0,2.2,0.1,3.1,0.4c1,0.2,1.9,0.6,2.7,1.1h7v1.7c0,0.6-0.4,0.9-1.1,1.1l-2.9,0.4
		c0.6,1.1,0.9,2.3,0.9,3.7c0,1.3-0.2,2.4-0.7,3.4c-0.5,1-1.2,1.9-2,2.6c-0.9,0.7-1.9,1.3-3,1.7c-1.2,0.4-2.5,0.6-3.9,0.6
		c-1.2,0-2.3-0.1-3.4-0.4c-0.5,0.3-1,0.7-1.2,1.1s-0.4,0.8-0.4,1.2c0,0.6,0.2,1.1,0.7,1.4c0.5,0.3,1.1,0.6,2,0.7
		c0.8,0.1,1.7,0.2,2.8,0.2s2.1,0,3.2,0c1.1,0,2.1,0.1,3.2,0.3c1,0.2,2,0.5,2.8,0.9s1.5,1,2,1.8c0.5,0.8,0.7,1.7,0.7,2.9
		c0,1.1-0.3,2.2-0.8,3.2c-0.6,1-1.3,2-2.4,2.8c-1,0.8-2.3,1.5-3.8,2s-3.2,0.7-5.1,0.7c-1.9,0-3.5-0.2-4.9-0.6
		c-1.4-0.4-2.6-0.9-3.5-1.5s-1.6-1.4-2.1-2.2c-0.5-0.8-0.7-1.7-0.7-2.6c0-1.3,0.4-2.4,1.2-3.2c0.8-0.9,1.9-1.6,3.3-2.1
		c-0.7-0.3-1.3-0.8-1.7-1.4c-0.4-0.6-0.6-1.3-0.6-2.3c0-0.4,0.1-0.8,0.2-1.2c0.1-0.4,0.3-0.8,0.6-1.2s0.6-0.8,1-1.1
		c0.4-0.4,0.9-0.7,1.4-0.9c-1.3-0.7-2.3-1.7-3-2.8c-0.7-1.2-1.1-2.6-1.1-4.1c0-1.3,0.2-2.4,0.7-3.4c0.5-1,1.2-1.9,2-2.6
		c0.9-0.7,1.9-1.3,3.1-1.7C789.2,376,790.5,375.9,791.9,375.9z M800,403.3c0-0.7-0.2-1.2-0.5-1.6c-0.4-0.4-0.8-0.7-1.4-0.9
		s-1.3-0.4-2.1-0.5c-0.8-0.1-1.6-0.2-2.5-0.2s-1.8,0-2.7,0c-0.9,0-1.8-0.1-2.6-0.3c-1,0.5-1.7,1-2.3,1.7c-0.6,0.7-0.9,1.4-0.9,2.4
		c0,0.6,0.1,1.1,0.4,1.6c0.3,0.5,0.7,0.9,1.4,1.3s1.4,0.7,2.3,0.9c0.9,0.2,2,0.3,3.3,0.3c1.2,0,2.3-0.1,3.3-0.3c1-0.2,1.8-0.5,2.5-1
		c0.7-0.4,1.2-0.9,1.5-1.5C799.8,404.6,800,404,800,403.3z M791.9,389.4c0.9,0,1.7-0.1,2.4-0.4c0.7-0.3,1.3-0.6,1.8-1.1
		s0.8-1,1.1-1.6s0.4-1.3,0.4-2.1c0-1.6-0.5-2.8-1.4-3.8s-2.3-1.4-4.2-1.4c-1.8,0-3.2,0.5-4.2,1.4s-1.4,2.2-1.4,3.8
		c0,0.8,0.1,1.5,0.4,2.1s0.6,1.2,1.1,1.6s1.1,0.8,1.8,1.1C790.2,389.3,791,389.4,791.9,389.4z"/>
	<path fill="#231F20" d="M808.2,402v-25.7h2.6c0.5,0,0.8,0.1,1,0.3c0.2,0.2,0.3,0.5,0.4,1l0.3,4c0.9-1.8,2-3.2,3.3-4.2
		c1.3-1,2.8-1.5,4.6-1.5c0.7,0,1.4,0.1,1.9,0.2c0.6,0.2,1.1,0.4,1.6,0.7l-0.6,3.4c-0.1,0.4-0.4,0.6-0.8,0.6c-0.2,0-0.6-0.1-1.1-0.2
		c-0.5-0.2-1.2-0.2-2.1-0.2c-1.6,0-2.9,0.5-3.9,1.4s-1.9,2.2-2.7,4V402H808.2z"/>
	<path fill="#231F20" d="M845.6,402h-2c-0.4,0-0.8-0.1-1.1-0.2c-0.3-0.1-0.4-0.4-0.5-0.9l-0.5-2.4c-0.7,0.6-1.3,1.2-2,1.6
		s-1.3,0.9-2,1.2s-1.5,0.6-2.3,0.7s-1.7,0.3-2.7,0.3c-1,0-1.9-0.1-2.8-0.4c-0.9-0.3-1.6-0.7-2.3-1.3c-0.6-0.6-1.2-1.3-1.5-2.1
		s-0.6-1.9-0.6-3c0-1,0.3-2,0.8-2.9s1.5-1.8,2.7-2.5c1.2-0.7,2.9-1.3,4.9-1.8c2-0.5,4.5-0.7,7.4-0.7v-2c0-2-0.4-3.5-1.3-4.6
		c-0.9-1-2.1-1.5-3.8-1.5c-1.1,0-2,0.1-2.8,0.4c-0.8,0.3-1.4,0.6-2,0.9c-0.5,0.3-1,0.7-1.4,0.9s-0.8,0.4-1.2,0.4
		c-0.3,0-0.6-0.1-0.8-0.2c-0.2-0.2-0.4-0.4-0.5-0.6l-0.8-1.4c1.4-1.4,3-2.4,4.6-3.1c1.6-0.7,3.5-1,5.5-1c1.4,0,2.7,0.2,3.8,0.7
		c1.1,0.5,2.1,1.1,2.8,2c0.8,0.8,1.3,1.9,1.7,3.1c0.4,1.2,0.6,2.5,0.6,4V402z M833.9,399.2c0.8,0,1.5-0.1,2.2-0.2s1.3-0.4,1.9-0.7
		c0.6-0.3,1.1-0.7,1.7-1.1s1.1-0.9,1.6-1.4v-5.3c-2.1,0-3.9,0.1-5.3,0.4c-1.5,0.3-2.6,0.6-3.6,1c-0.9,0.4-1.6,0.9-2,1.5
		c-0.4,0.6-0.6,1.2-0.6,1.9c0,0.7,0.1,1.3,0.3,1.8c0.2,0.5,0.5,0.9,0.9,1.2c0.4,0.3,0.8,0.5,1.3,0.7
		C832.7,399.2,833.3,399.2,833.9,399.2z"/>
	<path fill="#231F20" d="M859.2,402.4c-2,0-3.6-0.6-4.7-1.7c-1.1-1.1-1.6-2.8-1.6-4.9v-15.7h-3.1c-0.3,0-0.5-0.1-0.7-0.2
		c-0.2-0.2-0.3-0.4-0.3-0.7v-1.8l4.2-0.5l1-7.9c0-0.3,0.1-0.5,0.3-0.6c0.2-0.2,0.4-0.2,0.7-0.2h2.3v8.9h7.4v3.3h-7.4v15.4
		c0,1.1,0.3,1.9,0.8,2.4s1.2,0.8,2,0.8c0.5,0,0.9-0.1,1.2-0.2s0.6-0.3,0.9-0.4s0.5-0.3,0.6-0.4s0.3-0.2,0.5-0.2
		c0.2,0,0.4,0.1,0.6,0.4l1.3,2.2c-0.8,0.7-1.7,1.3-2.8,1.7C861.5,402.2,860.4,402.4,859.2,402.4z"/>
	<path fill="#231F20" d="M875.4,368.2c0,0.4-0.1,0.9-0.3,1.2s-0.4,0.7-0.7,1s-0.6,0.5-1,0.7c-0.4,0.2-0.8,0.3-1.2,0.3
		c-0.4,0-0.8-0.1-1.2-0.3c-0.4-0.2-0.7-0.4-1-0.7c-0.3-0.3-0.5-0.6-0.7-1s-0.3-0.8-0.3-1.2c0-0.4,0.1-0.9,0.3-1.3
		c0.2-0.4,0.4-0.7,0.7-1c0.3-0.3,0.6-0.5,1-0.7s0.8-0.3,1.2-0.3c0.4,0,0.9,0.1,1.2,0.3s0.7,0.4,1,0.7s0.5,0.6,0.7,1
		C875.3,367.4,875.4,367.8,875.4,368.2z M874.4,376.3V402h-4.5v-25.7H874.4z"/>
	<path fill="#231F20" d="M891.7,375.9c1.9,0,3.6,0.3,5.1,0.9c1.5,0.6,2.8,1.5,3.9,2.7c1.1,1.2,1.9,2.5,2.4,4.2
		c0.6,1.6,0.9,3.5,0.9,5.5c0,2-0.3,3.9-0.9,5.5c-0.6,1.6-1.4,3-2.4,4.2c-1.1,1.2-2.3,2-3.9,2.7c-1.5,0.6-3.2,0.9-5.1,0.9
		c-1.9,0-3.6-0.3-5.1-0.9c-1.5-0.6-2.8-1.5-3.9-2.7c-1.1-1.2-1.9-2.5-2.5-4.2c-0.6-1.6-0.9-3.5-0.9-5.5c0-2,0.3-3.8,0.9-5.5
		c0.6-1.6,1.4-3,2.5-4.2c1.1-1.2,2.4-2,3.9-2.7C888.2,376.2,889.9,375.9,891.7,375.9z M891.7,398.8c2.5,0,4.4-0.9,5.7-2.6
		c1.3-1.7,1.9-4.1,1.9-7.1c0-3.1-0.6-5.4-1.9-7.2c-1.3-1.7-3.1-2.6-5.7-2.6c-1.3,0-2.4,0.2-3.4,0.7c-0.9,0.4-1.7,1.1-2.4,1.9
		c-0.6,0.8-1.1,1.8-1.4,3.1c-0.3,1.2-0.5,2.6-0.5,4.1c0,1.5,0.2,2.9,0.5,4.1c0.3,1.2,0.8,2.2,1.4,3c0.6,0.8,1.4,1.5,2.4,1.9
		C889.3,398.6,890.4,398.8,891.7,398.8z"/>
	<path fill="#231F20" d="M908.5,402v-25.7h2.7c0.6,0,1,0.3,1.2,0.9l0.4,2.8c1.1-1.2,2.4-2.2,3.7-3c1.4-0.8,3-1.1,4.8-1.1
		c1.4,0,2.6,0.2,3.7,0.7c1.1,0.5,2,1.1,2.7,2c0.7,0.9,1.3,1.9,1.6,3.1c0.4,1.2,0.6,2.5,0.6,4V402h-4.5v-16.4c0-1.9-0.4-3.5-1.3-4.5
		c-0.9-1.1-2.2-1.6-4.1-1.6c-1.3,0-2.6,0.3-3.7,1c-1.2,0.6-2.2,1.5-3.2,2.6V402H908.5z"/>
	<path fill="#231F20" d="M615,449.4c0.3,0,0.5,0.1,0.7,0.3l1.9,2.1c-1.5,1.7-3.3,3.1-5.4,4s-4.7,1.4-7.7,1.4c-2.6,0-5-0.5-7.1-1.4
		c-2.1-0.9-4-2.2-5.5-3.8c-1.5-1.6-2.7-3.6-3.5-5.9c-0.8-2.3-1.2-4.8-1.2-7.5c0-2.7,0.4-5.3,1.3-7.5c0.9-2.3,2.1-4.2,3.7-5.9
		s3.5-2.9,5.8-3.8c2.2-0.9,4.7-1.4,7.4-1.4c2.7,0,5,0.4,6.9,1.2c1.9,0.8,3.7,2,5.2,3.4L616,427c-0.1,0.2-0.3,0.3-0.4,0.4
		c-0.2,0.1-0.4,0.2-0.7,0.2c-0.2,0-0.5-0.1-0.7-0.2c-0.2-0.2-0.5-0.4-0.9-0.6c-0.3-0.2-0.7-0.5-1.2-0.8c-0.5-0.3-1-0.5-1.6-0.8
		s-1.4-0.4-2.2-0.6s-1.8-0.2-2.9-0.2c-1.9,0-3.7,0.3-5.3,1c-1.6,0.7-3,1.6-4.2,2.9c-1.2,1.2-2.1,2.7-2.7,4.5s-1,3.8-1,6
		c0,2.3,0.3,4.3,1,6.1c0.7,1.8,1.5,3.3,2.7,4.5c1.1,1.2,2.5,2.2,4,2.8c1.5,0.6,3.2,1,5,1c1.1,0,2.1-0.1,2.9-0.2s1.7-0.3,2.4-0.6
		c0.7-0.3,1.4-0.6,2.1-1c0.6-0.4,1.3-0.9,1.9-1.5C614.5,449.5,614.8,449.4,615,449.4z"/>
	<path fill="#231F20" d="M631.6,430.8c1.5,0,3,0.3,4.3,0.8c1.3,0.5,2.4,1.3,3.4,2.2c0.9,1,1.7,2.2,2.2,3.6c0.5,1.4,0.8,3.1,0.8,4.9
		c0,0.7-0.1,1.2-0.2,1.4s-0.4,0.4-0.9,0.4h-17.1c0,1.6,0.3,3,0.7,4.2s1,2.2,1.7,3s1.6,1.4,2.5,1.8s2.1,0.6,3.3,0.6
		c1.1,0,2.1-0.1,2.9-0.4c0.8-0.3,1.5-0.5,2.1-0.9c0.6-0.3,1.1-0.6,1.5-0.9c0.4-0.3,0.7-0.4,1-0.4c0.4,0,0.7,0.1,0.9,0.4l1.3,1.7
		c-0.6,0.7-1.2,1.3-2,1.8c-0.8,0.5-1.6,0.9-2.5,1.2c-0.9,0.3-1.8,0.6-2.8,0.7c-0.9,0.2-1.9,0.2-2.8,0.2c-1.8,0-3.4-0.3-4.9-0.9
		c-1.5-0.6-2.8-1.5-3.9-2.6c-1.1-1.2-1.9-2.6-2.6-4.3c-0.6-1.7-0.9-3.7-0.9-5.9c0-1.8,0.3-3.5,0.8-5s1.3-2.9,2.4-4
		c1-1.1,2.3-2,3.8-2.7C628.1,431.1,629.7,430.8,631.6,430.8z M631.7,434.1c-2.2,0-3.9,0.6-5.2,1.9c-1.3,1.3-2,3-2.3,5.2h14
		c0-1-0.1-2-0.4-2.9c-0.3-0.9-0.7-1.6-1.3-2.3c-0.6-0.6-1.2-1.1-2-1.5S632.7,434.1,631.7,434.1z"/>
	<path fill="#231F20" d="M647,456.9v-25.7h2.7c0.6,0,1,0.3,1.2,0.9l0.4,2.8c1.1-1.2,2.4-2.2,3.7-3c1.4-0.8,3-1.1,4.8-1.1
		c1.4,0,2.6,0.2,3.7,0.7c1.1,0.5,2,1.1,2.7,2c0.7,0.9,1.3,1.9,1.6,3.1c0.4,1.2,0.6,2.5,0.6,4v16.4h-4.5v-16.4c0-1.9-0.4-3.5-1.3-4.5
		c-0.9-1.1-2.2-1.6-4.1-1.6c-1.3,0-2.6,0.3-3.7,1c-1.2,0.6-2.2,1.5-3.2,2.6v18.9H647z"/>
	<path fill="#231F20" d="M682,457.3c-2,0-3.6-0.6-4.7-1.7c-1.1-1.1-1.6-2.8-1.6-4.9V435h-3.1c-0.3,0-0.5-0.1-0.7-0.2
		c-0.2-0.2-0.3-0.4-0.3-0.7v-1.8l4.2-0.5l1-7.9c0-0.3,0.1-0.5,0.3-0.6c0.2-0.2,0.4-0.2,0.7-0.2h2.3v8.9h7.4v3.3h-7.4v15.4
		c0,1.1,0.3,1.9,0.8,2.4c0.5,0.5,1.2,0.8,2,0.8c0.5,0,0.9-0.1,1.2-0.2c0.3-0.1,0.6-0.3,0.9-0.4s0.5-0.3,0.6-0.4
		c0.2-0.1,0.3-0.2,0.5-0.2c0.2,0,0.4,0.1,0.6,0.4l1.3,2.2c-0.8,0.7-1.7,1.3-2.8,1.7C684.3,457.1,683.2,457.3,682,457.3z"/>
	<path fill="#231F20" d="M692.2,456.9v-25.7h2.6c0.5,0,0.8,0.1,1,0.3c0.2,0.2,0.3,0.5,0.4,1l0.3,4c0.9-1.8,2-3.2,3.3-4.2
		s2.8-1.5,4.6-1.5c0.7,0,1.4,0.1,1.9,0.2c0.6,0.2,1.1,0.4,1.6,0.7l-0.6,3.4c-0.1,0.4-0.4,0.6-0.8,0.6c-0.2,0-0.6-0.1-1.1-0.2
		c-0.5-0.2-1.2-0.2-2.1-0.2c-1.6,0-2.9,0.5-3.9,1.4s-1.9,2.2-2.7,4v16.4H692.2z"/>
	<path fill="#231F20" d="M720.8,430.8c1.5,0,3,0.3,4.3,0.8c1.3,0.5,2.4,1.3,3.4,2.2c0.9,1,1.7,2.2,2.2,3.6c0.5,1.4,0.8,3.1,0.8,4.9
		c0,0.7-0.1,1.2-0.2,1.4s-0.4,0.4-0.9,0.4h-17.1c0,1.6,0.3,3,0.7,4.2s1,2.2,1.7,3c0.7,0.8,1.6,1.4,2.5,1.8s2.1,0.6,3.3,0.6
		c1.1,0,2.1-0.1,2.9-0.4c0.8-0.3,1.5-0.5,2.1-0.9s1.1-0.6,1.5-0.9c0.4-0.3,0.7-0.4,1-0.4c0.4,0,0.7,0.1,0.9,0.4l1.3,1.7
		c-0.6,0.7-1.2,1.3-2,1.8c-0.8,0.5-1.6,0.9-2.5,1.2c-0.9,0.3-1.8,0.6-2.8,0.7c-0.9,0.2-1.9,0.2-2.8,0.2c-1.8,0-3.4-0.3-4.9-0.9
		c-1.5-0.6-2.8-1.5-3.9-2.6s-1.9-2.6-2.6-4.3c-0.6-1.7-0.9-3.7-0.9-5.9c0-1.8,0.3-3.5,0.8-5c0.5-1.6,1.3-2.9,2.4-4
		c1-1.1,2.3-2,3.8-2.7C717.2,431.1,718.9,430.8,720.8,430.8z M720.9,434.1c-2.2,0-3.9,0.6-5.2,1.9c-1.3,1.3-2,3-2.3,5.2h14
		c0-1-0.1-2-0.4-2.9c-0.3-0.9-0.7-1.6-1.3-2.3c-0.6-0.6-1.2-1.1-2-1.5C722.8,434.3,721.9,434.1,720.9,434.1z"/>
</g>
<g>
	<g>
		
			<line fill="none" stroke="#EB1865" stroke-width="3" stroke-linecap="round" stroke-linejoin="round" x1="328.7" y1="9.6" x2="328.7" y2="266.5"/>
		<g>
			<circle fill="#FFFFFF" cx="328.7" cy="10.1" r="8.9"/>
			<path fill="#EB1865" d="M318.6,10.1c0,5.6,4.5,10.1,10.1,10.1c5.6,0,10.1-4.5,10.1-10.1c0-5.6-4.5-10.1-10.1-10.1
				C323.1,0,318.6,4.5,318.6,10.1C318.6,15.7,318.6,4.5,318.6,10.1z M336.4,10.1c0,4.3-3.5,7.7-7.7,7.7s-7.7-3.5-7.7-7.7
				c0-4.3,3.5-7.7,7.7-7.7S336.4,5.8,336.4,10.1C336.4,14.4,336.4,5.8,336.4,10.1z"/>
		</g>
	</g>
	<path fill="none" d="M269,166.5"/>
	<path fill="none" d="M215.3,113.7"/>
	<g>
		<g>
			
				<line fill="none" stroke="#EB1865" stroke-width="3" stroke-linecap="round" stroke-linejoin="round" x1="363.6" y1="78.2" x2="336.6" y2="266.9"/>
			<g>
				<circle fill="#FFFFFF" cx="363.5" cy="78.7" r="8.9"/>
				<path fill="#EB1865" d="M353.5,77.3c-0.8,5.5,3.1,10.6,8.6,11.4c5.5,0.8,10.6-3.1,11.4-8.6c0.8-5.5-3.1-10.6-8.6-11.4
					S354.3,71.8,353.5,77.3C352.7,82.8,354.3,71.8,353.5,77.3z M371.1,79.8c-0.6,4.2-4.5,7.2-8.7,6.6s-7.2-4.5-6.6-8.7
					c0.6-4.2,4.5-7.2,8.7-6.6S371.7,75.6,371.1,79.8C370.5,84,371.7,75.6,371.1,79.8z"/>
			</g>
		</g>
		<g>
			
				<line fill="none" stroke="#EB1865" stroke-width="3" stroke-linecap="round" stroke-linejoin="round" x1="400.2" y1="65.5" x2="344.3" y2="268.5"/>
			<g>
				<circle fill="#FFFFFF" cx="400.1" cy="66" r="8.9"/>
				<path fill="#EB1865" d="M390.3,63.3c-1.5,5.4,1.7,10.9,7.1,12.4s10.9-1.7,12.4-7.1c1.5-5.4-1.7-10.9-7.1-12.4
					S391.8,57.9,390.3,63.3C388.9,68.6,391.8,57.9,390.3,63.3z M407.5,68c-1.1,4.1-5.4,6.5-9.5,5.4c-4.1-1.1-6.5-5.4-5.4-9.5
					c1.1-4.1,5.4-6.5,9.5-5.4C406.2,59.6,408.7,63.9,407.5,68C406.4,72.1,408.7,63.9,407.5,68z"/>
			</g>
		</g>
		<g>
			
				<line fill="none" stroke="#EB1865" stroke-width="3" stroke-linecap="round" stroke-linejoin="round" x1="388.1" y1="178" x2="351.7" y2="271.2"/>
			<g>
				<circle fill="#FFFFFF" cx="387.9" cy="178.5" r="8.9"/>
				<path fill="#EB1865" d="M378.5,174.8c-2,5.2,0.5,11.1,5.7,13.1c5.2,2,11.1-0.5,13.1-5.7c2-5.2-0.5-11.1-5.7-13.1
					S380.5,169.6,378.5,174.8C376.5,180,380.5,169.6,378.5,174.8z M395.1,181.3c-1.6,4-6,5.9-10,4.4c-4-1.6-5.9-6-4.4-10
					c1.6-4,6-5.9,10-4.4S396.6,177.3,395.1,181.3C393.5,185.2,396.6,177.3,395.1,181.3z"/>
			</g>
		</g>
		<g>
			
				<line fill="none" stroke="#EB1865" stroke-width="3" stroke-linecap="round" stroke-linejoin="round" x1="440.8" y1="125.7" x2="358.6" y2="274.8"/>
			<g>
				<circle fill="#FFFFFF" cx="440.6" cy="126.1" r="8.9"/>
				<path fill="#EB1865" d="M431.8,121.3c-2.7,4.9-0.9,11,4,13.7c4.9,2.7,11,0.9,13.7-4c2.7-4.9,0.9-11-4-13.7
					C440.6,114.6,434.5,116.4,431.8,121.3C429.1,126.1,434.5,116.4,431.8,121.3z M447.4,129.9c-2.1,3.7-6.8,5.1-10.5,3
					c-3.7-2.1-5.1-6.8-3-10.5c2.1-3.7,6.8-5.1,10.5-3S449.4,126.1,447.4,129.9C445.3,133.6,449.4,126.1,447.4,129.9z"/>
			</g>
		</g>
		<g>
			
				<line fill="none" stroke="#EB1865" stroke-width="3" stroke-linecap="round" stroke-linejoin="round" x1="503" y1="147.3" x2="370.7" y2="284.8"/>
			<g>
				<circle fill="#FFFFFF" cx="502.6" cy="147.7" r="8.9"/>
				<path fill="#EB1865" d="M495.4,140.7c-3.9,4-3.7,10.4,0.3,14.3c4,3.9,10.4,3.7,14.3-0.3c3.9-4,3.7-10.4-0.3-14.3
					C505.6,136.5,499.2,136.7,495.4,140.7C491.5,144.7,499.2,136.7,495.4,140.7z M508.2,153c-3,3.1-7.9,3.2-10.9,0.2
					c-3.1-3-3.2-7.9-0.2-10.9c3-3.1,7.9-3.2,10.9-0.2C511.1,145.1,511.2,150,508.2,153S511.2,150,508.2,153z"/>
			</g>
		</g>
		<g>
			
				<line fill="none" stroke="#EB1865" stroke-width="3" stroke-linecap="round" stroke-linejoin="round" x1="486.5" y1="209.6" x2="375.6" y2="290.8"/>
			<g>
				<circle fill="#FFFFFF" cx="486.1" cy="209.9" r="8.9"/>
				<path fill="#EB1865" d="M480.1,201.7c-4.5,3.3-5.5,9.6-2.2,14.1s9.6,5.5,14.1,2.2c4.5-3.3,5.5-9.6,2.2-14.1
					C491,199.4,484.6,198.4,480.1,201.7C475.6,205,484.6,198.4,480.1,201.7z M490.7,216.1c-3.4,2.5-8.3,1.8-10.8-1.7
					c-2.5-3.4-1.8-8.3,1.7-10.8c3.4-2.5,8.3-1.8,10.8,1.7C494.8,208.7,494.1,213.6,490.7,216.1C487.2,218.6,494.1,213.6,490.7,216.1
					z"/>
			</g>
		</g>
		<g>
			
				<line fill="none" stroke="#EB1865" stroke-width="3" stroke-linecap="round" stroke-linejoin="round" x1="512.7" y1="223.5" x2="379.4" y2="297.5"/>
			<g>
				<circle fill="#FFFFFF" cx="512.3" cy="223.7" r="8.9"/>
				<path fill="#EB1865" d="M507.4,214.9c-4.9,2.7-6.6,8.9-3.9,13.7c2.7,4.9,8.9,6.6,13.7,3.9c4.9-2.7,6.6-8.9,3.9-13.7
					C518.4,213.9,512.2,212.2,507.4,214.9C502.5,217.6,512.2,212.2,507.4,214.9z M516,230.5c-3.7,2.1-8.4,0.7-10.5-3
					c-2.1-3.7-0.7-8.4,3-10.5s8.4-0.7,10.5,3C521.1,223.7,519.7,228.4,516,230.5C512.3,232.5,519.7,228.4,516,230.5z"/>
			</g>
		</g>
		<g>
			
				<line fill="none" stroke="#EB1865" stroke-width="3" stroke-linecap="round" stroke-linejoin="round" x1="450.9" y1="155" x2="365" y2="279.4"/>
			<g>
				<circle fill="#FFFFFF" cx="450.6" cy="155.4" r="8.9"/>
				<path fill="#EB1865" d="M442.3,149.7c-3.2,4.6-2,10.9,2.6,14c4.6,3.2,10.9,2,14-2.6c3.2-4.6,2-10.9-2.6-14
					C451.7,143.9,445.4,145.1,442.3,149.7C439.1,154.3,445.4,145.1,442.3,149.7z M456.9,159.8c-2.4,3.5-7.2,4.4-10.7,2
					c-3.5-2.4-4.4-7.2-2-10.7c2.4-3.5,7.2-4.4,10.7-2C458.5,151.5,459.4,156.3,456.9,159.8C454.5,163.3,459.4,156.3,456.9,159.8z"/>
			</g>
		</g>
	</g>
	<g>
		<g>
			
				<line fill="none" stroke="#EB1865" stroke-width="3" stroke-linecap="round" stroke-linejoin="round" x1="293.8" y1="78.1" x2="320.8" y2="266.7"/>
			<g>
				<circle fill="#FFFFFF" cx="293.9" cy="78.6" r="8.9"/>
				<path fill="#EB1865" d="M283.9,80c0.8,5.5,5.9,9.4,11.4,8.6s9.4-5.9,8.6-11.4c-0.8-5.5-5.9-9.4-11.4-8.6
					C287,69.4,283.1,74.5,283.9,80C284.7,85.5,283.1,74.5,283.9,80z M301.5,77.5c0.6,4.2-2.3,8.1-6.6,8.7c-4.2,0.6-8.1-2.3-8.7-6.6
					c-0.6-4.2,2.3-8.1,6.6-8.7C297,70.3,300.9,73.3,301.5,77.5C302.1,81.7,300.9,73.3,301.5,77.5z"/>
			</g>
		</g>
		<g>
			
				<line fill="none" stroke="#EB1865" stroke-width="3" stroke-linecap="round" stroke-linejoin="round" x1="257.2" y1="65.3" x2="313.1" y2="268.4"/>
			<g>
				<circle fill="#FFFFFF" cx="257.3" cy="65.8" r="8.9"/>
				<path fill="#EB1865" d="M247.6,68.5c1.5,5.4,7,8.5,12.4,7.1c5.4-1.5,8.5-7,7.1-12.4c-1.5-5.4-7-8.5-12.4-7.1
					C249.2,57.6,246.1,63.1,247.6,68.5C249,73.9,246.1,63.1,247.6,68.5z M264.7,63.8c1.1,4.1-1.3,8.4-5.4,9.5s-8.4-1.3-9.5-5.4
					c-1.1-4.1,1.3-8.4,5.4-9.5S263.6,59.7,264.7,63.8C265.9,67.9,263.6,59.7,264.7,63.8z"/>
			</g>
		</g>
		<g>
			
				<line fill="none" stroke="#EB1865" stroke-width="3" stroke-linecap="round" stroke-linejoin="round" x1="269.3" y1="177.8" x2="305.7" y2="271"/>
			<g>
				<circle fill="#FFFFFF" cx="269.5" cy="178.3" r="8.9"/>
				<path fill="#EB1865" d="M260.1,182c2,5.2,7.9,7.8,13.1,5.7c5.2-2,7.8-7.9,5.7-13.1c-2-5.2-7.9-7.8-13.1-5.7
					C260.6,170.9,258.1,176.8,260.1,182C262.1,187.2,258.1,176.8,260.1,182z M276.7,175.5c1.6,4-0.4,8.5-4.4,10s-8.5-0.4-10-4.4
					c-1.6-4,0.4-8.5,4.4-10S275.1,171.5,276.7,175.5C278.2,179.5,275.1,171.5,276.7,175.5z"/>
			</g>
		</g>
		<g>
			
				<line fill="none" stroke="#EB1865" stroke-width="3" stroke-linecap="round" stroke-linejoin="round" x1="216.5" y1="125.5" x2="298.8" y2="274.7"/>
			<g>
				<circle fill="#FFFFFF" cx="216.8" cy="126" r="8.9"/>
				<path fill="#EB1865" d="M207.9,130.9c2.7,4.9,8.8,6.7,13.7,4c4.9-2.7,6.7-8.8,4-13.7c-2.7-4.9-8.8-6.7-13.7-4
					C207,119.8,205.2,126,207.9,130.9C210.6,135.7,205.2,126,207.9,130.9z M223.5,122.3c2.1,3.7,0.7,8.4-3,10.5
					c-3.7,2.1-8.4,0.7-10.5-3c-2.1-3.7-0.7-8.4,3-10.5C216.8,117.2,221.5,118.5,223.5,122.3C225.6,126,221.5,118.5,223.5,122.3z"/>
			</g>
		</g>
		<g>
			
				<line fill="none" stroke="#EB1865" stroke-width="3" stroke-linecap="round" stroke-linejoin="round" x1="154.4" y1="147.2" x2="286.7" y2="284.7"/>
			<g>
				<circle fill="#FFFFFF" cx="154.7" cy="147.5" r="8.9"/>
				<path fill="#EB1865" d="M147.5,154.5c3.9,4,10.3,4.1,14.3,0.3c4-3.9,4.1-10.3,0.3-14.3c-3.9-4-10.3-4.1-14.3-0.3
					C143.7,144.1,143.6,150.5,147.5,154.5C151.3,158.5,143.6,150.5,147.5,154.5z M160.3,142.2c3,3.1,2.9,8-0.2,10.9s-8,2.9-10.9-0.2
					c-3-3.1-2.9-8,0.2-10.9C152.5,139,157.4,139.1,160.3,142.2C163.3,145.2,157.4,139.1,160.3,142.2z"/>
			</g>
		</g>
		<g>
			
				<line fill="none" stroke="#EB1865" stroke-width="3" stroke-linecap="round" stroke-linejoin="round" x1="170.9" y1="209.4" x2="281.8" y2="290.6"/>
			<g>
				<circle fill="#FFFFFF" cx="171.3" cy="209.7" r="8.9"/>
				<path fill="#EB1865" d="M165.3,217.9c4.5,3.3,10.8,2.3,14.1-2.2c3.3-4.5,2.3-10.8-2.2-14.1c-4.5-3.3-10.8-2.3-14.1,2.2
					S160.8,214.6,165.3,217.9C169.8,221.2,160.8,214.6,165.3,217.9z M175.8,203.5c3.4,2.5,4.2,7.4,1.7,10.8
					c-2.5,3.4-7.4,4.2-10.8,1.7c-3.4-2.5-4.2-7.4-1.7-10.8C167.6,201.7,172.4,201,175.8,203.5C179.3,206,172.4,201,175.8,203.5z"/>
			</g>
		</g>
		<g>
			
				<line fill="none" stroke="#EB1865" stroke-width="3" stroke-linecap="round" stroke-linejoin="round" x1="144.7" y1="223.3" x2="278" y2="297.4"/>
			<g>
				<circle fill="#FFFFFF" cx="145.1" cy="223.6" r="8.9"/>
				<path fill="#EB1865" d="M140.2,232.4c4.9,2.7,11,0.9,13.7-3.9c2.7-4.9,0.9-11-3.9-13.7c-4.9-2.7-11-0.9-13.7,3.9
					C133.6,223.5,135.3,229.7,140.2,232.4C145.1,235.1,135.3,229.7,140.2,232.4z M148.9,216.8c3.7,2.1,5.1,6.8,3,10.5
					s-6.8,5.1-10.5,3c-3.7-2.1-5.1-6.8-3-10.5S145.1,214.7,148.9,216.8C152.6,218.9,145.1,214.7,148.9,216.8z"/>
			</g>
		</g>
		<g>
			
				<line fill="none" stroke="#EB1865" stroke-width="3" stroke-linecap="round" stroke-linejoin="round" x1="206.5" y1="154.8" x2="292.4" y2="279.3"/>
			<g>
				<circle fill="#FFFFFF" cx="206.8" cy="155.3" r="8.9"/>
				<path fill="#EB1865" d="M198.5,161c3.2,4.6,9.5,5.7,14,2.6c4.6-3.2,5.7-9.5,2.6-14c-3.2-4.6-9.5-5.7-14-2.6
					C196.5,150.1,195.3,156.4,198.5,161C201.6,165.6,195.3,156.4,198.5,161z M213.1,150.9c2.4,3.5,1.5,8.3-2,10.7
					c-3.5,2.4-8.3,1.5-10.7-2c-2.4-3.5-1.5-8.3,2-10.7C205.9,146.5,210.7,147.4,213.1,150.9C215.6,154.4,210.7,147.4,213.1,150.9z"
					/>
			</g>
		</g>
	</g>
</g>
<line fill="none" stroke="#231F20" stroke-width="2" stroke-miterlimit="10" x1="550.5" y1="290.1" x2="550.5" y2="475.6"/>
</svg>
