<svg id="Layer_2" data-name="Layer 2" xmlns="http://www.w3.org/2000/svg" viewBox="0 0 456.32 132.73"><defs><style>.cls-1{fill:#0071bc;}.cls-2{fill:#c1272d;}.cls-3{fill:#ffd213;}.cls-4{fill:#009245;}.cls-5{fill:#fff;}</style></defs><title>logo-awadalla-lab</title><path d="M91.61,62.8H76.76L72.9,71.23H67.26L84.42,34.37,101,71.23H95.25Zm-2.13-4.92L84.33,46.09,78.94,57.88Z"/><path d="M100.58,36.55l9,23.18L119,34.86l9,24.86,9.59-23.18h5.68l-15.5,36.88-8.92-24.57-9.3,24.59L94.9,36.55Z"/><path d="M161.59,62.8H146.74l-3.86,8.42h-5.64L154.4,34.37,171,71.23h-5.73Zm-2.13-4.92-5.14-11.79-5.39,11.79Z"/><path d="M175.29,71.23V36.55h7.28a26.49,26.49,0,0,1,8.27,1A15.47,15.47,0,0,1,196.74,41a16.59,16.59,0,0,1,5.37,12.87,16.87,16.87,0,0,1-11.48,16.37,26.8,26.8,0,0,1-8.15,1Zm5.23-4.92h2.36a19.68,19.68,0,0,0,5.86-.74,11.9,11.9,0,0,0,8.09-11.68A12,12,0,0,0,193,44.63q-3.44-3.17-10.13-3.17h-2.36Z"/><path d="M226.3,62.8H211.46l-3.86,8.42H202l17.16-36.86,16.55,36.86h-5.73Zm-2.13-4.92L219,46.09l-5.39,11.79Z"/><path d="M245.24,36.55V66.31h10.2v4.92H240V36.55Z"/><path d="M265.63,36.55V66.31h10.2v4.92H260.4V36.55Z"/><path d="M303.1,62.8H288.25l-3.86,8.42h-5.64l17.16-36.86,16.55,36.86h-5.73ZM301,57.88l-5.14-11.79-5.39,11.79Z"/><path d="M336.23,36.55V66.31h10.2v4.92H331V36.55Z"/><path d="M373.69,62.8H358.84L355,71.23h-5.64L366.5,34.37l16.55,36.86h-5.73Zm-2.13-4.92-5.14-11.79L361,57.88Z"/><path d="M387.39,71.23V36.55h5.21a22.81,22.81,0,0,1,5.55.54,8.33,8.33,0,0,1,3.53,1.82,9.45,9.45,0,0,1,2.31,3.3,10,10,0,0,1,.88,4A8.19,8.19,0,0,1,402,52.56a8.38,8.38,0,0,1,4.36,3.3,9.77,9.77,0,0,1-1.26,12.31,9.44,9.44,0,0,1-3.89,2.4,22.59,22.59,0,0,1-5.91.65Zm5.23-19.79h1.64a6,6,0,0,0,4.28-1.29,5,5,0,0,0,1.36-3.81,4.77,4.77,0,0,0-1.39-3.72,5.8,5.8,0,0,0-4-1.27h-1.84Zm0,14.87h3.23q3.55,0,5.21-1.39a4.81,4.81,0,0,0,1.75-3.82,4.89,4.89,0,0,0-1.68-3.77q-1.64-1.5-5.86-1.5h-2.65Z"/><path d="M76,88.12a4,4,0,0,1-1.48,3.33,6.7,6.7,0,0,1-4.23,1.17H68.63v5.62H67V84h3.7Q76,84,76,88.12ZM68.63,91.2h1.49a5.56,5.56,0,0,0,3.19-.71,2.63,2.63,0,0,0,1-2.29,2.46,2.46,0,0,0-.93-2.11,4.84,4.84,0,0,0-2.89-.69H68.63Z"/><path d="M78.63,84.63a1.08,1.08,0,0,1,.27-.82,1,1,0,0,1,1.36,0,1.06,1.06,0,0,1,.28.81,1.07,1.07,0,0,1-.28.81,1,1,0,0,1-1.36,0A1.09,1.09,0,0,1,78.63,84.63Zm1.76,13.6H78.77V87.54h1.62Z"/><path d="M93.06,92.88A5.9,5.9,0,0,1,91.75,97a4.64,4.64,0,0,1-3.64,1.47,4.82,4.82,0,0,1-2.55-.67,4.45,4.45,0,0,1-1.72-1.93,6.74,6.74,0,0,1-.61-2.95,5.9,5.9,0,0,1,1.31-4.08,4.63,4.63,0,0,1,3.63-1.46,4.53,4.53,0,0,1,3.57,1.49A5.88,5.88,0,0,1,93.06,92.88Zm-8.15,0A5.08,5.08,0,0,0,85.73,96a3.25,3.25,0,0,0,4.83,0,5,5,0,0,0,.83-3.13,5,5,0,0,0-.83-3.1,2.9,2.9,0,0,0-2.44-1.06,2.85,2.85,0,0,0-2.4,1A5,5,0,0,0,84.91,92.88Z"/><path d="M103.23,98.24V91.31a2.79,2.79,0,0,0-.6-2,2.43,2.43,0,0,0-1.87-.64,3.08,3.08,0,0,0-2.46.91,4.59,4.59,0,0,0-.78,3v5.62H95.91V87.54h1.32L97.49,89h.08A3.32,3.32,0,0,1,99,87.77a4.55,4.55,0,0,1,2-.43,4.07,4.07,0,0,1,2.91.93,4,4,0,0,1,1,3v7Z"/><path d="M112.7,98.43A4.92,4.92,0,0,1,109,97a5.6,5.6,0,0,1-1.37-4,6.2,6.2,0,0,1,1.27-4.11,4.23,4.23,0,0,1,3.42-1.52,4,4,0,0,1,3.18,1.32,5.08,5.08,0,0,1,1.17,3.49v1h-7.37a4.25,4.25,0,0,0,1,2.86,3.29,3.29,0,0,0,2.54,1,8.63,8.63,0,0,0,3.42-.72v1.45a8.59,8.59,0,0,1-1.63.53A9.14,9.14,0,0,1,112.7,98.43Zm-.44-9.74a2.65,2.65,0,0,0-2.06.84,3.86,3.86,0,0,0-.9,2.32h5.6a3.57,3.57,0,0,0-.68-2.35A2.41,2.41,0,0,0,112.26,88.7Z"/><path d="M123.92,98.43A4.92,4.92,0,0,1,120.18,97a5.6,5.6,0,0,1-1.37-4,6.2,6.2,0,0,1,1.27-4.11,4.23,4.23,0,0,1,3.42-1.52,4,4,0,0,1,3.18,1.32,5.08,5.08,0,0,1,1.17,3.49v1h-7.37a4.25,4.25,0,0,0,1,2.86A3.29,3.29,0,0,0,124,97a8.63,8.63,0,0,0,3.42-.72v1.45a8.59,8.59,0,0,1-1.63.53A9.14,9.14,0,0,1,123.92,98.43Zm-.44-9.74a2.65,2.65,0,0,0-2.06.84,3.86,3.86,0,0,0-.9,2.32h5.6a3.57,3.57,0,0,0-.68-2.35A2.41,2.41,0,0,0,123.48,88.7Z"/><path d="M135.51,87.34a6.34,6.34,0,0,1,1.28.12l-.22,1.5a5.52,5.52,0,0,0-1.17-.15,2.85,2.85,0,0,0-2.22,1.05,3.84,3.84,0,0,0-.92,2.63v5.74h-1.62V87.54H132l.19,2h.08a4.7,4.7,0,0,1,1.44-1.61A3.23,3.23,0,0,1,135.51,87.34Z"/><path d="M138.65,84.63a1.08,1.08,0,0,1,.27-.82,1,1,0,0,1,1.36,0,1.06,1.06,0,0,1,.28.81,1.07,1.07,0,0,1-.28.81,1,1,0,0,1-1.36,0A1.09,1.09,0,0,1,138.65,84.63Zm1.76,13.6h-1.62V87.54h1.62Z"/><path d="M151.17,98.24V91.31a2.79,2.79,0,0,0-.6-2,2.43,2.43,0,0,0-1.87-.64,3.08,3.08,0,0,0-2.46.91,4.59,4.59,0,0,0-.78,3v5.62h-1.62V87.54h1.32l.26,1.46h.08a3.32,3.32,0,0,1,1.4-1.23,4.55,4.55,0,0,1,2-.43,4.07,4.07,0,0,1,2.91.93,4,4,0,0,1,1,3v7Z"/><path d="M164.88,87.54v1l-2,.23a3.48,3.48,0,0,1,.7,2.14,3.17,3.17,0,0,1-1.07,2.51,4.33,4.33,0,0,1-2.95.94,4.94,4.94,0,0,1-.9-.08,1.59,1.59,0,0,0-1,1.38.7.7,0,0,0,.36.65,2.63,2.63,0,0,0,1.24.21h1.89a4.24,4.24,0,0,1,2.67.73,2.55,2.55,0,0,1,.93,2.13,3,3,0,0,1-1.43,2.71,7.63,7.63,0,0,1-4.16.93,5.69,5.69,0,0,1-3.24-.78,2.53,2.53,0,0,1-1.14-2.21,2.48,2.48,0,0,1,.63-1.69,3.18,3.18,0,0,1,1.76-1,1.7,1.7,0,0,1-.69-.58,1.53,1.53,0,0,1-.28-.91,1.73,1.73,0,0,1,.31-1,3.28,3.28,0,0,1,1-.85,2.89,2.89,0,0,1-1.35-1.16,3.42,3.42,0,0,1-.52-1.87,3.47,3.47,0,0,1,1.05-2.71,4.31,4.31,0,0,1,3-1,5.41,5.41,0,0,1,1.51.2ZM156.35,100a1.45,1.45,0,0,0,.73,1.32,4,4,0,0,0,2.1.45,5.85,5.85,0,0,0,3-.61,1.87,1.87,0,0,0,1-1.65,1.31,1.31,0,0,0-.54-1.21,4.18,4.18,0,0,0-2-.34h-1.94a2.56,2.56,0,0,0-1.72.53A1.88,1.88,0,0,0,156.35,100Zm.88-9.07a2.18,2.18,0,0,0,.63,1.7,2.54,2.54,0,0,0,1.77.58,2.07,2.07,0,0,0,2.37-2.3,2.13,2.13,0,0,0-2.4-2.41,2.38,2.38,0,0,0-1.76.62A2.48,2.48,0,0,0,157.22,91Z"/><path d="M178.8,90.76h4.85V97.7a15.72,15.72,0,0,1-2.3.55,17.63,17.63,0,0,1-2.71.19,6.58,6.58,0,0,1-5-1.93,7.6,7.6,0,0,1-1.81-5.4,8.17,8.17,0,0,1,.89-3.9,6,6,0,0,1,2.57-2.56,8.34,8.34,0,0,1,3.94-.88,10.74,10.74,0,0,1,4.26.84l-.64,1.46a9.51,9.51,0,0,0-3.72-.82A5.33,5.33,0,0,0,175,86.79a6,6,0,0,0-1.46,4.31,6.16,6.16,0,0,0,1.41,4.38A5.43,5.43,0,0,0,179.09,97a12.34,12.34,0,0,0,2.9-.34V92.24H178.8Z"/><path d="M191.36,98.43A4.92,4.92,0,0,1,187.61,97a5.6,5.6,0,0,1-1.37-4,6.2,6.2,0,0,1,1.27-4.11,4.23,4.23,0,0,1,3.42-1.52,4,4,0,0,1,3.18,1.32,5.08,5.08,0,0,1,1.17,3.49v1h-7.37a4.25,4.25,0,0,0,1,2.86,3.29,3.29,0,0,0,2.54,1,8.63,8.63,0,0,0,3.42-.72v1.45a8.59,8.59,0,0,1-1.63.53A9.14,9.14,0,0,1,191.36,98.43Zm-.44-9.74a2.65,2.65,0,0,0-2.06.84,3.86,3.86,0,0,0-.9,2.32h5.6a3.57,3.57,0,0,0-.68-2.35A2.41,2.41,0,0,0,190.92,88.7Z"/><path d="M205.38,98.24V91.31a2.79,2.79,0,0,0-.6-2,2.43,2.43,0,0,0-1.87-.64,3.08,3.08,0,0,0-2.46.91,4.59,4.59,0,0,0-.78,3v5.62h-1.62V87.54h1.32l.26,1.46h.08a3.32,3.32,0,0,1,1.4-1.23,4.55,4.55,0,0,1,2-.43,4.07,4.07,0,0,1,2.91.93,4,4,0,0,1,1,3v7Z"/><path d="M219.57,92.88A5.9,5.9,0,0,1,218.25,97a4.64,4.64,0,0,1-3.64,1.47,4.82,4.82,0,0,1-2.55-.67,4.45,4.45,0,0,1-1.72-1.93,6.74,6.74,0,0,1-.61-2.95A5.9,5.9,0,0,1,211,88.8a4.63,4.63,0,0,1,3.63-1.46,4.53,4.53,0,0,1,3.57,1.49A5.88,5.88,0,0,1,219.57,92.88Zm-8.15,0a5.08,5.08,0,0,0,.82,3.13,3.25,3.25,0,0,0,4.83,0,5,5,0,0,0,.83-3.13,5,5,0,0,0-.83-3.1,2.9,2.9,0,0,0-2.44-1.06,2.85,2.85,0,0,0-2.4,1A5,5,0,0,0,211.41,92.88Z"/><path d="M236.05,98.24v-7a2.89,2.89,0,0,0-.55-1.92,2.12,2.12,0,0,0-1.7-.64,2.74,2.74,0,0,0-2.24.87,4.13,4.13,0,0,0-.72,2.68v6h-1.62v-7a2.89,2.89,0,0,0-.55-1.92,2.13,2.13,0,0,0-1.71-.64,2.65,2.65,0,0,0-2.23.91,4.94,4.94,0,0,0-.71,3v5.62h-1.62V87.54h1.32L224,89h.08a3.18,3.18,0,0,1,1.29-1.22,4,4,0,0,1,1.87-.44q2.51,0,3.28,1.82h.08A3.41,3.41,0,0,1,232,87.83a4.3,4.3,0,0,1,2.07-.49,3.63,3.63,0,0,1,2.72.93,4.18,4.18,0,0,1,.9,3v7Z"/><path d="M240.88,84.63a1.08,1.08,0,0,1,.27-.82,1,1,0,0,1,1.36,0,1.06,1.06,0,0,1,.28.81,1.07,1.07,0,0,1-.28.81,1,1,0,0,1-1.36,0A1.09,1.09,0,0,1,240.88,84.63Zm1.76,13.6H241V87.54h1.62Z"/><path d="M250.35,98.43a4.57,4.57,0,0,1-3.6-1.43,5.88,5.88,0,0,1-1.27-4,6.06,6.06,0,0,1,1.29-4.15,4.66,4.66,0,0,1,3.69-1.46,7.27,7.27,0,0,1,1.54.17,5,5,0,0,1,1.21.39l-.5,1.38a7.64,7.64,0,0,0-1.17-.36,5.27,5.27,0,0,0-1.12-.14q-3.26,0-3.26,4.16a5,5,0,0,0,.8,3A2.77,2.77,0,0,0,250.31,97a7.22,7.22,0,0,0,2.74-.58v1.44A5.85,5.85,0,0,1,250.35,98.43Z"/><path d="M262.5,95.32a2.68,2.68,0,0,1-1.11,2.3,5.24,5.24,0,0,1-3.12.81,6.8,6.8,0,0,1-3.32-.67v-1.5a8.1,8.1,0,0,0,1.66.62,6.93,6.93,0,0,0,1.7.22,3.86,3.86,0,0,0,2-.41,1.4,1.4,0,0,0,.14-2.3,8.54,8.54,0,0,0-2.11-1,11.41,11.41,0,0,1-2.12-1,2.9,2.9,0,0,1-.94-.94,2.46,2.46,0,0,1-.31-1.26A2.4,2.4,0,0,1,256,88.1a5,5,0,0,1,2.92-.76,8.54,8.54,0,0,1,3.38.7l-.58,1.32a7.74,7.74,0,0,0-2.92-.66,3.36,3.36,0,0,0-1.74.36,1.12,1.12,0,0,0-.59,1,1.21,1.21,0,0,0,.22.73,2.18,2.18,0,0,0,.71.58,16,16,0,0,0,1.88.79,7,7,0,0,1,2.57,1.4A2.46,2.46,0,0,1,262.5,95.32Z"/><path d="M275.15,88.8h-2.72v9.44h-1.62V88.8h-1.91v-.73l1.91-.59v-.6q0-3.95,3.45-3.95a7.07,7.07,0,0,1,2,.34l-.42,1.3a5.35,5.35,0,0,0-1.6-.3,1.56,1.56,0,0,0-1.36.61,3.41,3.41,0,0,0-.44,2v.69h2.72Z"/><path d="M286.35,92.88A5.9,5.9,0,0,1,285,97a4.64,4.64,0,0,1-3.64,1.47,4.82,4.82,0,0,1-2.55-.67,4.45,4.45,0,0,1-1.72-1.93,6.74,6.74,0,0,1-.61-2.95,5.9,5.9,0,0,1,1.31-4.08,4.63,4.63,0,0,1,3.63-1.46A4.53,4.53,0,0,1,285,88.83,5.88,5.88,0,0,1,286.35,92.88Zm-8.15,0A5.08,5.08,0,0,0,279,96a3.25,3.25,0,0,0,4.83,0,5,5,0,0,0,.83-3.13,5,5,0,0,0-.83-3.1,2.9,2.9,0,0,0-2.44-1.06,2.85,2.85,0,0,0-2.4,1A5,5,0,0,0,278.19,92.88Z"/><path d="M294.07,87.34a6.34,6.34,0,0,1,1.28.12l-.22,1.5a5.52,5.52,0,0,0-1.17-.15,2.85,2.85,0,0,0-2.22,1.05,3.84,3.84,0,0,0-.92,2.63v5.74h-1.62V87.54h1.34l.19,2h.08a4.7,4.7,0,0,1,1.44-1.61A3.23,3.23,0,0,1,294.07,87.34Z"/><path d="M311.84,88.12a4,4,0,0,1-1.48,3.33,6.7,6.7,0,0,1-4.23,1.17h-1.68v5.62h-1.66V84h3.7Q311.84,84,311.84,88.12Zm-7.39,3.08h1.49a5.56,5.56,0,0,0,3.19-.71,2.63,2.63,0,0,0,1-2.29,2.46,2.46,0,0,0-.93-2.11,4.84,4.84,0,0,0-2.89-.69h-1.86Z"/><path d="M319.47,87.34a6.34,6.34,0,0,1,1.28.12l-.22,1.5a5.52,5.52,0,0,0-1.17-.15,2.85,2.85,0,0,0-2.22,1.05,3.84,3.84,0,0,0-.92,2.63v5.74h-1.62V87.54h1.34l.19,2h.08a4.7,4.7,0,0,1,1.44-1.61A3.23,3.23,0,0,1,319.47,87.34Z"/><path d="M327.27,98.43A4.92,4.92,0,0,1,323.53,97a5.6,5.6,0,0,1-1.37-4,6.2,6.2,0,0,1,1.27-4.11,4.23,4.23,0,0,1,3.42-1.52A4,4,0,0,1,330,88.66a5.08,5.08,0,0,1,1.17,3.49v1h-7.37a4.25,4.25,0,0,0,1,2.86,3.29,3.29,0,0,0,2.54,1,8.63,8.63,0,0,0,3.42-.72v1.45a8.59,8.59,0,0,1-1.63.53A9.14,9.14,0,0,1,327.27,98.43Zm-.44-9.74a2.65,2.65,0,0,0-2.06.84,3.86,3.86,0,0,0-.9,2.32h5.6a3.57,3.57,0,0,0-.68-2.35A2.41,2.41,0,0,0,326.83,88.7Z"/><path d="M338.25,98.43a4.57,4.57,0,0,1-3.6-1.43,5.88,5.88,0,0,1-1.27-4,6.06,6.06,0,0,1,1.29-4.15,4.66,4.66,0,0,1,3.69-1.46,7.27,7.27,0,0,1,1.54.17,5,5,0,0,1,1.21.39l-.5,1.38a7.64,7.64,0,0,0-1.17-.36,5.27,5.27,0,0,0-1.12-.14q-3.26,0-3.26,4.16a5,5,0,0,0,.8,3A2.77,2.77,0,0,0,338.21,97a7.22,7.22,0,0,0,2.74-.58v1.44A5.85,5.85,0,0,1,338.25,98.43Z"/><path d="M343.36,84.63a1.08,1.08,0,0,1,.27-.82,1,1,0,0,1,1.36,0,1.06,1.06,0,0,1,.28.81,1.07,1.07,0,0,1-.28.81,1,1,0,0,1-1.36,0A1.09,1.09,0,0,1,343.36,84.63Zm1.76,13.6h-1.62V87.54h1.62Z"/><path d="M355.46,95.32a2.68,2.68,0,0,1-1.11,2.3,5.24,5.24,0,0,1-3.12.81,6.8,6.8,0,0,1-3.32-.67v-1.5a8.1,8.1,0,0,0,1.66.62,6.93,6.93,0,0,0,1.7.22,3.86,3.86,0,0,0,2-.41,1.4,1.4,0,0,0,.14-2.3,8.54,8.54,0,0,0-2.11-1,11.41,11.41,0,0,1-2.12-1,2.9,2.9,0,0,1-.94-.94,2.46,2.46,0,0,1-.31-1.26,2.4,2.4,0,0,1,1.06-2.07,5,5,0,0,1,2.92-.76,8.54,8.54,0,0,1,3.38.7l-.58,1.32a7.74,7.74,0,0,0-2.92-.66,3.36,3.36,0,0,0-1.74.36,1.12,1.12,0,0,0-.59,1,1.21,1.21,0,0,0,.22.73,2.18,2.18,0,0,0,.71.58,16,16,0,0,0,1.88.79,7,7,0,0,1,2.57,1.4A2.46,2.46,0,0,1,355.46,95.32Z"/><path d="M358,84.63a1.08,1.08,0,0,1,.27-.82,1,1,0,0,1,1.36,0,1.06,1.06,0,0,1,.28.81,1.07,1.07,0,0,1-.28.81,1,1,0,0,1-1.36,0A1.09,1.09,0,0,1,358,84.63Zm1.76,13.6h-1.62V87.54h1.62Z"/><path d="M372.39,92.88A5.9,5.9,0,0,1,371.07,97a4.64,4.64,0,0,1-3.64,1.47,4.82,4.82,0,0,1-2.55-.67,4.45,4.45,0,0,1-1.72-1.93,6.74,6.74,0,0,1-.61-2.95,5.9,5.9,0,0,1,1.31-4.08,4.63,4.63,0,0,1,3.63-1.46,4.53,4.53,0,0,1,3.57,1.49A5.88,5.88,0,0,1,372.39,92.88Zm-8.15,0a5.08,5.08,0,0,0,.82,3.13,3.25,3.25,0,0,0,4.83,0,5,5,0,0,0,.83-3.13,5,5,0,0,0-.83-3.1,2.9,2.9,0,0,0-2.44-1.06,2.85,2.85,0,0,0-2.4,1A5,5,0,0,0,364.24,92.88Z"/><path d="M382.56,98.24V91.31a2.79,2.79,0,0,0-.6-2,2.43,2.43,0,0,0-1.87-.64,3.08,3.08,0,0,0-2.46.91,4.59,4.59,0,0,0-.78,3v5.62h-1.62V87.54h1.32l.26,1.46h.08a3.32,3.32,0,0,1,1.4-1.23,4.55,4.55,0,0,1,2-.43,4.07,4.07,0,0,1,2.91.93,4,4,0,0,1,1,3v7Z"/><path d="M403.79,98.24h-1.66V91.52h-7.52v6.72h-1.66V84h1.66V90h7.52V84h1.66Z"/><path d="M412,98.43A4.92,4.92,0,0,1,408.24,97a5.6,5.6,0,0,1-1.37-4,6.2,6.2,0,0,1,1.27-4.11,4.23,4.23,0,0,1,3.42-1.52,4,4,0,0,1,3.18,1.32,5.08,5.08,0,0,1,1.17,3.49v1h-7.37a4.25,4.25,0,0,0,1,2.86A3.29,3.29,0,0,0,412,97a8.63,8.63,0,0,0,3.42-.72v1.45a8.59,8.59,0,0,1-1.63.53A9.14,9.14,0,0,1,412,98.43Zm-.44-9.74a2.65,2.65,0,0,0-2.06.84,3.86,3.86,0,0,0-.9,2.32h5.6a3.57,3.57,0,0,0-.68-2.35A2.41,2.41,0,0,0,411.54,88.7Z"/><path d="M425.26,98.24l-.32-1.52h-.08a4.5,4.5,0,0,1-1.6,1.36,4.86,4.86,0,0,1-2,.36,3.57,3.57,0,0,1-2.5-.82,3,3,0,0,1-.9-2.33q0-3.24,5.19-3.4l1.82-.06v-.66a2.72,2.72,0,0,0-.54-1.86,2.23,2.23,0,0,0-1.73-.6,7.06,7.06,0,0,0-3,.82l-.5-1.24a7.79,7.79,0,0,1,3.62-.92,4.08,4.08,0,0,1,2.84.85,3.55,3.55,0,0,1,.92,2.72v7.3ZM421.6,97.1a3.29,3.29,0,0,0,2.38-.83,3.07,3.07,0,0,0,.86-2.32V93l-1.62.07a5.9,5.9,0,0,0-2.79.6,1.81,1.81,0,0,0-.85,1.66,1.67,1.67,0,0,0,.53,1.34A2.21,2.21,0,0,0,421.6,97.1Z"/><path d="M431.42,98.24H429.8V83h1.62Z"/><path d="M438.32,97.1a5.22,5.22,0,0,0,.83-.06,5.49,5.49,0,0,0,.63-.13v1.24a3,3,0,0,1-.78.21,5.8,5.8,0,0,1-.92.08q-3.11,0-3.11-3.27V88.8h-1.53V88l1.53-.67.68-2.29h.94v2.48h3.11V88.8H436.6v6.3a2.17,2.17,0,0,0,.46,1.48A1.6,1.6,0,0,0,438.32,97.1Z"/><path d="M449.25,98.24V91.31a2.79,2.79,0,0,0-.6-2,2.43,2.43,0,0,0-1.87-.64,3.06,3.06,0,0,0-2.47.92,4.65,4.65,0,0,0-.78,3v5.6h-1.62V83h1.62v4.6a10.09,10.09,0,0,1-.08,1.38h.1a3.31,3.31,0,0,1,1.36-1.22,4.44,4.44,0,0,1,2-.44,4.13,4.13,0,0,1,2.94.93,3.93,3.93,0,0,1,1,3v7Z"/><path d="M454,97.2a1.45,1.45,0,0,1,.3-1,1.08,1.08,0,0,1,.85-.34,1.15,1.15,0,0,1,.88.34,1.4,1.4,0,0,1,.32,1,1.37,1.37,0,0,1-.32,1,1.28,1.28,0,0,1-1.7,0A1.33,1.33,0,0,1,454,97.2Z"/><path d="M8.55,132.73H4.18c0-17.73,12.58-26.5,24.74-35,11.76-8.2,22.87-15.94,22.87-31.39S40.68,43.17,28.92,35C16.75,26.5,4.18,17.73,4.18,0H8.55c0,15.45,11.11,23.19,22.87,31.39,12.16,8.48,24.74,17.24,24.74,35s-12.58,26.5-24.74,35C19.66,109.54,8.55,117.28,8.55,132.73Z"/><path d="M52,132.73H47.61c0-15.45-11.11-23.19-22.87-31.39C12.58,92.86,0,84.1,0,66.36s12.58-26.5,24.74-35C36.5,23.19,47.61,15.45,47.61,0H52c0,17.73-12.58,26.5-24.74,35C15.48,43.17,4.38,50.91,4.38,66.36S15.48,89.56,27.24,97.75C39.41,106.23,52,115,52,132.73Z"/><path class="cls-1" d="M38.3,68.07H29.52v6.35h7.53A23.41,23.41,0,0,0,38.3,68.07Z"/><path class="cls-2" d="M37,58.84H29.52v6.35h8.77A23.39,23.39,0,0,0,37,58.84Z"/><path class="cls-3" d="M29.52,48.4V56H35.7A23.81,23.81,0,0,0,29.52,48.4Z"/><path class="cls-2" d="M16.14,58.84H9.48A20.1,20.1,0,0,0,8,65.19h7A26.33,26.33,0,0,1,16.14,58.84Z"/><path class="cls-4" d="M35.84,77.31H29.52v7.81A23.8,23.8,0,0,0,35.84,77.31Z"/><path class="cls-1" d="M40.1,74.43h6.58a20.1,20.1,0,0,0,1.51-6.35h-7A26.35,26.35,0,0,1,40.1,74.43Z"/><path class="cls-2" d="M41.18,65.19h7a20.1,20.1,0,0,0-1.51-6.35H40A26.33,26.33,0,0,1,41.18,65.19Z"/><path class="cls-3" d="M38.92,56h6.27a20.22,20.22,0,0,0-13-9.11A26.57,26.57,0,0,1,38.92,56Z"/><path class="cls-1" d="M15,68.07H8a20.1,20.1,0,0,0,1.51,6.35h6.58A26.35,26.35,0,0,1,15,68.07Z"/><path class="cls-4" d="M32.54,86.33a20.22,20.22,0,0,0,12.64-9H39A26.54,26.54,0,0,1,32.54,86.33Z"/><path class="cls-3" d="M17.24,56A26.57,26.57,0,0,1,24,46.84,20.22,20.22,0,0,0,11,56Z"/><path class="cls-2" d="M17.87,65.19h8.77V58.84H19.2A23.39,23.39,0,0,0,17.87,65.19Z"/><path class="cls-3" d="M26.64,56V48.4A23.81,23.81,0,0,0,20.46,56Z"/><path class="cls-1" d="M19.1,74.43h7.54V68.07H17.86A23.41,23.41,0,0,0,19.1,74.43Z"/><path class="cls-4" d="M17.13,77.31H11a20.22,20.22,0,0,0,12.64,9A26.54,26.54,0,0,1,17.13,77.31Z"/><path class="cls-4" d="M26.64,85.12V77.31H20.32A23.8,23.8,0,0,0,26.64,85.12Z"/><path class="cls-5" d="M12.62,49.52a34.35,34.35,0,0,1,13.33-5.88A22.94,22.94,0,0,0,12.62,49.52Z"/><path class="cls-5" d="M5,66.63a23,23,0,1,0,23-23.09c-.72,0-1.43,0-2.14.1a34.35,34.35,0,0,0-13.33,5.88A23.06,23.06,0,0,0,5,66.63Zm27.51,19.7a26.54,26.54,0,0,0,6.49-9h6.15A20.22,20.22,0,0,1,32.54,86.33ZM46.68,74.43H40.1a26.35,26.35,0,0,0,1.1-6.35h7A20.1,20.1,0,0,1,46.68,74.43Zm1.51-9.24h-7A26.33,26.33,0,0,0,40,58.84h6.67A20.1,20.1,0,0,1,48.18,65.19Zm-3-9.24H38.92a26.57,26.57,0,0,0-6.77-9.11A20.22,20.22,0,0,1,45.18,56ZM29.52,48.4A23.81,23.81,0,0,1,35.7,56H29.52Zm0,10.44H37a23.39,23.39,0,0,1,1.33,6.35H29.52Zm0,9.24H38.3a23.41,23.41,0,0,1-1.25,6.35H29.52Zm0,9.24h6.31a23.8,23.8,0,0,1-6.31,7.81Zm-20-18.48h6.66A26.33,26.33,0,0,0,15,65.19H8A20.1,20.1,0,0,1,9.48,58.84ZM8,68.07h7a26.35,26.35,0,0,0,1.1,6.35H9.48A20.1,20.1,0,0,1,8,68.07Zm3,9.24h6.15a26.54,26.54,0,0,0,6.49,9A20.22,20.22,0,0,1,11,77.31Zm15.66,7.81a23.8,23.8,0,0,1-6.31-7.81h6.31Zm0-10.7H19.1a23.41,23.41,0,0,1-1.25-6.35h8.78Zm0-9.24H17.87a23.39,23.39,0,0,1,1.33-6.35h7.44Zm0-16.79V56H20.46A23.81,23.81,0,0,1,26.64,48.4ZM24,46.84A26.57,26.57,0,0,0,17.24,56H11A20.22,20.22,0,0,1,24,46.84Z"/></svg>