<?xml version="1.0" encoding="utf-8"?>
<!-- Generator: Adobe Illustrator 18.1.0, SVG Export Plug-In . SVG Version: 6.00 Build 0)  -->
<!DOCTYPE svg PUBLIC "-//W3C//DTD SVG 1.1//EN" "http://www.w3.org/Graphics/SVG/1.1/DTD/svg11.dtd">
<svg version="1.1" id="Layer_1" xmlns="http://www.w3.org/2000/svg" xmlns:xlink="http://www.w3.org/1999/xlink" x="0px" y="0px"
	 viewBox="0 0 282.6 117.9" width="282.6" height="117.9" enable-background="new 0 0 282.6 117.9" xml:space="preserve">
<g>
	<path fill="#6E4199" d="M232.1,27.7h19v48.9c0,0.8,0.6,1.4,1.4,1.4h7.7c0.7,0,1.4-0.6,1.4-1.4V27.7h19.3c0.7,0,1.4-0.6,1.4-1.4
		v-6.8c0-0.8-0.6-1.4-1.4-1.4h-48.8c-0.8,0-1.4,0.6-1.4,1.4v6.8C230.8,27,231.4,27.7,232.1,27.7z"/>
	<path fill="#6E4199" d="M200.6,78h7.7c0.8,0,1.4-0.6,1.4-1.4V19.5c0-0.8-0.6-1.4-1.4-1.4h-7.7c-0.8,0-1.4,0.6-1.4,1.4v57.1
		C199.3,77.4,199.9,78,200.6,78z"/>
	<path fill="#6E4199" d="M1.4,78h7.7c0,0,0,0,0,0c0.8,0,1.4-0.6,1.4-1.4c0-0.1,0-0.1,0-0.2l0-24.6h22.6c0.8,0,1.4-0.6,1.4-1.4v-6.8
		c0-0.8-0.6-1.4-1.4-1.4H10.5V27.7h26.3c0.8,0,1.4-0.6,1.4-1.4v-6.8c0-0.8-0.6-1.4-1.4-1.4H1.4c-0.8,0-1.4,0.6-1.4,1.4v57.1
		C0,77.4,0.6,78,1.4,78z"/>
	<path fill="#6E4199" d="M156.6,78.9c10.2,0,16.2-4.6,19.5-8.5c0.4-0.5,0.4-1.3,0-1.8l-4.6-4.9c-0.5-0.5-1.4-0.6-1.9-0.1
		c-3.2,3-6.8,5.8-13,5.8c-12.8,0-16.1-8.5-16.1-13v-17c0-4.5,3.4-13,16.1-13c6.2,0,9.8,2.9,13,5.8c0.5,0.5,1.4,0.5,1.9-0.1l4.6-4.9
		c0.5-0.5,0.5-1.3,0-1.8c-3.3-3.9-9.3-8.5-19.5-8.5c-9.2,0-16.3,2.7-21.1,8.1c-3.5,3.9-5.6,9.3-5.6,14.3v17c0,5.1,2.1,10.4,5.6,14.3
		C140.4,76.2,147.5,78.9,156.6,78.9z"/>
	<path fill="#6E4199" d="M54,59.8h8.2c0.5,0,1-0.3,1.3-0.8l6.9-16.7h10.4c0.8,0,1.4-0.6,1.4-1.4v-6.8c0-0.8-0.6-1.4-1.4-1.4h-6.5
		l7.8-19L100.8,59c0.2,0.5,0.7,0.8,1.3,0.8h8.2c0.5,0,0.9-0.2,1.1-0.6c0.3-0.4,0.3-0.9,0.1-1.3L87.9,0.8C87.7,0.3,87.2,0,86.6,0h-9
		c-0.5,0-1,0.3-1.3,0.8L52.7,58c-0.2,0.4-0.1,0.9,0.1,1.3C53.1,59.6,53.5,59.8,54,59.8z"/>
	<rect x="0" y="90.3" fill="#6E4199" width="282.2" height="0.6"/>
	<polygon fill="#6E4199" points="0,114 1.7,114 1.7,108.7 6.2,108.7 6.2,107.2 1.7,107.2 1.7,103.5 7.6,103.5 7.6,101.9 0,101.9 	
		"/>
	<rect x="8.9" y="105.6" fill="#6E4199" width="1.6" height="8.4"/>
	<rect x="8.7" y="102.2" fill="#6E4199" width="1.8" height="1.8"/>
	<path fill="#6E4199" d="M16.7,105.4c-0.7,0-1.4,0.1-1.9,0.3c-0.6,0.2-1.1,0.5-1.5,0.9c-0.4,0.4-0.7,0.9-1,1.4
		c-0.2,0.6-0.3,1.2-0.3,1.8c0,0.6,0.1,1.2,0.3,1.7c0.2,0.5,0.4,1,0.7,1.3c0.3,0.4,0.7,0.7,1.2,0.9c0.5,0.2,1,0.3,1.6,0.3
		c0.4,0,0.7,0,1-0.1c0.3-0.1,0.5-0.2,0.8-0.3c0.2-0.1,0.4-0.2,0.5-0.4c0.1-0.1,0.3-0.2,0.3-0.3l0,1c0,0.7-0.2,1.3-0.6,1.8
		c-0.4,0.4-1,0.7-1.8,0.7c-0.6,0-1.1-0.1-1.5-0.2c-0.4-0.1-0.7-0.3-1-0.5l-0.8,1.2c0.3,0.2,0.7,0.5,1.2,0.6c0.5,0.2,1.2,0.3,2,0.3
		c1.3,0,2.3-0.3,3-1c0.7-0.7,1.1-1.6,1.1-2.8l0-8.1c-0.4-0.1-0.8-0.3-1.4-0.4C18,105.4,17.4,105.4,16.7,105.4z M18.4,110.6
		c0,0.3,0,0.5-0.1,0.8c-0.1,0.2-0.2,0.5-0.4,0.7c-0.2,0.2-0.4,0.4-0.7,0.5c-0.3,0.1-0.7,0.2-1.1,0.2c-0.4,0-0.8-0.1-1.1-0.2
		c-0.3-0.1-0.6-0.3-0.8-0.6c-0.2-0.3-0.3-0.5-0.4-0.9c-0.1-0.3-0.1-0.7-0.1-1.1c0-0.4,0.1-0.9,0.2-1.2c0.2-0.4,0.4-0.7,0.6-1
		c0.3-0.3,0.6-0.5,1-0.6c0.4-0.2,0.8-0.2,1.3-0.2c0.5,0,0.9,0,1.2,0.1c0.3,0.1,0.4,0.1,0.6,0.2L18.4,110.6z"/>
	<path fill="#6E4199" d="M26.3,105.4c-0.4,0-0.7,0-1,0.1c-0.3,0.1-0.6,0.2-0.8,0.4c-0.2,0.1-0.4,0.3-0.6,0.5
		c-0.2,0.2-0.3,0.3-0.4,0.5l0-4.9h-1.6l0,12.1l1.6,0l0-3.9c0-0.4,0-0.8,0.1-1.2c0.1-0.4,0.2-0.7,0.4-1.1c0.2-0.3,0.4-0.6,0.8-0.8
		c0.3-0.2,0.7-0.3,1.2-0.3c0.6,0,1.1,0.2,1.4,0.6c0.3,0.4,0.5,0.9,0.5,1.7l0,4.9h1.6l0-5.1c0-1.1-0.3-2-0.8-2.6
		C28.2,105.7,27.4,105.4,26.3,105.4z"/>
	<path fill="#6E4199" d="M35.5,112.7c-0.2,0.1-0.5,0.1-0.8,0.1c-0.4,0-0.7-0.1-0.9-0.4c-0.2-0.3-0.3-0.7-0.3-1.4l0-4.2l2.5,0l0-1.4
		l-2.5,0l0-2.8h-1.6l0,2.8l-1.5,0l0,1.4h1.5l0,4.3c0,1,0.2,1.8,0.6,2.3c0.4,0.5,1.1,0.7,2,0.7c0.5,0,0.9-0.1,1.3-0.2
		c0.4-0.2,0.7-0.4,1.1-0.7l-0.7-1C35.9,112.5,35.7,112.6,35.5,112.7z"/>
	<path fill="#6E4199" d="M44.8,101.9L40,114l1.8,0l1.3-3.4l5,0l1.3,3.4h1.9l-4.7-12.1L44.8,101.9z M43.6,109.2l2-5.3l2,5.3
		L43.6,109.2z"/>
	<path fill="#6E4199" d="M56.4,105.4c-0.7,0-1.4,0.1-1.9,0.3c-0.6,0.2-1.1,0.5-1.5,0.9c-0.4,0.4-0.7,0.9-1,1.4
		c-0.2,0.6-0.3,1.2-0.3,1.8c0,0.6,0.1,1.2,0.3,1.7c0.2,0.5,0.4,1,0.7,1.3c0.3,0.4,0.7,0.7,1.2,0.9c0.5,0.2,1,0.3,1.6,0.3
		c0.4,0,0.7,0,1-0.1c0.3-0.1,0.5-0.2,0.8-0.3c0.2-0.1,0.4-0.2,0.5-0.4c0.1-0.1,0.3-0.2,0.3-0.3v1c0,0.7-0.2,1.3-0.6,1.8
		c-0.4,0.4-1,0.7-1.8,0.7c-0.6,0-1.1-0.1-1.5-0.2c-0.4-0.1-0.7-0.3-1-0.5l-0.8,1.2c0.3,0.2,0.7,0.5,1.2,0.6c0.5,0.2,1.2,0.3,2,0.3
		c1.3,0,2.3-0.3,3-1c0.7-0.7,1.1-1.6,1.1-2.8l0-8.1c-0.4-0.1-0.8-0.3-1.4-0.4C57.7,105.4,57.1,105.4,56.4,105.4z M58.1,110.6
		c0,0.3,0,0.5-0.1,0.8c-0.1,0.2-0.2,0.5-0.4,0.7c-0.2,0.2-0.4,0.4-0.7,0.5c-0.3,0.1-0.7,0.2-1.1,0.2c-0.4,0-0.8-0.1-1.1-0.2
		c-0.3-0.1-0.6-0.3-0.8-0.6c-0.2-0.3-0.3-0.5-0.4-0.9c-0.1-0.3-0.1-0.7-0.1-1.1c0-0.4,0.1-0.9,0.2-1.2c0.2-0.4,0.4-0.7,0.6-1
		c0.3-0.3,0.6-0.5,1-0.6c0.4-0.2,0.8-0.2,1.3-0.2c0.5,0,0.9,0,1.2,0.1c0.3,0.1,0.4,0.1,0.6,0.2L58.1,110.6z"/>
	<path fill="#6E4199" d="M68.4,112.3l0-4c0-1-0.3-1.7-0.9-2.2c-0.6-0.5-1.5-0.8-2.6-0.8c-0.5,0-0.9,0-1.2,0.1
		c-0.4,0.1-0.7,0.2-0.9,0.3c-0.3,0.1-0.5,0.2-0.7,0.3c-0.2,0.1-0.4,0.2-0.5,0.4l0.8,1.1c0.3-0.2,0.6-0.4,0.9-0.5
		c0.4-0.2,0.9-0.3,1.5-0.3c0.7,0,1.2,0.1,1.6,0.4c0.4,0.3,0.6,0.7,0.6,1.4v0.3c-0.1,0-0.2,0-0.3,0c-0.1,0-0.3,0-0.5,0
		c-0.2,0-0.4,0-0.6,0c-0.2,0-0.4,0-0.6,0c-1.2,0-2.1,0.3-2.7,0.8c-0.6,0.5-1,1.3-1,2.2c0,0.5,0.1,0.9,0.3,1.2
		c0.2,0.3,0.4,0.6,0.7,0.8c0.3,0.2,0.6,0.4,0.9,0.5c0.3,0.1,0.7,0.1,1,0.1c0.5,0,1.1-0.1,1.6-0.3c0.5-0.2,0.9-0.5,1.2-0.9l0,1l1.5,0
		c0-0.2,0-0.5,0-0.8C68.4,113,68.4,112.7,68.4,112.3z M66.8,111c0,0.3-0.1,0.5-0.2,0.7c-0.1,0.2-0.3,0.5-0.5,0.6
		c-0.2,0.2-0.5,0.3-0.8,0.4c-0.3,0.1-0.6,0.2-0.9,0.2c-0.6,0-1-0.1-1.3-0.4c-0.3-0.2-0.5-0.6-0.5-1c0-0.2,0-0.4,0.1-0.6
		c0.1-0.2,0.2-0.4,0.3-0.5c0.2-0.2,0.4-0.3,0.7-0.4c0.3-0.1,0.7-0.2,1.1-0.2c0.2,0,0.4,0,0.6,0c0.2,0,0.4,0,0.6,0c0.2,0,0.3,0,0.5,0
		c0.1,0,0.2,0,0.3,0L66.8,111z"/>
	<rect x="70.2" y="105.6" fill="#6E4199" width="1.6" height="8.4"/>
	<rect x="70.1" y="102.2" fill="#6E4199" width="1.8" height="1.8"/>
	<path fill="#6E4199" d="M78.2,105.4c-0.4,0-0.7,0-1,0.1c-0.3,0.1-0.6,0.2-0.8,0.4c-0.2,0.1-0.4,0.3-0.6,0.5
		c-0.2,0.2-0.3,0.3-0.4,0.5l-0.1-1.3h-1.6c0,0.3,0,0.6,0,0.9c0,0.3,0,0.6,0,1l0,6.6l1.6,0l0-3.9c0-0.4,0-0.8,0.1-1.2
		c0.1-0.4,0.2-0.7,0.4-1.1c0.2-0.3,0.4-0.6,0.8-0.8c0.3-0.2,0.7-0.3,1.2-0.3c0.6,0,1.1,0.2,1.4,0.6c0.3,0.4,0.5,0.9,0.5,1.7l0,4.9
		h1.6l0-5.1c0-1.1-0.3-2-0.8-2.6C80.1,105.7,79.3,105.4,78.2,105.4z"/>
	<path fill="#6E4199" d="M88.9,109.9c-0.3-0.2-0.6-0.4-0.9-0.5c-0.3-0.1-0.7-0.2-1.1-0.3c-0.7-0.2-1.2-0.3-1.6-0.5
		c-0.4-0.2-0.6-0.4-0.6-0.8c0-0.4,0.2-0.7,0.5-0.8c0.3-0.2,0.7-0.3,1.3-0.3c0.5,0,1,0.1,1.3,0.2c0.4,0.2,0.7,0.4,1,0.6l0.9-1.1
		c-0.4-0.3-0.8-0.6-1.4-0.8c-0.5-0.2-1.1-0.3-1.8-0.3c-0.4,0-0.8,0.1-1.2,0.2c-0.4,0.1-0.7,0.3-1.1,0.5c-0.3,0.2-0.6,0.5-0.8,0.8
		c-0.2,0.3-0.3,0.7-0.3,1.1c0,0.4,0.1,0.7,0.2,1c0.2,0.3,0.4,0.5,0.6,0.7s0.5,0.4,0.9,0.5c0.3,0.1,0.6,0.2,1,0.3
		c0.5,0.1,0.8,0.2,1.2,0.3c0.3,0.1,0.6,0.2,0.7,0.3c0.2,0.1,0.3,0.2,0.4,0.4c0.1,0.1,0.1,0.3,0.1,0.5c0,0.4-0.2,0.6-0.5,0.8
		c-0.4,0.2-0.8,0.3-1.4,0.3c-0.6,0-1-0.1-1.5-0.3c-0.4-0.2-0.8-0.4-1.1-0.7l-1,1.1c0.8,0.9,2,1.3,3.6,1.3c0.5,0,0.9-0.1,1.3-0.2
		c0.4-0.1,0.8-0.3,1.1-0.5c0.3-0.2,0.6-0.5,0.8-0.8c0.2-0.3,0.3-0.7,0.3-1.1c0-0.4-0.1-0.8-0.2-1.1
		C89.3,110.3,89.1,110.1,88.9,109.9z"/>
	<path fill="#6E4199" d="M95.5,112.7c-0.2,0.1-0.5,0.1-0.8,0.1c-0.4,0-0.7-0.1-0.9-0.4c-0.2-0.3-0.3-0.7-0.3-1.4l0-4.2l2.5,0l0-1.4
		l-2.5,0l0-2.8h-1.6l0,2.8l-1.5,0v1.4l1.5,0l0,4.3c0,1,0.2,1.8,0.6,2.3c0.4,0.5,1.1,0.7,2,0.7c0.5,0,0.9-0.1,1.3-0.2
		c0.4-0.2,0.7-0.4,1.1-0.7l-0.7-1C95.9,112.5,95.7,112.6,95.5,112.7z"/>
	<path fill="#6E4199" d="M103.8,104.6c0.4-0.4,0.8-0.8,1.3-1c0.5-0.3,1.1-0.4,1.8-0.4c0.5,0,0.9,0.1,1.3,0.2c0.4,0.1,0.7,0.3,1,0.5
		c0.3,0.2,0.5,0.4,0.7,0.6c0.2,0.2,0.4,0.4,0.5,0.6l1.2-1.1c-0.2-0.3-0.4-0.5-0.7-0.8c-0.3-0.3-0.6-0.5-1-0.8
		c-0.4-0.2-0.8-0.4-1.3-0.6c-0.5-0.2-1.1-0.2-1.7-0.2c-0.9,0-1.7,0.2-2.5,0.5c-0.7,0.3-1.4,0.8-1.9,1.4c-0.5,0.6-0.9,1.3-1.2,2
		c-0.3,0.8-0.4,1.6-0.4,2.5c0,0.9,0.1,1.7,0.4,2.5c0.3,0.8,0.7,1.4,1.2,2c0.5,0.6,1.2,1,1.9,1.3c0.7,0.3,1.6,0.5,2.4,0.5
		c0.6,0,1.2-0.1,1.7-0.3c0.5-0.2,1-0.4,1.4-0.6c0.4-0.2,0.7-0.5,1-0.8c0.3-0.3,0.5-0.5,0.6-0.7l-1.2-1c-0.1,0.1-0.3,0.3-0.4,0.5
		c-0.2,0.2-0.4,0.4-0.7,0.6c-0.3,0.2-0.6,0.4-1,0.5c-0.4,0.1-0.9,0.2-1.4,0.2c-0.6,0-1.2-0.1-1.7-0.4c-0.5-0.2-1-0.6-1.3-1
		c-0.4-0.4-0.6-0.9-0.8-1.5c-0.2-0.6-0.3-1.2-0.3-1.8c0-0.7,0.1-1.3,0.3-1.8C103.1,105.5,103.4,105,103.8,104.6z"/>
	<path fill="#6E4199" d="M119.8,112.3l0-4c0-1-0.3-1.7-0.9-2.2c-0.6-0.5-1.5-0.8-2.6-0.8c-0.5,0-0.9,0-1.2,0.1
		c-0.4,0.1-0.7,0.2-0.9,0.3c-0.3,0.1-0.5,0.2-0.7,0.3c-0.2,0.1-0.4,0.2-0.5,0.4l0.8,1.1c0.3-0.2,0.6-0.4,0.9-0.5
		c0.4-0.2,0.9-0.3,1.5-0.3c0.7,0,1.2,0.1,1.6,0.4c0.4,0.3,0.6,0.7,0.6,1.4v0.3c-0.1,0-0.2,0-0.3,0c-0.1,0-0.3,0-0.5,0
		c-0.2,0-0.4,0-0.6,0c-0.2,0-0.4,0-0.6,0c-1.2,0-2.1,0.3-2.7,0.8c-0.6,0.5-1,1.3-1,2.2c0,0.5,0.1,0.9,0.3,1.2
		c0.2,0.3,0.4,0.6,0.7,0.8c0.3,0.2,0.6,0.4,0.9,0.5c0.3,0.1,0.7,0.1,1,0.1c0.5,0,1.1-0.1,1.6-0.3c0.5-0.2,0.9-0.5,1.2-0.9l0,1l1.5,0
		c0-0.2,0-0.5,0-0.8C119.8,113,119.8,112.7,119.8,112.3z M118.3,111c0,0.3-0.1,0.5-0.2,0.7c-0.1,0.2-0.3,0.5-0.5,0.6
		c-0.2,0.2-0.5,0.3-0.8,0.4c-0.3,0.1-0.6,0.2-0.9,0.2c-0.6,0-1-0.1-1.3-0.4c-0.3-0.2-0.5-0.6-0.5-1c0-0.2,0-0.4,0.1-0.6
		c0.1-0.2,0.2-0.4,0.3-0.5c0.2-0.2,0.4-0.3,0.7-0.4c0.3-0.1,0.7-0.2,1.1-0.2c0.2,0,0.4,0,0.6,0c0.2,0,0.4,0,0.6,0c0.2,0,0.3,0,0.5,0
		c0.1,0,0.2,0,0.3,0L118.3,111z"/>
	<path fill="#6E4199" d="M126.1,105.4c-0.4,0-0.7,0-1,0.1c-0.3,0.1-0.6,0.2-0.8,0.4c-0.2,0.1-0.4,0.3-0.6,0.5
		c-0.2,0.2-0.3,0.3-0.4,0.5l-0.1-1.3l-1.6,0c0,0.3,0,0.6,0,0.9c0,0.3,0,0.6,0,1l0,6.6h1.6l0-3.9c0-0.4,0-0.8,0.1-1.2
		c0.1-0.4,0.2-0.7,0.4-1.1c0.2-0.3,0.4-0.6,0.8-0.8c0.3-0.2,0.7-0.3,1.2-0.3c0.6,0,1.1,0.2,1.4,0.6c0.3,0.4,0.5,0.9,0.5,1.7l0,4.9
		h1.6l0-5.1c0-1.1-0.3-2-0.8-2.6C128,105.7,127.2,105.4,126.1,105.4z"/>
	<path fill="#6E4199" d="M136.4,112.6c-0.4,0.2-0.8,0.3-1.3,0.3c-0.4,0-0.8-0.1-1.2-0.3c-0.3-0.2-0.6-0.4-0.9-0.7
		c-0.2-0.3-0.4-0.6-0.5-1c-0.1-0.4-0.2-0.7-0.2-1.1c0-0.4,0.1-0.8,0.2-1.2c0.1-0.4,0.3-0.7,0.5-1c0.2-0.3,0.5-0.5,0.9-0.7
		c0.3-0.2,0.7-0.2,1.2-0.2c0.5,0,0.9,0.1,1.3,0.3c0.4,0.2,0.7,0.4,0.9,0.7l1.1-1c-0.4-0.4-0.9-0.8-1.4-1c-0.5-0.3-1.2-0.4-1.9-0.4
		c-0.7,0-1.2,0.1-1.8,0.4c-0.5,0.2-1,0.6-1.4,1c-0.4,0.4-0.7,0.9-0.9,1.4c-0.2,0.5-0.3,1.1-0.3,1.7c0,0.7,0.1,1.3,0.3,1.8
		c0.2,0.6,0.5,1,0.9,1.4c0.4,0.4,0.8,0.7,1.4,0.9c0.5,0.2,1.2,0.3,1.8,0.3c0.7,0,1.4-0.1,1.9-0.4c0.5-0.3,1-0.6,1.4-1l-1-1.1
		C137.1,112.1,136.8,112.4,136.4,112.6z"/>
	<path fill="#6E4199" d="M146.9,108.4c-0.2-0.6-0.4-1.1-0.7-1.6c-0.3-0.5-0.8-0.8-1.3-1.1c-0.5-0.3-1.1-0.4-1.9-0.4
		c-0.6,0-1.2,0.1-1.7,0.3c-0.5,0.2-1,0.5-1.3,0.9c-0.4,0.4-0.7,0.9-0.9,1.4c-0.2,0.5-0.3,1.1-0.3,1.7c0,0.7,0.1,1.3,0.3,1.8
		c0.2,0.6,0.5,1,0.9,1.4c0.4,0.4,0.9,0.7,1.4,0.9s1.1,0.3,1.8,0.3c0.5,0,1-0.1,1.4-0.2c0.4-0.1,0.8-0.3,1.1-0.4
		c0.3-0.2,0.6-0.3,0.8-0.5c0.2-0.2,0.3-0.3,0.4-0.4l-0.9-1c-0.2,0.2-0.5,0.5-1,0.7c-0.5,0.2-1,0.4-1.8,0.4c-0.4,0-0.7-0.1-1-0.2
		c-0.3-0.1-0.6-0.3-0.9-0.5c-0.3-0.2-0.5-0.5-0.6-0.8c-0.2-0.3-0.2-0.7-0.2-1l6.7,0C147.2,109.6,147.1,109,146.9,108.4z
		 M140.5,109.1c0-0.3,0.1-0.6,0.2-0.9c0.1-0.3,0.3-0.5,0.5-0.8c0.2-0.2,0.5-0.4,0.8-0.5c0.3-0.1,0.7-0.2,1-0.2
		c0.7,0,1.3,0.2,1.7,0.7c0.4,0.5,0.6,1,0.7,1.7L140.5,109.1z"/>
	<path fill="#6E4199" d="M153.8,105.6c-0.1,0-0.3-0.1-0.4-0.1c-0.2,0-0.3,0-0.5,0c-0.4,0-0.7,0.1-1,0.2c-0.3,0.1-0.6,0.2-0.8,0.4
		c-0.2,0.1-0.4,0.3-0.6,0.5c-0.2,0.2-0.3,0.3-0.4,0.5l-0.1-1.4l-1.6,0c0,0.3,0,0.5,0,0.8c0,0.3,0,0.6,0,0.9l0,6.7l1.6,0l0-4.4
		c0-0.4,0.1-0.7,0.2-1c0.1-0.3,0.3-0.6,0.5-0.8s0.5-0.4,0.8-0.6c0.3-0.1,0.6-0.2,1-0.2c0.3,0,0.6,0,0.8,0.1L153.8,105.6z"/>
	<polygon fill="#6E4199" points="153.4,114 154.2,114 153.2,116.1 154.2,116.1 155.5,114 155.5,112 153.4,112 	"/>
	<rect x="162.1" y="101.9" fill="#6E4199" width="1.7" height="12.1"/>
	<path fill="#6E4199" d="M170.4,105.4c-0.4,0-0.7,0-1,0.1c-0.3,0.1-0.6,0.2-0.8,0.4c-0.2,0.1-0.4,0.3-0.6,0.5
		c-0.2,0.2-0.3,0.3-0.4,0.5l-0.1-1.3l-1.6,0c0,0.3,0,0.6,0,0.9c0,0.3,0,0.6,0,1l0,6.6h1.6l0-3.9c0-0.4,0-0.8,0.1-1.2
		c0.1-0.4,0.2-0.7,0.4-1.1c0.2-0.3,0.4-0.6,0.8-0.8c0.3-0.2,0.7-0.3,1.2-0.3c0.6,0,1.1,0.2,1.4,0.6c0.3,0.4,0.5,0.9,0.5,1.7l0,4.9
		l1.6,0l0-5.1c0-1.1-0.3-2-0.8-2.6C172.3,105.7,171.4,105.4,170.4,105.4z"/>
	<path fill="#6E4199" d="M179.8,105.4c-0.4,0-0.7,0-1,0.1c-0.3,0.1-0.6,0.2-0.8,0.4c-0.2,0.1-0.4,0.3-0.6,0.5
		c-0.2,0.2-0.3,0.3-0.4,0.5l-0.1-1.3l-1.6,0c0,0.3,0,0.6,0,0.9c0,0.3,0,0.6,0,1l0,6.6l1.6,0l0-3.9c0-0.4,0-0.8,0.1-1.2
		c0.1-0.4,0.2-0.7,0.4-1.1c0.2-0.3,0.4-0.6,0.8-0.8c0.3-0.2,0.7-0.3,1.2-0.3c0.6,0,1.1,0.2,1.4,0.6c0.3,0.4,0.5,0.9,0.5,1.7l0,4.9
		h1.6l0-5.1c0-1.1-0.3-2-0.8-2.6C181.7,105.7,180.9,105.4,179.8,105.4z"/>
	<path fill="#6E4199" d="M192.1,106.6c-0.4-0.4-0.9-0.7-1.4-1c-0.5-0.2-1.1-0.4-1.8-0.4c-0.7,0-1.3,0.1-1.8,0.4
		c-0.5,0.2-1,0.6-1.4,1c-0.4,0.4-0.7,0.9-0.9,1.4c-0.2,0.5-0.3,1.1-0.3,1.7c0,0.6,0.1,1.2,0.3,1.7c0.2,0.5,0.5,1,0.9,1.4
		c0.4,0.4,0.9,0.7,1.4,1c0.5,0.2,1.1,0.4,1.8,0.4c0.6,0,1.2-0.1,1.8-0.4c0.5-0.2,1-0.6,1.4-1c0.4-0.4,0.7-0.9,0.9-1.4
		c0.2-0.5,0.3-1.1,0.3-1.7s-0.1-1.2-0.3-1.7C192.8,107.5,192.5,107,192.1,106.6z M191.5,110.9c-0.1,0.4-0.3,0.7-0.6,1
		c-0.2,0.3-0.5,0.5-0.9,0.7c-0.4,0.2-0.7,0.3-1.2,0.3c-0.4,0-0.8-0.1-1.2-0.3c-0.3-0.2-0.6-0.4-0.9-0.7c-0.2-0.3-0.4-0.6-0.6-1
		c-0.1-0.4-0.2-0.7-0.2-1.1c0-0.4,0.1-0.8,0.2-1.1c0.1-0.4,0.3-0.7,0.6-1c0.2-0.3,0.5-0.5,0.9-0.7c0.4-0.2,0.7-0.3,1.2-0.3
		c0.4,0,0.8,0.1,1.2,0.3c0.3,0.2,0.6,0.4,0.9,0.7c0.2,0.3,0.4,0.6,0.6,1c0.1,0.4,0.2,0.7,0.2,1.1
		C191.7,110.2,191.6,110.6,191.5,110.9z"/>
	<polygon fill="#6E4199" points="197.8,112.2 195.2,105.6 193.3,105.6 196.9,114 198.6,114 202.2,105.6 200.4,105.6 	"/>
	<path fill="#6E4199" d="M209.8,112.4l0-4c0-1-0.3-1.7-0.9-2.2c-0.6-0.5-1.5-0.8-2.6-0.8c-0.5,0-0.9,0-1.2,0.1
		c-0.4,0.1-0.7,0.2-0.9,0.3c-0.3,0.1-0.5,0.2-0.7,0.3c-0.2,0.1-0.4,0.2-0.5,0.4l0.8,1.1c0.3-0.2,0.6-0.4,0.9-0.5
		c0.4-0.2,0.9-0.3,1.5-0.3c0.7,0,1.2,0.1,1.6,0.4c0.4,0.3,0.6,0.7,0.6,1.4l0,0.3c-0.1,0-0.2,0-0.3,0c-0.1,0-0.3,0-0.5,0
		c-0.2,0-0.4,0-0.6,0c-0.2,0-0.4,0-0.6,0c-1.2,0-2.1,0.3-2.7,0.8c-0.6,0.5-1,1.3-1,2.2c0,0.5,0.1,0.9,0.3,1.2
		c0.2,0.3,0.4,0.6,0.7,0.8c0.3,0.2,0.6,0.4,0.9,0.5c0.3,0.1,0.7,0.1,1,0.1c0.5,0,1.1-0.1,1.6-0.3c0.5-0.2,0.9-0.5,1.2-0.9l0,1l1.5,0
		c0-0.2,0-0.5,0-0.8C209.8,113,209.8,112.7,209.8,112.4z M208.3,111c0,0.3-0.1,0.5-0.2,0.7c-0.1,0.2-0.3,0.5-0.5,0.6
		c-0.2,0.2-0.5,0.3-0.8,0.4c-0.3,0.1-0.6,0.2-0.9,0.2c-0.6,0-1-0.1-1.3-0.4c-0.3-0.2-0.5-0.6-0.5-1c0-0.2,0-0.4,0.1-0.6
		c0.1-0.2,0.2-0.4,0.3-0.5c0.2-0.2,0.4-0.3,0.7-0.4c0.3-0.1,0.7-0.2,1.1-0.2c0.2,0,0.4,0,0.6,0c0.2,0,0.4,0,0.6,0c0.2,0,0.3,0,0.5,0
		c0.1,0,0.2,0,0.3,0L208.3,111z"/>
	<path fill="#6E4199" d="M215.8,112.7c-0.2,0.1-0.5,0.1-0.8,0.1c-0.4,0-0.7-0.1-0.9-0.4c-0.2-0.3-0.3-0.7-0.3-1.4l0-4.2l2.5,0l0-1.4
		l-2.5,0l0-2.8l-1.6,0l0,2.8l-1.5,0l0,1.4l1.5,0l0,4.3c0,1,0.2,1.8,0.6,2.3c0.4,0.5,1.1,0.7,2,0.7c0.5,0,0.9-0.1,1.3-0.2
		c0.4-0.2,0.7-0.4,1.1-0.7l-0.7-1C216.2,112.5,216,112.6,215.8,112.7z"/>
	<rect x="218.1" y="105.6" fill="#6E4199" width="1.6" height="8.4"/>
	<rect x="218" y="102.3" fill="#6E4199" width="1.8" height="1.8"/>
	<path fill="#6E4199" d="M228.8,106.6c-0.4-0.4-0.9-0.7-1.4-1c-0.5-0.2-1.1-0.4-1.8-0.4c-0.7,0-1.3,0.1-1.8,0.4
		c-0.5,0.2-1,0.6-1.4,1c-0.4,0.4-0.7,0.9-0.9,1.4c-0.2,0.5-0.3,1.1-0.3,1.7c0,0.6,0.1,1.2,0.3,1.7c0.2,0.5,0.5,1,0.9,1.4
		c0.4,0.4,0.9,0.7,1.4,1c0.5,0.2,1.1,0.4,1.8,0.4c0.6,0,1.2-0.1,1.8-0.4c0.5-0.2,1-0.6,1.4-1c0.4-0.4,0.7-0.9,0.9-1.4
		c0.2-0.5,0.3-1.1,0.3-1.7c0-0.6-0.1-1.2-0.3-1.7C229.5,107.5,229.2,107.1,228.8,106.6z M228.2,110.9c-0.1,0.4-0.3,0.7-0.6,1
		c-0.2,0.3-0.5,0.5-0.9,0.7c-0.4,0.2-0.7,0.3-1.2,0.3c-0.4,0-0.8-0.1-1.2-0.3c-0.3-0.2-0.6-0.4-0.9-0.7c-0.2-0.3-0.4-0.6-0.6-1
		c-0.1-0.4-0.2-0.7-0.2-1.1c0-0.4,0.1-0.8,0.2-1.1c0.1-0.4,0.3-0.7,0.6-1c0.2-0.3,0.5-0.5,0.9-0.7c0.4-0.2,0.7-0.3,1.2-0.3
		c0.4,0,0.8,0.1,1.2,0.3c0.3,0.2,0.6,0.4,0.9,0.7c0.2,0.3,0.4,0.6,0.6,1c0.1,0.4,0.2,0.7,0.2,1.1
		C228.4,110.2,228.3,110.6,228.2,110.9z"/>
	<path fill="#6E4199" d="M235.8,105.4c-0.4,0-0.7,0-1,0.1c-0.3,0.1-0.6,0.2-0.8,0.4c-0.2,0.1-0.4,0.3-0.6,0.5
		c-0.2,0.2-0.3,0.3-0.4,0.5l-0.1-1.3l-1.6,0c0,0.3,0,0.6,0,0.9c0,0.3,0,0.6,0,1l0,6.6l1.6,0l0-3.9c0-0.4,0-0.8,0.1-1.2
		c0.1-0.4,0.2-0.7,0.4-1.1c0.2-0.3,0.4-0.6,0.8-0.8c0.3-0.2,0.7-0.3,1.2-0.3c0.6,0,1.1,0.2,1.4,0.6c0.3,0.4,0.5,0.9,0.5,1.7l0,4.9
		l1.6,0l0-5.1c0-1.1-0.3-2-0.8-2.6C237.8,105.7,236.9,105.4,235.8,105.4z"/>
	<polygon fill="#6E4199" points="253.9,101.9 243.5,101.9 243.5,103.5 247.9,103.5 247.9,114 249.6,114 249.6,103.5 253.9,103.5 	
		"/>
	<path fill="#6E4199" d="M257.7,105.5c-0.4,0-0.7,0.1-1,0.2c-0.3,0.1-0.6,0.2-0.8,0.4c-0.2,0.1-0.4,0.3-0.6,0.5
		c-0.2,0.2-0.3,0.3-0.4,0.5l-0.1-1.4l-1.6,0c0,0.3,0,0.5,0,0.8c0,0.3,0,0.6,0,0.9l0,6.7l1.6,0l0-4.4c0-0.4,0.1-0.7,0.2-1
		c0.1-0.3,0.3-0.6,0.5-0.8c0.2-0.2,0.5-0.4,0.8-0.6c0.3-0.1,0.6-0.2,1-0.2c0.3,0,0.6,0,0.8,0.1l0.4-1.5c-0.1,0-0.3-0.1-0.4-0.1
		C258,105.5,257.9,105.5,257.7,105.5z"/>
	<path fill="#6E4199" d="M267.1,112.2l0-6.6h-1.6l0,3.9c0,0.4,0,0.8-0.1,1.2c-0.1,0.4-0.2,0.7-0.4,1.1c-0.2,0.3-0.4,0.6-0.8,0.8
		c-0.3,0.2-0.7,0.3-1.2,0.3c-0.6,0-1.1-0.2-1.4-0.5c-0.3-0.4-0.5-0.9-0.5-1.7l0-5l-1.6,0l0,5.1c0,1.1,0.3,2,0.8,2.6
		c0.5,0.6,1.3,1,2.4,1c0.4,0,0.7,0,1-0.1c0.3-0.1,0.6-0.2,0.8-0.4c0.2-0.1,0.4-0.3,0.6-0.5c0.2-0.2,0.3-0.3,0.4-0.5l0.1,1.3l1.6,0
		c0-0.3,0-0.6,0-0.9C267.1,112.9,267.1,112.6,267.1,112.2z"/>
	<path fill="#6E4199" d="M274.6,109.9c-0.3-0.2-0.6-0.4-0.9-0.5c-0.3-0.1-0.7-0.2-1.1-0.3c-0.7-0.2-1.2-0.3-1.6-0.5
		c-0.4-0.2-0.6-0.4-0.6-0.8c0-0.4,0.2-0.7,0.5-0.8c0.3-0.2,0.7-0.3,1.3-0.3c0.5,0,1,0.1,1.3,0.2c0.4,0.2,0.7,0.4,1,0.6l0.9-1.1
		c-0.4-0.3-0.8-0.6-1.4-0.8c-0.5-0.2-1.1-0.3-1.8-0.3c-0.4,0-0.8,0.1-1.2,0.2c-0.4,0.1-0.7,0.3-1.1,0.5c-0.3,0.2-0.6,0.5-0.8,0.8
		c-0.2,0.3-0.3,0.7-0.3,1.1c0,0.4,0.1,0.7,0.2,1c0.2,0.3,0.4,0.5,0.6,0.7c0.3,0.2,0.5,0.4,0.9,0.5c0.3,0.1,0.6,0.2,1,0.3
		c0.5,0.1,0.8,0.2,1.2,0.3c0.3,0.1,0.6,0.2,0.7,0.3c0.2,0.1,0.3,0.2,0.4,0.4c0.1,0.1,0.1,0.3,0.1,0.5c0,0.4-0.2,0.6-0.5,0.8
		c-0.4,0.2-0.8,0.3-1.4,0.3c-0.6,0-1-0.1-1.5-0.3c-0.4-0.2-0.8-0.4-1.1-0.7l-1,1.1c0.8,0.9,2,1.3,3.6,1.3c0.5,0,0.9-0.1,1.3-0.2
		c0.4-0.1,0.8-0.3,1.1-0.5c0.3-0.2,0.6-0.5,0.8-0.8c0.2-0.3,0.3-0.7,0.3-1.1c0-0.4-0.1-0.8-0.2-1.1
		C275.1,110.4,274.9,110.1,274.6,109.9z"/>
	<path fill="#6E4199" d="M281.9,112.3c-0.2,0.2-0.4,0.3-0.6,0.4c-0.2,0.1-0.5,0.1-0.8,0.1c-0.4,0-0.7-0.1-0.9-0.4
		c-0.2-0.3-0.3-0.7-0.3-1.4l0-4.2l2.5,0v-1.4l-2.5,0l0-2.8h-1.6l0,2.8h-1.5l0,1.4l1.5,0l0,4.3c0,1,0.2,1.8,0.6,2.3
		c0.4,0.5,1.1,0.7,2,0.7c0.5,0,0.9-0.1,1.3-0.2c0.4-0.2,0.7-0.4,1.1-0.7L281.9,112.3z"/>
</g>
</svg>
