<?xml version="1.0" encoding="utf-8"?>
<!-- Generator: Adobe Illustrator 18.1.0, SVG Export Plug-In . SVG Version: 6.00 Build 0)  -->
<!DOCTYPE svg PUBLIC "-//W3C//DTD SVG 1.1//EN" "http://www.w3.org/Graphics/SVG/1.1/DTD/svg11.dtd">
<svg version="1.1" id="Layer_1" xmlns="http://www.w3.org/2000/svg" xmlns:xlink="http://www.w3.org/1999/xlink" x="0px" y="0px"
	 viewBox="0 0 732.4 314" width="732.4" height="314" enable-background="new 0 0 732.4 314" xml:space="preserve">
<g>
	<path fill="#CB2026" d="M151.8,156.8c-2.8,25.1-25.5,43.1-50.5,40.2c-25.1-2.8-43.1-25.5-40.2-50.5c2.8-25.1,25.5-43.1,50.5-40.2
		C136.6,109.2,154.6,131.8,151.8,156.8z"/>
	<path fill="#CB2026" d="M190.4,61c-2.1,18.5-18.8,31.8-37.3,29.7c-18.5-2.1-31.8-18.8-29.7-37.3c2.1-18.5,18.8-31.8,37.3-29.7
		C179.2,25.8,192.5,42.5,190.4,61z"/>
	<path fill="#CB2026" d="M274.5,78c-1.6,14.3-14.6,24.6-28.9,23c-14.3-1.6-24.6-14.6-23-28.9c1.6-14.3,14.6-24.6,28.9-23
		C265.8,50.8,276.1,63.7,274.5,78z"/>
	<path fill="#CB2026" d="M314.3,23.5c-1.2,10.7-10.9,18.5-21.7,17.2c-10.7-1.2-18.5-10.9-17.2-21.7c1.2-10.7,10.9-18.5,21.7-17.2
		C307.8,3,315.5,12.7,314.3,23.5z"/>
	<path fill="#CB2026" d="M367.2,53.6c-1.1,9.7-9.8,16.6-19.5,15.5c-9.7-1.1-16.6-9.8-15.5-19.5c1.1-9.7,9.8-16.6,19.5-15.5
		C361.3,35.2,368.3,44,367.2,53.6z"/>
	<path fill="#CB2026" d="M401.9,16.5c-0.9,8.2-8.3,14-16.4,13.1c-8.2-0.9-14-8.3-13.1-16.4c0.9-8.2,8.3-14,16.4-13.1
		C397,1,402.8,8.4,401.9,16.5z"/>
	<path fill="#CB2026" d="M438.3,54.2c-0.9,7.7-7.8,13.2-15.5,12.4c-7.7-0.9-13.2-7.8-12.4-15.5c0.9-7.7,7.8-13.2,15.5-12.4
		C433.7,39.5,439.2,46.5,438.3,54.2z"/>
	<path fill="#CB2026" d="M477.3,44.4c-0.7,6.4-6.5,11.1-13,10.3c-6.4-0.7-11.1-6.5-10.3-13c0.7-6.4,6.5-11.1,13-10.3
		C473.4,32.1,478.1,37.9,477.3,44.4z"/>
	<path fill="#CB2026" d="M498.6,68.6c-0.5,4.5-4.5,7.7-9,7.2c-4.5-0.5-7.7-4.5-7.2-9c0.5-4.5,4.5-7.7,9-7.2
		C495.9,60.1,499.2,64.1,498.6,68.6z"/>
	<g>
		<path fill="#010101" d="M18.2,265.8c2.1-2.3,5-5,9.3-5c4.3,0,7.7,2.6,9,8c0.6,2.7,0.7,5,0.7,10.7c0,7.7-0.4,11.1-1.8,14.5
			c-1.4,3.3-3.9,4.9-8,4.9c-4.4,0-7-2.1-9.2-4.1V265.8z M17.3,220.5l-16.9,3.9c0.9,3.6,1.1,7.7,1.1,15.5v58.3
			c0,8.7-0.4,10.6-1.6,13.4h14.8c1.1-1.7,1.2-2.3,1.7-4.6c3.6,3.9,7.9,5.8,14,5.8c5.2,0,9.5-1.5,13.8-4.9
			C52,301.8,56,291.9,56,279.1c0-19.7-9.6-32-25-32c-5.8,0-10.2,1.6-13.4,5c0.2-1,0.4-3.7,0.4-5.5v-14.9
			C18,227.4,17.8,224.8,17.3,220.5z"/>
		<path fill="#010101" d="M79,247.2v64.5H62.5v-61.9L79,247.2z M80.9,231.3c0,5.7-4.6,10.2-10.2,10.2c-5.5,0-10.1-4.6-10.1-10.2
			c0-5.7,4.7-10.2,10.3-10.2C76.5,221.1,80.9,225.7,80.9,231.3z"/>
		<path fill="#010101" d="M113.9,259.6c3,0,5.5,1.2,7.1,3.3c2.2,2.8,3.3,8.4,3.3,16.9c0,14.9-3.1,21.3-10.2,21.3
			c-3.2,0-6.9-1.7-8.4-5.2c-1.4-3.2-2.1-8.6-2.1-15.9c0-6.3,0.6-10.7,1.7-14C106.8,262.1,110,259.6,113.9,259.6z M113.7,247.5
			c-17,0-28.3,13.2-28.3,33c0,19.8,11.2,32.6,28.3,32.6c9.7,0,16-3.3,20.8-8.7c5.4-6.1,7.9-13.5,7.9-24.4c0-10.2-2.2-17.1-7.3-23
			C129.7,250.5,122.6,247.5,113.7,247.5z"/>
		<path fill="#010101" d="M150.3,250.7l10-1.6v62.6h-10V250.7z M155.5,224c4.2,0,7.5,3.3,7.5,7.5c0,4.2-3.3,7.5-7.5,7.5
			c-4.2,0-7.5-3.3-7.5-7.4C148,227.4,151.3,224,155.5,224z"/>
		<path fill="#010101" d="M172.6,251.5l9.3-2.6c0,0,2.2,4.5,2.2,9.6c6.4-6.4,12.8-9.5,19.3-9.5c6.6,0,12.5,3.6,15,9
			c1,2.2,1.5,4.7,1.5,7.1v46.5h-9.7v-41.5c0-6.5-0.5-8.1-2.2-10.2c-1.4-1.6-3.9-2.6-6.8-2.6c-4.9,0-12.5,3.9-17,8.6v45.6h-9.4v-47.2
			C174.9,255.7,172.6,251.5,172.6,251.5z"/>
		<path fill="#010101" d="M262.3,232.9c-2.3-1.4-5.8-2.8-9.1-2.8c-5.4,0-8.4,3.8-8.4,10.8v9.5h17l-3,7.3h-14v54h-10.1v-54h-5.9v-7.3
			h5.9v-9.6c0-9.1,4.2-13,6.8-15c3-2.2,6.3-3.2,10.8-3.2c5.3,0,10,1.2,13.5,3.6L262.3,232.9z"/>
		<path fill="#010101" d="M298.8,264.3c2,4.1,2.8,9.8,2.8,18.5c0,6-0.5,9.5-1.8,13.3c-2.1,5.9-6.9,9.2-13.3,9.2
			c-5.3,0-10.2-2.5-12.4-6.2c-2.3-3.8-3.8-11.4-3.8-20.1c0-7.3,1-12.2,3-16c2.1-4.1,7.1-6.6,12.5-6.6
			C290.8,256.4,296.2,258.9,298.8,264.3z M259.8,280.7c0,20.2,9.6,32.6,26.4,32.6c15.4,0,26.3-10.8,26.3-31.2
			c0-10-1.8-17.2-5.7-22.8c-4.2-6-10.8-10.7-21-10.7C269.8,248.6,259.8,260.7,259.8,280.7z"/>
		<path fill="#010101" d="M321.9,251.4l9.6-2.6c0,0,2.3,4.8,2,10c4.4-6.3,10.9-10.2,17.2-10.2c1.6,0,3.3,0.6,3.3,0.6l-3.9,10.5
			c-0.6-0.2-1.7-0.5-2.7-0.5c-3.7,0-7.4,1.6-10.2,4.4c-2.8,2.8-3.6,4.7-3.6,9.7v38.4H324v-47.2C324,255.5,321.9,251.4,321.9,251.4z"
			/>
		<path fill="#010101" d="M356.7,251.1l9.3-2.2c0,0,2.2,4.8,2.2,9.1c4.1-4.6,11.6-9.2,17.8-9.2c6,0,12.1,3.7,14.3,10.2
			c5.9-6.3,13.4-10.2,19.7-10.2c9.1,0,15.4,6.9,15.4,16.6v46.3h-9.8v-45.3c0-5.9-2.7-9-7.9-9c-5.5,0-9.8,3.6-16.2,9.5v44.8h-9.7
			v-43.6c0-3.7-0.4-6.1-1.7-7.9c-1.5-1.7-3.4-2.5-6.3-2.5c-4.7,0-9.2,2.3-15.6,8.1v45.8H359v-47.5
			C359,255.3,356.7,251.1,356.7,251.1z"/>
		<path fill="#010101" d="M481.2,296.5c-2.8,5.8-8.6,9.6-14.9,9.6c-7,0-10.6-3.9-10.6-11.2c0-9.4,5.5-14.6,21-14.6
			c1.7,0,3.2,0.1,4.8,0.2L481.2,296.5z M452.1,263.9c3.9-3.6,12.7-7.3,19.6-7.3c3.8,0,6.3,1.1,8.2,3.3c1.7,2,2,4.2,2,9.6v4.3
			c0,0-1.7-0.1-4.3-0.1c-20.5,0-32.5,8.1-32.5,22c0,8.2,4.5,17.5,19.7,17.5c7,0,11.8-2.3,17.7-8.2c1.1,4.3,4.2,7.6,8.4,9l4.9-6.9
			c-4.6-2.5-5.2-5-4.9-15l0.5-20.2c0.1-5.5,0-10.2-1.3-13.5c-2.6-6.3-8.5-9.6-17-9.6c-8.9,0-17.6,2.8-25.7,8.2L452.1,263.9z"/>
		<path fill="#010101" d="M531.9,250.4l-3,7.3h-12.8v39.5c0,6.8,1.9,9.1,7.9,9.1c2.7,0,4.3-0.4,6-1.2l1.4,6.2
			c-3.1,1.6-6.5,2.5-10.8,2.5c-3.2,0-5.7-0.6-8-1.7c-4.3-2.1-5.9-6-5.9-12.2v-42.1h-8v-7.3h8c0-5.9,1-15.5,1-15.5l10.1-2.2
			c0,0-1.2,9.6-1.2,17.7H531.9z"/>
		<path fill="#010101" d="M539,250.7l10-1.6v62.6h-10V250.7z M544.2,224c4.2,0,7.5,3.3,7.5,7.5c0,4.2-3.3,7.5-7.5,7.5
			c-4.2,0-7.5-3.3-7.5-7.4C536.7,227.4,540,224,544.2,224z"/>
		<path fill="#010101" d="M602.1,255.5l-5.3,6.6c-4.3-3.6-7-4.9-11.7-4.9c-4.8,0-9.4,2.7-11.6,6.9c-2.3,4.3-3.4,11.1-3.4,20.1
			c0,13.8,5.3,21.3,15.1,21.3c4.9,0,9.6-2.3,13.2-6.6l5.3,6.1c-5.7,5.8-11.1,8.1-18.7,8.1c-8.7,0-15.3-3.1-19.6-9.2
			c-4.1-5.9-5.9-12.7-5.9-21.8c0-13.4,3.9-20.8,9.2-26.1c4.8-4.8,10.1-7.1,16.6-7.1C593.2,248.8,597.7,251.8,602.1,255.5z"/>
		<path fill="#010101" d="M648.6,253l-3.6,7.1c-5.4-2.6-10-4.4-15.4-4.4c-7,0-11.6,4.1-11.6,10.1c0,4.7,2.3,7.5,8.9,8.9l8.1,1.7
			c11.1,2.3,16.4,8,16.4,17.1c0,11.9-9.4,20.1-23.1,20.1c-7.7,0-16.2-2.3-22.5-6.2l3.7-7.1c6.3,3.8,12.7,5.8,19.4,5.8
			c7.5,0,12.4-4.1,12.4-10.6c0-5.5-3.1-8.6-10.1-10.1l-7.6-1.6c-10.1-2.1-15.5-8.4-15.5-16.8c0-11.1,9-18.8,21.8-18.8
			C636.4,248.1,643.5,250,648.6,253z"/>
		<path fill="#010101" d="M660.8,312.8c-3.2,0-5.8-2.7-5.8-6.1c0-3.2,2.5-5.8,5.7-5.8c3.2,0,5.9,2.6,5.9,5.8
			C666.5,310,663.9,312.8,660.8,312.8z"/>
		<path fill="#010101" d="M685.9,312.6c-10.2,0-15.9-7.2-15.9-19.2c0-13.6,8.1-20.1,16.5-20.1c4.1,0,7,1,10.3,4.1l-4.1,5.4
			c-2.2-2-4.1-2.9-6.3-2.9c-2.6,0-4.7,1.3-5.9,3.8c-1.1,2.3-1.6,5.8-1.6,10.4c0,5.1,0.8,8.3,2.5,10.2c1.2,1.3,3,2.1,4.9,2.1
			c2.6,0,5.1-1.3,7.5-3.7l3.8,4.9C694.5,311.1,690.9,312.6,685.9,312.6z"/>
		<path fill="#010101" d="M721.3,294.1l-0.1,8.9c-1.6,2.4-4.1,3.9-6.7,3.9c-3.2,0-5.2-2.2-5.2-5.8c0-4.7,2.4-7.1,10.6-7.1
			C720.4,294,721.3,294.1,721.3,294.1z M732.4,308.1c-2.9-2-3.3-3.6-3.2-8.6l0.2-10.7c0.1-5.5,0.1-7.5-0.6-9.2
			c-1.6-4.1-5.5-6.2-11.4-6.2c-5.6,0-10.3,1.6-15.9,5.1l3.6,5.8c0,0,5.8-4.3,11.1-4.3c4.4,0,5.2,2.3,5.2,6.6v2h-2.5
			c-12,0-18.5,4.4-18.5,13c0,6.5,3.8,11.2,12.4,11.2c4,0,7.2-1.2,10.3-4.6c0.9,2.4,2.8,4.1,5.1,5L732.4,308.1z"/>
	</g>
</g>
</svg>
