<?xml version="1.0" encoding="utf-8"?>
<!-- Generator: Adobe Illustrator 16.0.0, SVG Export Plug-In . SVG Version: 6.00 Build 0)  -->
<!DOCTYPE svg PUBLIC "-//W3C//DTD SVG 1.1//EN" "http://www.w3.org/Graphics/SVG/1.1/DTD/svg11.dtd">
<svg version="1.1" id="Layer_1" xmlns="http://www.w3.org/2000/svg" xmlns:xlink="http://www.w3.org/1999/xlink" x="0px" y="0px"
	 width="706px" height="225.02px" viewBox="-4.562 276 706 225.02" enable-background="new -4.562 276 706 225.02"
	 xml:space="preserve">
<title>logo-AO3</title>
<g id="Symbols">
	<g id="Nav-Home">
		<g id="Group">
			<path id="Line" fill="none" stroke="#D7D7D7" stroke-linecap="square" d="M336.686,373.128V492.46"/>
			<g id="Adaptive-Oncology">
				<text transform="matrix(1 0 0 1 372.2012 368.8083)" font-family="'Avenir-Heavy'" font-size="51.1421"> </text>
				<text transform="matrix(1 0 0 1 372.2012 430.1794)" font-family="'Avenir-Heavy'" font-size="51.1421">Research </text>
				<text transform="matrix(1 0 0 1 372.2012 491.5505)" font-family="'Avenir-Heavy'" font-size="51.1421">Laboratories</text>
			</g>
			<g id="OICR-Logo_CMYK_ENGLISH">
				<path id="Fill-1" fill="#61B345" d="M128.139,303.233v-23.865h-0.284c-5.682,0-11.081,0.283-16.763,1.137l3.125,23.582
					C118.763,303.519,123.309,303.233,128.139,303.233L128.139,303.233"/>
				<path id="Fill-2" fill="#61B345" d="M48.585,396.71l23.298,3.126c0.284-2.558,0.853-4.831,1.421-7.104
					c0.568-2.272,1.42-4.547,2.273-6.818l-43.755-18.469c-1.705,4.263-3.125,8.521-4.262,12.785l-23.298-6.25
					c-1.42,5.396-2.557,10.797-3.125,16.479l23.866,3.125L48.585,396.71"/>
				<path id="Fill-3" fill="#61B345" d="M161.098,283.914l-6.251,23.016c4.262,1.137,8.808,2.557,12.786,4.262l9.092-21.877
					C171.894,287.039,166.496,285.334,161.098,283.914"/>
				<path id="Fill-4" fill="#61B345" d="M79.27,470.298c-2.841-1.988-5.398-4.546-7.955-6.815l-17.047,17.047
					c3.125,3.125,6.535,6.251,10.228,9.092L79.27,470.298"/>
				<path id="Fill-5" fill="#61B345" d="M50.858,427.679l22.73-5.967c-1.421-4.83-1.989-9.66-1.989-14.49H48.301
					c0,3.41,0.284,7.104,0.853,10.516l-23.866,3.125c-0.568-4.546-0.853-9.095-0.853-13.641H0c0,5.686,0.284,11.081,1.137,16.479
					c0.568,5.396,1.705,11.081,3.125,16.479L50.858,427.679"/>
				<path id="Fill-6" fill="#61B345" d="M82.964,441.317c-1.421-1.988-2.841-3.979-3.978-6.251
					c-1.136-1.988-2.273-4.265-3.125-6.534l-21.877,9.092c1.42,3.125,2.841,6.535,4.546,9.376l-41.482,24.15
					c2.841,4.83,5.967,9.376,9.376,13.922c3.41,4.546,7.103,8.521,11.081,12.502l17.047-17.048
					c-3.41-3.409-6.251-6.819-9.092-10.229L82.964,441.317"/>
				<path id="Fill-7" fill="#61B345" d="M142.629,352.388c2.273,0.566,4.546,1.42,6.819,2.271l9.092-21.595
					c-3.125-1.42-6.535-2.558-9.944-3.408L142.629,352.388"/>
				<path id="Fill-8" fill="#61B345" d="M117.343,327.953l-3.125-23.582c-4.546,0.567-8.808,1.42-13.354,2.559l-6.25-23.016
					c-5.398,1.421-10.797,3.125-15.911,5.397l18.468,44.039c-3.125,1.42-6.25,2.84-9.376,4.545l11.649,20.174
					c1.989-1.137,4.262-2.272,6.535-3.409c2.273-0.854,4.546-1.705,7.103-2.271c2.273-0.568,4.83-1.139,7.104-1.422
					c2.557-0.281,5.114-0.566,7.671-0.566h0.284v-23.299h-0.284C124.162,327.101,120.752,327.384,117.343,327.953"/>
				<path id="Fill-9" fill="#61B345" d="M128.139,327.101c3.41,0,6.819,0.282,10.513,0.566l3.125-23.866
					c-4.546-0.565-9.092-0.853-13.638-0.853V327.101"/>
				<path id="Fill-10" fill="#61B345" d="M64.496,324.827l-14.49-19.036c-4.546,3.41-8.523,7.104-12.501,11.081l33.811,33.812
					c2.557-2.56,5.114-4.83,7.955-6.82c2.841-2.272,5.683-3.979,8.808-5.965l-11.933-20.741
					C71.883,319.431,68.189,321.985,64.496,324.827"/>
				<path id="Fill-11" fill="#61B345" d="M82.964,372.844c1.42-1.986,3.125-3.978,4.83-5.682l-16.479-16.479
					c-2.557,2.558-4.83,5.112-6.819,7.955L82.964,372.844"/>
				<path id="Fill-12" fill="#61B345" d="M26.423,329.373c-3.409,4.546-6.535,9.092-9.376,13.922l20.741,11.936l20.741,12.217
					c1.705-3.125,3.693-5.967,5.683-8.809L26.423,329.373"/>
				<path id="Fill-13" fill="#61B345" d="M192.067,296.699l-23.866,41.196c3.125,1.705,5.966,3.692,8.808,5.967l28.696-37.787
					C201.443,302.666,196.897,299.541,192.067,296.699"/>
				<path id="Fill-14" fill="#1A1919" d="M180.134,317.156c-3.978-2.273-7.956-4.263-12.217-5.968l-9.376,22.162
					c3.125,1.42,6.25,2.842,9.376,4.547L180.134,317.156"/>
				<path id="Fill-15" fill="#1A1919" d="M138.652,327.953l-3.125,23.014c2.557,0.284,4.83,0.854,7.103,1.422l5.967-22.445
					C145.471,329.089,142.062,328.235,138.652,327.953"/>
				<path id="Fill-16" fill="#1A1919" d="M127.855,303.233c-4.546,0-9.092,0.283-13.638,0.854l3.125,23.866
					c3.409-0.568,7.103-0.568,10.796-0.854h0.284L127.855,303.233L127.855,303.233"/>
				<path id="Fill-17" fill="#1A1919" d="M31.822,367.444l22.162,9.094c1.42-3.125,2.841-6.25,4.546-9.094l-20.741-11.932
					C35.515,359.206,33.526,363.185,31.822,367.444"/>
				<path id="Fill-18" fill="#1A1919" d="M54.552,480.526l17.047-17.05c-2.557-2.558-4.831-5.111-7.104-7.953l-19.036,14.771
					C48.301,473.707,51.142,477.117,54.552,480.526"/>
				<path id="Fill-19" fill="#1A1919" d="M58.529,367.444l20.173,11.649c1.136-2.272,2.557-4.263,3.978-6.252l-18.468-14.204
					C62.223,361.479,60.518,364.319,58.529,367.444"/>
				<path id="Fill-20" fill="#1A1919" d="M48.017,406.937L48.017,406.937h23.298l0,0c0-2.557,0.284-4.827,0.568-7.387l-23.298-3.126
					C48.301,400.12,48.017,403.529,48.017,406.937"/>
				<path id="Fill-21" fill="#1A1919" d="M32.106,446.716l22.162-9.092c-1.421-3.125-2.557-6.535-3.41-9.944l-23.014,6.251
					C28.696,438.476,30.117,442.738,32.106,446.716"/>
				<path id="Fill-22" fill="#1A1919" d="M79.27,343.862l14.207,18.469c1.989-1.421,3.978-2.841,6.25-4.264l-11.649-20.172
					C84.668,339.603,81.827,341.59,79.27,343.862"/>
				<path id="Fill-23" fill="#1A1919" d="M107.398,462.911c1.705,0,3.125-0.568,4.262-1.705c0.568-0.568,0.853-1.137,1.137-1.989
					c0.284-0.852,0.568-1.704,0.568-2.271c0-0.854,0-1.705-0.568-2.273c-0.284-0.852-0.568-1.42-1.137-1.988
					c-1.137-1.137-2.557-1.703-4.262-1.703c-0.853,0-1.705,0.282-2.273,0.566s-1.421,0.854-1.989,1.421
					c-0.568,0.568-0.853,1.14-1.137,1.988c-0.284,0.853-0.568,1.705-0.568,2.271c0,0.854,0,1.705,0.568,2.272
					c0.284,0.853,0.568,1.421,1.137,1.989c0.568,0.565,1.136,1.137,1.989,1.421C105.693,462.911,106.546,462.911,107.398,462.911z
					 M107.398,464.899c-1.137,0-2.273-0.284-3.41-0.568c-1.989-0.854-3.409-2.272-4.262-4.262c-0.853-1.988-0.853-4.265,0-6.534
					c0.853-1.989,2.273-3.41,4.262-4.262c1.989-0.854,4.546-0.854,6.535,0c0.853,0.28,1.989,0.852,2.557,1.701
					c3.125,3.409,3.125,8.523,0,11.649c-0.852,0.853-1.705,1.42-2.557,1.704C109.671,464.899,108.535,464.899,107.398,464.899z"/>
				<path id="Fill-24" fill="#1A1919" d="M118.195,454.103h1.989v1.704l0,0c0.284-0.565,0.852-1.137,1.42-1.421
					c1.136-0.564,2.273-0.564,3.693-0.28c0.568,0,0.853,0.28,1.137,0.564c0.284,0.284,0.568,0.854,0.853,1.137
					c0.284,0.568,0.284,1.14,0.284,1.705v6.818h-1.989v-5.966c0-0.284,0-0.854-0.284-1.14c0-0.281-0.284-0.565-0.568-0.853
					s-0.568-0.284-0.853-0.568c-0.284,0-0.568,0-0.853,0s-0.852,0-1.136,0.284c-0.284,0-0.568,0.284-0.853,0.568
					c-0.285,0.284-0.568,0.565-0.568,1.137c-0.284,0.568-0.284,1.137-0.284,1.42v5.398h-1.989L118.195,454.103"/>
				<path id="Fill-25" fill="#1A1919" d="M136.095,455.807h-2.841v4.83c0,0.284,0,0.568,0,0.854s0,0.565,0.284,0.853
					c0,0.284,0.284,0.568,0.568,0.568s0.568,0.284,0.852,0.284h0.853c0.284,0,0.568-0.284,0.568-0.284v1.704
					c-0.284,0-0.568,0.284-0.853,0.284h-0.852c-0.568,0-1.137,0-1.705-0.284c-0.284-0.284-0.568-0.568-0.852-0.854
					c-0.284-0.281-0.284-0.853-0.284-1.137s0-0.853,0-1.137v-5.398h-2.273v-1.705h2.273v-2.841h1.989v2.841h2.841L136.095,455.807"
					/>
				<path id="Fill-26" fill="#1A1919" d="M144.334,459.501c-0.568,0-0.853,0-1.421,0s-0.852,0-1.42,0.284
					c-0.284,0-0.568,0.284-0.853,0.565c-0.285,0.284-0.284,0.568-0.284,1.14c0,0.566,0.284,1.137,0.568,1.137
					c0.568,0.284,1.137,0.568,1.705,0.284c0.568,0,0.853,0,1.421-0.284c0.284-0.284,0.568-0.568,0.852-0.853
					c0.284-0.285,0.284-0.568,0.568-0.854c0-0.284,0-0.853,0-1.137v-0.568L144.334,459.501z M138.652,455.523
					c0.568-0.568,1.136-0.854,1.989-1.14c0.853-0.282,1.421-0.282,2.273-0.282c0.568,0,1.421,0,1.989,0.282
					c0.568,0.284,0.853,0.568,1.421,0.854c0.284,0.284,0.568,0.565,0.852,1.137c0.284,0.284,0.284,0.853,0.284,1.421v5.398
					c0,0.281,0,0.565,0,1.136c0,0.284,0,0.568,0,0.853h-1.705c0-0.565,0-1.137,0-1.701l0,0c-0.284,0.564-0.853,1.136-1.42,1.42
					c-0.568,0.281-1.421,0.565-1.989,0.565c-0.568,0-0.852,0-1.42-0.284c-0.284-0.281-0.568-0.281-0.853-0.565
					c-0.285-0.284-0.568-0.568-0.852-0.854c-0.284-0.281-0.284-0.853-0.284-1.421c0-0.565,0-1.137,0.568-1.705
					c0.284-0.565,0.852-0.853,1.136-1.137c0.568-0.284,1.137-0.567,1.705-0.567c0.853,0,1.421-0.281,2.273-0.281h1.421v-0.568
					c0-0.284,0-0.568,0-0.853c-0.284-0.568-0.568-1.14-1.137-1.14c-1.136-0.565-1.42-0.565-1.989-0.565c-0.284,0-0.568,0-0.852,0
					s-0.568,0.281-0.853,0.281s-0.568,0.284-0.568,0.284l-0.568,0.568L138.652,455.523L138.652,455.523z"/>
				<path id="Fill-27" fill="#1A1919" d="M150.017,454.103h1.989v1.704l0,0c0-0.281,0.284-0.565,0.568-0.853
					c0.284-0.285,0.568-0.284,0.568-0.568c0.284-0.28,0.568-0.28,0.853-0.28c0.284,0,0.568,0,0.852,0c0.284,0,0.568,0,0.853,0v2.271
					h-0.568h-0.568c-0.852,0-1.705,0.284-2.273,0.854c-0.568,0.853-0.852,1.702-0.852,2.557v5.114h-1.989L150.017,454.103"/>
				<path id="Fill-28" fill="#1A1919" d="M158.256,464.615h1.989V454.1h-1.989V464.615z M157.688,450.409
					c0-0.854,0.568-1.42,1.42-1.42c0.853,0,1.421,0.564,1.421,1.42c0,0.853-0.568,1.421-1.421,1.421
					c-0.284,0-0.852-0.284-1.136-0.284C157.688,451.261,157.688,450.693,157.688,450.409z"/>
				<path id="Fill-29" fill="#1A1919" d="M164.791,459.217c0,0.568,0,1.137,0.284,1.421c0.284,0.284,0.284,0.854,0.568,1.14
					c0.284,0.281,0.568,0.565,1.136,0.853c0.568,0.284,0.853,0.284,1.421,0.284c0.568,0,0.852,0,1.42-0.284
					c0.853-0.284,1.421-1.137,1.705-1.989c0.284-0.565,0.284-0.853,0.284-1.421c0-0.564,0-0.852-0.284-1.42
					c0-0.565-0.284-0.853-0.568-1.137c-0.284-0.284-0.568-0.568-1.137-0.854c-0.569-0.282-0.853-0.281-1.42-0.281
					c-0.568,0-0.853,0-1.421,0.281c-0.284,0.284-0.852,0.284-1.136,0.854c-0.284,0.284-0.568,0.853-0.568,1.137
					C164.791,458.365,164.791,458.933,164.791,459.217z M162.802,459.217c0-1.42,0.568-2.841,1.42-3.69
					c1.137-1.14,2.557-1.704,3.978-1.704c0.852,0,1.42,0,2.273,0.564c0.568,0.284,1.136,0.568,1.705,1.14
					c0.569,0.566,0.853,1.137,1.137,1.704c0.284,0.566,0.568,1.422,0.568,2.271c0,0.854,0,1.421-0.568,2.273
					c-0.284,0.565-0.568,1.137-1.137,1.704c-0.568,0.565-1.136,0.853-1.705,1.137c-0.569,0.284-1.421,0.565-2.273,0.565
					c-1.421,0-2.841-0.565-3.978-1.702c-0.568-0.567-0.852-1.139-1.136-1.704C162.802,460.922,162.518,460.069,162.802,459.217
					L162.802,459.217z"/>
				<polygon id="Fill-30" fill="#1A1919" points="182.975,464.615 185.248,464.615 185.248,448.989 182.975,448.989 				"/>
				<path id="Fill-31" fill="#1A1919" d="M188.373,454.103h1.989v1.704l0,0c0.284-0.565,0.852-1.137,1.42-1.421
					c1.137-0.564,2.273-0.564,3.694-0.28c0.568,0,0.852,0.28,1.136,0.564c0.284,0.284,0.568,0.854,0.853,1.137
					c0.284,0.568,0.284,1.14,0.284,1.705v6.818h-1.989v-5.966c0-0.284,0-0.854-0.284-1.14c-0.284-0.565-0.568-1.137-1.421-1.421
					c-0.284,0-0.568,0-0.853,0c-0.284,0-0.852,0-1.136,0.284c-0.284,0-0.568,0.284-0.853,0.568
					c-0.285,0.284-0.568,0.565-0.568,1.137s-0.284,0.854-0.284,1.42v5.398h-1.989L188.373,454.103"/>
				<path id="Fill-32" fill="#1A1919" d="M206.273,456.66c-0.284-0.284-0.568-0.568-0.853-0.854
					c-0.284-0.281-0.852-0.281-1.136-0.281c-0.568,0-0.853,0-1.137,0.281c-0.284,0.284-0.568,0.568-0.568,0.854s0,0.565,0.284,0.853
					c0.284,0.284,0.568,0.284,0.568,0.568c0.284,0,0.568,0.284,0.853,0.284l0.853,0.284c0.284,0,0.852,0.281,1.136,0.281
					s0.568,0.283,0.853,0.567s0.568,0.568,0.568,0.853c0.284,0.284,0.284,0.854,0.284,1.14c0,0.565,0,1.137-0.284,1.421
					c-0.284,0.284-0.568,0.853-0.852,1.136c-0.284,0.284-0.853,0.568-1.421,0.568s-1.136,0.281-1.42,0.281
					c-0.853,0-1.42,0-2.273-0.281c-0.853-0.284-1.421-0.854-1.705-1.42l1.42-1.14c0.284,0.284,0.568,0.568,1.137,0.854
					c0.568,0.284,0.852,0.284,1.42,0.284h0.568c0.284,0,0.568,0,0.568-0.284c0.284,0,0.284-0.284,0.568-0.568
					c0-0.284,0.284-0.284,0.284-0.565c0-0.284,0-0.568-0.284-0.568c-0.284-0.284-0.284-0.284-0.568-0.568
					c-0.284,0-0.568-0.284-0.853-0.284l-0.853-0.281l-1.136-0.284c-0.284,0-0.568-0.284-0.853-0.568
					c-0.284-0.282-0.568-0.564-0.568-0.852c-0.284-0.284-0.284-0.854-0.284-1.421c0-0.568,0-0.854,0.284-1.421
					c0.284-0.284,0.568-0.854,0.853-0.854c0.284-0.284,0.853-0.564,1.136-0.564c0.568,0,0.853-0.284,1.421-0.284
					c0.568,0,1.42,0,1.989,0.284c0.568,0.28,1.137,0.852,1.42,1.42L206.273,456.66"/>
				<path id="Fill-33" fill="#1A1919" d="M216.501,455.807h-2.841v5.686c0,0.284,0,0.565,0.284,0.853
					c0,0.284,0.284,0.284,0.568,0.568c0.284,0,0.568,0.284,0.852,0.284h0.568c0.284,0,0.568,0,0.568-0.284v1.704
					c-0.284,0-0.568,0.284-0.853,0.284h-0.852c-0.568,0-1.137,0-1.705-0.284c-0.284-0.284-0.568-0.568-0.852-0.854
					c-0.284-0.281-0.284-0.853-0.284-1.137c0-0.568,0-0.853,0-1.137v-5.398h-2.273v-1.705h2.273v-2.841h1.989v2.841h2.841
					L216.501,455.807"/>
				<path id="Fill-34" fill="#1A1919" d="M218.774,464.615h1.989V454.1h-1.989V464.615z M218.206,450.409
					c0-0.854,0.568-1.42,1.421-1.42c0.852,0,1.42,0.564,1.42,1.42c0,0.853-0.568,1.421-1.42,1.421c-0.284,0-0.853-0.284-1.137-0.284
					C218.49,451.261,218.206,450.693,218.206,450.409z"/>
				<path id="Fill-35" fill="#1A1919" d="M229.571,455.807h-2.841v4.83c0,0.284,0,0.568,0,0.854s0,0.565,0.284,0.853
					c0,0.284,0.284,0.284,0.568,0.568c0.284,0,0.568,0.284,0.853,0.284h0.853c0.284,0,0.568-0.284,0.568-0.284v1.704
					c-0.284,0-0.568,0.284-0.852,0.284h-0.853c-0.568,0-1.137,0-1.705-0.284c-0.284-0.284-0.568-0.568-0.853-0.854
					c-0.284-0.281-0.284-0.853-0.284-1.137s0-0.853,0-1.137v-5.398h-2.273v-1.705h2.273v-2.841h1.989v2.841h2.841L229.571,455.807"
					/>
				<path id="Fill-36" fill="#1A1919" d="M240.936,464.615h-1.989v-1.704l0,0c-0.284,0.565-0.853,1.136-1.421,1.42
					c-0.568,0.284-1.42,0.568-2.273,0.568c-0.568,0-0.853,0-1.42-0.284c-0.568,0-0.853-0.284-1.137-0.568
					c-0.284-0.283-0.568-0.852-0.852-1.136c-0.284-0.568-0.284-1.137-0.284-1.705v-6.819h1.989v6.251c0,0.284,0,0.854,0.284,1.14
					c0,0.281,0.284,0.565,0.568,0.853c0.284,0.284,0.568,0.284,0.853,0.568c0.284,0,0.568,0,0.853,0s0.852,0,1.136-0.284
					c0.284,0,0.568-0.284,0.853-0.568c0.285-0.283,0.568-0.565,0.568-1.137c0.284-0.568,0.284-1.137,0.284-1.421v-5.114h1.989
					L240.936,464.615"/>
				<path id="Fill-37" fill="#1A1919" d="M249.744,455.807h-2.841v5.686c0,0.284,0,0.565,0.284,0.853
					c0,0.284,0.284,0.284,0.568,0.568c0.284,0,0.568,0.284,0.853,0.284h0.852c0.284,0,0.568,0,0.568-0.284v1.704
					c-0.284,0-0.568,0.284-0.853,0.284h-0.852c-0.568,0-1.137,0-1.705-0.284c-0.284-0.284-0.568-0.568-0.852-0.854
					c-0.284-0.281-0.284-0.853-0.284-1.137c0-0.568,0-0.853,0-1.137v-5.398h-2.273v-1.705h2.273v-2.841h1.705v2.841h2.841
					L249.744,455.807"/>
				<path id="Fill-38" fill="#1A1919" d="M259.688,458.365c0-0.284,0-0.854-0.284-1.14c0-0.281-0.284-0.565-0.568-0.853
					c-0.284-0.284-0.568-0.568-0.852-0.568c-0.284-0.281-0.853-0.281-1.137-0.281c-0.568,0-0.852,0-1.42,0.281
					c-0.284,0.284-0.853,0.284-1.137,0.568s-0.568,0.568-0.568,0.853c0,0.285-0.284,0.568-0.284,1.14H259.688z M253.438,460.069
					c0,0.565,0,0.853,0.284,1.137c0.284,0.284,0.568,0.568,0.852,0.853c0.284,0.285,0.853,0.568,1.137,0.568
					c0.284,0.284,0.852,0.284,1.42,0.284c0.568,0,1.137-0.284,1.705-0.568s0.853-0.565,1.137-1.137l1.42,1.137
					c-1.136,1.421-2.841,2.272-4.546,2.272c-0.852,0-1.42,0-2.273-0.568c-0.568-0.283-1.136-0.564-1.705-1.136
					c-0.569-0.569-0.853-1.137-1.137-1.705c-0.284-0.568-0.284-1.421-0.284-2.272c0-0.853,0-1.421,0.284-2.271
					c0.284-0.568,0.568-1.137,1.137-1.705c0.569-0.568,1.136-0.852,1.705-1.136c0.569-0.284,1.421-0.568,2.273-0.568
					c0.853,0,1.705,0.284,2.273,0.568c1.137,0.564,1.989,1.704,2.557,3.125c0.284,0.565,0.284,1.421,0.284,1.986v0.567
					L253.438,460.069z"/>
				<path id="Fill-39" fill="#1A1919" d="M103.137,479.674h-2.273v-1.704h2.273v-2.271c0-1.14,0.284-2.272,0.852-3.125
					c0.853-0.854,1.705-1.14,2.841-1.14h0.568c0.284,0,0.568,0,0.852,0l-0.284,1.705h-0.568h-0.568c-0.284,0-0.568,0-0.853,0.284
					c-0.284,0-0.284,0.283-0.568,0.567c0,0.284-0.284,0.565-0.284,0.853s0,0.568,0,0.854v2.271h2.273v1.704h-2.273v8.811h-1.989
					L103.137,479.674"/>
				<path id="Fill-40" fill="#1A1919" d="M111.092,483.367c0,0.565,0,0.853,0.284,1.421s0.284,0.853,0.568,1.137
					c0.284,0.284,0.568,0.568,1.136,0.854c0.853,0.281,1.989,0.281,2.841,0c0.284-0.284,0.853-0.284,1.137-0.854
					c0.284-0.284,0.568-0.853,0.568-1.137c0.284-0.568,0.284-0.854,0.284-1.421c0-0.567,0-1.136-0.284-1.42s-0.284-0.854-0.568-1.14
					c-0.284-0.281-0.568-0.565-1.137-0.853c-0.569-0.285-0.852-0.284-1.42-0.284s-0.853,0-1.421,0.284
					c-0.284,0.284-0.852,0.284-1.136,0.853c-0.284,0.284-0.568,0.854-0.568,1.14C111.092,482.231,111.092,482.8,111.092,483.367z
					 M108.819,483.367c0-0.854,0-1.42,0.568-2.272c0.284-0.565,0.568-1.137,1.136-1.705c0.568-0.565,1.137-0.853,1.705-1.136
					c1.42-0.568,2.841-0.568,4.262,0c0.568,0.283,1.137,0.567,1.705,1.136c0.568,0.568,0.853,1.14,1.137,1.705
					c0.568,1.421,0.568,2.841,0,4.265c-0.284,0.565-0.568,1.137-1.137,1.704c-0.568,0.566-1.136,0.854-1.705,1.137
					c-1.42,0.565-2.841,0.565-4.262,0c-0.568-0.283-1.137-0.567-1.705-1.137c-0.568-0.567-0.852-1.139-1.136-1.704
					C108.819,484.788,108.819,483.935,108.819,483.367L108.819,483.367z"/>
				<path id="Fill-41" fill="#1A1919" d="M122.457,477.969h1.989v1.704l0,0c0-0.284,0.284-0.565,0.568-0.853
					c0.284-0.284,0.568-0.284,0.852-0.567c0.284-0.284,0.568-0.284,0.853-0.284c0.285,0,0.568,0,0.852-0.284
					c0.284,0,0.568,0,0.853,0.284v2.272h-0.568h-0.568c-0.853,0-1.705,0.284-2.273,0.853c-0.568,0.854-0.853,1.705-0.853,2.56v5.111
					h-1.989L122.457,477.969"/>
				<path id="Fill-42" fill="#1A1919" d="M148.312,476.264c-0.568-0.565-1.137-1.137-1.705-1.421s-1.421-0.565-1.989-0.565
					c-0.852,0-1.705,0.281-2.273,0.565c-0.568,0.284-1.42,0.854-1.705,1.421c-0.568,0.568-0.853,1.14-1.136,1.989
					c-0.568,1.42-0.568,3.125,0,4.83c0.568,1.42,1.42,2.557,2.841,3.409c0.853,0.284,1.705,0.565,2.557,0.565
					c0.853,0,1.705-0.281,2.273-0.565c0.568-0.284,1.137-0.854,1.705-1.421l1.705,1.421c-0.284,0.284-0.284,0.565-0.568,0.565
					c-0.284,0.284-0.852,0.568-1.136,0.854c-0.568,0.283-1.137,0.567-1.705,0.852c-0.852,0.284-1.42,0.284-2.273,0.284
					c-1.136,0-2.273-0.284-3.409-0.565c-0.853-0.567-1.705-1.139-2.557-1.988c-0.568-0.854-1.137-1.705-1.705-2.561
					c-0.284-0.852-0.568-1.985-0.568-2.841c0-1.137,0.284-2.271,0.568-3.409c0.284-0.853,0.852-1.986,1.705-2.558
					c0.852-0.853,1.705-1.421,2.557-1.704c1.136-0.284,2.273-0.566,3.409-0.566c1.137,0,1.989,0.282,3.125,0.566
					c0.853,0.283,1.705,1.136,2.557,1.704L148.312,476.264"/>
				<path id="Fill-43" fill="#1A1919" d="M158.256,483.367c-0.568,0-0.853,0-1.421,0s-0.852,0-1.42,0.284
					c-0.284,0-0.853,0.281-0.853,0.565c-0.284,0.284-0.284,0.568-0.284,0.854c0,0.565,0.284,1.137,0.568,1.421
					c0.568,0.284,1.137,0.284,1.705,0.284c0.568,0,0.852,0,1.42-0.284c0.284-0.284,0.568-0.284,0.853-0.568
					c0.284-0.284,0.284-0.565,0.568-0.853c0-0.284,0-0.854,0-1.14v-0.565L158.256,483.367L158.256,483.367z M152.574,479.389
					c0.568-0.565,1.137-0.853,1.989-1.136c0.568-0.284,1.421-0.284,2.273-0.284c0.568,0,1.421,0,1.989,0.284
					c0.568,0.283,0.852,0.567,1.42,0.854c0.284,0.281,0.568,0.565,0.853,1.137c0.284,0.284,0.284,0.853,0.284,1.421v5.398
					c0,0.281,0,0.565,0,0.853s0,0.567,0,0.852h-2.273c0-0.564,0-1.136,0-1.702l0,0c-0.284,0.566-0.852,1.138-1.42,1.422
					c-0.568,0.28-1.42,0.564-1.989,0.564c-0.569,0-0.853,0-1.421-0.284c-0.284,0-0.852-0.28-1.136-0.564
					c-0.284-0.284-0.568-0.568-0.853-0.854c-0.285-0.285-0.284-0.853-0.284-1.421c0-0.565,0-1.137,0.568-1.705
					c0.284-0.564,0.853-0.852,1.137-1.136c0.568-0.284,1.136-0.567,1.989-0.567c0.853,0,1.42-0.282,2.273-0.282h1.136v-0.568
					c0-0.284,0-0.568,0-0.853c0-0.285-0.284-0.568-0.568-0.568c-0.284-0.284-0.568-0.284-0.853-0.568
					c-0.284,0-0.853-0.282-1.136-0.282c-0.284,0-0.568,0-1.137,0c-0.284,0-0.568,0.282-0.853,0.282s-0.568,0.284-0.568,0.284
					l-0.568,0.568L152.574,479.389L152.574,479.389z"/>
				<path id="Fill-44" fill="#1A1919" d="M163.938,477.969h1.989v1.704l0,0c0.284-0.565,0.852-1.137,1.42-1.42
					c0.568-0.284,1.42-0.568,2.273-0.568c0.568,0,0.853,0,1.421,0.284s0.852,0.284,1.136,0.567c0.284,0.284,0.568,0.853,0.853,1.137
					c0.284,0.854,0.284,1.421,0.284,1.989v6.818h-1.989v-6.25c0-0.284,0-0.854-0.284-1.14c0-0.284-0.284-0.565-0.568-0.853
					c-0.284-0.285-0.568-0.284-0.853-0.568c-0.284,0-0.568,0-0.853,0c-0.284,0-0.852,0-1.136,0.284
					c-0.284,0-0.568,0.284-0.853,0.568c-0.285,0.281-0.568,0.565-0.568,1.137c-0.284,0.566-0.284,1.137-0.284,1.421v5.396h-1.989
					L163.938,477.969"/>
				<path id="Fill-45" fill="#1A1919" d="M183.827,480.81c-0.284-0.281-0.852-0.565-1.136-0.853
					c-0.568-0.284-0.853-0.284-1.421-0.284s-0.852,0-1.42,0.284c-0.284,0.284-0.853,0.568-0.853,0.853
					c-0.284,0.284-0.568,0.854-0.568,1.14c0,0.565-0.284,0.853-0.284,1.42c0,0.565,0,0.853,0.284,1.421
					c0.284,0.284,0.284,0.853,0.568,1.137c0.284,0.284,0.568,0.568,1.137,0.854c0.569,0.285,0.852,0.283,1.42,0.283
					c0.568,0,0.853,0,1.421-0.283c0.284-0.284,0.852-0.568,1.136-0.854l1.421,1.421c-0.568,0.568-1.137,0.854-1.705,1.139
					c-0.568,0.281-1.42,0.281-2.273,0.281c-0.852,0-1.42,0-2.273-0.281c-0.568-0.283-1.136-0.567-1.705-1.139
					c-0.569-0.566-0.853-1.137-1.137-1.705c-0.284-0.565-0.284-1.421-0.284-2.271c0-0.854,0.284-1.42,0.284-2.272
					c0.284-0.565,0.568-1.137,1.137-1.704c0.569-0.566,1.136-0.854,1.705-1.137c0.568-0.284,1.421-0.284,2.273-0.284
					c0.853,0,1.421,0,2.273,0.284c0.568,0.283,1.421,0.567,1.705,1.137L183.827,480.81"/>
				<path id="Fill-46" fill="#1A1919" d="M194.624,482.231c0-0.568,0-0.854-0.284-1.14c0-0.284-0.284-0.565-0.568-0.853
					s-0.568-0.568-0.852-0.568c-0.284-0.284-0.853-0.284-1.421-0.284s-0.852,0-1.42,0.284c-0.284,0.284-0.853,0.284-1.137,0.568
					c-0.284,0.284-0.568,0.565-0.568,0.853c-0.284,0.284-0.284,0.568-0.284,1.14H194.624z M188.373,483.935
					c0,0.568,0,0.854,0.284,1.14c0.284,0.284,0.568,0.565,0.853,0.853c0.285,0.285,0.853,0.568,1.137,0.568s0.852,0.284,1.42,0.284
					s1.136,0,1.705-0.568c0.568-0.284,0.853-0.568,1.137-1.137l1.42,1.137c-1.136,1.421-2.841,2.272-4.546,2.272
					c-0.853,0-1.42,0-2.273-0.567c-1.42-0.568-2.273-1.421-2.841-2.842s-0.568-2.841,0-4.265c0.284-0.565,0.568-1.137,1.137-1.702
					c0.568-0.567,1.136-0.854,1.705-1.139c0.569-0.284,1.42-0.565,2.273-0.565c0.853,0,1.705,0.281,2.273,0.565
					c0.568,0.284,1.137,0.854,1.705,1.139c0.284,0.565,0.853,1.137,0.853,1.702c0.284,0.568,0.284,1.424,0.284,1.989v1.136H188.373z
					"/>
				<path id="Fill-47" fill="#1A1919" d="M199.17,477.969h1.989v1.704l0,0c0-0.284,0.284-0.565,0.568-0.853
					c0.284-0.285,0.568-0.284,0.853-0.567c0.284-0.284,0.568-0.284,0.852-0.284c0.284,0,0.568,0,0.853-0.284
					c0.284,0,0.568,0,0.853,0.284v2.272h-0.568H204c-0.853,0-1.705,0.284-2.273,0.853c-0.568,0.854-0.853,1.705-0.853,2.56v5.111
					h-1.989L199.17,477.969"/>
				<path id="Fill-48" fill="#1A1919" d="M216.217,479.674h2.841c0.284,0,0.852,0,1.136,0c0.284,0,0.853-0.284,1.137-0.284
					c0.284-0.281,0.568-0.565,0.853-0.853c0.284-0.283,0.284-0.854,0.284-1.136c0-0.568,0-0.854-0.284-1.421
					c-0.284-0.284-0.568-0.568-0.853-0.568c-0.284-0.284-0.568-0.284-1.137-0.284c-0.284,0-0.852,0-1.136,0h-2.841V479.674z
					 M213.944,472.855h5.398c0.852,0,1.705,0,2.557,0.565c0.568,0.283,1.136,0.567,1.42,1.136c0.284,0.284,0.568,0.854,0.853,1.424
					c0,0.565,0.284,1.137,0.284,1.421c0,0.565,0,0.853-0.284,1.42c-0.284,0.565-0.284,0.853-0.853,1.137
					c-0.284,0.284-0.853,0.853-1.136,0.853c-0.568,0.284-1.137,0.284-1.705,0.568l4.546,7.104h-2.557l-3.978-6.818h-2.273v6.818
					h-2.273L213.944,472.855L213.944,472.855z"/>
				<path id="Fill-49" fill="#1A1919" d="M234.401,482.231c0-0.284,0-0.854-0.284-1.14c0-0.284-0.284-0.565-0.568-0.853
					c-0.284-0.285-0.568-0.568-0.853-0.568c-0.284-0.284-0.852-0.284-1.42-0.284c-0.568,0-0.853,0-1.421,0.284
					c-0.284,0.284-0.852,0.284-1.136,0.568c-0.284,0.284-0.568,0.565-0.568,0.853c-0.284,0.284-0.284,0.568-0.284,1.14H234.401z
					 M228.15,483.935c0,0.568,0,0.854,0.284,1.14c0.284,0.284,0.568,0.565,0.853,0.853c0.285,0.285,0.852,0.568,1.136,0.568
					c0.284,0,0.853,0.284,1.421,0.284c0.568,0,1.136,0,1.705-0.568c0.568-0.284,0.853-0.568,1.136-1.137l1.421,1.137
					c-1.137,1.421-2.841,2.272-4.546,2.272c-0.853,0-1.421,0-2.273-0.567c-1.421-0.568-2.273-1.421-2.841-2.842
					c-0.568-1.421-0.568-2.841,0-4.265c0.284-0.565,0.568-1.137,1.136-1.702c0.568-0.567,1.137-0.854,1.705-1.139
					c0.568-0.284,1.42-0.565,2.273-0.565c0.852,0,1.705,0.281,2.273,0.565s1.136,0.854,1.705,1.139
					c0.284,0.565,0.853,1.137,0.853,1.702c0.284,0.568,0.284,1.424,0.284,1.989v1.136H228.15z"/>
				<path id="Fill-50" fill="#1A1919" d="M244.629,480.526c-0.284-0.284-0.568-0.568-0.852-0.854
					c-0.284-0.285-0.853-0.284-1.137-0.284c-0.568,0-0.853,0-1.137,0.284c-0.284,0.284-0.568,0.568-0.568,0.854
					c0,0.282,0,0.565,0.284,0.853c0.284,0.284,0.568,0.284,0.568,0.568c0.284,0,0.568,0.284,0.853,0.284h0.853
					c0.284,0,0.852,0.281,1.136,0.281c0.284,0,0.568,0.284,0.853,0.568c0.284,0.283,0.568,0.567,0.568,0.852
					c0.284,0.284,0.284,0.854,0.284,1.14c0,1.137-0.568,1.986-1.421,2.558c-0.284,0.284-0.853,0.567-1.42,0.567
					c-0.568,0-1.137,0.281-1.421,0.281c-0.852,0-1.42,0-2.273-0.281c-0.568-0.283-1.42-0.854-1.705-1.42l1.42-1.14
					c0.284,0.284,0.568,0.568,1.137,0.854s0.853,0.284,1.42,0.284c0.284,0,0.568,0,0.853,0c0.285,0,0.568,0,0.568-0.284
					c0.284,0,0.284-0.284,0.568-0.284c0-0.284,0.284-0.284,0.284-0.568c0-0.281,0-0.565-0.284-0.565
					c-0.284-0.284-0.568-0.284-0.568-0.568l-1.137-0.568h-0.852l-1.137-0.281c-0.284,0-0.568-0.284-0.853-0.567
					c-0.284-0.284-0.568-0.567-0.568-0.853s-0.284-0.854-0.284-1.14c0-0.565,0-0.853,0.284-1.421
					c0.284-0.284,0.568-0.853,0.852-0.853c0.284-0.284,0.853-0.567,1.137-0.567c0.568,0,0.852-0.284,1.42-0.284s1.421,0,1.989,0.284
					c0.568,0.283,1.137,0.854,1.705,1.42L244.629,480.526"/>
				<path id="Fill-51" fill="#1A1919" d="M256.562,482.231c0-0.284,0-0.854-0.284-1.14c0-0.284-0.284-0.565-0.568-0.853
					s-0.568-0.568-0.853-0.568c-0.284-0.284-0.853-0.284-1.42-0.284c-0.568,0-0.853,0-1.421,0.284
					c-0.284,0.284-0.852,0.284-1.136,0.568c-0.284,0.284-0.568,0.565-0.568,0.853c-0.284,0.284-0.284,0.568-0.284,1.14H256.562z
					 M250.312,483.935c0,0.568,0,0.854,0.284,1.14c0.284,0.284,0.568,0.565,0.852,0.853c0.284,0.284,0.568,0.568,1.137,0.568
					s0.853,0.284,1.42,0.284c0.568,0,1.137,0,1.705-0.568c0.568-0.284,0.852-0.568,1.136-1.137l1.421,1.137
					c-1.705,1.988-4.546,2.557-6.819,1.705c-0.568-0.284-1.136-0.568-1.705-1.137c-0.569-0.569-0.852-1.14-1.136-1.705
					c-0.284-0.568-0.284-1.421-0.284-2.272c0-0.853,0-1.421,0.568-2.271c0.284-0.568,0.568-1.14,1.136-1.705
					c1.137-1.136,2.557-1.704,3.978-1.704c0.853,0,1.705,0.284,2.273,0.566c1.137,0.567,1.989,1.703,2.557,3.125
					c0.284,0.567,0.284,1.423,0.284,1.988v1.137L250.312,483.935L250.312,483.935z"/>
				<path id="Fill-52" fill="#1A1919" d="M266.507,483.367c-0.568,0-0.852,0-1.42,0s-0.853,0-1.421,0.284
					c-0.284,0-0.852,0.281-0.852,0.565c-0.568,0.568-0.568,1.705,0,2.273l0,0c0.852,0.565,1.989,0.565,3.125,0
					c0.284-0.284,0.568-0.284,0.853-0.568s0.284-0.565,0.568-0.853c0-0.284,0.284-0.854,0.284-1.14v-0.565L266.507,483.367
					L266.507,483.367z M260.825,479.389c0.568-0.565,1.136-0.853,1.989-1.136c0.568-0.284,1.42-0.284,2.273-0.284
					c0.568,0,1.42,0,1.989,0.284c0.568,0.283,0.853,0.567,1.42,0.854c0.284,0.281,0.568,0.565,0.853,1.137
					c0.284,0.284,0.284,0.853,0.284,1.421v5.398c0,0.281,0,0.565,0,0.853s0,0.567,0,0.852h-1.705c0-0.564,0-1.136,0-1.702l0,0
					c-0.284,0.566-0.853,1.138-1.705,1.422c-0.568,0.28-1.42,0.564-1.989,0.564c-0.568,0-0.852,0-1.42-0.284
					c-0.284,0-0.853-0.28-1.137-0.564c-0.284-0.284-0.568-0.568-0.852-0.854c-0.284-0.284-0.284-0.853-0.284-1.421
					c0-0.565,0-1.137,0.568-1.705c0.284-0.564,0.853-0.852,1.137-1.136c0.568-0.284,1.137-0.567,1.705-0.567
					c0.853,0,1.421-0.282,2.273-0.282h1.421v-0.568c0-0.284,0-0.568-0.284-0.853c0-0.284-0.284-0.568-0.568-0.568
					c-0.284-0.284-0.568-0.284-0.853-0.568c-0.284,0-0.852-0.282-1.136-0.282c-0.284,0-0.568,0-0.853,0s-0.568,0.282-0.852,0.282
					s-0.568,0.284-0.568,0.284l-0.568,0.568L260.825,479.389L260.825,479.389z"/>
				<path id="Fill-53" fill="#1A1919" d="M272.758,477.969h1.989v1.704l0,0c0-0.284,0.284-0.565,0.568-0.853
					c0.284-0.284,0.568-0.284,0.852-0.567c0.284-0.284,0.568-0.284,0.853-0.284s0.568,0,0.853-0.284c0.284,0,0.568,0,0.852,0.284
					v2.272h-0.568h-0.568c-0.853,0-1.705,0.284-2.273,0.853c-0.568,0.854-0.853,1.705-0.853,2.56v5.111h-1.705V477.969"/>
				<path id="Fill-54" fill="#1A1919" d="M287.532,480.81c-0.284-0.281-0.853-0.565-1.137-0.853
					c-0.568-0.284-0.853-0.284-1.42-0.284c-0.853,0-1.989,0.284-2.557,1.137c-0.284,0.284-0.568,0.854-0.568,1.14
					c-0.284,0.565-0.284,0.853-0.284,1.42c0,0.565,0,0.853,0.284,1.421c0,0.568,0.284,0.853,0.568,1.137s0.568,0.568,1.136,0.854
					c0.568,0.285,0.853,0.283,1.421,0.283s0.852,0,1.42-0.283c0.284-0.284,0.853-0.568,1.137-0.854l1.42,1.421
					c-0.568,0.568-1.137,0.854-1.705,1.139c-0.568,0.281-1.421,0.281-2.273,0.281c-0.853,0-1.421,0-2.273-0.281
					c-0.568-0.283-1.137-0.567-1.705-1.139c-0.568-0.566-0.852-1.137-1.136-1.705c-0.284-0.565-0.284-1.421-0.284-2.271
					c0-0.854,0-1.42,0.284-2.272c0.284-0.565,0.568-1.137,1.136-1.704c0.568-0.566,1.137-0.854,1.705-1.137
					c1.42-0.565,3.125-0.565,4.546,0c0.568,0.283,1.42,0.567,1.705,1.137L287.532,480.81"/>
				<path id="Fill-55" fill="#1A1919" d="M290.941,471.719h1.989v7.955l0,0c0.284-0.565,0.853-1.137,1.421-1.42
					c0.568-0.284,1.42-0.568,2.273-0.568c0.568,0,0.853,0,1.42,0.284c0.568,0.284,0.853,0.284,1.137,0.567
					c0.284,0.284,0.568,0.853,0.852,1.137c0.284,0.568,0.284,1.137,0.284,1.705v6.818h-1.989v-6.25c0-0.284,0-0.854-0.284-1.14
					c0-0.281-0.284-0.565-0.568-0.853c-0.284-0.284-0.568-0.284-0.853-0.568c-0.284,0-0.568,0-0.853,0s-0.852,0-1.136,0.284
					c-0.284,0-0.568,0.284-0.853,0.568c-0.285,0.282-0.568,0.565-0.568,1.137c-0.284,0.568-0.284,1.137-0.284,1.705v5.396h-1.989
					L290.941,471.719"/>
				<path id="Fill-56" fill="#1A1919" d="M147.459,406.37c0.568,11.081-8.239,20.457-19.32,21.022c-0.284,0-0.568,0-0.852,0
					c-11.365,0-20.457-9.376-20.173-20.457c0-0.281,0-0.565,0-0.565v-0.284c-0.568-11.081,8.24-20.457,19.32-21.021
					c0.284,0,0.568,0,0.853,0c11.365,0,20.457,9.375,20.172,20.454C147.459,405.802,147.459,406.086,147.459,406.37L147.459,406.37z
					 M127.287,375.399c-16.764-0.282-30.97,13.069-31.254,29.835c0,0.281,0,0.564,0,0.852v0.284
					c-0.284,16.764,13.07,30.4,29.833,30.686c0.284,0,0.853,0,1.137,0c16.763,0.284,30.969-13.066,31.253-29.833
					c0-0.281,0-0.565,0-0.853v-0.284c0.284-16.763-13.07-30.398-29.833-30.687C128.139,375.399,127.855,375.399,127.287,375.399z"/>
				<polygon id="Fill-57" fill="#1A1919" points="167.632,435.919 178.145,435.919 178.145,376.253 167.632,376.253 				"/>
				<path id="Fill-58" fill="#1A1919" d="M217.638,427.396c-11.365,0-19.604-9.66-19.604-21.312V405.8
					c0-11.646,8.24-21.023,19.604-21.023c6.251,0,12.217,2.843,16.763,7.389l6.819-7.671c-6.251-6.251-14.49-9.66-23.298-9.376
					c-16.763-0.284-30.401,13.068-30.685,29.549c0,0.284,0,0.853,0,1.136v0.284c-0.284,16.479,12.786,30.401,29.265,30.688
					c0.284,0,0.568,0,1.136,0c9.092,0.281,18.184-3.693,24.15-10.516l-6.819-6.815C229.571,424.271,225.025,427.396,217.638,427.396
					"/>
				<path id="Fill-59" fill="#1A1919" d="M260.541,405.802v-19.888h15.058c7.671,0,12.218,3.41,12.218,9.942l0,0
					c0,5.968-4.83,9.943-12.218,9.943L260.541,405.802L260.541,405.802z M284.407,413.473c8.24-2.271,14.206-8.236,14.206-17.897
					v-0.284c0-4.83-1.705-9.376-4.83-12.785c-4.83-4.262-10.797-6.251-17.047-5.967h-26.708v59.666h10.513v-20.74h13.069
					l14.774,20.74h12.217L284.407,413.473L284.407,413.473z"/>
			</g>
		</g>
	</g>
</g>
</svg>
