<?xml version="1.0" encoding="utf-8"?>
<!-- Generator: Adobe Illustrator 18.1.0, SVG Export Plug-In . SVG Version: 6.00 Build 0)  -->
<!DOCTYPE svg PUBLIC "-//W3C//DTD SVG 1.1//EN" "http://www.w3.org/Graphics/SVG/1.1/DTD/svg11.dtd">
<svg version="1.1" id="Layer_1" xmlns="http://www.w3.org/2000/svg" xmlns:xlink="http://www.w3.org/1999/xlink" x="0px" y="0px"
	 viewBox="0 0 651.8 244.9" width="651.8" height="244.9" enable-background="new 0 0 651.8 244.9" xml:space="preserve">
<g>
	<g>
		<path stroke="#000000" stroke-width="2" stroke-miterlimit="10" d="M73.4,103.1c-11,0-17.7,5.6-22.3,12.6
			c-3.4-7.1-10-12.6-20.3-12.6c-10.6,0-16.3,5.7-20.4,12v-10.6H1v63.2h9.4v-36.1c0-11.6,7.6-19.9,17.6-19.9s16.3,7,16.3,18.8v37.2
			h9.3v-36.5c0-12.5,8-19.6,17.5-19.6c10.3,0,16.4,6.9,16.4,19.1v36.9h9.4v-39.1C96.9,112.9,88,103.1,73.4,103.1z"/>
		<path stroke="#000000" stroke-width="2" stroke-miterlimit="10" d="M136.3,103.4c-9.3,0-16,2.2-23,5.4l2.8,7.7
			c5.9-2.7,11.7-4.5,19.2-4.5c11.9,0,18.7,5.9,18.7,17.1v2c-5.6-1.6-11.3-2.7-19.3-2.7c-16,0-27,7.1-27,20.7v0.2
			c0,13,11.7,19.7,23.6,19.7c11.1,0,18.4-5.1,22.8-10.8v9.4h9.3V129c0-8.1-2.2-14.2-6.6-18.6C152.2,105.9,145.2,103.4,136.3,103.4z
			 M154.2,144.4c0,10-9.4,17-21,17c-8.6,0-15.9-4.6-15.9-12.6v-0.2c0-7.6,6.7-12.7,18.5-12.7c7.7,0,13.8,1.3,18.5,2.7V144.4z"/>
		<path stroke="#000000" stroke-width="2" stroke-miterlimit="10" d="M204.8,103.1c-17.5,0-30.3,14.7-30.3,33
			c0,19.7,14.2,33,31.6,33c12,0,19.7-4.8,26.1-11.9l-5.9-5.3c-5.1,5.4-11.3,8.9-19.9,8.9c-11.1,0-20.9-7.7-22.3-21h50.2
			c0.1-1.5,0.1-2.4,0.1-3.3C234.3,118,223.5,103.1,204.8,103.1z M184,132.3c1.3-12.2,9.7-21.3,20.6-21.3c12.5,0,19.1,9.8,20.2,21.3
			H184z"/>
		<rect x="246.8" y="59.6" stroke="#000000" stroke-width="2" stroke-miterlimit="10" width="9.4" height="108.1"/>
		<path stroke="#000000" stroke-width="2" stroke-miterlimit="10" d="M296.3,131.6c-8.4-2.6-16.3-4.9-16.3-10.9v-0.2
			c0-5.3,4.8-9.2,12.2-9.2c6.1,0,12.8,2.3,18.7,6.1l4.3-7.1c-6.5-4.3-15-7-22.8-7c-12.5,0-21.5,7.2-21.5,18.1v0.2
			c0,11.6,11,15,20.9,17.9c8.3,2.3,15.8,4.8,15.8,11.1v0.2c0,6.1-5.5,10-13.1,10c-7.5,0-15-2.9-21.9-8.1l-4.8,6.7
			c7.1,5.7,17.1,9.3,26.2,9.3c12.6,0,22.5-7,22.5-19v-0.2C316.6,138.3,306.1,134.5,296.3,131.6z"/>
		<path stroke="#000000" stroke-width="2" stroke-miterlimit="10" d="M340.7,85.3h-9.4v19.1h-8.8v8.3h8.8v38.2
			c0,12.8,7.7,17.9,17.9,17.9c4.5,0,8.1-1,11.4-2.7V158c-3.3,1.6-6,2.2-9.2,2.2c-6.4,0-10.6-2.8-10.6-10.5v-36.9h20.1v-8.3h-20.1
			V85.3z"/>
		<path stroke="#000000" stroke-width="2" stroke-miterlimit="10" d="M381.9,120.9v-16.5h-9.4v63.2h9.4v-25.2
			c0-19.1,11.3-29,25.1-29h0.7v-10.2C395.8,102.8,386.6,110.4,381.9,120.9z"/>
		<path stroke="#000000" stroke-width="2" stroke-miterlimit="10" d="M479.7,67.9c-37.3,0-64.8,29.7-64.8,62.5
			c0,30.4,24.5,64,64.8,64c40.8,0,64.8-34.3,64.8-63.5C544.6,96.5,516.2,67.9,479.7,67.9z M479.7,173.7c-25.2,0-42.3-21-42.3-42.7
			c0-21.5,16.9-42.5,42.3-42.5s42.3,21,42.3,42.3C522,153.6,504,173.7,479.7,173.7z"/>
		<path stroke="#000000" stroke-width="2" stroke-miterlimit="10" d="M627.3,103.1c-11,0-17.7,5.6-22.3,12.6
			c-3.4-7.1-10-12.6-20.3-12.6c-10.6,0-16.3,5.7-20.4,12v-10.6h-9.4v63.2h9.4v-36.1c0-11.6,7.6-19.9,17.6-19.9
			c10,0,16.3,7,16.3,18.8v37.2h9.3v-36.5c0-12.5,8-19.6,17.5-19.6c10.3,0,16.4,6.9,16.4,19.1v36.9h9.4v-39.1
			C650.8,112.9,641.9,103.1,627.3,103.1z"/>
	</g>
	<circle fill="#E9B401" cx="421.9" cy="222.3" r="17.9"/>
	<circle fill="#D9534F" cx="548.3" cy="227" r="17.9"/>
	<circle fill="#79B51E" cx="506.1" cy="17.9" r="17.9"/>
	<circle fill="#8E623F" cx="395.4" cy="38.2" r="17.9"/>
	<circle fill="#AFB1B2" cx="494.8" cy="132.9" r="17.9"/>
</g>
</svg>
