<svg xmlns="http://www.w3.org/2000/svg" xmlns:xlink="http://www.w3.org/1999/xlink" viewBox="0 0 1391.44 470.67"><defs><style>.cls-1{fill:none;}.cls-2{fill:#42ab0c;}.cls-3{fill:#231f20;}.cls-4{fill:#31006f;}.cls-5{clip-path:url(#clip-path);}</style><clipPath id="clip-path" transform="translate(0 0)"><rect class="cls-1" x="738.42" y="150.83" width="653.02" height="278.99"/></clipPath></defs><title>Layer 1 (3)</title><g id="Layer_2" data-name="Layer 2"><g id="Layer_1-2" data-name="Layer 1"><path class="cls-2" d="M255.24,47.28l0-47.27h-.72a256.19,256.19,0,0,0-33.2,2.16l6.12,46.92a207.89,207.89,0,0,1,27.38-1.81Z" transform="translate(0 0)"/><path class="cls-2" d="M97,233.53l46.14,6.05a112.84,112.84,0,0,1,2.78-14.34,111.66,111.66,0,0,1,4.64-13.79l-43-17.86-44-18.29a203.44,203.44,0,0,0-8.62,25.55L8.67,188.46A253,253,0,0,0,2.18,221.1l47.53,6.23L97,233.53Z" transform="translate(0 0)"/><path class="cls-2" d="M321.1,8.82,308.78,54.4a204.15,204.15,0,0,1,25.6,8.75L352.59,19.6A252.79,252.79,0,0,0,321.1,8.82Z" transform="translate(0 0)"/><path class="cls-2" d="M157.88,380.29a159.78,159.78,0,0,1-15.67-13.72l-33.74,33.66a207.27,207.27,0,0,0,20.31,17.83l29.1-37.77Z" transform="translate(0 0)"/><path class="cls-2" d="M101.13,295.51l45-12a114.29,114.29,0,0,1-3.9-29.23l-46.56,0a159.73,159.73,0,0,0,1.44,20.88l-47.31,6.12a208.44,208.44,0,0,1-1.79-27l-48,0v.09a256.87,256.87,0,0,0,2.13,33,253.71,253.71,0,0,0,6.44,32.65L55,307.78l46.09-12.27Z" transform="translate(0 0)"/><path class="cls-2" d="M165.44,322.56a111.84,111.84,0,0,1-8.16-12.21,113.31,113.31,0,0,1-6.48-13.06l-43,17.79A159.12,159.12,0,0,0,117,333.63L75.66,357.48,33.94,381.56a254.45,254.45,0,0,0,18.51,27.67,257.11,257.11,0,0,0,21.91,25l34.11-34a208.31,208.31,0,0,1-17.79-20.32l37.83-29,36.93-28.33Z" transform="translate(0 0)"/><path class="cls-2" d="M284.18,145.38A112.84,112.84,0,0,1,298,150.09l18-42.95a156.87,156.87,0,0,0-19.66-6.7l-12.15,44.94Z" transform="translate(0 0)"/><path class="cls-2" d="M233.59,96.38l-6.17-47.3a207.72,207.72,0,0,0-26.54,5.3L188.66,8.62a252.08,252.08,0,0,0-31.54,10.69l18.16,43.81,18.25,44.05a158,158,0,0,0-18.6,9.27l23.31,40.29a112.21,112.21,0,0,1,13.12-6.55,110.2,110.2,0,0,1,13.85-4.74,111.92,111.92,0,0,1,14.4-2.91,113.63,113.63,0,0,1,15.19-1.05l.49,0,0-46.56h-.47a159.61,159.61,0,0,0-21.21,1.45Z" transform="translate(0 0)"/><path class="cls-2" d="M255.27,94.94a159.86,159.86,0,0,1,20.66,1.43l6.31-47.28a207.4,207.4,0,0,0-27-1.81l0,47.66Z" transform="translate(0 0)"/><path class="cls-2" d="M128.57,90.27l-29-37.7a257.08,257.08,0,0,0-25,21.93l33.66,33.67,33.7,33.71a162,162,0,0,1,33-25.44L151.05,75.15a207.74,207.74,0,0,0-22.48,15.12Z" transform="translate(0 0)"/><path class="cls-2" d="M165.13,186a111.55,111.55,0,0,1,9.73-11.2l-32.92-32.92a160.44,160.44,0,0,0-13.71,15.75L165.13,186Z" transform="translate(0 0)"/><path class="cls-2" d="M52.64,99.52a253,253,0,0,0-18.52,27.63l41.31,23.92L116.72,175a158.07,158.07,0,0,1,11.51-17.35l-37.8-29.06-37.79-29Z" transform="translate(0 0)"/><path class="cls-2" d="M382.36,34.42,358.62,75.19l-24,41.22A161.61,161.61,0,0,1,352,128.07l29.15-37.74L410,53a253,253,0,0,0-27.59-18.58Z" transform="translate(0 0)"/><path class="cls-3" d="M358.62,75.19a205.52,205.52,0,0,0-24.24-12l-18.39,44a158.4,158.4,0,0,1,18.63,9.27l24-41.22Z" transform="translate(0 0)"/><path class="cls-3" d="M275.93,96.37l-6.15,46.13a114.3,114.3,0,0,1,14.4,2.88l12.15-44.94a158,158,0,0,0-20.4-4.07Z" transform="translate(0 0)"/><path class="cls-3" d="M254.8,47.27a207.89,207.89,0,0,0-27.38,1.81l6.17,47.3a159.61,159.61,0,0,1,21.21-1.45h.47l0-47.66Z" transform="translate(0 0)"/><path class="cls-3" d="M63.54,175.3l44,18.29A157.31,157.31,0,0,1,116.72,175L75.43,151.07A206,206,0,0,0,63.54,175.3Z" transform="translate(0 0)"/><path class="cls-3" d="M108.47,400.23l33.74-33.66a159.53,159.53,0,0,1-13.7-15.68l-37.83,29a208.31,208.31,0,0,0,17.79,20.32Z" transform="translate(0 0)"/><path class="cls-3" d="M116.72,175,157,198.29A114.59,114.59,0,0,1,165.13,186l-36.9-28.37A158.07,158.07,0,0,0,116.72,175Z" transform="translate(0 0)"/><path class="cls-3" d="M95.65,254.08v.25l46.56,0c0-.07,0-.14,0-.22a113.66,113.66,0,0,1,1-14.5L97,233.53a160.1,160.1,0,0,0-1.37,20.55Z" transform="translate(0 0)"/><path class="cls-3" d="M63.72,333.3l44.06-18.22a157,157,0,0,1-6.65-19.57L55,307.78a204.87,204.87,0,0,0,8.68,25.52Z" transform="translate(0 0)"/><path class="cls-3" d="M157.62,128.09,186,165a114,114,0,0,1,12.27-8.27l-23.31-40.29a158.7,158.7,0,0,0-17.31,11.65Z" transform="translate(0 0)"/><path class="cls-3" d="M213.92,365.55A11.29,11.29,0,0,0,224.78,358a14.11,14.11,0,0,0,0-9.59,11.57,11.57,0,0,0-2.36-3.92,11.55,11.55,0,0,0-19.37,3.92,14.27,14.27,0,0,0,0,9.59,11.29,11.29,0,0,0,10.87,7.56Zm0,3.94a16.74,16.74,0,0,1-6.53-1.24,15.2,15.2,0,0,1-5.11-3.44,16.18,16.18,0,0,1-3.33-5.17,17.91,17.91,0,0,1,0-12.89,16.29,16.29,0,0,1,3.33-5.17,15.34,15.34,0,0,1,5.11-3.44,17.79,17.79,0,0,1,13.05,0,15.34,15.34,0,0,1,5.11,3.44,16,16,0,0,1,3.33,5.17,17.91,17.91,0,0,1,0,12.89,15.85,15.85,0,0,1-3.33,5.17,15.2,15.2,0,0,1-5.11,3.44,16.72,16.72,0,0,1-6.52,1.24Z" transform="translate(0 0)"/><path class="cls-3" d="M235.38,347.94h4v3.2h.09a5.78,5.78,0,0,1,2.58-2.7,8.63,8.63,0,0,1,4.25-1,9.22,9.22,0,0,1,2.87.46,6.46,6.46,0,0,1,2.41,1.43,6.76,6.76,0,0,1,1.64,2.47,9.46,9.46,0,0,1,.62,3.57v13.37h-3.95V356.44a7,7,0,0,0-.39-2.48,4.46,4.46,0,0,0-1-1.66,3.87,3.87,0,0,0-1.51-.92,5.58,5.58,0,0,0-1.78-.29,6.5,6.5,0,0,0-2.28.4,4.75,4.75,0,0,0-1.84,1.25,6,6,0,0,0-1.22,2.16,9.68,9.68,0,0,0-.44,3.11v10.7h-4V347.94Z" transform="translate(0 0)"/><path class="cls-3" d="M271,351.36h-5.65v9.42c0,.58,0,1.16,0,1.73a4.52,4.52,0,0,0,.33,1.53,2.55,2.55,0,0,0,.87,1.1,3.11,3.11,0,0,0,1.74.41,8.11,8.11,0,0,0,1.44-.13,4.31,4.31,0,0,0,1.36-.48v3.59a5,5,0,0,1-1.82.55,13.85,13.85,0,0,1-1.73.15,8,8,0,0,1-3.53-.63,4.38,4.38,0,0,1-1.84-1.65,5.45,5.45,0,0,1-.7-2.25c-.07-.83-.11-1.67-.11-2.52V351.36h-4.55v-3.42h4.55v-5.83h3.95v5.83H271v3.42Z" transform="translate(0 0)"/><path class="cls-3" d="M287.18,358.72a28.32,28.32,0,0,0-2.87.15,11.14,11.14,0,0,0-2.67.59,5.09,5.09,0,0,0-2,1.23,2.77,2.77,0,0,0-.77,2,2.86,2.86,0,0,0,1.21,2.59,5.85,5.85,0,0,0,3.26.79,6.26,6.26,0,0,0,2.76-.55,5.1,5.1,0,0,0,1.84-1.42,5.51,5.51,0,0,0,1-1.95,8,8,0,0,0,.31-2.13v-1.31Zm-11.13-8.24a11,11,0,0,1,3.86-2.3,13.22,13.22,0,0,1,4.38-.77,12,12,0,0,1,3.92.57,7.5,7.5,0,0,1,2.7,1.54,6,6,0,0,1,1.55,2.21,6.82,6.82,0,0,1,.51,2.61v10.6c0,.73,0,1.4,0,2s.07,1.2.13,1.76h-3.5c-.09-1-.13-2.11-.13-3.16h-.09a7.56,7.56,0,0,1-3.11,2.85,10.5,10.5,0,0,1-6.93.44,6.87,6.87,0,0,1-2.3-1.18,5.8,5.8,0,0,1-1.55-2A6.09,6.09,0,0,1,275,363a6,6,0,0,1,.9-3.37,6.68,6.68,0,0,1,2.45-2.22A11.9,11.9,0,0,1,282,356.2a25,25,0,0,1,4.44-.37h2.9V355a4.44,4.44,0,0,0-.31-1.58,4.18,4.18,0,0,0-.92-1.42,4.35,4.35,0,0,0-1.53-1,5.84,5.84,0,0,0-2.19-.37,7.94,7.94,0,0,0-2,.22,8.79,8.79,0,0,0-1.55.54,6.6,6.6,0,0,0-1.27.77l-1.1.83-2.37-2.45Z" transform="translate(0 0)"/><path class="cls-3" d="M298.83,347.94h3.95v3.2h.09a5.39,5.39,0,0,1,1.05-1.51,7.15,7.15,0,0,1,1.46-1.17,7.89,7.89,0,0,1,1.78-.76,6.74,6.74,0,0,1,1.93-.29,5.4,5.4,0,0,1,1.75.27l-.18,4.25a8.3,8.3,0,0,0-1-.22,5.2,5.2,0,0,0-1-.09,5.81,5.81,0,0,0-4.43,1.62q-1.53,1.62-1.53,5v10.43h-3.95V347.94Z" transform="translate(0 0)"/><path class="cls-3" d="M314.94,347.94h3.94v20.77h-3.94V347.94Zm-.92-7.45a2.89,2.89,0,0,1,4.93-2,2.87,2.87,0,0,1,0,4.08,2.89,2.89,0,0,1-4.93-2Z" transform="translate(0 0)"/><path class="cls-3" d="M328,358.32a8.6,8.6,0,0,0,.49,2.92,6.37,6.37,0,0,0,1.36,2.27A6.1,6.1,0,0,0,332,365a7.66,7.66,0,0,0,5.7,0,6.33,6.33,0,0,0,2.15-1.49,6.5,6.5,0,0,0,1.35-2.27,8.92,8.92,0,0,0,0-5.83,6.63,6.63,0,0,0-1.35-2.28,6.47,6.47,0,0,0-2.15-1.49,7.66,7.66,0,0,0-5.7,0,6.23,6.23,0,0,0-2.14,1.49,6.5,6.5,0,0,0-1.36,2.28,8.54,8.54,0,0,0-.49,2.91Zm-4.2,0a10.58,10.58,0,0,1,.85-4.25,11.1,11.1,0,0,1,20.38,0,10.58,10.58,0,0,1,.85,4.25,10.78,10.78,0,0,1-3.2,7.74,11.22,11.22,0,0,1-15.68,0,10.78,10.78,0,0,1-3.2-7.74Z" transform="translate(0 0)"/><polygon class="cls-3" points="364.47 337.69 368.68 337.69 368.68 368.71 364.47 368.71 364.47 337.69 364.47 337.69"/><path class="cls-3" d="M375.48,347.94h3.94v3.2h.09a5.85,5.85,0,0,1,2.59-2.7,8.6,8.6,0,0,1,4.25-1,9.22,9.22,0,0,1,2.87.46,6.46,6.46,0,0,1,2.41,1.43,6.89,6.89,0,0,1,1.64,2.47,9.46,9.46,0,0,1,.62,3.57v13.37h-3.95V356.44a7,7,0,0,0-.39-2.48,4.73,4.73,0,0,0-1.05-1.66,3.91,3.91,0,0,0-1.52-.92,5.56,5.56,0,0,0-1.77-.29,6.5,6.5,0,0,0-2.28.4,4.75,4.75,0,0,0-1.84,1.25,6.12,6.12,0,0,0-1.23,2.16,10,10,0,0,0-.44,3.11v10.7h-3.94V347.94Z" transform="translate(0 0)"/><path class="cls-3" d="M410.85,353.15a6.34,6.34,0,0,0-1.73-1.47,5,5,0,0,0-2.52-.59,4.83,4.83,0,0,0-2.43.59,1.89,1.89,0,0,0-1,1.73,1.94,1.94,0,0,0,.59,1.49,4.75,4.75,0,0,0,1.4.93,8.69,8.69,0,0,0,1.73.52l1.58.31a18.07,18.07,0,0,1,2.39.74,6.79,6.79,0,0,1,1.93,1.14,5,5,0,0,1,1.27,1.71,6,6,0,0,1,.46,2.45,5.77,5.77,0,0,1-.75,3,6.15,6.15,0,0,1-1.93,2,7.84,7.84,0,0,1-2.69,1.14,13.1,13.1,0,0,1-3.05.35,11.94,11.94,0,0,1-4.53-.79,8.1,8.1,0,0,1-3.48-2.89l3-2.45a12.36,12.36,0,0,0,2.14,1.71,5.37,5.37,0,0,0,2.89.74,8,8,0,0,0,1.52-.15,4.49,4.49,0,0,0,1.35-.48,2.94,2.94,0,0,0,1-.84,1.87,1.87,0,0,0,.37-1.16,2,2,0,0,0-.55-1.44,3.92,3.92,0,0,0-1.31-.9,9.31,9.31,0,0,0-1.62-.53l-1.52-.33a22.56,22.56,0,0,1-2.4-.7,7.16,7.16,0,0,1-2-1,4.91,4.91,0,0,1-1.4-1.66,5.38,5.38,0,0,1-.53-2.5,5.73,5.73,0,0,1,.68-2.83,6,6,0,0,1,1.8-2,7.9,7.9,0,0,1,2.54-1.18,10.46,10.46,0,0,1,2.87-.4,10.68,10.68,0,0,1,4,.79,6.38,6.38,0,0,1,3.07,2.63l-3.07,2.32Z" transform="translate(0 0)"/><path class="cls-3" d="M431.13,351.36h-5.65v9.42c0,.58,0,1.16,0,1.73a4.52,4.52,0,0,0,.33,1.53,2.5,2.5,0,0,0,.88,1.1,3,3,0,0,0,1.73.41,8,8,0,0,0,1.44-.13,4.31,4.31,0,0,0,1.36-.48v3.59a5,5,0,0,1-1.81.55,14.13,14.13,0,0,1-1.74.15,7.94,7.94,0,0,1-3.52-.63,4.27,4.27,0,0,1-1.84-1.65,5.17,5.17,0,0,1-.7-2.25c-.08-.83-.11-1.67-.11-2.52V351.36H417v-3.42h4.56v-5.83h3.94v5.83h5.65v3.42Z" transform="translate(0 0)"/><path class="cls-3" d="M435.74,347.94h3.95v20.77h-3.95V347.94Zm-.92-7.45a2.79,2.79,0,0,1,.86-2,2.74,2.74,0,0,1,2-.85,2.89,2.89,0,0,1,0,5.78,2.74,2.74,0,0,1-2-.85,2.79,2.79,0,0,1-.86-2Z" transform="translate(0 0)"/><path class="cls-3" d="M457.32,351.36h-5.65v9.42c0,.58,0,1.16,0,1.73A4.52,4.52,0,0,0,452,364a2.5,2.5,0,0,0,.88,1.1,3,3,0,0,0,1.73.41,8,8,0,0,0,1.44-.13,4.31,4.31,0,0,0,1.36-.48v3.59a5,5,0,0,1-1.82.55,13.85,13.85,0,0,1-1.73.15,7.94,7.94,0,0,1-3.52-.63,4.35,4.35,0,0,1-1.85-1.65,5.45,5.45,0,0,1-.7-2.25c-.07-.83-.11-1.67-.11-2.52V351.36h-4.55v-3.42h4.55v-5.83h3.95v5.83h5.65v3.42Z" transform="translate(0 0)"/><path class="cls-3" d="M480.11,368.71h-3.94v-3.2h-.09a5.76,5.76,0,0,1-2.58,2.69,8.55,8.55,0,0,1-4.25,1,8.84,8.84,0,0,1-2.89-.46,6.36,6.36,0,0,1-2.39-1.42,6.82,6.82,0,0,1-1.65-2.48,9.39,9.39,0,0,1-.61-3.57V347.94h4v12.27a7,7,0,0,0,.39,2.47,4.51,4.51,0,0,0,1.05,1.67,4,4,0,0,0,1.51.92,5.57,5.57,0,0,0,1.78.28,6.48,6.48,0,0,0,2.27-.39,4.82,4.82,0,0,0,1.85-1.25,5.92,5.92,0,0,0,1.22-2.17,9.93,9.93,0,0,0,.44-3.11V347.94h3.94v20.77Z" transform="translate(0 0)"/><path class="cls-3" d="M497.63,351.36H492v9.42c0,.58,0,1.16,0,1.73a4.52,4.52,0,0,0,.33,1.53,2.55,2.55,0,0,0,.87,1.1,3.11,3.11,0,0,0,1.74.41,8.11,8.11,0,0,0,1.44-.13,4.31,4.31,0,0,0,1.36-.48v3.59a5,5,0,0,1-1.82.55,13.85,13.85,0,0,1-1.73.15,8,8,0,0,1-3.53-.63,4.38,4.38,0,0,1-1.84-1.65,5.31,5.31,0,0,1-.7-2.25c-.07-.83-.11-1.67-.11-2.52V351.36h-4.55v-3.42H488v-5.83h4v5.83h5.65v3.42Z" transform="translate(0 0)"/><path class="cls-3" d="M517.35,356.61a8.32,8.32,0,0,0-.42-2.41,5.38,5.38,0,0,0-1.11-1.9A5.09,5.09,0,0,0,514,351a6.71,6.71,0,0,0-2.6-.46,6.44,6.44,0,0,0-6,3.92,5.27,5.27,0,0,0-.46,2.12Zm-12.44,3.16a5.12,5.12,0,0,0,.59,2.47,6.12,6.12,0,0,0,1.55,1.91,7.25,7.25,0,0,0,2.24,1.23,8,8,0,0,0,2.63.44,5.85,5.85,0,0,0,3.19-.86,10.16,10.16,0,0,0,2.5-2.26l3,2.28a11,11,0,0,1-9.2,4.25,11.35,11.35,0,0,1-4.45-.83,9.7,9.7,0,0,1-3.37-2.3,10.27,10.27,0,0,1-2.13-3.46,12.4,12.4,0,0,1-.74-4.32,11.32,11.32,0,0,1,.81-4.31,10.57,10.57,0,0,1,2.23-3.46,10.24,10.24,0,0,1,3.4-2.31,11,11,0,0,1,4.29-.83,10.18,10.18,0,0,1,4.67,1,9.08,9.08,0,0,1,3.13,2.52,9.92,9.92,0,0,1,1.78,3.5,14.8,14.8,0,0,1,.55,4v1.4Z" transform="translate(0 0)"/><path class="cls-3" d="M205.59,398.88h-4.47v-3.42h4.47v-4.64c0-2.78.54-4.85,1.6-6.21s2.9-2,5.5-2c.44,0,.9,0,1.38,0a8.74,8.74,0,0,1,1.56.26l-.44,3.51a5.37,5.37,0,0,0-1.1-.31A8,8,0,0,0,213,386a3.94,3.94,0,0,0-1.76.33,2.49,2.49,0,0,0-1,.95,3.75,3.75,0,0,0-.48,1.46,16.07,16.07,0,0,0-.11,1.95v4.78h4.69v3.42h-4.73v17.35h-3.95V398.88Z" transform="translate(0 0)"/><path class="cls-3" d="M221,405.84a8.56,8.56,0,0,0,.48,2.92,6.65,6.65,0,0,0,1.36,2.28,6.51,6.51,0,0,0,2.15,1.49,7.79,7.79,0,0,0,5.7,0,6.24,6.24,0,0,0,3.5-3.77,9.09,9.09,0,0,0,0-5.83,6.5,6.5,0,0,0-1.36-2.28,6.33,6.33,0,0,0-2.14-1.49,7.66,7.66,0,0,0-5.7,0,6.37,6.37,0,0,0-2.15,1.49,6.65,6.65,0,0,0-1.36,2.28,8.54,8.54,0,0,0-.48,2.91Zm-4.2,0a10.61,10.61,0,0,1,.85-4.25,11.25,11.25,0,0,1,2.34-3.46,11.12,11.12,0,0,1,3.51-2.34,11,11,0,0,1,14.52,5.8,10.62,10.62,0,0,1,.86,4.25,10.76,10.76,0,0,1-.86,4.28,10.63,10.63,0,0,1-2.34,3.46,11.35,11.35,0,0,1-12.18,2.32,11.24,11.24,0,0,1-3.51-2.32,10.78,10.78,0,0,1-3.19-7.74Z" transform="translate(0 0)"/><path class="cls-3" d="M243.83,395.46h3.94v3.2h.09a5.39,5.39,0,0,1,1-1.51,7.21,7.21,0,0,1,1.47-1.17,7.81,7.81,0,0,1,1.77-.76,6.84,6.84,0,0,1,1.93-.29,5.36,5.36,0,0,1,1.75.27l-.17,4.25c-.32-.09-.64-.16-1-.22a5.2,5.2,0,0,0-1-.09,5.82,5.82,0,0,0-4.43,1.62q-1.53,1.62-1.53,5v10.43h-3.94V395.46Z" transform="translate(0 0)"/><path class="cls-3" d="M295.27,391.91a8.69,8.69,0,0,0-3.33-2.63,10,10,0,0,0-4.16-.92,11.14,11.14,0,0,0-4.76,1,10.83,10.83,0,0,0-3.64,2.69,12.57,12.57,0,0,0-2.34,4,14.5,14.5,0,0,0-.83,4.93,13.56,13.56,0,0,0,.79,4.65,11.4,11.4,0,0,0,2.28,3.85,10.6,10.6,0,0,0,3.63,2.63,11.79,11.79,0,0,0,4.87,1,9.63,9.63,0,0,0,4.68-1.09,9.92,9.92,0,0,0,3.42-3.07l3.55,2.67A11.55,11.55,0,0,1,298.2,413a12.31,12.31,0,0,1-2.32,1.8,16.62,16.62,0,0,1-3.48,1.58,15,15,0,0,1-4.71.68,15.22,15.22,0,0,1-6.64-1.41A16.2,16.2,0,0,1,271.74,401a18.18,18.18,0,0,1,1.18-6.64,15.74,15.74,0,0,1,3.31-5.26,15,15,0,0,1,5.1-3.44,17.29,17.29,0,0,1,6.58-1.22,16.05,16.05,0,0,1,6,1.18,11.2,11.2,0,0,1,4.84,3.64l-3.5,2.67Z" transform="translate(0 0)"/><path class="cls-3" d="M315.09,406.24a28.32,28.32,0,0,0-2.87.15,11.36,11.36,0,0,0-2.67.59,5.21,5.21,0,0,0-2,1.23,2.79,2.79,0,0,0-.77,2,2.87,2.87,0,0,0,1.21,2.58,5.85,5.85,0,0,0,3.26.79,6.26,6.26,0,0,0,2.76-.55,5.1,5.1,0,0,0,1.84-1.42,5.51,5.51,0,0,0,1-1.95,8,8,0,0,0,.31-2.13v-1.31ZM304,398a10.89,10.89,0,0,1,3.85-2.3,13.22,13.22,0,0,1,4.38-.77,12.07,12.07,0,0,1,3.93.57,7.54,7.54,0,0,1,2.69,1.54,6,6,0,0,1,1.55,2.21,6.82,6.82,0,0,1,.51,2.61v10.6c0,.73,0,1.4,0,2s.07,1.19.13,1.75h-3.5c-.09-1.05-.13-2.11-.13-3.16h-.09a7.49,7.49,0,0,1-3.11,2.85,9.75,9.75,0,0,1-4.16.83,9.59,9.59,0,0,1-2.76-.39,6.82,6.82,0,0,1-2.31-1.18,5.8,5.8,0,0,1-1.55-1.95,6.06,6.06,0,0,1-.57-2.7,6,6,0,0,1,.9-3.37,6.73,6.73,0,0,1,2.45-2.21,11.91,11.91,0,0,1,3.64-1.23,25.09,25.09,0,0,1,4.44-.37h2.9v-.88a4.44,4.44,0,0,0-.31-1.58,4.18,4.18,0,0,0-.92-1.42,4.49,4.49,0,0,0-1.53-1,5.84,5.84,0,0,0-2.19-.37,7.94,7.94,0,0,0-2,.22,8.79,8.79,0,0,0-1.55.54,6.92,6.92,0,0,0-1.27.77l-1.1.83L304,398Z" transform="translate(0 0)"/><path class="cls-3" d="M326.75,395.46h3.94v3.2h.09a5.78,5.78,0,0,1,2.58-2.7,8.65,8.65,0,0,1,4.25-1,9.22,9.22,0,0,1,2.87.46,6.39,6.39,0,0,1,2.41,1.43,6.87,6.87,0,0,1,1.65,2.47,9.66,9.66,0,0,1,.61,3.57v13.37H341.2V404a7.06,7.06,0,0,0-.39-2.48,4.46,4.46,0,0,0-1.05-1.66,4,4,0,0,0-1.51-.92,5.58,5.58,0,0,0-1.78-.29,6.5,6.5,0,0,0-2.28.4,4.75,4.75,0,0,0-1.84,1.25,5.92,5.92,0,0,0-1.22,2.17,9.88,9.88,0,0,0-.44,3.11v10.69h-3.94V395.46Z" transform="translate(0 0)"/><path class="cls-3" d="M365.89,401a8.22,8.22,0,0,0-2.3-1.73,6.39,6.39,0,0,0-2.87-.59,6.28,6.28,0,0,0-2.83.59,5.8,5.8,0,0,0-2,1.62,7.4,7.4,0,0,0-1.22,2.37,9.22,9.22,0,0,0-.42,2.78,7.82,7.82,0,0,0,.48,2.74,6.91,6.91,0,0,0,1.36,2.25,6.36,6.36,0,0,0,2.1,1.52,6.81,6.81,0,0,0,2.77.54,6.2,6.2,0,0,0,2.84-.59,7.18,7.18,0,0,0,2.19-1.73l2.81,2.81a8.91,8.91,0,0,1-3.57,2.45,12.41,12.41,0,0,1-4.32.74,12,12,0,0,1-4.4-.78,10.2,10.2,0,0,1-3.44-2.22,10,10,0,0,1-2.24-3.41,12,12,0,0,1-.78-4.41,12.15,12.15,0,0,1,.78-4.42,9.88,9.88,0,0,1,5.63-5.72,11.72,11.72,0,0,1,4.45-.81,11.92,11.92,0,0,1,4.36.81,9.63,9.63,0,0,1,3.62,2.47l-3,2.72Z" transform="translate(0 0)"/><path class="cls-3" d="M387.47,404.14a8.26,8.26,0,0,0-.42-2.41,5.28,5.28,0,0,0-1.11-1.91,5.13,5.13,0,0,0-1.86-1.27,6.8,6.8,0,0,0-2.61-.46,6.22,6.22,0,0,0-2.65.55,6.41,6.41,0,0,0-3.33,3.37,5.31,5.31,0,0,0-.46,2.13ZM375,407.29a5.16,5.16,0,0,0,.59,2.48,6.08,6.08,0,0,0,1.55,1.9,7.15,7.15,0,0,0,2.24,1.23,8,8,0,0,0,2.63.44,5.91,5.91,0,0,0,3.2-.86,10.46,10.46,0,0,0,2.49-2.25l3,2.27a10.94,10.94,0,0,1-9.2,4.25,11.38,11.38,0,0,1-4.45-.83,9.57,9.57,0,0,1-3.37-2.3,10.27,10.27,0,0,1-2.13-3.46,12.4,12.4,0,0,1-.74-4.32,11.36,11.36,0,0,1,.81-4.31,10.7,10.7,0,0,1,2.24-3.46,10,10,0,0,1,3.39-2.3,10.88,10.88,0,0,1,4.3-.84,10.26,10.26,0,0,1,4.66,1,9.08,9.08,0,0,1,3.13,2.52,9.92,9.92,0,0,1,1.78,3.5,14.86,14.86,0,0,1,.55,4v1.4Z" transform="translate(0 0)"/><path class="cls-3" d="M396.52,395.46h4v3.2h.08a5.65,5.65,0,0,1,1.06-1.51,6.89,6.89,0,0,1,1.46-1.17,7.7,7.7,0,0,1,1.78-.76,6.74,6.74,0,0,1,1.93-.29,5.4,5.4,0,0,1,1.75.27l-.18,4.25c-.32-.09-.64-.16-1-.22a5.2,5.2,0,0,0-1-.09,5.81,5.81,0,0,0-4.43,1.62q-1.53,1.62-1.53,5v10.43h-4V395.46Z" transform="translate(0 0)"/><path class="cls-3" d="M430.57,398.88h5.52a15.13,15.13,0,0,0,2.43-.2,6.57,6.57,0,0,0,2.15-.72,4,4,0,0,0,1.51-1.51,6.06,6.06,0,0,0,0-5.13,3.91,3.91,0,0,0-1.51-1.51,6.82,6.82,0,0,0-2.15-.73,15.12,15.12,0,0,0-2.43-.19h-5.52v10Zm-4.21-13.67h10.91a12.78,12.78,0,0,1,4.91.81,8.36,8.36,0,0,1,3.05,2.06,7,7,0,0,1,1.55,2.8,11.17,11.17,0,0,1,.44,3,8.14,8.14,0,0,1-2,5.37,8.72,8.72,0,0,1-2.41,1.88,8.31,8.31,0,0,1-3.18.95l8.81,14.15h-5.26l-7.88-13.67h-4.69v13.67h-4.21v-31Z" transform="translate(0 0)"/><path class="cls-3" d="M467.1,404.14a8.26,8.26,0,0,0-.42-2.41,5.05,5.05,0,0,0-3-3.18,6.8,6.8,0,0,0-2.61-.46,6.48,6.48,0,0,0-4.69,2,6.55,6.55,0,0,0-1.29,1.95,5.31,5.31,0,0,0-.46,2.13Zm-12.44,3.15a5.28,5.28,0,0,0,.59,2.48,6,6,0,0,0,1.56,1.9A7,7,0,0,0,459,412.9a8.06,8.06,0,0,0,2.63.44,5.89,5.89,0,0,0,3.2-.86,10.46,10.46,0,0,0,2.49-2.25l3,2.27a10.94,10.94,0,0,1-9.2,4.25,11.33,11.33,0,0,1-4.44-.83,9.61,9.61,0,0,1-3.38-2.3,10.09,10.09,0,0,1-2.12-3.46,12.18,12.18,0,0,1-.75-4.32,11.36,11.36,0,0,1,.81-4.31,10.7,10.7,0,0,1,2.24-3.46,10.13,10.13,0,0,1,3.39-2.3,10.88,10.88,0,0,1,4.3-.84,10.26,10.26,0,0,1,4.66,1,9.21,9.21,0,0,1,3.14,2.52,10.06,10.06,0,0,1,1.77,3.5,14.46,14.46,0,0,1,.55,4v1.4Z" transform="translate(0 0)"/><path class="cls-3" d="M487,400.67a6,6,0,0,0-1.73-1.46,5,5,0,0,0-2.52-.6,4.73,4.73,0,0,0-2.43.6,1.87,1.87,0,0,0-1,1.73,2,2,0,0,0,.59,1.49,4.86,4.86,0,0,0,1.4.92,8.08,8.08,0,0,0,1.73.52l1.58.31a18.07,18.07,0,0,1,2.39.74,7,7,0,0,1,1.93,1.14,5,5,0,0,1,1.27,1.71,6,6,0,0,1,.46,2.46,5.76,5.76,0,0,1-.75,3,6.15,6.15,0,0,1-1.93,2,7.84,7.84,0,0,1-2.69,1.14,13.07,13.07,0,0,1-3,.35,12.16,12.16,0,0,1-4.54-.78,8.13,8.13,0,0,1-3.48-2.9l3-2.45a12.36,12.36,0,0,0,2.14,1.71,5.32,5.32,0,0,0,2.9.74,8,8,0,0,0,1.51-.15,4.49,4.49,0,0,0,1.35-.48,3,3,0,0,0,1-.83,1.91,1.91,0,0,0,.37-1.16,2,2,0,0,0-.55-1.45,3.92,3.92,0,0,0-1.31-.9,10.24,10.24,0,0,0-1.62-.53c-.57-.13-1.08-.24-1.51-.32-.85-.21-1.66-.44-2.41-.7a7.6,7.6,0,0,1-2-1.06,4.82,4.82,0,0,1-1.4-1.66,5.38,5.38,0,0,1-.53-2.5,5.66,5.66,0,0,1,.68-2.82,6.07,6.07,0,0,1,1.8-2,7.9,7.9,0,0,1,2.54-1.18,10.86,10.86,0,0,1,2.87-.4,10.64,10.64,0,0,1,4,.79,6.43,6.43,0,0,1,3.07,2.63L487,400.67Z" transform="translate(0 0)"/><path class="cls-3" d="M510.81,404.14a8.27,8.27,0,0,0-.41-2.41,5.3,5.3,0,0,0-1.12-1.91,5.13,5.13,0,0,0-1.86-1.27,6.8,6.8,0,0,0-2.61-.46,6.26,6.26,0,0,0-2.65.55,6.54,6.54,0,0,0-2,1.42,6.75,6.75,0,0,0-1.29,1.95,5.31,5.31,0,0,0-.46,2.13Zm-12.44,3.15a5.28,5.28,0,0,0,.59,2.48,6.12,6.12,0,0,0,1.56,1.9,7,7,0,0,0,2.23,1.23,8.11,8.11,0,0,0,2.63.44,5.89,5.89,0,0,0,3.2-.86,10.5,10.5,0,0,0,2.5-2.25l3,2.27a11,11,0,0,1-9.21,4.25,11.33,11.33,0,0,1-4.44-.83,9.61,9.61,0,0,1-3.38-2.3,10.09,10.09,0,0,1-2.12-3.46,12.18,12.18,0,0,1-.75-4.32,11.36,11.36,0,0,1,.81-4.31,10.7,10.7,0,0,1,2.24-3.46,10.13,10.13,0,0,1,3.39-2.3,10.88,10.88,0,0,1,4.3-.84,10.34,10.34,0,0,1,4.67,1,9.17,9.17,0,0,1,3.13,2.52,9.73,9.73,0,0,1,1.77,3.5,14.46,14.46,0,0,1,.55,4v1.4Z" transform="translate(0 0)"/><path class="cls-3" d="M530.73,406.24a28.32,28.32,0,0,0-2.87.15,11.14,11.14,0,0,0-2.67.59,5.21,5.21,0,0,0-2,1.23,2.79,2.79,0,0,0-.77,2,2.85,2.85,0,0,0,1.21,2.58,5.85,5.85,0,0,0,3.26.79,6.26,6.26,0,0,0,2.76-.55,5.19,5.19,0,0,0,1.84-1.42,5.51,5.51,0,0,0,1-1.95,8,8,0,0,0,.31-2.13v-1.31ZM519.6,398a11,11,0,0,1,3.86-2.3,13.22,13.22,0,0,1,4.38-.77,12,12,0,0,1,3.92.57,7.5,7.5,0,0,1,2.7,1.54,6,6,0,0,1,1.55,2.21,6.82,6.82,0,0,1,.51,2.61v10.6c0,.73,0,1.4,0,2s.07,1.19.13,1.75h-3.5c-.09-1.05-.13-2.11-.13-3.16H533a7.55,7.55,0,0,1-3.11,2.85,10.51,10.51,0,0,1-6.93.44,6.87,6.87,0,0,1-2.3-1.18,5.8,5.8,0,0,1-1.55-1.95,6.06,6.06,0,0,1-.57-2.7,6,6,0,0,1,.9-3.37,6.73,6.73,0,0,1,2.45-2.21,11.91,11.91,0,0,1,3.64-1.23,25,25,0,0,1,4.44-.37h2.9v-.88a4.44,4.44,0,0,0-.31-1.58,4.18,4.18,0,0,0-.92-1.42,4.49,4.49,0,0,0-1.53-1,5.86,5.86,0,0,0-2.2-.37,7.91,7.91,0,0,0-2,.22,8.79,8.79,0,0,0-1.55.54,7,7,0,0,0-1.28.77l-1.09.83L519.6,398Z" transform="translate(0 0)"/><path class="cls-3" d="M543.16,395.46h4v3.2h.09a5.39,5.39,0,0,1,1-1.51,6.94,6.94,0,0,1,1.47-1.17,7.81,7.81,0,0,1,1.77-.76,6.79,6.79,0,0,1,1.93-.29,5.4,5.4,0,0,1,1.75.27l-.17,4.25c-.33-.09-.65-.16-1-.22a5.2,5.2,0,0,0-1-.09,5.81,5.81,0,0,0-4.43,1.62q-1.53,1.62-1.53,5v10.43h-4V395.46Z" transform="translate(0 0)"/><path class="cls-3" d="M572.87,401a8.22,8.22,0,0,0-2.3-1.73,7.18,7.18,0,0,0-5.7,0,5.67,5.67,0,0,0-2,1.62,7.42,7.42,0,0,0-1.23,2.37,9.22,9.22,0,0,0-.41,2.78,7.82,7.82,0,0,0,.48,2.74,6.74,6.74,0,0,0,1.36,2.25,6.16,6.16,0,0,0,2.1,1.52,6.8,6.8,0,0,0,2.76.54,6.25,6.25,0,0,0,2.85-.59,7.18,7.18,0,0,0,2.19-1.73l2.8,2.81a8.91,8.91,0,0,1-3.57,2.45,12.4,12.4,0,0,1-4.31.74,12,12,0,0,1-4.41-.78,10.29,10.29,0,0,1-3.44-2.22,9.8,9.8,0,0,1-2.23-3.41,11.81,11.81,0,0,1-.79-4.41,11.94,11.94,0,0,1,.79-4.42,9.8,9.8,0,0,1,5.63-5.72,11.72,11.72,0,0,1,4.45-.81,12,12,0,0,1,4.36.81,9.59,9.59,0,0,1,3.61,2.47l-3,2.72Z" transform="translate(0 0)"/><path class="cls-3" d="M579.53,383.11h4v15.55h.08a5.79,5.79,0,0,1,2.59-2.69,8.52,8.52,0,0,1,4.25-1,8.94,8.94,0,0,1,2.87.46,6.44,6.44,0,0,1,2.41,1.42,6.93,6.93,0,0,1,1.64,2.48,9.43,9.43,0,0,1,.61,3.57v13.36H594V404a7,7,0,0,0-.39-2.47,4.65,4.65,0,0,0-1.06-1.67,3.92,3.92,0,0,0-1.51-.92,5.56,5.56,0,0,0-1.77-.28A6.5,6.5,0,0,0,587,399a4.86,4.86,0,0,0-1.84,1.25,5.79,5.79,0,0,0-1.23,2.17,9.94,9.94,0,0,0-.43,3.11v10.69h-4V383.11Z" transform="translate(0 0)"/><path class="cls-3" d="M216.78,447.37a6.37,6.37,0,0,0-5-2.37c-4.66,0-7.73,3.72-7.73,8.44,0,4.37,2.9,8.09,7.73,8.09a6.38,6.38,0,0,0,5.42-2.79l2.38,1.79a9.67,9.67,0,0,1-7.86,3.64,10.68,10.68,0,0,1-10.66-10.73c0-6.45,4.42-11.08,10.81-11.08a9.11,9.11,0,0,1,7.27,3.23l-2.35,1.78Z" transform="translate(0 0)"/><path class="cls-3" d="M229,461.53c2.81,0,4.57-2,4.57-4.84s-1.76-4.83-4.57-4.83-4.57,2-4.57,4.83,1.76,4.84,4.57,4.84Zm0-12.13a7.3,7.3,0,1,1-7.38,7.29A7.29,7.29,0,0,1,229,449.4Z" transform="translate(0 0)"/><polygon class="cls-3" points="239.9 441.48 242.54 441.48 242.54 463.64 239.9 463.64 239.9 441.48 239.9 441.48"/><polygon class="cls-3" points="246.9 441.48 249.54 441.48 249.54 463.64 246.9 463.64 246.9 441.48 246.9 441.48"/><path class="cls-3" d="M261.19,457c-2.49,0-5.54.44-5.54,2.66,0,1.59,1.18,2.26,3,2.26a3.75,3.75,0,0,0,4-4V457Zm-7.44-5.51a8.2,8.2,0,0,1,5.51-2.05c4.1,0,5.8,2.22,5.8,4.63v7.09a21,21,0,0,0,.12,2.52h-2.35c-.05-.7-.08-1.41-.08-2.11h-.06a5.29,5.29,0,0,1-4.87,2.46c-2.57,0-4.8-1.47-4.8-4.16,0-3.58,3.43-4.81,7.65-4.81h1.93v-.58a3,3,0,0,0-3.31-2.93,5.8,5.8,0,0,0-4,1.58l-1.58-1.64Z" transform="translate(0 0)"/><path class="cls-3" d="M280.93,456.69c0-2.81-1.75-4.83-4.57-4.83s-4.57,2-4.57,4.83,1.76,4.84,4.57,4.84,4.57-2,4.57-4.84Zm-11.78-15.21h2.64v10.26h.06a5.79,5.79,0,0,1,4.83-2.34c4.28,0,7.07,3.13,7.07,7.29S281,464,276.68,464a5.93,5.93,0,0,1-4.83-2.34h-.06v2h-2.64V441.48Z" transform="translate(0 0)"/><path class="cls-3" d="M293.82,461.53c2.81,0,4.57-2,4.57-4.84s-1.76-4.83-4.57-4.83-4.57,2-4.57,4.83,1.76,4.84,4.57,4.84Zm0-12.13a7.3,7.3,0,1,1-7.39,7.29,7.29,7.29,0,0,1,7.39-7.29Z" transform="translate(0 0)"/><path class="cls-3" d="M304.64,449.75h2.64v2.14h.05a4.7,4.7,0,0,1,4.17-2.49,3.68,3.68,0,0,1,1.17.17l-.12,2.84a5.47,5.47,0,0,0-1.29-.2c-2.58,0-4,1.41-4,4.45v7h-2.64V449.75Z" transform="translate(0 0)"/><path class="cls-3" d="M322.86,457c-2.5,0-5.54.44-5.54,2.66,0,1.59,1.17,2.26,3,2.26a3.75,3.75,0,0,0,3.95-4V457Zm-7.45-5.51a8.2,8.2,0,0,1,5.51-2.05c4.1,0,5.8,2.22,5.8,4.63v7.09a21,21,0,0,0,.12,2.52H324.5c-.06-.7-.09-1.41-.09-2.11h-.06a5.27,5.27,0,0,1-4.86,2.46c-2.58,0-4.81-1.47-4.81-4.16,0-3.58,3.43-4.81,7.65-4.81h1.93v-.58a3,3,0,0,0-3.31-2.93,5.8,5.8,0,0,0-4,1.58l-1.58-1.64Z" transform="translate(0 0)"/><path class="cls-3" d="M338.36,452h-3.78v6.3c0,1.56,0,3.2,2,3.2a3.74,3.74,0,0,0,1.87-.41v2.4a6,6,0,0,1-2.37.47c-4.07,0-4.13-2.49-4.13-4.72V452h-3.05v-2.28h3.05v-3.9h2.64v3.9h3.78V452Z" transform="translate(0 0)"/><path class="cls-3" d="M351.63,455.55c-.06-2.32-1.35-4-4-4a4.28,4.28,0,0,0-4.31,4Zm-8.32,2.11c0,2.43,2.25,4,4.69,4a4.76,4.76,0,0,0,3.8-2.08l2,1.53a7.3,7.3,0,0,1-6.16,2.84c-4.39,0-7.15-3.17-7.15-7.3a7,7,0,0,1,7.18-7.29c4.9,0,6.77,3.75,6.77,7.32v.94Z" transform="translate(0 0)"/><path class="cls-3" d="M357.31,461.88a1.94,1.94,0,1,1,1.94,1.93,1.95,1.95,0,0,1-1.94-1.93Z" transform="translate(0 0)"/><polygon class="cls-3" points="378.77 445.53 372.09 445.53 372.09 442.89 388.26 442.89 388.26 445.53 381.58 445.53 381.58 463.64 378.77 463.64 378.77 445.53 378.77 445.53"/><path class="cls-3" d="M388.51,449.75h2.64v2.14h.05a4.7,4.7,0,0,1,4.17-2.49,3.68,3.68,0,0,1,1.17.17l-.12,2.84a5.47,5.47,0,0,0-1.29-.2c-2.58,0-4,1.41-4,4.45v7h-2.64V449.75Z" transform="translate(0 0)"/><path class="cls-3" d="M406.73,457c-2.5,0-5.54.44-5.54,2.66,0,1.59,1.17,2.26,3,2.26a3.75,3.75,0,0,0,3.95-4V457Zm-7.45-5.51a8.2,8.2,0,0,1,5.51-2.05c4.1,0,5.8,2.22,5.8,4.63v7.09a21,21,0,0,0,.12,2.52h-2.34c-.06-.7-.09-1.41-.09-2.11h-.06a5.27,5.27,0,0,1-4.86,2.46c-2.58,0-4.81-1.47-4.81-4.16,0-3.58,3.43-4.81,7.65-4.81h1.93v-.58a3,3,0,0,0-3.31-2.93,5.8,5.8,0,0,0-4,1.58l-1.58-1.64Z" transform="translate(0 0)"/><path class="cls-3" d="M414.68,449.75h2.64v2.14h.06A4.87,4.87,0,0,1,422,449.4c2.7,0,5,1.61,5,5.3v8.94h-2.64v-8.21c0-2.6-1.49-3.57-3.16-3.57-2.2,0-3.87,1.4-3.87,4.63v7.15h-2.64V449.75Z" transform="translate(0 0)"/><path class="cls-3" d="M438.51,453.23a3.51,3.51,0,0,0-2.84-1.37c-1.23,0-2.31.55-2.31,1.55,0,1.67,2.37,1.91,3.54,2.17,2.29.56,4.05,1.43,4.05,4,0,3.14-2.88,4.37-5.63,4.37a6,6,0,0,1-5.36-2.46l2-1.64a4.62,4.62,0,0,0,3.37,1.64c1.35,0,2.81-.56,2.81-1.76,0-1.58-2.2-1.88-3.34-2.14-2.25-.56-4.25-1.29-4.25-4,0-2.9,2.67-4.27,5.28-4.27a5.37,5.37,0,0,1,4.75,2.28l-2.06,1.55Z" transform="translate(0 0)"/><polygon class="cls-3" points="444.44 441.48 447.08 441.48 447.08 463.64 444.44 463.64 444.44 441.48 444.44 441.48"/><path class="cls-3" d="M458.74,457c-2.49,0-5.54.44-5.54,2.66,0,1.59,1.17,2.26,3,2.26a3.76,3.76,0,0,0,4-4V457Zm-7.44-5.51a8.15,8.15,0,0,1,5.5-2.05c4.11,0,5.81,2.22,5.81,4.63v7.09a23.49,23.49,0,0,0,.11,2.52h-2.34c-.06-.7-.09-1.41-.09-2.11h-.06a5.27,5.27,0,0,1-4.86,2.46c-2.58,0-4.81-1.47-4.81-4.16,0-3.58,3.43-4.81,7.65-4.81h1.94v-.58a3,3,0,0,0-3.32-2.93,5.75,5.75,0,0,0-3.95,1.58l-1.58-1.64Z" transform="translate(0 0)"/><path class="cls-3" d="M474.24,452h-3.78v6.3c0,1.56,0,3.2,2,3.2a3.78,3.78,0,0,0,1.88-.41v2.4A6.07,6.07,0,0,1,472,464c-4.07,0-4.13-2.49-4.13-4.72V452h-3.05v-2.28h3.05v-3.9h2.64v3.9h3.78V452Z" transform="translate(0 0)"/><path class="cls-3" d="M487.51,455.55c-.06-2.32-1.34-4-4-4a4.28,4.28,0,0,0-4.31,4Zm-8.32,2.11c0,2.43,2.26,4,4.69,4a4.8,4.8,0,0,0,3.81-2.08l2,1.53a7.28,7.28,0,0,1-6.15,2.84c-4.4,0-7.15-3.17-7.15-7.3a7,7,0,0,1,7.18-7.29c4.89,0,6.77,3.75,6.77,7.32v.94Z" transform="translate(0 0)"/><path class="cls-3" d="M493.2,461.88a1.94,1.94,0,1,1,1.93,1.93,1.94,1.94,0,0,1-1.93-1.93Z" transform="translate(0 0)"/><path class="cls-3" d="M524.76,447.37a6.37,6.37,0,0,0-5-2.37c-4.66,0-7.73,3.72-7.73,8.44,0,4.37,2.9,8.09,7.73,8.09a6.38,6.38,0,0,0,5.42-2.79l2.38,1.79a9.67,9.67,0,0,1-7.86,3.64A10.68,10.68,0,0,1,509,453.44c0-6.45,4.42-11.08,10.81-11.08a9.11,9.11,0,0,1,7.27,3.23l-2.35,1.78Z" transform="translate(0 0)"/><path class="cls-3" d="M530.3,441.48h2.63v10.41H533a4.88,4.88,0,0,1,4.57-2.49c2.7,0,5,1.61,5,5.3v8.94H540v-8.21c0-2.6-1.5-3.57-3.17-3.57-2.2,0-3.87,1.4-3.87,4.63v7.15H530.3V441.48Z" transform="translate(0 0)"/><path class="cls-3" d="M554.11,457c-2.49,0-5.53.44-5.53,2.66,0,1.59,1.17,2.26,3,2.26a3.75,3.75,0,0,0,3.95-4V457Zm-7.44-5.51a8.2,8.2,0,0,1,5.51-2.05c4.1,0,5.8,2.22,5.8,4.63v7.09a21,21,0,0,0,.12,2.52h-2.34c-.06-.7-.09-1.41-.09-2.11h-.06a5.28,5.28,0,0,1-4.87,2.46c-2.57,0-4.8-1.47-4.8-4.16,0-3.58,3.43-4.81,7.65-4.81h1.93v-.58a3,3,0,0,0-3.31-2.93,5.8,5.8,0,0,0-4,1.58l-1.58-1.64Z" transform="translate(0 0)"/><path class="cls-3" d="M562.07,449.75h2.64v2.14h.06a4.87,4.87,0,0,1,4.57-2.49c2.7,0,5,1.61,5,5.3v8.94h-2.64v-8.21c0-2.6-1.49-3.57-3.16-3.57-2.2,0-3.87,1.4-3.87,4.63v7.15h-2.64V449.75Z" transform="translate(0 0)"/><path class="cls-3" d="M580.59,456.69a4.57,4.57,0,1,0,9.14,0c0-2.81-1.76-4.83-4.57-4.83s-4.57,2-4.57,4.83Zm11.78,6.83c0,4.19-3,7.15-7.59,7.15a9.36,9.36,0,0,1-6.8-2.49l1.79-2.23a6.46,6.46,0,0,0,5,2.26c3.93,0,5-2.46,5-4.81v-2h-.09a5.46,5.46,0,0,1-4.8,2.46,6.9,6.9,0,0,1-7.06-7.12c0-4.1,2.75-7.29,7.06-7.29a5.93,5.93,0,0,1,4.83,2.34h.06v-2h2.64v13.77Z" transform="translate(0 0)"/><path class="cls-3" d="M606.92,455.55c-.06-2.32-1.35-4-4-4a4.28,4.28,0,0,0-4.31,4Zm-8.33,2.11c0,2.43,2.26,4,4.69,4a4.78,4.78,0,0,0,3.81-2.08l2,1.53a7.3,7.3,0,0,1-6.16,2.84c-4.39,0-7.15-3.17-7.15-7.3A7,7,0,0,1,603,449.4c4.89,0,6.77,3.75,6.77,7.32v.94Z" transform="translate(0 0)"/><polygon class="cls-3" points="621.55 441.48 624.19 441.48 624.19 463.64 621.55 463.64 621.55 441.48 621.55 441.48"/><path class="cls-3" d="M628.56,449.75h2.64v13.89h-2.64V449.75Zm1.32-6.92a1.94,1.94,0,1,1-1.94,1.94,2,2,0,0,1,1.94-1.94Z" transform="translate(0 0)"/><polygon class="cls-3" points="633.78 449.75 636.83 449.75 640.99 460.38 644.97 449.75 647.79 449.75 642.34 463.64 639.43 463.64 633.78 449.75 633.78 449.75"/><path class="cls-3" d="M660.06,455.55c-.06-2.32-1.34-4-4-4a4.28,4.28,0,0,0-4.31,4Zm-8.32,2.11c0,2.43,2.26,4,4.69,4a4.8,4.8,0,0,0,3.81-2.08l2,1.53a7.28,7.28,0,0,1-6.15,2.84c-4.4,0-7.15-3.17-7.15-7.3a7,7,0,0,1,7.18-7.29c4.89,0,6.77,3.75,6.77,7.32v.94Z" transform="translate(0 0)"/><path class="cls-3" d="M673.56,453.23a3.52,3.52,0,0,0-2.84-1.37c-1.23,0-2.32.55-2.32,1.55,0,1.67,2.38,1.91,3.55,2.17,2.28.56,4,1.43,4,4,0,3.14-2.87,4.37-5.62,4.37a6,6,0,0,1-5.37-2.46l2-1.64a4.6,4.6,0,0,0,3.37,1.64c1.34,0,2.81-.56,2.81-1.76,0-1.58-2.2-1.88-3.34-2.14-2.26-.56-4.25-1.29-4.25-4,0-2.9,2.67-4.27,5.27-4.27a5.36,5.36,0,0,1,4.75,2.28l-2.05,1.55Z" transform="translate(0 0)"/><path class="cls-3" d="M679.39,461.88a1.94,1.94,0,1,1,1.93,1.93,1.94,1.94,0,0,1-1.93-1.93Z" transform="translate(0 0)"/><path class="cls-3" d="M293.81,252.74c0,23.07-16.46,41.9-40,41.9S213.4,275.47,213.4,252.4v-.34c0-23.07,16.45-41.91,40-41.91s40.38,19.17,40.38,42.25v.34Zm-40-61.76c-36.47,0-62.26,28-62.26,61.42v.34c0,33.42,25.45,61.07,61.92,61.07s62.26-28,62.26-61.41v-.34c0-33.43-25.44-61.08-61.92-61.08Z" transform="translate(0 0)"/><polygon class="cls-3" points="333.67 311.77 354.54 311.77 354.54 193.02 333.67 193.02 333.67 311.77 333.67 311.77"/><path class="cls-3" d="M433.59,294.64c-22.73,0-39.18-19-39.18-42.24v-.34c0-23.24,16.45-41.91,39.18-41.91,13.58,0,23.76,5.94,33.26,14.76l13.4-15.44C468.88,198.62,455.65,191,433.77,191c-36,0-61.25,27.65-61.25,61.42v.34c0,34.1,25.79,61.07,60.4,61.07,22.22,0,35.79-8.14,48.18-21L467.7,279.2c-10.18,9.5-19.51,15.44-34.11,15.44Z" transform="translate(0 0)"/><path class="cls-3" d="M518.76,251.89V212h30.36c15.44,0,24.6,7,24.6,19.68V232c0,12-9.5,19.85-24.43,19.85Zm47.84,14.93c16.62-4.75,28.33-16.46,28.33-36v-.34c0-10.35-3.56-19.17-9.84-25.62-7.63-7.46-19.34-11.87-34.27-11.87H497.89V311.77h20.87V270.38h26.12l29.18,41.39h24.6L566.6,266.82Z" transform="translate(0 0)"/><path class="cls-4" d="M1275.67,214.69h43.95v113a3.14,3.14,0,0,0,3.14,3.14h17.85a3.14,3.14,0,0,0,3.13-3.14v-113h44.53a3.14,3.14,0,0,0,3.13-3.14V195.82a3.13,3.13,0,0,0-3.13-3.13h-112.6a3.14,3.14,0,0,0-3.14,3.13v15.73a3.15,3.15,0,0,0,3.14,3.14Z" transform="translate(0 0)"/><path class="cls-4" d="M1202.92,330.85h17.85a3.15,3.15,0,0,0,3.14-3.14V195.82a3.14,3.14,0,0,0-3.14-3.13h-17.85a3.14,3.14,0,0,0-3.14,3.13V327.71a3.15,3.15,0,0,0,3.14,3.14Z" transform="translate(0 0)"/><path class="cls-4" d="M742.82,330.85h17.85s0,0,0,0a3.15,3.15,0,0,0,3.14-3.14,3,3,0,0,0,0-.42V270.51H816a3.14,3.14,0,0,0,3.14-3.14V251.65a3.15,3.15,0,0,0-3.14-3.14H763.81V214.69h60.62a3.14,3.14,0,0,0,3.13-3.14V195.82a3.13,3.13,0,0,0-3.13-3.13H742.82a3.13,3.13,0,0,0-3.13,3.13V327.71a3.14,3.14,0,0,0,3.13,3.14Z" transform="translate(0 0)"/><path class="cls-4" d="M1101.31,333.1c23.5,0,37.47-10.65,45-19.58a3.15,3.15,0,0,0-.09-4.18L1135.67,298a3.14,3.14,0,0,0-4.43-.16c-7.34,6.83-15.7,13.49-29.93,13.49-29.48,0-37.27-19.66-37.27-30V242.13c0-10.39,7.79-30.06,37.27-30.06,14.24,0,22.59,6.67,29.93,13.5a3.13,3.13,0,0,0,4.43-.16l10.6-11.34a3.13,3.13,0,0,0,.09-4.17c-7.58-8.93-21.55-19.58-45-19.58-21.21,0-37.58,6.3-48.66,18.72a51.24,51.24,0,0,0-12.85,33.09v39.16a51.24,51.24,0,0,0,12.85,33.09c11.08,12.42,27.45,18.72,48.66,18.72Z" transform="translate(0 0)"/><path class="cls-4" d="M864.22,289h18.95a3.14,3.14,0,0,0,2.89-1.94l16-38.54h24.07a3.13,3.13,0,0,0,3.14-3.14V229.65a3.14,3.14,0,0,0-3.14-3.14h-15l18.11-43.78,43.16,104.32a3.14,3.14,0,0,0,2.9,1.94h19a3.14,3.14,0,0,0,2.89-4.34L942.56,152.77a3.14,3.14,0,0,0-2.89-1.94H918.78a3.15,3.15,0,0,0-2.9,1.94L861.32,284.65a3.14,3.14,0,0,0,2.9,4.34Z" transform="translate(0 0)"/><g class="cls-5"><polygon class="cls-4" points="739.69 360.67 1391.4 360.67 1391.4 359.29 739.69 359.29 739.69 360.67 739.69 360.67"/><path class="cls-4" d="M746.35,394.33a10.66,10.66,0,0,1,8.37-3.78,10.41,10.41,0,0,1,3.35.49,10.72,10.72,0,0,1,2.57,1.21,9.91,9.91,0,0,1,1.92,1.62,20.83,20.83,0,0,1,1.38,1.73l3.3-2.82a15.08,15.08,0,0,0-1.77-2.13,13.57,13.57,0,0,0-2.62-2.06,15.29,15.29,0,0,0-8.18-2.21,16,16,0,0,0-6.62,1.33,15.47,15.47,0,0,0-5.12,3.66,17,17,0,0,0-3.32,5.44,19.34,19.34,0,0,0,0,13.36,16,16,0,0,0,3.32,5.34A15.08,15.08,0,0,0,748,419a16.59,16.59,0,0,0,6.55,1.26,14.92,14.92,0,0,0,4.61-.68,17,17,0,0,0,3.69-1.67,15.25,15.25,0,0,0,2.72-2.11,12,12,0,0,0,1.65-2L764,411.12c-.33.36-.72.8-1.19,1.34a10.56,10.56,0,0,1-4.47,2.9,11.07,11.07,0,0,1-3.76.56,10.84,10.84,0,0,1-4.65-1,10.17,10.17,0,0,1-3.54-2.67,12.14,12.14,0,0,1-2.26-4,15,15,0,0,1-.8-4.92,15.46,15.46,0,0,1,.78-4.95,12.27,12.27,0,0,1,2.25-4.08Z" transform="translate(0 0)"/></g><path class="cls-4" d="M785.63,411.41a4,4,0,0,1-.54,2,5.84,5.84,0,0,1-1.4,1.7,7.3,7.3,0,0,1-2,1.16,6.68,6.68,0,0,1-2.4.44,5.63,5.63,0,0,1-3.49-.95,3.26,3.26,0,0,1-1.26-2.79,5.28,5.28,0,0,1,.24-1.52,3.42,3.42,0,0,1,.9-1.46,4.92,4.92,0,0,1,1.79-1.09,8.54,8.54,0,0,1,3-.44c.51,0,1,0,1.6.05l1.55.1c.49,0,.91.07,1.29.12l.75.12v2.57Zm4.17,3.64V404.38a7.38,7.38,0,0,0-2.5-6,10.27,10.27,0,0,0-6.86-2.11,18.28,18.28,0,0,0-3.25.26,16.78,16.78,0,0,0-2.53.68,13.1,13.1,0,0,0-1.94.9,10.59,10.59,0,0,0-1.4,1l2,3a15.61,15.61,0,0,1,2.53-1.43,9.72,9.72,0,0,1,4.07-.71,7,7,0,0,1,4.15,1.1,4.12,4.12,0,0,1,1.53,3.61v.83a6,6,0,0,0-.83-.1l-1.36-.1-1.64-.1c-.59,0-1.14,0-1.65,0-3.21,0-5.66.72-7.35,2.18a7.26,7.26,0,0,0-2.55,5.82,7,7,0,0,0,.7,3.28,6.42,6.42,0,0,0,1.84,2.18,7.22,7.22,0,0,0,2.53,1.21,11,11,0,0,0,2.79.36,11.3,11.3,0,0,0,4.24-.82,7.58,7.58,0,0,0,3.33-2.52l.09,2.71h4.08c0-.54-.05-1.22-.05-2v-2.45Z" transform="translate(0 0)"/><path class="cls-4" d="M807,396.42a9.31,9.31,0,0,0-2.79.39,9.07,9.07,0,0,0-2.15,1,7.25,7.25,0,0,0-1.56,1.29c-.42.47-.77.89-1.06,1.28l-.15-3.39H795.1c0,.82,0,1.58,0,2.31v20.25h4.37V409a15.07,15.07,0,0,1,.34-3.23,9.1,9.1,0,0,1,1.09-2.81,5.66,5.66,0,0,1,5.17-2.79,4.91,4.91,0,0,1,3.83,1.48,6.65,6.65,0,0,1,1.36,4.63v13.2h4.37V406a10.6,10.6,0,0,0-2.14-7q-2.13-2.57-6.55-2.57Z" transform="translate(0 0)"/><path class="cls-4" d="M835.16,415.61a8.19,8.19,0,0,1-3.56.75,6.91,6.91,0,0,1-5.46-2.5,8.28,8.28,0,0,1-1.46-2.62,9.49,9.49,0,0,1,0-6.11,8.06,8.06,0,0,1,1.45-2.62,6.65,6.65,0,0,1,2.33-1.79,7.16,7.16,0,0,1,3.13-.66,7.23,7.23,0,0,1,5.92,2.72l2.86-2.77a11.45,11.45,0,0,0-3.74-2.76,11.8,11.8,0,0,0-16,6.31,12.4,12.4,0,0,0-.87,4.65,13.46,13.46,0,0,0,.83,4.83,10.52,10.52,0,0,0,6.08,6.26,13,13,0,0,0,4.93.9,11.83,11.83,0,0,0,5.12-1.05,11.28,11.28,0,0,0,3.71-2.74l-2.67-2.81a7.36,7.36,0,0,1-2.6,2Z" transform="translate(0 0)"/><path class="cls-4" d="M846.66,406.27a6.64,6.64,0,0,1,.53-2.35,6.27,6.27,0,0,1,1.36-2,6.56,6.56,0,0,1,2.11-1.41,6.87,6.87,0,0,1,2.79-.53,5.93,5.93,0,0,1,4.66,1.84,7.31,7.31,0,0,1,1.84,4.46Zm17.17-1.7a12.54,12.54,0,0,0-2-4.21,9.9,9.9,0,0,0-3.42-3,10.4,10.4,0,0,0-5-1.12,11.1,11.1,0,0,0-4.54.92,11.28,11.28,0,0,0-3.56,2.5,11,11,0,0,0-2.33,3.74,12.82,12.82,0,0,0-.83,4.63A14,14,0,0,0,843,413a11.32,11.32,0,0,0,2.4,3.83,10.58,10.58,0,0,0,3.74,2.47,12.62,12.62,0,0,0,4.8.88,14.73,14.73,0,0,0,3.81-.46,15.44,15.44,0,0,0,2.91-1.09,10,10,0,0,0,2-1.31,15,15,0,0,0,1.17-1.12l-2.48-2.62a9.88,9.88,0,0,1-2.66,1.89,10,10,0,0,1-4.71,1,7.42,7.42,0,0,1-2.77-.53,7.86,7.86,0,0,1-2.32-1.46,6.81,6.81,0,0,1-2.28-5h17.8a19.3,19.3,0,0,0-.63-4.95Z" transform="translate(0 0)"/><path class="cls-4" d="M880.27,396.62a8.49,8.49,0,0,0-2.74.41,9.57,9.57,0,0,0-2.08,1,7.22,7.22,0,0,0-1.53,1.28,11.83,11.83,0,0,0-1,1.29l-.15-3.64h-4.17c0,.74,0,1.46,0,2.16v20.4H873V407.63a7.12,7.12,0,0,1,.51-2.67,7,7,0,0,1,1.39-2.2,6.25,6.25,0,0,1,4.65-2,6.44,6.44,0,0,1,2.24.34l1-4.07a6,6,0,0,0-1.14-.29,7.94,7.94,0,0,0-1.34-.1Z" transform="translate(0 0)"/><path class="cls-4" d="M912.87,413.09a4.62,4.62,0,0,1-1.87,1.58,8,8,0,0,1-2.49.68,23.88,23.88,0,0,1-2.62.14h-5.63V404.63h5.92a15.86,15.86,0,0,1,2.52.21,7.23,7.23,0,0,1,2.4.85,5.32,5.32,0,0,1,1.8,1.7,5,5,0,0,1,.7,2.82,4.93,4.93,0,0,1-.73,2.88Zm-12.61-21.9H906a14,14,0,0,1,2.14.17,5.46,5.46,0,0,1,1.94.68,4,4,0,0,1,1.41,1.4,4.66,4.66,0,0,1,.53,2.36,4.36,4.36,0,0,1-.54,2.23,4.47,4.47,0,0,1-1.4,1.5,6.16,6.16,0,0,1-1.94.85,8.72,8.72,0,0,1-2.14.27h-5.77v-9.46Zm15.47,13.2a7.41,7.41,0,0,0-2.3-1.39,11,11,0,0,0-2.26-.61,4.64,4.64,0,0,0,1.73-.63,6.92,6.92,0,0,0,1.74-1.4,7.62,7.62,0,0,0,1.36-2.14,6.91,6.91,0,0,0,.56-2.81,8.36,8.36,0,0,0-.61-3.2,7.09,7.09,0,0,0-1.81-2.62,8.62,8.62,0,0,0-3.06-1.77,13,13,0,0,0-4.37-.66h-11v32.36h10.38a24,24,0,0,0,4.75-.44,10.67,10.67,0,0,0,3.86-1.5,7.74,7.74,0,0,0,2.57-2.79,9,9,0,0,0,1-4.34,8.28,8.28,0,0,0-.73-3.66,7.35,7.35,0,0,0-1.8-2.4Z" transform="translate(0 0)"/><path class="cls-4" d="M934.77,396.62A8.17,8.17,0,0,0,932,397a9.21,9.21,0,0,0-2.09,1,7.86,7.86,0,0,0-1.53,1.28,11.83,11.83,0,0,0-1,1.29l-.14-3.64h-4.17c0,.75,0,1.47,0,2.16v20.4h4.37V407.64A7,7,0,0,1,928,405a7.25,7.25,0,0,1,1.38-2.21,6.34,6.34,0,0,1,2.06-1.48,6.23,6.23,0,0,1,2.6-.53,6.15,6.15,0,0,1,2.23.34l1-4.08a6.33,6.33,0,0,0-1.14-.29,7.82,7.82,0,0,0-1.33-.1Z" transform="translate(0 0)"/><path class="cls-4" d="M942.8,406.28a6.65,6.65,0,0,1,.54-2.35,6.15,6.15,0,0,1,1.36-2,6.73,6.73,0,0,1,2.11-1.41,7,7,0,0,1,2.79-.53,6,6,0,0,1,4.65,1.84,7.33,7.33,0,0,1,1.85,4.47Zm17.18-1.7a12.7,12.7,0,0,0-2-4.22,9.9,9.9,0,0,0-3.42-3,10.48,10.48,0,0,0-5-1.12,11.1,11.1,0,0,0-4.54.92,11.28,11.28,0,0,0-3.56,2.5,11.05,11.05,0,0,0-2.33,3.74,12.86,12.86,0,0,0-.83,4.63,13.75,13.75,0,0,0,.85,4.95,11.13,11.13,0,0,0,2.4,3.83,10.74,10.74,0,0,0,3.74,2.48,12.81,12.81,0,0,0,4.8.87,14.31,14.31,0,0,0,3.81-.46,16,16,0,0,0,2.91-1.09,10.14,10.14,0,0,0,2-1.31,12,12,0,0,0,1.17-1.12l-2.48-2.62a9.59,9.59,0,0,1-2.67,1.9,10.12,10.12,0,0,1-4.7,1,7.23,7.23,0,0,1-2.77-.54,7.88,7.88,0,0,1-2.33-1.45,7.17,7.17,0,0,1-1.62-2.19,6.83,6.83,0,0,1-.66-2.76h17.81a19.24,19.24,0,0,0-.63-4.95Z" transform="translate(0 0)"/><path class="cls-4" d="M978.66,411.42a4.12,4.12,0,0,1-.53,2,6,6,0,0,1-1.41,1.7,7.1,7.1,0,0,1-2,1.16,6.69,6.69,0,0,1-2.41.44,5.72,5.72,0,0,1-3.49-.95,3.27,3.27,0,0,1-1.26-2.79,5.28,5.28,0,0,1,.24-1.52,3.42,3.42,0,0,1,.9-1.46,5.05,5.05,0,0,1,1.8-1.09,8.48,8.48,0,0,1,3-.44c.52,0,1,0,1.6.05l1.55.1q.74,0,1.29.12l.75.12v2.57Zm4.17,3.64V404.39a7.4,7.4,0,0,0-2.49-6,10.32,10.32,0,0,0-6.87-2.12,17.4,17.4,0,0,0-3.25.27,16.33,16.33,0,0,0-2.52.68,11,11,0,0,0-1.94.9,10.75,10.75,0,0,0-1.41,1l2,3a15.17,15.17,0,0,1,2.52-1.43,9.73,9.73,0,0,1,4.08-.71,7.06,7.06,0,0,1,4.14,1.09,4.15,4.15,0,0,1,1.53,3.62v.82c-.16,0-.44-.06-.82-.09l-1.36-.1-1.65-.1c-.58,0-1.13,0-1.65,0-3.2,0-5.65.72-7.35,2.18a7.26,7.26,0,0,0-2.55,5.82,7,7,0,0,0,.7,3.27,6.48,6.48,0,0,0,1.85,2.19,7.35,7.35,0,0,0,2.52,1.21,11,11,0,0,0,2.79.36,11.26,11.26,0,0,0,4.24-.82,7.52,7.52,0,0,0,3.33-2.52l.1,2.71h4.07c0-.55,0-1.22,0-2v-2.45Z" transform="translate(0 0)"/><polygon class="cls-4" points="1007.27 396.97 1002.03 396.97 992.57 406.23 992.57 387.17 988.21 387.17 988.2 419.52 992.57 419.52 992.57 411.23 995.67 408.22 1003.34 419.53 1008.53 419.53 998.73 405.31 1007.27 396.97 1007.27 396.97"/><path class="cls-4" d="M1023.52,416.08a4.9,4.9,0,0,1-2.09.39,3,3,0,0,1-2.4-1,6.07,6.07,0,0,1-.85-3.74v-11.1h6.6V397h-6.59v-7.38h-4.37V397h-4.08v3.64h4.08v11.54q0,4.13,1.67,6.07c1.12,1.29,2.87,1.94,5.27,1.94a9.3,9.3,0,0,0,3.51-.61,9.13,9.13,0,0,0,2.89-2l-2-2.66a6.65,6.65,0,0,1-1.65,1.16Z" transform="translate(0 0)"/><path class="cls-4" d="M1041.77,396.43a9,9,0,0,0-2.76.39,9.37,9.37,0,0,0-2.14,1,8,8,0,0,0-1.55,1.26c-.42.46-.78.88-1.07,1.26V387.17h-4.31v32.36h4.37V409.05a15.07,15.07,0,0,1,.34-3.23,9.1,9.1,0,0,1,1.09-2.81,6,6,0,0,1,2-2,6,6,0,0,1,3.16-.77,4.91,4.91,0,0,1,3.83,1.48,6.7,6.7,0,0,1,1.36,4.63v13.2h4.36V406a10.65,10.65,0,0,0-2.13-7q-2.13-2.56-6.55-2.57Z" transform="translate(0 0)"/><path class="cls-4" d="M1067.4,396.63a8.49,8.49,0,0,0-2.74.41,9.13,9.13,0,0,0-2.08,1,7,7,0,0,0-1.53,1.28,11.83,11.83,0,0,0-1,1.29l-.15-3.64h-4.17c0,.74,0,1.46,0,2.16v20.4h4.36V407.64a7.14,7.14,0,0,1,1.9-4.87,6,6,0,0,1,2.06-1.48,6.19,6.19,0,0,1,2.59-.54,6.44,6.44,0,0,1,2.24.34l1-4.07a5.87,5.87,0,0,0-1.15-.29,7.74,7.74,0,0,0-1.33-.1Z" transform="translate(0 0)"/><path class="cls-4" d="M1089.81,411.26a8.05,8.05,0,0,1-1.48,2.62,7.45,7.45,0,0,1-2.37,1.84,7,7,0,0,1-3.16.7,6.8,6.8,0,0,1-3.13-.7,7.59,7.59,0,0,1-2.37-1.87,8.08,8.08,0,0,1-1.51-2.62,8.75,8.75,0,0,1-.5-3,9.27,9.27,0,0,1,.5-3,8.13,8.13,0,0,1,1.48-2.62,7.49,7.49,0,0,1,2.38-1.84,6.94,6.94,0,0,1,3.15-.7,6.77,6.77,0,0,1,3.13.7,7.51,7.51,0,0,1,2.38,1.87,8.12,8.12,0,0,1,1.5,2.64,9.12,9.12,0,0,1,.51,3,9.27,9.27,0,0,1-.51,3Zm1.53-11.48a11.62,11.62,0,0,0-3.78-2.59,11.85,11.85,0,0,0-4.75-.95,12,12,0,0,0-4.81.95,11.43,11.43,0,0,0-3.76,2.59,12.14,12.14,0,0,0-2.47,3.81,12.39,12.39,0,0,0,0,9.27,12.14,12.14,0,0,0,2.47,3.81,11.48,11.48,0,0,0,3.76,2.59,12,12,0,0,0,4.8.95,11.86,11.86,0,0,0,4.76-.95,11.73,11.73,0,0,0,3.78-2.59,12.14,12.14,0,0,0,0-16.89Z" transform="translate(0 0)"/><path class="cls-4" d="M1119.21,414.63V397h-4.37v10.48a16.45,16.45,0,0,1-.31,3.23,8.21,8.21,0,0,1-1.1,2.81,6,6,0,0,1-2,2,5.76,5.76,0,0,1-3.13.78,4.87,4.87,0,0,1-3.78-1.43c-.88-1-1.31-2.5-1.31-4.64V397h-4.37v13.54a10.68,10.68,0,0,0,2.09,7q2.08,2.55,6.5,2.55a9,9,0,0,0,2.76-.39,10.3,10.3,0,0,0,2.14-.95,7,7,0,0,0,1.55-1.24,15.08,15.08,0,0,0,1.07-1.26l.14,3.35h4.18c0-.81,0-1.58,0-2.3v-2.6Z" transform="translate(0 0)"/><path class="cls-4" d="M1140.82,410.31a5.75,5.75,0,0,1-.38,2.06,5.28,5.28,0,0,1-1.17,1.8,5.81,5.81,0,0,1-2,1.29,7.59,7.59,0,0,1-2.81.48,6.79,6.79,0,0,1-3-.58,5.56,5.56,0,0,1-2-1.6,6.39,6.39,0,0,1-1.17-2.38,11.26,11.26,0,0,1-.36-2.91,8.62,8.62,0,0,1,.61-3.3,7.47,7.47,0,0,1,4.29-4.29,8.77,8.77,0,0,1,3.35-.61,13.48,13.48,0,0,1,3.13.27c.69.18,1.19.31,1.48.41v9.36Zm-4.6-13.87a14.27,14.27,0,0,0-5.19.9,11.64,11.64,0,0,0-4,2.52,11.38,11.38,0,0,0-2.59,3.83,12.3,12.3,0,0,0-.93,4.83,14.37,14.37,0,0,0,.68,4.49,10.21,10.21,0,0,0,2,3.54,9.44,9.44,0,0,0,3.23,2.33,10.84,10.84,0,0,0,4.39.84,9.08,9.08,0,0,0,2.67-.36,11.63,11.63,0,0,0,2-.82,7.07,7.07,0,0,0,1.41-1c.37-.34.67-.61.9-.8v2.76a6.81,6.81,0,0,1-1.61,4.71,6.17,6.17,0,0,1-4.85,1.79,12.58,12.58,0,0,1-4-.55,11.28,11.28,0,0,1-2.74-1.34l-2,3.2a12.36,12.36,0,0,0,3.3,1.72,16.24,16.24,0,0,0,5.48.76q5.14,0,8-2.7t2.84-7.59V398a23.52,23.52,0,0,0-3.83-1.07,26,26,0,0,0-5.14-.48Z" transform="translate(0 0)"/><path class="cls-4" d="M1162.42,396.44a9,9,0,0,0-2.76.39,9.37,9.37,0,0,0-2.14,1,8,8,0,0,0-1.55,1.26c-.42.45-.77.87-1.07,1.26V387.17h-4.31v32.36H1155V409.05a15.64,15.64,0,0,1,.34-3.22,9.26,9.26,0,0,1,1.09-2.82,6,6,0,0,1,2-2,5.89,5.89,0,0,1,3.15-.78,5,5,0,0,1,3.83,1.48,6.68,6.68,0,0,1,1.36,4.64v13.19h4.37V406a10.58,10.58,0,0,0-2.14-7q-2.13-2.56-6.55-2.57Z" transform="translate(0 0)"/><path class="cls-4" d="M1191.52,408.54a9.4,9.4,0,0,0-2.43-1.31,27.63,27.63,0,0,0-3-.89,27.58,27.58,0,0,1-4.39-1.34,2.3,2.3,0,0,1-1.68-2.16,2.33,2.33,0,0,1,1.27-2.23,7,7,0,0,1,3.34-.68,9.33,9.33,0,0,1,3.57.63,8.42,8.42,0,0,1,2.54,1.56l2.38-3a11.19,11.19,0,0,0-3.61-2.11,14.46,14.46,0,0,0-4.92-.75,12.24,12.24,0,0,0-3.28.43,9.55,9.55,0,0,0-2.84,1.29,6.64,6.64,0,0,0-2,2.08,5.48,5.48,0,0,0-.75,2.89,5.58,5.58,0,0,0,.63,2.74,6.29,6.29,0,0,0,1.65,1.94,8.19,8.19,0,0,0,2.3,1.29,20.73,20.73,0,0,0,2.59.78c1.23.29,2.26.55,3.09.79a9.58,9.58,0,0,1,2,.81,2.73,2.73,0,0,1,1.07,1,2.68,2.68,0,0,1,.32,1.34,2.32,2.32,0,0,1-1.46,2.2,8.31,8.31,0,0,1-3.64.71,10.24,10.24,0,0,1-3.93-.73,9.27,9.27,0,0,1-2.91-1.94l-2.67,2.91q3.21,3.44,9.61,3.44a14.19,14.19,0,0,0,3.54-.43,10.14,10.14,0,0,0,3-1.31,6.79,6.79,0,0,0,2.08-2.16,5.65,5.65,0,0,0,.78-3,5.65,5.65,0,0,0-2.25-4.78Z" transform="translate(0 0)"/><polygon class="cls-4" points="1197.1 419.58 1202.58 419.58 1202.58 414.15 1197.1 414.15 1197.1 419.58 1197.1 419.58"/><path class="cls-4" d="M1231.69,402.36h-6.21V391.2h6.11a6.62,6.62,0,0,1,4.56,1.48,5.29,5.29,0,0,1,1.65,4.15,5.41,5.41,0,0,1-1.53,4,6.27,6.27,0,0,1-4.58,1.5Zm9.41-.19a10.33,10.33,0,0,0,1.46-5.49,10,10,0,0,0-.61-3.44,8.06,8.06,0,0,0-1.94-3,10.12,10.12,0,0,0-3.47-2.19,14.35,14.35,0,0,0-5.24-.84H1221v32.36h4.51V406.29h6.5l6.94,13.24h5.24l-7.57-13.83a8.72,8.72,0,0,0,4.51-3.54Z" transform="translate(0 0)"/><path class="cls-4" d="M1250.86,406.29a6.64,6.64,0,0,1,.53-2.35,6.42,6.42,0,0,1,1.36-2,6.79,6.79,0,0,1,4.9-1.93,5.93,5.93,0,0,1,4.66,1.84,7.31,7.31,0,0,1,1.84,4.46ZM1268,404.6a12.64,12.64,0,0,0-2-4.23,10,10,0,0,0-3.42-3,10.52,10.52,0,0,0-5-1.11,11,11,0,0,0-10.43,7.15,12.91,12.91,0,0,0-.83,4.64,14,14,0,0,0,.85,5,11.32,11.32,0,0,0,2.4,3.83,10.58,10.58,0,0,0,3.74,2.47,12.66,12.66,0,0,0,4.8.88,14.29,14.29,0,0,0,3.81-.47,14.78,14.78,0,0,0,2.91-1.09,9.2,9.2,0,0,0,2-1.31,13.54,13.54,0,0,0,1.17-1.11l-2.48-2.62a9.88,9.88,0,0,1-2.66,1.89,10,10,0,0,1-4.71,1,7.33,7.33,0,0,1-2.76-.53,7.78,7.78,0,0,1-2.33-1.46,7,7,0,0,1-1.63-2.18,6.87,6.87,0,0,1-.65-2.77h17.8a19.17,19.17,0,0,0-.63-4.94Z" transform="translate(0 0)"/><path class="cls-4" d="M1286.71,411.44a4.15,4.15,0,0,1-.53,2,6,6,0,0,1-1.41,1.69,6.89,6.89,0,0,1-2,1.17,6.67,6.67,0,0,1-2.4.43,5.75,5.75,0,0,1-3.5-.94,3.27,3.27,0,0,1-1.26-2.79,5,5,0,0,1,.25-1.53,3.56,3.56,0,0,1,.89-1.46,5.2,5.2,0,0,1,1.8-1.09,8.51,8.51,0,0,1,3-.43c.52,0,1,0,1.6,0l1.55.09q.74,0,1.29.12l.75.12v2.58Zm4.17,3.64V404.4a7.42,7.42,0,0,0-2.49-6,10.32,10.32,0,0,0-6.87-2.11,17.4,17.4,0,0,0-3.25.27,14.34,14.34,0,0,0-2.52.68,11.16,11.16,0,0,0-3.35,1.86l2,3a16.74,16.74,0,0,1,2.52-1.43,9.75,9.75,0,0,1,4.08-.7,7,7,0,0,1,4.14,1.09,4.13,4.13,0,0,1,1.53,3.61v.83a7.82,7.82,0,0,0-.82-.1l-1.36-.1-1.65-.09c-.58,0-1.13-.05-1.65-.05q-4.8,0-7.35,2.18a7.29,7.29,0,0,0-2.55,5.82,7,7,0,0,0,.71,3.28,6.22,6.22,0,0,0,1.84,2.18,7.37,7.37,0,0,0,2.52,1.22,11,11,0,0,0,2.79.36,11.36,11.36,0,0,0,4.25-.83,7.55,7.55,0,0,0,3.32-2.52l.1,2.72h4.07c0-.55,0-1.22,0-2v-2.44Z" transform="translate(0 0)"/><polygon class="cls-4" points="1296.27 419.54 1300.63 419.54 1300.64 387.18 1296.27 387.18 1296.27 419.54 1296.27 419.54"/><polygon class="cls-4" points="1306.16 419.54 1310.53 419.54 1310.53 396.98 1306.16 396.98 1306.16 419.54 1306.16 419.54"/><polygon class="cls-4" points="1305.87 392.95 1310.77 392.95 1310.77 388.05 1305.87 388.05 1305.87 392.95 1305.87 392.95"/><polygon class="cls-4" points="1332.67 400.47 1332.67 396.98 1314.87 396.98 1314.87 400.67 1327.33 400.67 1314.43 416.1 1314.43 419.54 1332.81 419.54 1332.81 415.9 1319.52 415.9 1332.67 400.47 1332.67 400.47"/><path class="cls-4" d="M1339.39,406.3a6.49,6.49,0,0,1,.54-2.36,6.11,6.11,0,0,1,1.36-2,6.8,6.8,0,0,1,2.1-1.41,7.12,7.12,0,0,1,2.79-.53,5.92,5.92,0,0,1,4.66,1.84,7.33,7.33,0,0,1,1.85,4.47Zm17.18-1.7a12.61,12.61,0,0,0-2-4.22,9.9,9.9,0,0,0-3.42-3,10.39,10.39,0,0,0-5-1.12,11.06,11.06,0,0,0-4.54.92,11.32,11.32,0,0,0-3.57,2.5,11.11,11.11,0,0,0-2.33,3.74,12.85,12.85,0,0,0-.82,4.63,13.75,13.75,0,0,0,.85,5,10.84,10.84,0,0,0,2.4,3.83,10.69,10.69,0,0,0,3.73,2.48,12.9,12.9,0,0,0,4.81.87,14.31,14.31,0,0,0,3.81-.46,16,16,0,0,0,2.91-1.09,10.14,10.14,0,0,0,2-1.31,13,13,0,0,0,1.16-1.12l-2.47-2.62a9.39,9.39,0,0,1-2.67,1.89,10,10,0,0,1-4.7,1A7.19,7.19,0,0,1,1344,416a7.88,7.88,0,0,1-2.33-1.45,7,7,0,0,1-1.62-2.19,6.67,6.67,0,0,1-.66-2.76h17.81a19.19,19.19,0,0,0-.63-4.95Z" transform="translate(0 0)"/><path class="cls-4" d="M1377.68,410a7,7,0,0,1-.36,2.11,6.32,6.32,0,0,1-1.12,2.09,6,6,0,0,1-2,1.58,6.25,6.25,0,0,1-2.91.63,6.54,6.54,0,0,1-2.94-.61,5.63,5.63,0,0,1-2-1.67,7.5,7.5,0,0,1-1.18-2.5,11.56,11.56,0,0,1-.39-3,10.34,10.34,0,0,1,.56-3.49,7.65,7.65,0,0,1,1.55-2.62,7,7,0,0,1,2.33-1.65,7.4,7.4,0,0,1,2.93-.58,8.49,8.49,0,0,1,3.74.66,10.62,10.62,0,0,1,1.79,1v8Zm4.37,4.61V387.18h-4.37V397.9c-.48-.19-1.18-.48-2.08-.87a9.88,9.88,0,0,0-3.79-.58,11.71,11.71,0,0,0-3.8.68,11.06,11.06,0,0,0-3.74,2.16,11.47,11.47,0,0,0-2.84,3.78,12.74,12.74,0,0,0-1.12,5.51,14.65,14.65,0,0,0,.76,4.83,10.63,10.63,0,0,0,2.11,3.66,9.46,9.46,0,0,0,3.2,2.33,9.61,9.61,0,0,0,4,.82,8.38,8.38,0,0,0,2.88-.44,10.85,10.85,0,0,0,2.16-1,7.3,7.3,0,0,0,1.48-1.19l.8-.9.15,2.86h4.27c0-.8,0-1.57,0-2.3v-2.6Z" transform="translate(0 0)"/><polygon class="cls-4" points="1385.96 414.16 1385.96 419.59 1391.44 419.59 1391.44 414.16 1385.96 414.16 1385.96 414.16"/></g></g></svg>