<?xml version="1.0" encoding="utf-8"?>
<!-- Generator: Adobe Illustrator 16.0.0, SVG Export Plug-In . SVG Version: 6.00 Build 0)  -->
<!DOCTYPE svg PUBLIC "-//W3C//DTD SVG 1.1//EN" "http://www.w3.org/Graphics/SVG/1.1/DTD/svg11.dtd">
<svg version="1.1" id="Layer_1" xmlns="http://www.w3.org/2000/svg" xmlns:xlink="http://www.w3.org/1999/xlink" x="0px" y="0px"
	 width="680.25px" height="232px" viewBox="-7 268 680.25 232" enable-background="new -7 268 680.25 232" xml:space="preserve">
<title>logo-AO3</title>
<g id="Symbols">
	<g id="Nav-Home">
		<g id="Group">
			<path id="Line" fill="none" stroke="#D7D7D7" stroke-width="3" stroke-linecap="square" d="M336.686,369.26v119.332"/>
			<g id="Adaptive-Oncology">
				<g enable-background="new    ">
					<path d="M383.657,334.562h-11.1v-5.832h28.642v5.832h-11.099v30.377h-6.443V334.562z"/>
					<path d="M400.329,340.393h6.138v3.887h0.103c0.682-1.432,1.652-2.539,2.916-3.323c1.26-0.784,2.71-1.177,4.346-1.177
						c0.375,0,0.742,0.033,1.1,0.103c0.358,0.068,0.726,0.153,1.101,0.257v5.932c-0.512-0.135-1.015-0.246-1.508-0.332
						c-0.495-0.084-0.98-0.129-1.458-0.129c-1.433,0-2.583,0.266-3.452,0.793c-0.869,0.529-1.534,1.135-1.994,1.815
						c-0.461,0.683-0.769,1.364-0.921,2.046c-0.153,0.684-0.229,1.193-0.229,1.534v13.144h-6.138v-24.549H400.329z"/>
					<path d="M435.565,361.564h-0.153c-0.887,1.398-2.012,2.412-3.375,3.043c-1.365,0.631-2.864,0.945-4.501,0.945
						c-1.125,0-2.226-0.152-3.299-0.46c-1.073-0.307-2.028-0.767-2.864-1.381c-0.836-0.612-1.508-1.381-2.021-2.301
						c-0.512-0.921-0.768-1.995-0.768-3.224c0-1.328,0.238-2.463,0.717-3.399c0.478-0.938,1.115-1.722,1.918-2.353
						c0.8-0.631,1.729-1.135,2.787-1.51c1.056-0.375,2.155-0.656,3.299-0.844c1.142-0.188,2.292-0.309,3.451-0.357
						c1.158-0.052,2.25-0.076,3.273-0.076h1.534v-0.666c0-1.533-0.528-2.686-1.586-3.451c-1.058-0.768-2.403-1.151-4.041-1.151
						c-1.296,0-2.506,0.229-3.631,0.69s-2.097,1.082-2.915,1.867l-3.222-3.223c1.363-1.398,2.957-2.404,4.781-3.018
						c1.824-0.614,3.708-0.922,5.65-0.922c1.739,0,3.204,0.197,4.398,0.589c1.192,0.393,2.182,0.896,2.966,1.509
						c0.784,0.614,1.39,1.322,1.816,2.123c0.426,0.801,0.731,1.609,0.92,2.429c0.188,0.819,0.299,1.611,0.332,2.378
						c0.034,0.769,0.052,1.441,0.052,2.021v14.115h-5.522v-3.375H435.565z M435.207,353.945h-1.278
						c-0.853,0-1.808,0.033-2.863,0.102c-1.058,0.069-2.056,0.23-2.991,0.486c-0.938,0.256-1.731,0.631-2.378,1.125
						c-0.648,0.494-0.974,1.185-0.974,2.07c0,0.58,0.129,1.065,0.386,1.457c0.256,0.394,0.588,0.727,0.995,0.998
						c0.41,0.272,0.87,0.469,1.382,0.588c0.512,0.121,1.022,0.18,1.534,0.18c2.113,0,3.675-0.503,4.681-1.51
						c1.005-1.004,1.508-2.377,1.508-4.115L435.207,353.945L435.207,353.945z"/>
					<path d="M447.686,340.393h5.83v3.938h0.104c0.579-1.228,1.466-2.293,2.659-3.196c1.192-0.902,2.812-1.355,4.858-1.355
						c1.637,0,3.025,0.273,4.168,0.818c1.142,0.547,2.07,1.262,2.787,2.148c0.715,0.887,1.228,1.908,1.533,3.068
						c0.308,1.158,0.461,2.369,0.461,3.631v15.496h-6.137v-12.428c0-0.683-0.035-1.439-0.104-2.275s-0.248-1.619-0.537-2.354
						c-0.29-0.732-0.74-1.347-1.354-1.842c-0.613-0.493-1.449-0.741-2.506-0.741c-1.022,0-1.884,0.171-2.583,0.513
						c-0.699,0.34-1.278,0.802-1.738,1.381c-0.461,0.58-0.793,1.244-0.998,1.994c-0.204,0.75-0.307,1.533-0.307,2.353v13.399h-6.138
						L447.686,340.393L447.686,340.393z"/>
					<path d="M490.133,347.193c-1.192-1.67-2.796-2.506-4.807-2.506c-0.818,0-1.62,0.205-2.404,0.613
						c-0.785,0.409-1.176,1.074-1.176,1.995c0,0.75,0.323,1.296,0.971,1.636c0.648,0.342,1.467,0.633,2.455,0.87
						c0.988,0.238,2.055,0.485,3.197,0.741c1.142,0.256,2.207,0.648,3.195,1.176c0.988,0.529,1.807,1.254,2.454,2.174
						c0.647,0.922,0.974,2.184,0.974,3.785c0,1.467-0.316,2.702-0.947,3.707c-0.631,1.008-1.449,1.815-2.454,2.43
						c-1.007,0.613-2.14,1.058-3.4,1.33c-1.263,0.272-2.523,0.408-3.784,0.408c-1.91,0-3.665-0.271-5.269-0.816
						c-1.603-0.547-3.035-1.535-4.296-2.967l4.092-3.836c0.783,0.887,1.627,1.61,2.531,2.174c0.902,0.562,2.002,0.844,3.299,0.844
						c0.441,0,0.902-0.051,1.381-0.153c0.478-0.103,0.921-0.272,1.329-0.512c0.409-0.237,0.741-0.537,0.997-0.896
						c0.256-0.357,0.385-0.774,0.385-1.252c0-0.853-0.324-1.484-0.973-1.894c-0.647-0.409-1.467-0.741-2.455-0.997
						s-2.055-0.494-3.195-0.716c-1.144-0.222-2.208-0.579-3.196-1.074c-0.989-0.494-1.808-1.185-2.455-2.071
						c-0.648-0.886-0.971-2.113-0.971-3.683c0-1.362,0.28-2.548,0.844-3.554c0.562-1.006,1.304-1.834,2.225-2.48
						c0.92-0.646,1.978-1.125,3.17-1.432c1.193-0.309,2.404-0.461,3.632-0.461c1.637,0,3.256,0.281,4.858,0.844
						s2.897,1.525,3.888,2.89L490.133,347.193z"/>
					<path d="M499.85,326.277h6.138v38.662h-6.138V326.277z"/>
					<path d="M528.387,361.564h-0.153c-0.888,1.398-2.013,2.412-3.375,3.043c-1.364,0.631-2.863,0.945-4.5,0.945
						c-1.125,0-2.226-0.152-3.3-0.46c-1.073-0.307-2.028-0.767-2.863-1.381c-0.836-0.612-1.51-1.381-2.021-2.301
						c-0.512-0.921-0.767-1.995-0.767-3.224c0-1.328,0.236-2.463,0.716-3.399c0.477-0.938,1.116-1.722,1.918-2.353
						c0.801-0.631,1.73-1.135,2.787-1.51s2.156-0.656,3.299-0.844s2.293-0.309,3.451-0.357c1.159-0.052,2.251-0.076,3.272-0.076
						h1.535v-0.666c0-1.533-0.528-2.686-1.586-3.451c-1.057-0.768-2.403-1.151-4.04-1.151c-1.296,0-2.507,0.229-3.632,0.69
						s-2.096,1.082-2.914,1.867l-3.223-3.223c1.362-1.398,2.957-2.404,4.782-3.018c1.822-0.614,3.707-0.922,5.65-0.922
						c1.738,0,3.204,0.197,4.398,0.589c1.191,0.393,2.182,0.896,2.966,1.509c0.784,0.614,1.389,1.322,1.814,2.123
						c0.427,0.801,0.732,1.609,0.921,2.429c0.188,0.819,0.299,1.611,0.332,2.378c0.034,0.769,0.053,1.441,0.053,2.021v14.115h-5.523
						v-3.375H528.387z M528.028,353.945h-1.278c-0.854,0-1.809,0.033-2.864,0.102c-1.058,0.069-2.055,0.23-2.991,0.486
						c-0.938,0.256-1.73,0.631-2.379,1.125c-0.647,0.494-0.972,1.185-0.972,2.07c0,0.58,0.128,1.065,0.384,1.457
						c0.256,0.394,0.588,0.727,0.997,0.998c0.409,0.272,0.87,0.469,1.381,0.588c0.513,0.121,1.022,0.18,1.534,0.18
						c2.113,0,3.674-0.503,4.68-1.51c1.006-1.004,1.51-2.377,1.51-4.115L528.028,353.945L528.028,353.945z"/>
					<path d="M537.643,345.607v-5.215h5.062v-7.109h6.138v7.109h6.751v5.215h-6.751v10.74c0,1.229,0.229,2.199,0.69,2.916
						c0.46,0.715,1.372,1.073,2.736,1.073c0.545,0,1.142-0.06,1.788-0.18c0.648-0.118,1.159-0.314,1.535-0.589v5.166
						c-0.647,0.308-1.44,0.52-2.379,0.64c-0.938,0.119-1.764,0.179-2.479,0.179c-1.638,0-2.976-0.179-4.015-0.535
						c-1.041-0.358-1.858-0.904-2.455-1.638c-0.598-0.733-1.006-1.646-1.228-2.735c-0.222-1.092-0.333-2.354-0.333-3.785v-11.252
						H537.643L537.643,345.607z"/>
					<path d="M559.684,332.057c0-0.988,0.366-1.85,1.101-2.582c0.731-0.733,1.662-1.101,2.787-1.101s2.07,0.351,2.838,1.048
						c0.768,0.699,1.15,1.578,1.15,2.635c0,1.058-0.384,1.936-1.15,2.633c-0.768,0.699-1.713,1.05-2.838,1.05
						s-2.056-0.366-2.787-1.101C560.05,333.906,559.684,333.045,559.684,332.057z M560.553,340.393h6.138v24.549h-6.138V340.393z"/>
					<path d="M572.521,352.666c0-1.943,0.349-3.707,1.048-5.293c0.698-1.585,1.645-2.939,2.839-4.064
						c1.191-1.125,2.607-1.996,4.245-2.608c1.637-0.614,3.375-0.921,5.216-0.921s3.58,0.307,5.217,0.921
						c1.636,0.612,3.051,1.483,4.245,2.608c1.192,1.125,2.139,2.479,2.838,4.064c0.698,1.586,1.049,3.35,1.049,5.293
						s-0.351,3.708-1.049,5.294c-0.699,1.585-1.646,2.94-2.838,4.065c-1.194,1.125-2.609,1.994-4.245,2.607
						c-1.637,0.613-3.376,0.92-5.217,0.92s-3.579-0.307-5.216-0.92c-1.638-0.613-3.054-1.482-4.245-2.607
						c-1.194-1.125-2.141-2.48-2.839-4.065C572.869,356.374,572.521,354.609,572.521,352.666z M578.657,352.666
						c0,0.955,0.161,1.876,0.484,2.762c0.324,0.889,0.802,1.672,1.434,2.354c0.63,0.683,1.389,1.228,2.275,1.637
						s1.893,0.614,3.018,0.614c1.126,0,2.13-0.205,3.018-0.614c0.886-0.409,1.646-0.954,2.276-1.637
						c0.63-0.682,1.106-1.465,1.432-2.354c0.323-0.886,0.486-1.807,0.486-2.762c0-0.954-0.163-1.874-0.486-2.762
						c-0.324-0.887-0.802-1.67-1.432-2.354c-0.632-0.682-1.391-1.228-2.276-1.636c-0.888-0.409-1.892-0.614-3.018-0.614
						c-1.125,0-2.131,0.205-3.018,0.614c-0.888,0.408-1.646,0.954-2.275,1.636c-0.632,0.684-1.108,1.467-1.434,2.354
						C578.818,350.792,578.657,351.712,578.657,352.666z"/>
					<path d="M604.943,340.393h5.83v3.938h0.103c0.579-1.228,1.466-2.293,2.659-3.196c1.193-0.902,2.812-1.355,4.859-1.355
						c1.636,0,3.024,0.273,4.168,0.818c1.141,0.547,2.069,1.262,2.786,2.148c0.716,0.887,1.228,1.908,1.533,3.068
						c0.309,1.158,0.461,2.369,0.461,3.631v15.496h-6.137v-12.428c0-0.683-0.035-1.439-0.103-2.275
						c-0.069-0.836-0.248-1.619-0.537-2.354c-0.29-0.732-0.741-1.347-1.355-1.842c-0.613-0.493-1.449-0.741-2.506-0.741
						c-1.021,0-1.884,0.171-2.583,0.513c-0.699,0.34-1.278,0.802-1.738,1.381c-0.461,0.58-0.793,1.244-0.998,1.994
						c-0.204,0.75-0.307,1.533-0.307,2.353v13.399h-6.137L604.943,340.393L604.943,340.393z"/>
					<path d="M649.641,361.564h-0.151c-0.889,1.398-2.014,2.412-3.376,3.043c-1.364,0.631-2.864,0.945-4.501,0.945
						c-1.125,0-2.226-0.152-3.299-0.46c-1.073-0.307-2.028-0.767-2.863-1.381c-0.836-0.612-1.509-1.381-2.021-2.301
						c-0.512-0.921-0.768-1.995-0.768-3.224c0-1.328,0.238-2.463,0.716-3.399c0.479-0.937,1.116-1.722,1.918-2.353
						c0.8-0.631,1.729-1.135,2.787-1.51c1.056-0.375,2.155-0.656,3.299-0.844c1.143-0.188,2.292-0.309,3.452-0.357
						c1.158-0.052,2.25-0.076,3.273-0.076h1.533v-0.666c0-1.533-0.528-2.686-1.586-3.451c-1.058-0.768-2.402-1.151-4.039-1.151
						c-1.298,0-2.507,0.229-3.632,0.69s-2.098,1.082-2.916,1.867l-3.221-3.223c1.362-1.398,2.957-2.404,4.781-3.018
						c1.823-0.614,3.707-0.922,5.649-0.922c1.739,0,3.205,0.197,4.398,0.589c1.193,0.393,2.182,0.896,2.967,1.509
						c0.783,0.614,1.389,1.322,1.815,2.123c0.426,0.801,0.732,1.609,0.921,2.429c0.187,0.818,0.298,1.611,0.332,2.378
						c0.033,0.769,0.051,1.441,0.051,2.021v14.115h-5.523v-3.375H649.641z M649.283,353.945h-1.279
						c-0.852,0-1.807,0.033-2.863,0.102c-1.057,0.069-2.055,0.23-2.991,0.486c-0.938,0.256-1.73,0.631-2.378,1.125
						c-0.648,0.494-0.973,1.185-0.973,2.07c0,0.58,0.128,1.065,0.384,1.457c0.257,0.394,0.589,0.727,0.997,0.998
						c0.409,0.272,0.869,0.469,1.381,0.588c0.513,0.121,1.023,0.18,1.534,0.18c2.114,0,3.675-0.503,4.681-1.51
						c1.005-1.004,1.509-2.377,1.509-4.115L649.283,353.945L649.283,353.945z"/>
					<path d="M661.863,326.277H668v38.662h-6.137V326.277z"/>
				</g>
				<g enable-background="new    ">
					<path d="M408.41,423.652c-4.467,2.387-9.461,3.58-14.984,3.58c-2.797,0-5.363-0.452-7.697-1.355
						c-2.336-0.903-4.348-2.182-6.034-3.836c-1.688-1.653-3.011-3.639-3.963-5.958c-0.955-2.318-1.434-4.892-1.434-7.723
						c0-2.897,0.479-5.531,1.434-7.901c0.952-2.369,2.274-4.39,3.963-6.061c1.688-1.67,3.698-2.957,6.034-3.86
						c2.335-0.903,4.9-1.354,7.697-1.354c2.762,0,5.353,0.332,7.773,0.996c2.42,0.666,4.585,1.85,6.494,3.555l-4.757,4.808
						c-1.158-1.125-2.565-1.994-4.219-2.606c-1.653-0.615-3.4-0.922-5.242-0.922c-1.876,0-3.571,0.332-5.089,0.997
						s-2.82,1.586-3.913,2.763c-1.091,1.177-1.935,2.549-2.53,4.116c-0.597,1.568-0.896,3.257-0.896,5.062
						c0,1.942,0.298,3.732,0.896,5.37c0.597,1.637,1.439,3.052,2.53,4.245c1.093,1.192,2.396,2.131,3.913,2.812
						c1.518,0.684,3.213,1.023,5.089,1.023c1.638,0,3.18-0.154,4.628-0.461c1.448-0.308,2.736-0.784,3.861-1.433v-8.541h-7.415
						v-5.83h13.859L408.41,423.652L408.41,423.652z"/>
					<path d="M420.377,416.186c0.205,1.842,0.921,3.272,2.148,4.297c1.227,1.021,2.71,1.533,4.448,1.533
						c1.534,0,2.82-0.313,3.861-0.945c1.039-0.63,1.951-1.424,2.736-2.378l4.396,3.323c-1.432,1.773-3.034,3.035-4.808,3.784
						c-1.773,0.75-3.631,1.125-5.574,1.125c-1.841,0-3.58-0.307-5.217-0.92c-1.637-0.614-3.051-1.483-4.244-2.608
						s-2.141-2.479-2.838-4.064c-0.699-1.586-1.049-3.352-1.049-5.294c0-1.943,0.35-3.707,1.049-5.293
						c0.697-1.585,1.645-2.94,2.838-4.065s2.607-1.995,4.244-2.607c1.637-0.614,3.376-0.921,5.217-0.921
						c1.705,0,3.265,0.299,4.68,0.896c1.414,0.597,2.625,1.457,3.632,2.582c1.006,1.125,1.79,2.515,2.353,4.168
						c0.562,1.654,0.845,3.555,0.845,5.703v1.688h-18.718V416.186z M432.958,411.583c-0.034-1.808-0.597-3.23-1.688-4.271
						s-2.607-1.562-4.552-1.562c-1.842,0-3.299,0.529-4.373,1.586c-1.073,1.057-1.729,2.473-1.969,4.245L432.958,411.583
						L432.958,411.583z"/>
					<path d="M444.822,401.764h5.83v3.938h0.103c0.579-1.229,1.466-2.293,2.659-3.196s2.812-1.354,4.859-1.354
						c1.636,0,3.024,0.272,4.168,0.817c1.141,0.546,2.069,1.262,2.786,2.148c0.716,0.887,1.228,1.909,1.533,3.067
						c0.309,1.159,0.461,2.37,0.461,3.632v15.495h-6.137v-12.428c0-0.682-0.035-1.438-0.103-2.274
						c-0.069-0.835-0.248-1.619-0.537-2.354c-0.29-0.732-0.741-1.347-1.355-1.842c-0.613-0.493-1.449-0.741-2.506-0.741
						c-1.022,0-1.884,0.171-2.583,0.512c-0.699,0.342-1.278,0.803-1.738,1.382c-0.461,0.579-0.793,1.244-0.998,1.993
						c-0.204,0.751-0.307,1.534-0.307,2.354v13.398h-6.137L444.822,401.764L444.822,401.764z"/>
					<path d="M472.95,414.037c0-1.943,0.349-3.707,1.048-5.293c0.699-1.585,1.645-2.94,2.839-4.065
						c1.192-1.125,2.608-1.995,4.245-2.607c1.637-0.614,3.375-0.921,5.216-0.921s3.58,0.307,5.217,0.921
						c1.637,0.612,3.052,1.482,4.245,2.607c1.192,1.125,2.14,2.48,2.838,4.065c0.698,1.586,1.05,3.35,1.05,5.293
						s-0.352,3.708-1.05,5.294c-0.698,1.585-1.646,2.94-2.838,4.065c-1.193,1.125-2.608,1.993-4.245,2.607
						c-1.637,0.613-3.376,0.92-5.217,0.92s-3.579-0.307-5.216-0.92c-1.637-0.614-3.053-1.482-4.245-2.607
						c-1.194-1.125-2.14-2.48-2.839-4.065C473.299,417.745,472.95,415.98,472.95,414.037z M479.087,414.037
						c0,0.955,0.161,1.876,0.485,2.762c0.324,0.888,0.801,1.671,1.433,2.354c0.63,0.683,1.389,1.228,2.276,1.637
						c0.886,0.409,1.892,0.614,3.017,0.614c1.126,0,2.13-0.205,3.019-0.614c0.886-0.409,1.645-0.954,2.275-1.637
						c0.63-0.683,1.107-1.466,1.433-2.354c0.322-0.886,0.485-1.807,0.485-2.762c0-0.954-0.163-1.874-0.485-2.762
						c-0.324-0.887-0.803-1.67-1.433-2.354c-0.632-0.682-1.391-1.228-2.275-1.636c-0.889-0.409-1.893-0.614-3.019-0.614
						c-1.125,0-2.131,0.205-3.017,0.614c-0.889,0.408-1.646,0.954-2.276,1.636c-0.632,0.684-1.107,1.467-1.433,2.354
						C479.248,412.163,479.087,413.083,479.087,414.037z"/>
					<path d="M505.117,401.764h5.83v3.835h0.103c0.545-1.157,1.423-2.189,2.634-3.094c1.21-0.903,2.838-1.354,4.886-1.354
						c3.852,0,6.408,1.518,7.671,4.552c0.886-1.567,1.995-2.719,3.324-3.452c1.328-0.732,2.914-1.1,4.757-1.1
						c1.636,0,3.017,0.272,4.142,0.817c1.126,0.546,2.037,1.296,2.736,2.25c0.698,0.955,1.202,2.071,1.509,3.352
						c0.307,1.277,0.46,2.65,0.46,4.115v14.628h-6.137V412.4c0-0.749-0.069-1.475-0.204-2.174c-0.137-0.697-0.376-1.312-0.717-1.842
						c-0.341-0.526-0.802-0.944-1.381-1.253c-0.58-0.307-1.33-0.46-2.25-0.46c-0.955,0-1.766,0.179-2.431,0.537
						c-0.664,0.358-1.211,0.836-1.637,1.432c-0.426,0.599-0.732,1.279-0.92,2.046c-0.188,0.769-0.281,1.544-0.281,2.327v13.297
						h-6.137v-14.627c0-1.533-0.324-2.753-0.974-3.655c-0.646-0.903-1.722-1.355-3.221-1.355c-1.022,0-1.885,0.171-2.584,0.512
						c-0.699,0.342-1.276,0.803-1.738,1.382c-0.461,0.579-0.793,1.244-0.997,1.993c-0.203,0.751-0.308,1.534-0.308,2.354v13.398
						h-6.137L505.117,401.764L505.117,401.764z"/>
					<path d="M549.1,393.427c0-0.987,0.366-1.849,1.101-2.581c0.731-0.734,1.662-1.101,2.787-1.101s2.07,0.351,2.838,1.048
						c0.768,0.699,1.15,1.578,1.15,2.634c0,1.058-0.384,1.937-1.15,2.634c-0.768,0.699-1.713,1.05-2.838,1.05
						s-2.056-0.366-2.787-1.101C549.466,395.277,549.1,394.416,549.1,393.427z M549.969,401.764h6.138v24.549h-6.138V401.764z"/>
					<path d="M579.938,409.128c-0.716-0.75-1.466-1.347-2.25-1.79c-0.784-0.441-1.586-0.665-2.403-0.665
						c-1.125,0-2.131,0.205-3.018,0.614c-0.888,0.408-1.646,0.954-2.275,1.636c-0.631,0.684-1.107,1.467-1.433,2.354
						c-0.323,0.888-0.485,1.808-0.485,2.762c0,0.955,0.162,1.876,0.485,2.762c0.324,0.888,0.802,1.671,1.433,2.354
						s1.389,1.228,2.275,1.637s1.893,0.614,3.018,0.614c0.955,0,1.842-0.196,2.66-0.589c0.817-0.393,1.517-0.964,2.097-1.714
						l4.091,4.398c-0.613,0.613-1.321,1.143-2.121,1.585c-0.803,0.443-1.61,0.802-2.43,1.074c-0.819,0.271-1.604,0.468-2.354,0.588
						c-0.75,0.119-1.396,0.179-1.942,0.179c-1.84,0-3.579-0.307-5.216-0.92c-1.638-0.614-3.053-1.482-4.245-2.607
						c-1.193-1.125-2.141-2.48-2.838-4.065c-0.699-1.586-1.05-3.351-1.05-5.294s0.351-3.707,1.05-5.293
						c0.697-1.585,1.645-2.94,2.838-4.065c1.192-1.125,2.607-1.995,4.245-2.607c1.637-0.614,3.376-0.921,5.216-0.921
						c1.567,0,3.146,0.299,4.73,0.896s2.975,1.543,4.168,2.838L579.938,409.128z"/>
					<path d="M600.906,408.565c-1.194-1.671-2.797-2.507-4.809-2.507c-0.817,0-1.619,0.204-2.402,0.613
						c-0.785,0.409-1.178,1.074-1.178,1.995c0,0.75,0.323,1.296,0.973,1.636c0.646,0.342,1.466,0.632,2.455,0.87
						c0.987,0.238,2.054,0.485,3.195,0.741c1.143,0.256,2.207,0.647,3.196,1.176c0.988,0.529,1.807,1.254,2.455,2.174
						c0.646,0.921,0.972,2.184,0.972,3.785c0,1.466-0.314,2.702-0.945,3.707c-0.631,1.007-1.449,1.815-2.455,2.43
						c-1.006,0.613-2.141,1.058-3.4,1.329c-1.262,0.273-2.523,0.409-3.785,0.409c-1.91,0-3.665-0.271-5.268-0.816
						c-1.604-0.547-3.035-1.535-4.296-2.968l4.092-3.836c0.784,0.889,1.628,1.611,2.531,2.174c0.902,0.563,2.003,0.845,3.299,0.845
						c0.441,0,0.903-0.051,1.381-0.153c0.478-0.102,0.921-0.272,1.329-0.512c0.41-0.237,0.742-0.537,0.998-0.896
						c0.256-0.357,0.383-0.774,0.383-1.253c0-0.852-0.324-1.482-0.971-1.893c-0.648-0.409-1.468-0.741-2.455-0.997
						c-0.99-0.256-2.056-0.494-3.197-0.716c-1.143-0.223-2.207-0.579-3.195-1.074c-0.99-0.494-1.809-1.186-2.455-2.071
						c-0.647-0.886-0.972-2.113-0.972-3.683c0-1.362,0.281-2.548,0.844-3.555c0.563-1.006,1.305-1.833,2.226-2.479
						c0.921-0.647,1.978-1.125,3.171-1.432c1.192-0.309,2.402-0.461,3.631-0.461c1.637,0,3.256,0.28,4.857,0.844
						c1.603,0.562,2.897,1.525,3.889,2.89L600.906,408.565z"/>
				</g>
				<g enable-background="new    ">
					<path d="M376.241,451.474h6.443v30.379h15.395v5.83h-21.838V451.474z"/>
					<path d="M417.564,484.308h-0.154c-0.887,1.398-2.012,2.412-3.375,3.043c-1.364,0.631-2.863,0.945-4.5,0.945
						c-1.125,0-2.226-0.153-3.299-0.46c-1.074-0.307-2.029-0.767-2.864-1.381c-0.836-0.613-1.509-1.381-2.021-2.301
						c-0.512-0.921-0.767-1.995-0.767-3.224c0-1.329,0.237-2.463,0.716-3.399c0.478-0.938,1.116-1.723,1.918-2.354
						c0.801-0.631,1.73-1.134,2.787-1.509s2.156-0.656,3.299-0.844c1.143-0.188,2.293-0.309,3.451-0.358
						c1.159-0.051,2.251-0.076,3.273-0.076h1.534v-0.665c0-1.533-0.528-2.686-1.586-3.451c-1.057-0.769-2.403-1.151-4.04-1.151
						c-1.296,0-2.507,0.23-3.632,0.69c-1.125,0.461-2.096,1.083-2.914,1.866l-3.223-3.222c1.363-1.397,2.957-2.404,4.782-3.018
						c1.823-0.614,3.708-0.921,5.65-0.921c1.738,0,3.204,0.195,4.398,0.588c1.192,0.393,2.182,0.896,2.966,1.509
						c0.784,0.614,1.39,1.322,1.815,2.123s0.731,1.609,0.92,2.429c0.188,0.819,0.299,1.611,0.333,2.378
						c0.034,0.769,0.052,1.441,0.052,2.021v14.114h-5.522v-3.374H417.564z M417.206,476.688h-1.278
						c-0.854,0-1.809,0.034-2.863,0.103c-1.059,0.069-2.056,0.229-2.991,0.486c-0.939,0.256-1.731,0.631-2.379,1.125
						c-0.648,0.493-0.973,1.185-0.973,2.07c0,0.58,0.128,1.065,0.385,1.457c0.256,0.394,0.588,0.727,0.996,0.998
						c0.409,0.272,0.87,0.469,1.382,0.588c0.512,0.12,1.021,0.18,1.533,0.18c2.113,0,3.675-0.503,4.681-1.51
						c1.006-1.005,1.509-2.378,1.509-4.115L417.206,476.688L417.206,476.688z"/>
					<path d="M429.684,449.02h6.139v17.234h0.152c0.308-0.409,0.698-0.826,1.177-1.253c0.478-0.426,1.057-0.826,1.738-1.202
						c0.683-0.374,1.467-0.682,2.354-0.92s1.909-0.357,3.067-0.357c1.739,0,3.343,0.332,4.809,0.996
						c1.466,0.665,2.719,1.578,3.759,2.736c1.04,1.159,1.851,2.523,2.43,4.092s0.869,3.256,0.869,5.062
						c0,1.808-0.272,3.495-0.817,5.062c-0.546,1.568-1.349,2.934-2.403,4.092c-1.058,1.159-2.336,2.07-3.836,2.735
						c-1.501,0.665-3.188,0.997-5.063,0.997c-1.737,0-3.356-0.341-4.856-1.021c-1.502-0.683-2.694-1.772-3.58-3.273h-0.104v3.683
						h-5.831V449.02H429.684z M450.039,475.408c0-0.954-0.162-1.874-0.486-2.762c-0.324-0.887-0.801-1.671-1.432-2.354
						c-0.631-0.682-1.39-1.228-2.275-1.636c-0.888-0.409-1.893-0.614-3.018-0.614s-2.131,0.205-3.019,0.614
						c-0.887,0.408-1.646,0.954-2.274,1.636c-0.632,0.683-1.109,1.467-1.434,2.354c-0.323,0.888-0.484,1.808-0.484,2.762
						c0,0.955,0.161,1.876,0.484,2.762c0.323,0.888,0.802,1.671,1.434,2.354c0.63,0.683,1.389,1.228,2.274,1.637
						c0.887,0.409,1.894,0.614,3.019,0.614s2.13-0.205,3.018-0.614c0.887-0.409,1.646-0.954,2.275-1.637
						c0.631-0.683,1.106-1.466,1.432-2.354C449.877,477.284,450.039,476.363,450.039,475.408z"/>
					<path d="M460.676,475.408c0-1.943,0.351-3.707,1.049-5.293c0.697-1.585,1.646-2.94,2.839-4.065
						c1.192-1.125,2.606-1.995,4.243-2.607c1.638-0.614,3.376-0.921,5.218-0.921s3.579,0.307,5.217,0.921
						c1.637,0.612,3.051,1.482,4.244,2.607c1.192,1.125,2.14,2.48,2.839,4.065c0.698,1.586,1.048,3.35,1.048,5.293
						c0,1.942-0.35,3.708-1.048,5.294c-0.699,1.585-1.646,2.939-2.839,4.064c-1.193,1.125-2.607,1.994-4.244,2.608
						c-1.637,0.613-3.375,0.92-5.217,0.92s-3.58-0.307-5.218-0.92c-1.637-0.614-3.051-1.483-4.243-2.608
						c-1.193-1.125-2.142-2.479-2.839-4.064C461.025,479.116,460.676,477.352,460.676,475.408z M466.812,475.408
						c0,0.955,0.161,1.876,0.485,2.762c0.323,0.888,0.801,1.671,1.433,2.354c0.631,0.683,1.389,1.228,2.274,1.637
						s1.894,0.614,3.019,0.614s2.131-0.205,3.018-0.614s1.645-0.954,2.275-1.637s1.106-1.466,1.433-2.354
						c0.323-0.886,0.485-1.807,0.485-2.762c0-0.954-0.162-1.874-0.485-2.762c-0.325-0.887-0.802-1.671-1.433-2.354
						c-0.632-0.682-1.39-1.228-2.275-1.636c-0.887-0.409-1.893-0.614-3.018-0.614s-2.132,0.205-3.019,0.614
						c-0.887,0.408-1.645,0.954-2.274,1.636c-0.632,0.683-1.108,1.467-1.433,2.354C466.975,473.534,466.812,474.454,466.812,475.408
						z"/>
					<path d="M493.1,463.135h6.138v3.888h0.102c0.683-1.434,1.654-2.54,2.916-3.324c1.261-0.784,2.711-1.177,4.347-1.177
						c0.375,0,0.741,0.033,1.101,0.103c0.358,0.069,0.724,0.153,1.1,0.256v5.934c-0.511-0.137-1.015-0.247-1.509-0.333
						c-0.494-0.084-0.98-0.129-1.457-0.129c-1.432,0-2.583,0.266-3.453,0.793c-0.869,0.529-1.533,1.135-1.994,1.815
						c-0.46,0.683-0.768,1.364-0.92,2.046c-0.153,0.684-0.229,1.193-0.229,1.534v13.144h-6.14V463.135z"/>
					<path d="M528.336,484.308h-0.154c-0.887,1.398-2.012,2.412-3.375,3.043s-2.862,0.945-4.5,0.945
						c-1.125,0-2.225-0.153-3.299-0.46s-2.029-0.767-2.864-1.381c-0.836-0.613-1.509-1.381-2.021-2.301
						c-0.512-0.921-0.767-1.995-0.767-3.224c0-1.329,0.236-2.463,0.716-3.399c0.477-0.938,1.115-1.723,1.918-2.354
						c0.801-0.631,1.729-1.134,2.787-1.509c1.057-0.375,2.155-0.656,3.299-0.844c1.142-0.188,2.293-0.309,3.451-0.358
						c1.158-0.051,2.251-0.076,3.272-0.076h1.535v-0.665c0-1.533-0.529-2.686-1.586-3.451c-1.057-0.769-2.404-1.151-4.04-1.151
						c-1.296,0-2.507,0.23-3.632,0.69c-1.125,0.461-2.097,1.083-2.914,1.866l-3.224-3.222c1.363-1.397,2.957-2.404,4.782-3.018
						c1.823-0.614,3.708-0.921,5.651-0.921c1.738,0,3.204,0.195,4.397,0.588c1.192,0.393,2.183,0.896,2.967,1.509
						c0.783,0.614,1.389,1.322,1.814,2.123s0.732,1.609,0.92,2.429c0.188,0.819,0.299,1.611,0.333,2.378
						c0.034,0.769,0.053,1.441,0.053,2.021v14.114h-5.523v-3.374H528.336z M527.979,476.688H526.7c-0.854,0-1.81,0.034-2.864,0.103
						c-1.058,0.069-2.055,0.229-2.991,0.486c-0.938,0.256-1.73,0.631-2.379,1.125c-0.647,0.493-0.972,1.185-0.972,2.07
						c0,0.58,0.128,1.065,0.384,1.457c0.256,0.394,0.588,0.727,0.997,0.998c0.409,0.272,0.87,0.469,1.381,0.588
						c0.512,0.12,1.022,0.18,1.534,0.18c2.113,0,3.674-0.503,4.68-1.51c1.006-1.005,1.509-2.378,1.509-4.115V476.688
						L527.979,476.688z"/>
					<path d="M537.592,468.351v-5.216h5.062v-7.108h6.138v7.108h6.751v5.216h-6.751v10.74c0,1.229,0.229,2.199,0.69,2.915
						c0.46,0.716,1.371,1.074,2.735,1.074c0.545,0,1.143-0.061,1.789-0.18c0.648-0.118,1.159-0.314,1.535-0.588v5.165
						c-0.648,0.308-1.441,0.52-2.379,0.64c-0.938,0.119-1.764,0.179-2.48,0.179c-1.637,0-2.975-0.179-4.014-0.536
						c-1.041-0.357-1.859-0.902-2.455-1.637c-0.598-0.733-1.006-1.646-1.228-2.736c-0.223-1.091-0.333-2.353-0.333-3.784v-11.252
						H537.592L537.592,468.351z"/>
					<path d="M559.122,475.408c0-1.943,0.349-3.707,1.048-5.293c0.699-1.585,1.646-2.94,2.839-4.065
						c1.192-1.125,2.608-1.995,4.245-2.607c1.637-0.614,3.375-0.921,5.216-0.921s3.58,0.307,5.217,0.921
						c1.637,0.612,3.052,1.482,4.245,2.607c1.192,1.125,2.14,2.48,2.838,4.065c0.698,1.586,1.05,3.35,1.05,5.293
						c0,1.942-0.352,3.708-1.05,5.294c-0.698,1.585-1.646,2.939-2.838,4.064c-1.193,1.125-2.608,1.994-4.245,2.608
						c-1.637,0.613-3.376,0.92-5.217,0.92s-3.579-0.307-5.216-0.92c-1.637-0.614-3.053-1.483-4.245-2.608
						c-1.193-1.125-2.14-2.479-2.839-4.064C559.471,479.116,559.122,477.352,559.122,475.408z M565.259,475.408
						c0,0.955,0.161,1.876,0.485,2.762c0.324,0.888,0.801,1.671,1.433,2.354c0.63,0.683,1.39,1.228,2.276,1.637
						c0.886,0.409,1.892,0.614,3.017,0.614c1.126,0,2.13-0.205,3.019-0.614c0.886-0.409,1.645-0.954,2.275-1.637
						c0.63-0.683,1.107-1.466,1.433-2.354c0.322-0.886,0.485-1.807,0.485-2.762c0-0.954-0.163-1.874-0.485-2.762
						c-0.324-0.887-0.803-1.671-1.433-2.354c-0.632-0.682-1.391-1.228-2.275-1.636c-0.889-0.409-1.893-0.614-3.019-0.614
						c-1.125,0-2.131,0.205-3.017,0.614c-0.889,0.408-1.646,0.954-2.276,1.636c-0.632,0.683-1.107,1.467-1.433,2.354
						C565.42,473.534,565.259,474.454,565.259,475.408z"/>
					<path d="M591.545,463.135h6.138v3.888h0.104c0.682-1.434,1.651-2.54,2.915-3.324c1.261-0.784,2.71-1.177,4.347-1.177
						c0.375,0,0.742,0.033,1.101,0.103c0.357,0.069,0.725,0.153,1.1,0.256v5.934c-0.512-0.137-1.016-0.247-1.509-0.333
						c-0.495-0.084-0.98-0.129-1.458-0.129c-1.433,0-2.582,0.266-3.451,0.793c-0.869,0.529-1.535,1.135-1.994,1.815
						c-0.461,0.683-0.768,1.364-0.922,2.046c-0.152,0.684-0.229,1.193-0.229,1.534v13.144h-6.138v-24.549H591.545z"/>
					<path d="M608.115,463.135h6.75l6.854,17.03h0.103l6.138-17.03h6.393l-11.607,29.815c-0.444,1.159-0.93,2.174-1.458,3.043
						c-0.529,0.869-1.151,1.603-1.866,2.199c-0.717,0.596-1.561,1.04-2.532,1.33c-0.972,0.288-2.14,0.435-3.503,0.435
						c-1.604,0-3.171-0.205-4.705-0.614l0.768-5.522c0.478,0.171,0.979,0.314,1.509,0.435c0.528,0.119,1.065,0.18,1.611,0.18
						c0.75,0,1.381-0.068,1.893-0.204c0.511-0.138,0.945-0.351,1.304-0.64c0.358-0.29,0.655-0.665,0.896-1.125
						c0.237-0.461,0.493-1.016,0.767-1.662l1.178-2.916L608.115,463.135z"/>
				</g>
			</g>
			<g id="OICR-Logo_CMYK_ENGLISH">
				<path id="Fill-1" fill="#61B345" d="M128.139,299.366V275.5h-0.284c-5.682,0-11.081,0.284-16.763,1.137l3.125,23.582
					C118.763,299.65,123.309,299.366,128.139,299.366L128.139,299.366"/>
				<path id="Fill-2" fill="#61B345" d="M48.585,392.842l23.298,3.126c0.284-2.558,0.853-4.831,1.421-7.104
					c0.568-2.273,1.42-4.546,2.273-6.819l-43.755-18.468c-1.705,4.262-3.125,8.522-4.262,12.786l-23.298-6.252
					c-1.42,5.397-2.557,10.798-3.125,16.479l23.866,3.125L48.585,392.842"/>
				<path id="Fill-3" fill="#61B345" d="M161.098,280.046l-6.251,23.015c4.262,1.135,8.808,2.558,12.786,4.262l9.092-21.877
					C171.894,283.171,166.496,281.466,161.098,280.046"/>
				<path id="Fill-4" fill="#61B345" d="M79.27,466.43c-2.841-1.986-5.398-4.546-7.955-6.815L54.268,476.66
					c3.125,3.125,6.535,6.251,10.228,9.092L79.27,466.43"/>
				<path id="Fill-5" fill="#61B345" d="M50.858,423.812l22.73-5.969c-1.421-4.83-1.989-9.66-1.989-14.488H48.301
					c0,3.408,0.284,7.104,0.853,10.514l-23.866,3.125c-0.568-4.546-0.853-9.093-0.853-13.639H0c0,5.684,0.284,11.079,1.137,16.479
					c0.568,5.397,1.705,11.081,3.125,16.479L50.858,423.812"/>
				<path id="Fill-6" fill="#61B345" d="M82.964,437.449c-1.421-1.988-2.841-3.979-3.978-6.251
					c-1.136-1.988-2.273-4.265-3.125-6.534l-21.877,9.092c1.42,3.125,2.841,6.535,4.546,9.376l-41.482,24.15
					c2.841,4.83,5.967,9.376,9.376,13.922c3.41,4.546,7.103,8.521,11.081,12.502l17.047-17.048
					c-3.41-3.409-6.251-6.819-9.092-10.229L82.964,437.449"/>
				<path id="Fill-7" fill="#61B345" d="M142.629,348.52c2.273,0.567,4.546,1.42,6.819,2.272l9.092-21.593
					c-3.125-1.42-6.535-2.557-9.944-3.41L142.629,348.52"/>
				<path id="Fill-8" fill="#61B345" d="M117.343,324.085l-3.125-23.582c-4.546,0.567-8.808,1.42-13.354,2.558l-6.25-23.015
					c-5.398,1.421-10.797,3.125-15.911,5.397l18.468,44.039c-3.125,1.42-6.25,2.842-9.376,4.547l11.649,20.173
					c1.989-1.138,4.262-2.272,6.535-3.41c2.273-0.853,4.546-1.705,7.103-2.272c2.273-0.567,4.83-1.138,7.104-1.42
					c2.557-0.285,5.114-0.567,7.671-0.567h0.284v-23.3h-0.284C124.162,323.232,120.752,323.516,117.343,324.085"/>
				<path id="Fill-9" fill="#61B345" d="M128.139,323.232c3.41,0,6.819,0.283,10.513,0.566l3.125-23.865
					c-4.546-0.567-9.092-0.854-13.638-0.854V323.232"/>
				<path id="Fill-10" fill="#61B345" d="M64.496,320.959l-14.49-19.036c-4.546,3.41-8.523,7.103-12.501,11.081l33.811,33.811
					c2.557-2.557,5.114-4.83,7.955-6.817c2.841-2.272,5.683-3.979,8.808-5.968L76.146,313.29
					C71.883,315.561,68.189,318.118,64.496,320.959"/>
				<path id="Fill-11" fill="#61B345" d="M82.964,368.977c1.42-1.99,3.125-3.979,4.83-5.683l-16.479-16.479
					c-2.557,2.559-4.83,5.115-6.819,7.955L82.964,368.977"/>
				<path id="Fill-12" fill="#61B345" d="M26.423,325.505c-3.409,4.546-6.535,9.093-9.376,13.922l20.741,11.933l20.741,12.219
					c1.705-3.125,3.693-5.969,5.683-8.809L26.423,325.505"/>
				<path id="Fill-13" fill="#61B345" d="M192.067,292.831l-23.866,41.198c3.125,1.705,5.966,3.693,8.808,5.966l28.696-37.788
					C201.443,298.798,196.897,295.673,192.067,292.831"/>
				<path id="Fill-14" fill="#1A1919" d="M180.134,313.288c-3.978-2.272-7.956-4.263-12.217-5.966l-9.376,22.162
					c3.125,1.42,6.25,2.841,9.376,4.545L180.134,313.288"/>
				<path id="Fill-15" fill="#1A1919" d="M138.652,324.085l-3.125,23.015c2.557,0.283,4.83,0.853,7.103,1.42l5.967-22.445
					C145.471,325.221,142.062,324.369,138.652,324.085"/>
				<path id="Fill-16" fill="#1A1919" d="M127.855,299.366c-4.546,0-9.092,0.284-13.638,0.853l3.125,23.866
					c3.409-0.567,7.103-0.567,10.796-0.853h0.284L127.855,299.366L127.855,299.366"/>
				<path id="Fill-17" fill="#1A1919" d="M31.822,363.578l22.162,9.092c1.42-3.125,2.841-6.25,4.546-9.092l-20.741-11.934
					C35.515,355.338,33.526,359.316,31.822,363.578"/>
				<path id="Fill-18" fill="#1A1919" d="M54.552,476.658l17.047-17.048c-2.557-2.56-4.831-5.113-7.104-7.955l-19.036,14.771
					C48.301,469.839,51.142,473.249,54.552,476.658"/>
				<path id="Fill-19" fill="#1A1919" d="M58.529,363.578l20.173,11.648c1.136-2.272,2.557-4.263,3.978-6.25L64.212,354.77
					C62.223,357.611,60.518,360.452,58.529,363.578"/>
				<path id="Fill-20" fill="#1A1919" d="M48.017,403.069L48.017,403.069h23.298l0,0c0-2.559,0.284-4.829,0.568-7.388l-23.298-3.125
					C48.301,396.252,48.017,399.661,48.017,403.069"/>
				<path id="Fill-21" fill="#1A1919" d="M32.106,442.848l22.162-9.092c-1.421-3.125-2.557-6.535-3.41-9.944l-23.014,6.251
					C28.696,434.608,30.117,438.87,32.106,442.848"/>
				<path id="Fill-22" fill="#1A1919" d="M79.27,339.995l14.207,18.468c1.989-1.421,3.978-2.841,6.25-4.262l-11.649-20.174
					C84.668,335.734,81.827,337.723,79.27,339.995"/>
				<path id="Fill-23" fill="#1A1919" d="M107.398,459.043c1.705,0,3.125-0.568,4.262-1.705c0.568-0.568,0.853-1.137,1.137-1.989
					c0.284-0.852,0.568-1.704,0.568-2.271c0-0.854,0-1.705-0.568-2.273c-0.284-0.852-0.568-1.42-1.137-1.986
					c-1.137-1.139-2.557-1.705-4.262-1.705c-0.853,0-1.705,0.284-2.273,0.566c-0.568,0.284-1.421,0.854-1.989,1.421
					c-0.568,0.568-0.853,1.14-1.137,1.988c-0.284,0.854-0.568,1.705-0.568,2.272c0,0.854,0,1.705,0.568,2.271
					c0.284,0.854,0.568,1.421,1.137,1.989c0.568,0.566,1.136,1.137,1.989,1.421C105.693,459.043,106.546,459.043,107.398,459.043z
					 M107.398,461.031c-1.137,0-2.273-0.284-3.41-0.568c-1.989-0.853-3.409-2.271-4.262-4.262c-0.853-1.988-0.853-4.263,0-6.534
					c0.853-1.989,2.273-3.41,4.262-4.262c1.989-0.854,4.546-0.854,6.535,0c0.853,0.282,1.989,0.852,2.557,1.703
					c3.125,3.407,3.125,8.521,0,11.647c-0.852,0.854-1.705,1.42-2.557,1.704C109.671,461.031,108.535,461.031,107.398,461.031z"/>
				<path id="Fill-24" fill="#1A1919" d="M118.195,450.235h1.989v1.704l0,0c0.284-0.567,0.852-1.139,1.42-1.423
					c1.136-0.564,2.273-0.564,3.693-0.28c0.568,0,0.853,0.28,1.137,0.564c0.284,0.284,0.568,0.854,0.853,1.139
					c0.284,0.566,0.284,1.138,0.284,1.703v6.818h-1.989v-5.966c0-0.284,0-0.854-0.284-1.138c0-0.283-0.284-0.567-0.568-0.854
					s-0.568-0.284-0.853-0.568c-0.284,0-0.568,0-0.853,0s-0.852,0-1.136,0.284c-0.284,0-0.568,0.284-0.853,0.568
					c-0.285,0.284-0.568,0.565-0.568,1.137c-0.284,0.568-0.284,1.137-0.284,1.42v5.398h-1.989L118.195,450.235"/>
				<path id="Fill-25" fill="#1A1919" d="M136.095,451.939h-2.841v4.828c0,0.284,0,0.568,0,0.854s0,0.567,0.284,0.853
					c0,0.284,0.284,0.568,0.568,0.568s0.568,0.284,0.852,0.284h0.853c0.284,0,0.568-0.284,0.568-0.284v1.704
					c-0.284,0-0.568,0.284-0.853,0.284h-0.852c-0.568,0-1.137,0-1.705-0.284c-0.284-0.284-0.568-0.568-0.852-0.854
					c-0.284-0.281-0.284-0.853-0.284-1.137s0-0.853,0-1.137v-5.398h-2.273v-1.705h2.273v-2.841h1.989v2.841h2.841L136.095,451.939"
					/>
				<path id="Fill-26" fill="#1A1919" d="M144.334,455.633c-0.568,0-0.853,0-1.421,0s-0.852,0-1.42,0.284
					c-0.284,0-0.568,0.284-0.853,0.567c-0.285,0.282-0.284,0.566-0.284,1.138c0,0.568,0.284,1.137,0.568,1.137
					c0.568,0.284,1.137,0.568,1.705,0.284c0.568,0,0.853,0,1.421-0.284c0.284-0.284,0.568-0.566,0.852-0.853
					c0.284-0.285,0.284-0.568,0.568-0.854c0-0.284,0-0.853,0-1.137v-0.568L144.334,455.633z M138.652,451.655
					c0.568-0.568,1.136-0.854,1.989-1.14c0.853-0.28,1.421-0.28,2.273-0.28c0.568,0,1.421,0,1.989,0.28
					c0.568,0.284,0.853,0.568,1.421,0.854c0.284,0.284,0.568,0.565,0.852,1.137c0.284,0.284,0.284,0.854,0.284,1.421v5.398
					c0,0.283,0,0.565,0,1.136c0,0.284,0,0.568,0,0.854h-1.705c0-0.567,0-1.139,0-1.703l0,0c-0.284,0.564-0.853,1.136-1.42,1.42
					c-0.568,0.283-1.421,0.565-1.989,0.565c-0.568,0-0.852,0-1.42-0.282c-0.284-0.283-0.568-0.283-0.853-0.567
					c-0.285-0.284-0.568-0.568-0.852-0.853c-0.284-0.283-0.284-0.854-0.284-1.423c0-0.565,0-1.137,0.568-1.704
					c0.284-0.566,0.852-0.854,1.136-1.138c0.568-0.284,1.137-0.565,1.705-0.565c0.853,0,1.421-0.283,2.273-0.283h1.421v-0.568
					c0-0.284,0-0.566,0-0.853c-0.284-0.568-0.568-1.14-1.137-1.14c-1.136-0.565-1.42-0.565-1.989-0.565c-0.284,0-0.568,0-0.852,0
					s-0.568,0.283-0.853,0.283s-0.568,0.282-0.568,0.282l-0.568,0.568L138.652,451.655L138.652,451.655z"/>
				<path id="Fill-27" fill="#1A1919" d="M150.017,450.235h1.989v1.704l0,0c0-0.283,0.284-0.567,0.568-0.854
					c0.284-0.285,0.568-0.284,0.568-0.568c0.284-0.28,0.568-0.28,0.853-0.28c0.284,0,0.568,0,0.852,0c0.284,0,0.568,0,0.853,0v2.271
					h-0.568h-0.568c-0.852,0-1.705,0.284-2.273,0.854c-0.568,0.853-0.852,1.704-0.852,2.557v5.114h-1.989L150.017,450.235"/>
				<path id="Fill-28" fill="#1A1919" d="M158.256,460.747h1.989v-10.513h-1.989V460.747z M157.688,446.541
					c0-0.854,0.568-1.42,1.42-1.42c0.853,0,1.421,0.564,1.421,1.42c0,0.853-0.568,1.421-1.421,1.421
					c-0.284,0-0.852-0.284-1.136-0.284C157.688,447.394,157.688,446.825,157.688,446.541z"/>
				<path id="Fill-29" fill="#1A1919" d="M164.791,455.349c0,0.568,0,1.139,0.284,1.421c0.284,0.284,0.284,0.854,0.568,1.14
					c0.284,0.283,0.568,0.565,1.136,0.853c0.568,0.284,0.853,0.284,1.421,0.284c0.568,0,0.852,0,1.42-0.284
					c0.853-0.284,1.421-1.137,1.705-1.988c0.284-0.566,0.284-0.854,0.284-1.422c0-0.564,0-0.852-0.284-1.42
					c0-0.565-0.284-0.853-0.568-1.137c-0.284-0.284-0.568-0.568-1.137-0.854c-0.569-0.284-0.853-0.283-1.42-0.283
					c-0.568,0-0.853,0-1.421,0.283c-0.284,0.282-0.852,0.282-1.136,0.854c-0.284,0.284-0.568,0.854-0.568,1.137
					C164.791,454.497,164.791,455.065,164.791,455.349z M162.802,455.349c0-1.42,0.568-2.841,1.42-3.69
					c1.137-1.14,2.557-1.704,3.978-1.704c0.852,0,1.42,0,2.273,0.564c0.568,0.284,1.136,0.568,1.705,1.14
					c0.569,0.566,0.853,1.137,1.137,1.704c0.284,0.566,0.568,1.422,0.568,2.271c0,0.854,0,1.421-0.568,2.273
					c-0.284,0.565-0.568,1.137-1.137,1.704c-0.568,0.565-1.136,0.853-1.705,1.137c-0.569,0.284-1.421,0.567-2.273,0.567
					c-1.421,0-2.841-0.567-3.978-1.704c-0.568-0.567-0.852-1.139-1.136-1.704C162.802,457.054,162.518,456.201,162.802,455.349
					L162.802,455.349z"/>
				<polygon id="Fill-30" fill="#1A1919" points="182.975,460.747 185.248,460.747 185.248,445.121 182.975,445.121 				"/>
				<path id="Fill-31" fill="#1A1919" d="M188.373,450.235h1.989v1.704l0,0c0.284-0.567,0.852-1.139,1.42-1.423
					c1.137-0.564,2.273-0.564,3.694-0.28c0.568,0,0.852,0.28,1.136,0.564c0.284,0.284,0.568,0.854,0.853,1.139
					c0.284,0.566,0.284,1.138,0.284,1.703v6.818h-1.989v-5.966c0-0.284,0-0.854-0.284-1.138c-0.284-0.567-0.568-1.139-1.421-1.423
					c-0.284,0-0.568,0-0.853,0c-0.284,0-0.852,0-1.136,0.284c-0.284,0-0.568,0.284-0.853,0.568
					c-0.285,0.284-0.568,0.565-0.568,1.137s-0.284,0.854-0.284,1.42v5.398h-1.989L188.373,450.235"/>
				<path id="Fill-32" fill="#1A1919" d="M206.273,452.792c-0.284-0.284-0.568-0.568-0.853-0.854
					c-0.284-0.281-0.852-0.281-1.136-0.281c-0.568,0-0.853,0-1.137,0.281c-0.284,0.284-0.568,0.568-0.568,0.854s0,0.567,0.284,0.853
					c0.284,0.284,0.568,0.284,0.568,0.568c0.284,0,0.568,0.284,0.853,0.284l0.853,0.284c0.284,0,0.852,0.283,1.136,0.283
					s0.568,0.281,0.853,0.565s0.568,0.568,0.568,0.854c0.284,0.282,0.284,0.854,0.284,1.138c0,0.565,0,1.137-0.284,1.421
					c-0.284,0.284-0.568,0.853-0.852,1.136c-0.284,0.284-0.853,0.568-1.421,0.568s-1.136,0.283-1.42,0.283
					c-0.853,0-1.42,0-2.273-0.283c-0.853-0.284-1.421-0.854-1.705-1.42l1.42-1.14c0.284,0.284,0.568,0.568,1.137,0.854
					c0.568,0.284,0.852,0.284,1.42,0.284h0.568c0.284,0,0.568,0,0.568-0.284c0.284,0,0.284-0.284,0.568-0.568
					c0-0.282,0.284-0.282,0.284-0.565c0-0.284,0-0.568-0.284-0.568c-0.284-0.284-0.284-0.284-0.568-0.568
					c-0.284,0-0.568-0.282-0.853-0.282l-0.853-0.283l-1.136-0.284c-0.284,0-0.568-0.284-0.853-0.568
					c-0.284-0.281-0.568-0.564-0.568-0.852c-0.284-0.284-0.284-0.854-0.284-1.421c0-0.568,0-0.854,0.284-1.421
					c0.284-0.284,0.568-0.854,0.853-0.854c0.284-0.282,0.853-0.564,1.136-0.564c0.568,0,0.853-0.284,1.421-0.284
					c0.568,0,1.42,0,1.989,0.284c0.568,0.282,1.137,0.852,1.42,1.42L206.273,452.792"/>
				<path id="Fill-33" fill="#1A1919" d="M216.501,451.939h-2.841v5.684c0,0.284,0,0.567,0.284,0.853
					c0,0.284,0.284,0.284,0.568,0.568c0.284,0,0.568,0.284,0.852,0.284h0.568c0.284,0,0.568,0,0.568-0.284v1.704
					c-0.284,0-0.568,0.284-0.853,0.284h-0.852c-0.568,0-1.137,0-1.705-0.284c-0.284-0.284-0.568-0.568-0.852-0.854
					c-0.284-0.281-0.284-0.853-0.284-1.137c0-0.566,0-0.853,0-1.137v-5.398h-2.273v-1.705h2.273v-2.841h1.989v2.841h2.841
					L216.501,451.939"/>
				<path id="Fill-34" fill="#1A1919" d="M218.774,460.747h1.989v-10.513h-1.989V460.747z M218.206,446.541
					c0-0.854,0.568-1.42,1.421-1.42c0.852,0,1.42,0.564,1.42,1.42c0,0.853-0.568,1.421-1.42,1.421c-0.284,0-0.853-0.284-1.137-0.284
					C218.49,447.394,218.206,446.825,218.206,446.541z"/>
				<path id="Fill-35" fill="#1A1919" d="M229.571,451.939h-2.841v4.828c0,0.284,0,0.568,0,0.854s0,0.567,0.284,0.853
					c0,0.284,0.284,0.284,0.568,0.568c0.284,0,0.568,0.284,0.853,0.284h0.853c0.284,0,0.568-0.284,0.568-0.284v1.704
					c-0.284,0-0.568,0.284-0.852,0.284h-0.853c-0.568,0-1.137,0-1.705-0.284c-0.284-0.284-0.568-0.568-0.853-0.854
					c-0.284-0.281-0.284-0.853-0.284-1.137s0-0.853,0-1.137v-5.398h-2.273v-1.705h2.273v-2.841h1.989v2.841h2.841L229.571,451.939"
					/>
				<path id="Fill-36" fill="#1A1919" d="M240.936,460.747h-1.989v-1.704l0,0c-0.284,0.567-0.853,1.136-1.421,1.42
					c-0.568,0.284-1.42,0.568-2.273,0.568c-0.568,0-0.853,0-1.42-0.284c-0.568,0-0.853-0.284-1.137-0.568
					c-0.284-0.281-0.568-0.852-0.852-1.136c-0.284-0.568-0.284-1.137-0.284-1.705v-6.817h1.989v6.251c0,0.282,0,0.854,0.284,1.138
					c0,0.283,0.284,0.565,0.568,0.853c0.284,0.284,0.568,0.284,0.853,0.568c0.284,0,0.568,0,0.853,0s0.852,0,1.136-0.284
					c0.284,0,0.568-0.284,0.853-0.567c0.285-0.283,0.568-0.566,0.568-1.138c0.284-0.566,0.284-1.137,0.284-1.421v-5.114h1.989
					L240.936,460.747"/>
				<path id="Fill-37" fill="#1A1919" d="M249.744,451.939h-2.841v5.684c0,0.284,0,0.567,0.284,0.853
					c0,0.284,0.284,0.284,0.568,0.568c0.284,0,0.568,0.284,0.853,0.284h0.852c0.284,0,0.568,0,0.568-0.284v1.704
					c-0.284,0-0.568,0.284-0.853,0.284h-0.852c-0.568,0-1.137,0-1.705-0.284c-0.284-0.284-0.568-0.568-0.852-0.854
					c-0.284-0.281-0.284-0.853-0.284-1.137c0-0.566,0-0.853,0-1.137v-5.398h-2.273v-1.705h2.273v-2.841h1.705v2.841h2.841
					L249.744,451.939"/>
				<path id="Fill-38" fill="#1A1919" d="M259.688,454.497c0-0.284,0-0.854-0.284-1.138c0-0.283-0.284-0.567-0.568-0.854
					c-0.284-0.284-0.568-0.566-0.852-0.566c-0.284-0.283-0.853-0.283-1.137-0.283c-0.568,0-0.852,0-1.42,0.283
					c-0.284,0.282-0.853,0.282-1.137,0.566s-0.568,0.568-0.568,0.854c0,0.283-0.284,0.566-0.284,1.138H259.688z M253.438,456.201
					c0,0.565,0,0.853,0.284,1.137c0.284,0.284,0.568,0.568,0.852,0.854c0.284,0.283,0.853,0.566,1.137,0.566
					c0.284,0.284,0.852,0.284,1.42,0.284c0.568,0,1.137-0.284,1.705-0.568c0.568-0.282,0.853-0.565,1.137-1.137l1.42,1.137
					c-1.136,1.421-2.841,2.272-4.546,2.272c-0.852,0-1.42,0-2.273-0.568c-0.568-0.282-1.136-0.564-1.705-1.136
					c-0.569-0.569-0.853-1.137-1.137-1.705c-0.284-0.568-0.284-1.421-0.284-2.271c0-0.854,0-1.423,0.284-2.272
					c0.284-0.568,0.568-1.137,1.137-1.705c0.569-0.566,1.136-0.852,1.705-1.136c0.569-0.284,1.421-0.568,2.273-0.568
					c0.853,0,1.705,0.284,2.273,0.568c1.137,0.566,1.989,1.704,2.557,3.125c0.284,0.566,0.284,1.421,0.284,1.988v0.565
					L253.438,456.201z"/>
				<path id="Fill-39" fill="#1A1919" d="M103.137,475.806h-2.273v-1.704h2.273v-2.271c0-1.138,0.284-2.272,0.852-3.125
					c0.853-0.854,1.705-1.138,2.841-1.138h0.568c0.284,0,0.568,0,0.852,0l-0.284,1.704h-0.568h-0.568c-0.284,0-0.568,0-0.853,0.283
					c-0.284,0-0.284,0.283-0.568,0.567c0,0.284-0.284,0.566-0.284,0.853c0,0.287,0,0.568,0,0.854v2.271h2.273v1.704h-2.273v8.811
					h-1.989L103.137,475.806"/>
				<path id="Fill-40" fill="#1A1919" d="M111.092,479.499c0,0.567,0,0.853,0.284,1.421s0.284,0.854,0.568,1.137
					c0.284,0.284,0.568,0.568,1.136,0.854c0.853,0.283,1.989,0.283,2.841,0c0.284-0.284,0.853-0.284,1.137-0.854
					c0.284-0.282,0.568-0.853,0.568-1.137c0.284-0.568,0.284-0.854,0.284-1.421s0-1.136-0.284-1.42s-0.284-0.854-0.568-1.138
					c-0.284-0.283-0.568-0.567-1.137-0.854c-0.569-0.285-0.852-0.284-1.42-0.284s-0.853,0-1.421,0.284
					c-0.284,0.284-0.852,0.284-1.136,0.854c-0.284,0.282-0.568,0.854-0.568,1.138C111.092,478.363,111.092,478.932,111.092,479.499z
					 M108.819,479.499c0-0.853,0-1.42,0.568-2.272c0.284-0.565,0.568-1.137,1.136-1.703c0.568-0.567,1.137-0.854,1.705-1.138
					c1.42-0.566,2.841-0.566,4.262,0c0.568,0.283,1.137,0.567,1.705,1.138c0.568,0.566,0.853,1.138,1.137,1.703
					c0.568,1.423,0.568,2.843,0,4.265c-0.284,0.565-0.568,1.137-1.137,1.704c-0.568,0.566-1.136,0.854-1.705,1.137
					c-1.42,0.567-2.841,0.567-4.262,0c-0.568-0.283-1.137-0.567-1.705-1.137c-0.568-0.567-0.852-1.139-1.136-1.704
					C108.819,480.92,108.819,480.067,108.819,479.499L108.819,479.499z"/>
				<path id="Fill-41" fill="#1A1919" d="M122.457,474.102h1.989v1.704l0,0c0-0.282,0.284-0.565,0.568-0.853
					c0.284-0.284,0.568-0.284,0.852-0.567c0.284-0.284,0.568-0.284,0.853-0.284c0.285,0,0.568,0,0.852-0.282
					c0.284,0,0.568,0,0.853,0.282v2.272h-0.568h-0.568c-0.853,0-1.705,0.284-2.273,0.853c-0.568,0.854-0.853,1.705-0.853,2.56v5.113
					h-1.989L122.457,474.102"/>
				<path id="Fill-42" fill="#1A1919" d="M148.312,472.396c-0.568-0.567-1.137-1.139-1.705-1.423
					c-0.568-0.282-1.421-0.565-1.989-0.565c-0.852,0-1.705,0.283-2.273,0.565c-0.568,0.284-1.42,0.854-1.705,1.423
					c-0.568,0.566-0.853,1.138-1.136,1.987c-0.568,1.42-0.568,3.125,0,4.83c0.568,1.42,1.42,2.559,2.841,3.409
					c0.853,0.284,1.705,0.567,2.557,0.567c0.853,0,1.705-0.283,2.273-0.567c0.568-0.284,1.137-0.854,1.705-1.421l1.705,1.421
					c-0.284,0.284-0.284,0.567-0.568,0.567c-0.284,0.282-0.852,0.566-1.136,0.854c-0.568,0.283-1.137,0.567-1.705,0.852
					c-0.852,0.284-1.42,0.284-2.273,0.284c-1.136,0-2.273-0.284-3.409-0.565c-0.853-0.567-1.705-1.139-2.557-1.988
					c-0.568-0.854-1.137-1.705-1.705-2.559c-0.284-0.854-0.568-1.987-0.568-2.843c0-1.137,0.284-2.271,0.568-3.407
					c0.284-0.854,0.852-1.988,1.705-2.56c0.852-0.853,1.705-1.421,2.557-1.704c1.136-0.284,2.273-0.566,3.409-0.566
					c1.137,0,1.989,0.282,3.125,0.566c0.853,0.283,1.705,1.138,2.557,1.704L148.312,472.396"/>
				<path id="Fill-43" fill="#1A1919" d="M158.256,479.499c-0.568,0-0.853,0-1.421,0s-0.852,0-1.42,0.284
					c-0.284,0-0.853,0.283-0.853,0.565c-0.284,0.284-0.284,0.568-0.284,0.854c0,0.565,0.284,1.137,0.568,1.421
					c0.568,0.284,1.137,0.284,1.705,0.284c0.568,0,0.852,0,1.42-0.284c0.284-0.284,0.568-0.284,0.853-0.568
					c0.284-0.282,0.284-0.565,0.568-0.853c0-0.284,0-0.854,0-1.138v-0.567L158.256,479.499L158.256,479.499z M152.574,475.521
					c0.568-0.567,1.137-0.854,1.989-1.138c0.568-0.284,1.421-0.284,2.273-0.284c0.568,0,1.421,0,1.989,0.284
					c0.568,0.283,0.852,0.567,1.42,0.854c0.284,0.283,0.568,0.565,0.853,1.137c0.284,0.284,0.284,0.853,0.284,1.421v5.398
					c0,0.281,0,0.565,0,0.853s0,0.567,0,0.854h-2.273c0-0.566,0-1.138,0-1.704l0,0c-0.284,0.566-0.852,1.138-1.42,1.422
					c-0.568,0.282-1.42,0.564-1.989,0.564c-0.569,0-0.853,0-1.421-0.282c-0.284,0-0.852-0.282-1.136-0.566
					c-0.284-0.284-0.568-0.568-0.853-0.854s-0.284-0.854-0.284-1.422c0-0.565,0-1.137,0.568-1.705
					c0.284-0.564,0.853-0.852,1.137-1.136c0.568-0.284,1.136-0.566,1.989-0.566c0.853,0,1.42-0.283,2.273-0.283h1.136V477.8
					c0-0.284,0-0.566,0-0.853s-0.284-0.568-0.568-0.568c-0.284-0.284-0.568-0.284-0.853-0.567c-0.284,0-0.853-0.283-1.136-0.283
					c-0.284,0-0.568,0-1.137,0c-0.284,0-0.568,0.283-0.853,0.283s-0.568,0.283-0.568,0.283l-0.568,0.568L152.574,475.521
					L152.574,475.521z"/>
				<path id="Fill-44" fill="#1A1919" d="M163.938,474.102h1.989v1.704l0,0c0.284-0.565,0.852-1.137,1.42-1.42
					c0.568-0.284,1.42-0.566,2.273-0.566c0.568,0,0.853,0,1.421,0.282c0.568,0.284,0.852,0.284,1.136,0.567
					c0.284,0.284,0.568,0.853,0.853,1.137c0.284,0.854,0.284,1.421,0.284,1.989v6.818h-1.989v-6.25c0-0.284,0-0.854-0.284-1.14
					c0-0.282-0.284-0.565-0.568-0.853c-0.284-0.285-0.568-0.284-0.853-0.568c-0.284,0-0.568,0-0.853,0c-0.284,0-0.852,0-1.136,0.284
					c-0.284,0-0.568,0.284-0.853,0.568c-0.285,0.282-0.568,0.565-0.568,1.137c-0.284,0.568-0.284,1.137-0.284,1.421v5.397h-1.989
					L163.938,474.102"/>
				<path id="Fill-45" fill="#1A1919" d="M183.827,476.942c-0.284-0.283-0.852-0.567-1.136-0.854
					c-0.568-0.284-0.853-0.284-1.421-0.284s-0.852,0-1.42,0.284c-0.284,0.284-0.853,0.568-0.853,0.854
					c-0.284,0.282-0.568,0.854-0.568,1.138c0,0.566-0.284,0.853-0.284,1.42s0,0.853,0.284,1.421
					c0.284,0.284,0.284,0.854,0.568,1.137c0.284,0.284,0.568,0.568,1.137,0.854c0.569,0.285,0.852,0.283,1.42,0.283
					c0.568,0,0.853,0,1.421-0.283c0.284-0.284,0.852-0.568,1.136-0.854l1.421,1.421c-0.568,0.568-1.137,0.854-1.705,1.139
					c-0.568,0.283-1.42,0.283-2.273,0.283c-0.852,0-1.42,0-2.273-0.283c-0.568-0.283-1.136-0.567-1.705-1.139
					c-0.569-0.566-0.853-1.137-1.137-1.703c-0.284-0.567-0.284-1.423-0.284-2.272c0-0.853,0.284-1.42,0.284-2.271
					c0.284-0.567,0.568-1.139,1.137-1.705c0.569-0.567,1.136-0.854,1.705-1.138c0.568-0.282,1.421-0.282,2.273-0.282
					c0.853,0,1.421,0,2.273,0.282c0.568,0.283,1.421,0.567,1.705,1.138L183.827,476.942"/>
				<path id="Fill-46" fill="#1A1919" d="M194.624,478.363c0-0.568,0-0.854-0.284-1.14c0-0.282-0.284-0.565-0.568-0.853
					s-0.568-0.568-0.852-0.568c-0.284-0.284-0.853-0.284-1.421-0.284s-0.852,0-1.42,0.284c-0.284,0.284-0.853,0.284-1.137,0.568
					c-0.284,0.284-0.568,0.566-0.568,0.853c-0.284,0.284-0.284,0.568-0.284,1.14H194.624z M188.373,480.067
					c0,0.566,0,0.854,0.284,1.138c0.284,0.284,0.568,0.566,0.853,0.853c0.285,0.285,0.853,0.568,1.137,0.568s0.852,0.284,1.42,0.284
					s1.136,0,1.705-0.568c0.568-0.284,0.853-0.566,1.137-1.137l1.42,1.137c-1.136,1.421-2.841,2.272-4.546,2.272
					c-0.853,0-1.42,0-2.273-0.567c-1.42-0.568-2.273-1.421-2.841-2.842s-0.568-2.841,0-4.263c0.284-0.567,0.568-1.139,1.137-1.704
					c0.568-0.567,1.136-0.854,1.705-1.139c0.569-0.282,1.42-0.565,2.273-0.565c0.853,0,1.705,0.283,2.273,0.565
					c0.568,0.284,1.137,0.854,1.705,1.139c0.284,0.565,0.853,1.137,0.853,1.704c0.284,0.566,0.284,1.422,0.284,1.987v1.138H188.373z
					"/>
				<path id="Fill-47" fill="#1A1919" d="M199.17,474.102h1.989v1.704l0,0c0-0.282,0.284-0.565,0.568-0.853
					c0.284-0.285,0.568-0.284,0.853-0.567c0.284-0.284,0.568-0.284,0.852-0.284c0.284,0,0.568,0,0.853-0.282
					c0.284,0,0.568,0,0.853,0.282v2.272h-0.568H204c-0.853,0-1.705,0.284-2.273,0.853c-0.568,0.854-0.853,1.705-0.853,2.56v5.113
					h-1.989L199.17,474.102"/>
				<path id="Fill-48" fill="#1A1919" d="M216.217,475.806h2.841c0.284,0,0.852,0,1.136,0c0.284,0,0.853-0.282,1.137-0.282
					c0.284-0.283,0.568-0.567,0.853-0.854c0.284-0.283,0.284-0.853,0.284-1.136c0-0.568,0-0.854-0.284-1.421
					c-0.284-0.284-0.568-0.568-0.853-0.568c-0.284-0.284-0.568-0.284-1.137-0.284c-0.284,0-0.852,0-1.136,0h-2.841V475.806z
					 M213.944,468.987h5.398c0.852,0,1.705,0,2.557,0.565c0.568,0.283,1.136,0.567,1.42,1.138c0.284,0.282,0.568,0.854,0.853,1.422
					c0,0.565,0.284,1.137,0.284,1.421c0,0.565,0,0.853-0.284,1.42c-0.284,0.565-0.284,0.853-0.853,1.137
					c-0.284,0.284-0.853,0.854-1.136,0.854c-0.568,0.282-1.137,0.282-1.705,0.566l4.546,7.104h-2.557l-3.978-6.818h-2.273v6.818
					h-2.273L213.944,468.987L213.944,468.987z"/>
				<path id="Fill-49" fill="#1A1919" d="M234.401,478.363c0-0.284,0-0.854-0.284-1.14c0-0.282-0.284-0.565-0.568-0.853
					c-0.284-0.285-0.568-0.568-0.853-0.568c-0.284-0.284-0.852-0.284-1.42-0.284c-0.568,0-0.853,0-1.421,0.284
					c-0.284,0.284-0.852,0.284-1.136,0.568c-0.284,0.284-0.568,0.566-0.568,0.853c-0.284,0.284-0.284,0.568-0.284,1.14H234.401z
					 M228.15,480.067c0,0.566,0,0.854,0.284,1.138c0.284,0.284,0.568,0.566,0.853,0.853c0.285,0.285,0.852,0.568,1.136,0.568
					c0.284,0,0.853,0.284,1.421,0.284c0.568,0,1.136,0,1.705-0.568c0.568-0.284,0.853-0.566,1.136-1.137l1.421,1.137
					c-1.137,1.421-2.841,2.272-4.546,2.272c-0.853,0-1.421,0-2.273-0.567c-1.421-0.568-2.273-1.421-2.841-2.842
					c-0.568-1.421-0.568-2.841,0-4.263c0.284-0.567,0.568-1.139,1.136-1.704c0.568-0.567,1.137-0.854,1.705-1.139
					c0.568-0.282,1.42-0.565,2.273-0.565c0.852,0,1.705,0.283,2.273,0.565c0.568,0.284,1.136,0.854,1.705,1.139
					c0.284,0.565,0.853,1.137,0.853,1.704c0.284,0.566,0.284,1.422,0.284,1.987v1.138H228.15z"/>
				<path id="Fill-50" fill="#1A1919" d="M244.629,476.658c-0.284-0.284-0.568-0.568-0.852-0.854
					c-0.284-0.285-0.853-0.284-1.137-0.284c-0.568,0-0.853,0-1.137,0.284c-0.284,0.284-0.568,0.568-0.568,0.854
					c0,0.284,0,0.565,0.284,0.853c0.284,0.284,0.568,0.284,0.568,0.568c0.284,0,0.568,0.284,0.853,0.284h0.853
					c0.284,0,0.852,0.281,1.136,0.281c0.284,0,0.568,0.284,0.853,0.568c0.284,0.283,0.568,0.567,0.568,0.854
					c0.284,0.282,0.284,0.854,0.284,1.138c0,1.137-0.568,1.988-1.421,2.558c-0.284,0.284-0.853,0.567-1.42,0.567
					c-0.568,0-1.137,0.283-1.421,0.283c-0.852,0-1.42,0-2.273-0.283c-0.568-0.283-1.42-0.854-1.705-1.42l1.42-1.14
					c0.284,0.284,0.568,0.568,1.137,0.854s0.853,0.284,1.42,0.284c0.284,0,0.568,0,0.853,0c0.285,0,0.568,0,0.568-0.284
					c0.284,0,0.284-0.284,0.568-0.284c0-0.284,0.284-0.284,0.284-0.566c0-0.283,0-0.567-0.284-0.567
					c-0.284-0.284-0.568-0.284-0.568-0.568l-1.137-0.566h-0.852l-1.137-0.283c-0.284,0-0.568-0.284-0.853-0.567
					c-0.284-0.283-0.568-0.566-0.568-0.853s-0.284-0.854-0.284-1.139c0-0.566,0-0.854,0.284-1.422
					c0.284-0.282,0.568-0.853,0.852-0.853c0.284-0.284,0.853-0.567,1.137-0.567c0.568,0,0.852-0.282,1.42-0.282s1.421,0,1.989,0.282
					c0.568,0.283,1.137,0.854,1.705,1.42L244.629,476.658"/>
				<path id="Fill-51" fill="#1A1919" d="M256.562,478.363c0-0.284,0-0.854-0.284-1.14c0-0.282-0.284-0.565-0.568-0.853
					s-0.568-0.568-0.853-0.568c-0.284-0.284-0.853-0.284-1.42-0.284c-0.568,0-0.853,0-1.421,0.284
					c-0.284,0.284-0.852,0.284-1.136,0.568c-0.284,0.284-0.568,0.566-0.568,0.853c-0.284,0.284-0.284,0.568-0.284,1.14H256.562z
					 M250.312,480.067c0,0.566,0,0.854,0.284,1.138c0.284,0.284,0.568,0.566,0.852,0.853c0.284,0.284,0.568,0.568,1.137,0.568
					s0.853,0.284,1.42,0.284c0.568,0,1.137,0,1.705-0.568c0.568-0.284,0.852-0.566,1.136-1.137l1.421,1.137
					c-1.705,1.988-4.546,2.559-6.819,1.705c-0.568-0.284-1.136-0.568-1.705-1.137c-0.569-0.569-0.852-1.14-1.136-1.705
					c-0.284-0.568-0.284-1.421-0.284-2.272c0-0.853,0-1.421,0.568-2.271c0.284-0.568,0.568-1.138,1.136-1.705
					c1.137-1.136,2.557-1.704,3.978-1.704c0.853,0,1.705,0.284,2.273,0.567c1.137,0.566,1.989,1.704,2.557,3.125
					c0.284,0.566,0.284,1.422,0.284,1.987v1.138L250.312,480.067L250.312,480.067z"/>
				<path id="Fill-52" fill="#1A1919" d="M266.507,479.499c-0.568,0-0.852,0-1.42,0s-0.853,0-1.421,0.284
					c-0.284,0-0.852,0.283-0.852,0.565c-0.568,0.568-0.568,1.705,0,2.273l0,0c0.852,0.567,1.989,0.567,3.125,0
					c0.284-0.284,0.568-0.284,0.853-0.568c0.285-0.282,0.284-0.565,0.568-0.853c0-0.284,0.284-0.854,0.284-1.138v-0.567
					L266.507,479.499L266.507,479.499z M260.825,475.521c0.568-0.567,1.136-0.854,1.989-1.138c0.568-0.284,1.42-0.284,2.273-0.284
					c0.568,0,1.42,0,1.989,0.284c0.568,0.283,0.853,0.567,1.42,0.854c0.284,0.283,0.568,0.565,0.853,1.137
					c0.284,0.284,0.284,0.853,0.284,1.421v5.398c0,0.281,0,0.565,0,0.853s0,0.567,0,0.854h-1.705c0-0.566,0-1.138,0-1.704l0,0
					c-0.284,0.566-0.853,1.138-1.705,1.422c-0.568,0.282-1.42,0.564-1.989,0.564c-0.568,0-0.852,0-1.42-0.282
					c-0.284,0-0.853-0.282-1.137-0.566c-0.284-0.284-0.568-0.568-0.852-0.854c-0.284-0.284-0.284-0.854-0.284-1.422
					c0-0.565,0-1.137,0.568-1.705c0.284-0.564,0.853-0.852,1.137-1.136c0.568-0.284,1.137-0.566,1.705-0.566
					c0.853,0,1.421-0.283,2.273-0.283h1.421V477.8c0-0.284,0-0.566-0.284-0.853c0-0.284-0.284-0.568-0.568-0.568
					c-0.284-0.284-0.568-0.284-0.853-0.567c-0.284,0-0.852-0.283-1.136-0.283c-0.284,0-0.568,0-0.853,0s-0.568,0.283-0.852,0.283
					s-0.568,0.283-0.568,0.283l-0.568,0.568L260.825,475.521L260.825,475.521z"/>
				<path id="Fill-53" fill="#1A1919" d="M272.758,474.102h1.989v1.704l0,0c0-0.282,0.284-0.565,0.568-0.853
					c0.284-0.284,0.568-0.284,0.852-0.567c0.284-0.284,0.568-0.284,0.853-0.284s0.568,0,0.853-0.282c0.284,0,0.568,0,0.852,0.282
					v2.272h-0.568h-0.568c-0.853,0-1.705,0.284-2.273,0.853c-0.568,0.854-0.853,1.705-0.853,2.56v5.113h-1.705V474.102"/>
				<path id="Fill-54" fill="#1A1919" d="M287.532,476.942c-0.284-0.283-0.853-0.567-1.137-0.854
					c-0.568-0.284-0.853-0.284-1.42-0.284c-0.853,0-1.989,0.284-2.557,1.139c-0.284,0.282-0.568,0.854-0.568,1.138
					c-0.284,0.566-0.284,0.853-0.284,1.42s0,0.853,0.284,1.421c0,0.568,0.284,0.854,0.568,1.137
					c0.284,0.284,0.568,0.568,1.136,0.854c0.568,0.285,0.853,0.283,1.421,0.283s0.852,0,1.42-0.283
					c0.284-0.284,0.853-0.568,1.137-0.854l1.42,1.421c-0.568,0.568-1.137,0.854-1.705,1.139s-1.421,0.283-2.273,0.283
					c-0.853,0-1.421,0-2.273-0.283c-0.568-0.283-1.137-0.567-1.705-1.139c-0.568-0.566-0.852-1.137-1.136-1.703
					c-0.284-0.567-0.284-1.423-0.284-2.272c0-0.853,0-1.42,0.284-2.271c0.284-0.567,0.568-1.139,1.136-1.705
					c0.568-0.567,1.137-0.854,1.705-1.138c1.42-0.565,3.125-0.565,4.546,0c0.568,0.283,1.42,0.567,1.705,1.138L287.532,476.942"/>
				<path id="Fill-55" fill="#1A1919" d="M290.941,467.851h1.989v7.955l0,0c0.284-0.565,0.853-1.137,1.421-1.42
					c0.568-0.284,1.42-0.566,2.273-0.566c0.568,0,0.853,0,1.42,0.282c0.568,0.284,0.853,0.284,1.137,0.567
					c0.284,0.284,0.568,0.853,0.852,1.137c0.284,0.568,0.284,1.139,0.284,1.705v6.818h-1.989v-6.25c0-0.284,0-0.854-0.284-1.138
					c0-0.283-0.284-0.567-0.568-0.854c-0.284-0.284-0.568-0.284-0.853-0.568c-0.284,0-0.568,0-0.853,0s-0.852,0-1.136,0.284
					c-0.284,0-0.568,0.284-0.853,0.568c-0.285,0.284-0.568,0.565-0.568,1.137c-0.284,0.568-0.284,1.137-0.284,1.705v5.396h-1.989
					L290.941,467.851"/>
				<path id="Fill-56" fill="#1A1919" d="M147.459,402.502c0.568,11.081-8.239,20.457-19.32,21.024c-0.284,0-0.568,0-0.852,0
					c-11.365,0-20.457-9.376-20.173-20.457c0-0.283,0-0.567,0-0.567v-0.284c-0.568-11.081,8.24-20.456,19.32-21.024
					c0.284,0,0.568,0,0.853,0c11.365,0,20.457,9.378,20.172,20.459C147.459,401.934,147.459,402.218,147.459,402.502
					L147.459,402.502z M127.287,371.533c-16.764-0.284-30.97,13.07-31.254,29.833c0,0.283,0,0.564,0,0.852v0.284
					c-0.284,16.764,13.07,30.401,29.833,30.686c0.284,0,0.853,0,1.137,0c16.763,0.284,30.969-13.066,31.253-29.831
					c0-0.283,0-0.567,0-0.854v-0.284c0.284-16.763-13.07-30.401-29.833-30.685C128.139,371.533,127.855,371.533,127.287,371.533z"/>
				<polygon id="Fill-57" fill="#1A1919" points="167.632,432.051 178.145,432.051 178.145,372.385 167.632,372.385 				"/>
				<path id="Fill-58" fill="#1A1919" d="M217.638,423.528c-11.365,0-19.604-9.66-19.604-21.312v-0.284
					c0-11.646,8.24-21.022,19.604-21.022c6.251,0,12.217,2.841,16.763,7.387l6.819-7.671c-6.251-6.251-14.49-9.66-23.298-9.376
					c-16.763-0.284-30.401,13.069-30.685,29.549c0,0.284,0,0.854,0,1.136v0.284c-0.284,16.479,12.786,30.401,29.265,30.688
					c0.284,0,0.568,0,1.136,0c9.092,0.283,18.184-3.693,24.15-10.516l-6.819-6.815C229.571,420.403,225.025,423.528,217.638,423.528
					"/>
				<path id="Fill-59" fill="#1A1919" d="M260.541,401.934v-19.888h15.058c7.671,0,12.218,3.41,12.218,9.944l0,0
					c0,5.966-4.83,9.942-12.218,9.942L260.541,401.934L260.541,401.934z M284.407,409.605c8.24-2.272,14.206-8.238,14.206-17.899
					v-0.284c0-4.83-1.705-9.376-4.83-12.785c-4.83-4.262-10.797-6.25-17.047-5.967h-26.708v59.666h10.513v-20.74h13.069
					l14.774,20.74h12.217L284.407,409.605L284.407,409.605z"/>
			</g>
		</g>
	</g>
</g>
</svg>
