<?xml version="1.0" encoding="utf-8"?>
<!-- Generator: Adobe Illustrator 16.0.0, SVG Export Plug-In . SVG Version: 6.00 Build 0)  -->
<!DOCTYPE svg PUBLIC "-//W3C//DTD SVG 1.1//EN" "http://www.w3.org/Graphics/SVG/1.1/DTD/svg11.dtd">
<svg version="1.1" id="Layer_1" xmlns="http://www.w3.org/2000/svg" xmlns:xlink="http://www.w3.org/1999/xlink" x="0px" y="0px"
	 width="716.363px" height="227px" viewBox="0 275 716.363 227" enable-background="new 0 275 716.363 227" xml:space="preserve">
<title>logo-AO3</title>
<g id="Symbols">
	<g id="Nav-Home">
		<g id="Group">
			<path id="Line" fill="none" stroke="#D7D7D7" stroke-linecap="square" d="M337.686,373.128V492.46"/>
			<g id="Adaptive-Oncology">
				<text transform="matrix(1 0 0 1 373.2012 360.8086)" font-family="'Avenir-Heavy'" font-size="51.1421"> </text>
				<g enable-background="new    ">
					<path d="M409.41,419.519c-4.467,2.389-9.461,3.58-14.984,3.58c-2.797,0-5.363-0.45-7.697-1.354
						c-2.336-0.903-4.348-2.184-6.033-3.836c-1.688-1.653-3.012-3.641-3.963-5.958c-0.955-2.318-1.435-4.894-1.435-7.725
						c0-2.896,0.479-5.529,1.435-7.899c0.951-2.369,2.273-4.392,3.963-6.062c1.688-1.671,3.697-2.957,6.033-3.861
						c2.336-0.901,4.9-1.354,7.697-1.354c2.762,0,5.354,0.332,7.773,0.997s4.585,1.851,6.494,3.556l-4.758,4.808
						c-1.157-1.125-2.564-1.994-4.219-2.606c-1.652-0.615-3.399-0.922-5.242-0.922c-1.876,0-3.57,0.332-5.089,0.997
						c-1.518,0.665-2.819,1.586-3.913,2.763c-1.091,1.176-1.935,2.55-2.529,4.116c-0.598,1.568-0.896,3.256-0.896,5.062
						c0,1.941,0.298,3.731,0.896,5.37c0.597,1.637,1.438,3.052,2.529,4.243c1.094,1.193,2.396,2.133,3.913,2.812
						c1.519,0.683,3.213,1.023,5.089,1.023c1.639,0,3.181-0.154,4.628-0.463c1.448-0.307,2.736-0.782,3.861-1.432v-8.541h-7.415
						v-5.83h13.859L409.41,419.519L409.41,419.519z"/>
					<path d="M421.377,412.052c0.205,1.841,0.921,3.272,2.148,4.296c1.227,1.022,2.71,1.534,4.447,1.534
						c1.534,0,2.82-0.312,3.861-0.946c1.039-0.63,1.951-1.423,2.736-2.378l4.396,3.324c-1.432,1.773-3.034,3.035-4.808,3.784
						c-1.773,0.75-3.631,1.125-5.574,1.125c-1.841,0-3.58-0.307-5.217-0.92c-1.637-0.614-3.051-1.483-4.244-2.608
						s-2.141-2.479-2.838-4.063c-0.699-1.586-1.049-3.353-1.049-5.294c0-1.943,0.35-3.707,1.049-5.293
						c0.697-1.585,1.645-2.94,2.838-4.065s2.607-1.995,4.244-2.607c1.637-0.613,3.376-0.922,5.217-0.922
						c1.705,0,3.265,0.301,4.68,0.896c1.414,0.597,2.625,1.457,3.632,2.582s1.79,2.515,2.354,4.168
						c0.562,1.654,0.845,3.555,0.845,5.703v1.688h-18.718L421.377,412.052L421.377,412.052z M433.958,407.45
						c-0.034-1.81-0.597-3.23-1.688-4.271c-1.092-1.04-2.606-1.561-4.552-1.561c-1.842,0-3.299,0.529-4.373,1.586
						c-1.072,1.057-1.729,2.473-1.969,4.245L433.958,407.45L433.958,407.45z"/>
					<path d="M445.822,397.63h5.83v3.938h0.103c0.579-1.229,1.466-2.293,2.659-3.196s2.812-1.355,4.859-1.355
						c1.636,0,3.023,0.273,4.168,0.818c1.141,0.546,2.068,1.262,2.785,2.148s1.229,1.907,1.533,3.066
						c0.31,1.159,0.461,2.37,0.461,3.631v15.496h-6.137V409.75c0-0.682-0.035-1.439-0.103-2.275
						c-0.069-0.835-0.248-1.617-0.537-2.353c-0.29-0.733-0.741-1.347-1.355-1.842c-0.613-0.493-1.449-0.741-2.506-0.741
						c-1.022,0-1.884,0.171-2.583,0.512s-1.278,0.802-1.738,1.381c-0.461,0.58-0.793,1.245-0.998,1.994
						c-0.204,0.751-0.307,1.534-0.307,2.354v13.397h-6.137L445.822,397.63L445.822,397.63z"/>
					<path d="M473.95,409.905c0-1.943,0.349-3.707,1.048-5.293c0.699-1.585,1.645-2.94,2.839-4.065
						c1.192-1.125,2.608-1.995,4.245-2.607c1.637-0.613,3.375-0.922,5.216-0.922s3.58,0.309,5.217,0.922
						c1.638,0.612,3.053,1.482,4.245,2.607s2.141,2.48,2.838,4.065c0.698,1.586,1.051,3.35,1.051,5.293
						c0,1.941-0.353,3.708-1.051,5.294c-0.697,1.585-1.646,2.938-2.838,4.063s-2.607,1.994-4.245,2.608
						c-1.637,0.613-3.376,0.92-5.217,0.92s-3.579-0.307-5.216-0.92c-1.637-0.614-3.053-1.483-4.245-2.608
						c-1.194-1.125-2.14-2.479-2.839-4.063C474.299,413.613,473.95,411.847,473.95,409.905z M480.087,409.905
						c0,0.955,0.161,1.876,0.485,2.762c0.324,0.888,0.801,1.671,1.433,2.353c0.63,0.685,1.389,1.229,2.276,1.639
						c0.886,0.409,1.892,0.613,3.017,0.613c1.126,0,2.13-0.204,3.02-0.613c0.886-0.409,1.645-0.954,2.274-1.639
						c0.63-0.682,1.107-1.465,1.434-2.353c0.321-0.886,0.484-1.807,0.484-2.762c0-0.954-0.163-1.874-0.484-2.764
						c-0.324-0.886-0.804-1.67-1.434-2.353c-0.632-0.682-1.391-1.229-2.274-1.636c-0.89-0.409-1.894-0.614-3.02-0.614
						c-1.125,0-2.131,0.205-3.017,0.614c-0.89,0.406-1.646,0.954-2.276,1.636c-0.632,0.683-1.106,1.467-1.433,2.353
						C480.248,408.031,480.087,408.95,480.087,409.905z"/>
					<path d="M506.117,397.63h5.83v3.835h0.103c0.545-1.158,1.423-2.188,2.634-3.094c1.21-0.903,2.838-1.355,4.887-1.355
						c3.852,0,6.407,1.52,7.671,4.554c0.886-1.567,1.995-2.721,3.323-3.452c1.328-0.732,2.914-1.102,4.758-1.102
						c1.636,0,3.017,0.273,4.142,0.818c1.126,0.546,2.037,1.296,2.736,2.25c0.698,0.955,1.202,2.071,1.509,3.351
						c0.307,1.278,0.46,2.651,0.46,4.116v14.627h-6.137v-13.911c0-0.749-0.069-1.474-0.204-2.173
						c-0.137-0.696-0.376-1.312-0.717-1.842c-0.342-0.527-0.803-0.945-1.381-1.253c-0.58-0.307-1.33-0.46-2.25-0.46
						c-0.955,0-1.767,0.179-2.432,0.537c-0.664,0.356-1.211,0.836-1.637,1.432c-0.426,0.6-0.732,1.279-0.92,2.046
						c-0.188,0.77-0.281,1.543-0.281,2.327v13.297h-6.137v-14.627c0-1.534-0.324-2.753-0.975-3.656
						c-0.646-0.901-1.722-1.354-3.221-1.354c-1.021,0-1.885,0.171-2.584,0.512s-1.276,0.802-1.738,1.381
						c-0.461,0.58-0.793,1.245-0.997,1.994c-0.202,0.751-0.308,1.534-0.308,2.354v13.397h-6.137L506.117,397.63L506.117,397.63z"/>
					<path d="M550.1,389.293c0-0.988,0.366-1.85,1.102-2.582c0.73-0.732,1.662-1.102,2.787-1.102s2.069,0.352,2.838,1.05
						c0.768,0.698,1.149,1.577,1.149,2.634c0,1.059-0.384,1.936-1.149,2.634c-0.769,0.699-1.713,1.05-2.838,1.05
						s-2.057-0.367-2.787-1.101C550.466,391.145,550.1,390.283,550.1,389.293z M550.969,397.63h6.139v24.548h-6.139V397.63z"/>
					<path d="M580.938,404.995c-0.716-0.75-1.466-1.347-2.25-1.79c-0.783-0.442-1.586-0.665-2.402-0.665
						c-1.125,0-2.131,0.205-3.019,0.614c-0.888,0.406-1.646,0.954-2.274,1.636c-0.631,0.683-1.107,1.467-1.434,2.353
						c-0.322,0.89-0.484,1.81-0.484,2.764c0,0.955,0.162,1.876,0.484,2.762c0.324,0.888,0.803,1.671,1.434,2.353
						c0.631,0.685,1.389,1.229,2.274,1.639c0.887,0.409,1.894,0.612,3.019,0.612c0.955,0,1.842-0.194,2.66-0.589
						c0.816-0.392,1.517-0.963,2.097-1.713l4.091,4.398c-0.613,0.613-1.321,1.143-2.121,1.585c-0.803,0.441-1.609,0.802-2.43,1.074
						c-0.819,0.271-1.604,0.468-2.354,0.588c-0.75,0.119-1.396,0.179-1.941,0.179c-1.84,0-3.579-0.307-5.216-0.92
						c-1.639-0.614-3.054-1.483-4.245-2.608c-1.193-1.125-2.142-2.479-2.838-4.063c-0.699-1.586-1.051-3.353-1.051-5.294
						c0-1.943,0.352-3.707,1.051-5.293c0.696-1.585,1.645-2.94,2.838-4.065c1.191-1.125,2.606-1.995,4.245-2.607
						c1.637-0.613,3.376-0.922,5.216-0.922c1.566,0,3.146,0.301,4.729,0.896s2.976,1.543,4.168,2.838L580.938,404.995z"/>
					<path d="M601.906,404.432c-1.194-1.67-2.797-2.506-4.81-2.506c-0.816,0-1.619,0.204-2.401,0.613
						c-0.785,0.409-1.179,1.074-1.179,1.995c0,0.75,0.323,1.296,0.974,1.636c0.646,0.342,1.466,0.632,2.455,0.87
						c0.986,0.238,2.054,0.485,3.194,0.741c1.144,0.256,2.207,0.646,3.196,1.176c0.988,0.529,1.807,1.254,2.455,2.174
						c0.646,0.921,0.972,2.185,0.972,3.785c0,1.466-0.313,2.702-0.944,3.707c-0.631,1.007-1.449,1.813-2.455,2.43
						c-1.006,0.613-2.142,1.059-3.4,1.329c-1.262,0.273-2.522,0.409-3.785,0.409c-1.91,0-3.665-0.272-5.268-0.817
						c-1.604-0.546-3.035-1.533-4.296-2.967l4.092-3.836c0.784,0.888,1.628,1.611,2.531,2.174c0.901,0.563,2.003,0.846,3.299,0.846
						c0.44,0,0.903-0.053,1.381-0.153c0.478-0.104,0.921-0.272,1.329-0.512c0.41-0.237,0.742-0.537,0.998-0.896
						c0.256-0.356,0.383-0.775,0.383-1.253c0-0.852-0.324-1.483-0.971-1.893c-0.648-0.409-1.469-0.741-2.455-0.997
						c-0.99-0.256-2.057-0.494-3.197-0.718c-1.143-0.222-2.207-0.577-3.195-1.072c-0.989-0.494-1.809-1.187-2.455-2.071
						c-0.646-0.886-0.972-2.113-0.972-3.683c0-1.362,0.281-2.55,0.844-3.556c0.563-1.006,1.306-1.833,2.227-2.479
						c0.921-0.647,1.978-1.125,3.171-1.434c1.191-0.308,2.402-0.461,3.631-0.461c1.637,0,3.256,0.281,4.857,0.846
						c1.603,0.562,2.896,1.524,3.889,2.89L601.906,404.432z"/>
					<path d="M642,418.803h-0.153c-0.888,1.398-2.013,2.412-3.376,3.043c-1.361,0.63-2.861,0.945-4.5,0.945
						c-1.125,0-2.225-0.153-3.299-0.46s-2.029-0.767-2.863-1.381c-0.836-0.613-1.51-1.381-2.021-2.301
						c-0.512-0.921-0.767-1.995-0.767-3.225c0-1.329,0.235-2.463,0.715-3.398c0.478-0.938,1.117-1.724,1.918-2.354
						s1.729-1.134,2.787-1.509c1.057-0.375,2.154-0.656,3.299-0.844c1.143-0.188,2.293-0.31,3.452-0.358s2.251-0.076,3.271-0.076
						H642v-0.665c0-1.532-0.529-2.686-1.586-3.45c-1.057-0.77-2.403-1.151-4.039-1.151c-1.297,0-2.507,0.229-3.632,0.688
						c-1.125,0.463-2.097,1.083-2.915,1.867l-3.222-3.222c1.36-1.398,2.956-2.404,4.78-3.019c1.822-0.613,3.707-0.922,5.65-0.922
						c1.738,0,3.205,0.196,4.396,0.589c1.193,0.394,2.184,0.896,2.969,1.51c0.781,0.612,1.389,1.32,1.812,2.123
						c0.426,0.801,0.733,1.608,0.921,2.429c0.188,0.818,0.298,1.611,0.333,2.378c0.033,0.768,0.053,1.441,0.053,2.021v14.114H642
						V418.803z M641.643,411.183h-1.277c-0.854,0-1.81,0.034-2.863,0.104c-1.058,0.067-2.055,0.229-2.992,0.486
						c-0.938,0.256-1.729,0.631-2.379,1.125c-0.646,0.492-0.971,1.185-0.971,2.069c0,0.58,0.127,1.065,0.383,1.457
						c0.256,0.395,0.588,0.728,0.998,0.998c0.408,0.272,0.869,0.469,1.381,0.588c0.512,0.12,1.022,0.181,1.533,0.181
						c2.114,0,3.674-0.505,4.68-1.511c1.006-1.005,1.51-2.378,1.51-4.114L641.643,411.183L641.643,411.183z"/>
					<path d="M654.12,397.63h5.831v3.938h0.102c0.579-1.229,1.465-2.293,2.659-3.196c1.193-0.903,2.813-1.355,4.858-1.355
						c1.637,0,3.023,0.273,4.168,0.818c1.143,0.546,2.07,1.262,2.787,2.148s1.229,1.907,1.533,3.066
						c0.308,1.159,0.46,2.37,0.46,3.631v15.496h-6.138V409.75c0-0.682-0.033-1.439-0.102-2.275
						c-0.068-0.835-0.248-1.617-0.537-2.353c-0.29-0.733-0.742-1.347-1.355-1.842c-0.611-0.493-1.447-0.741-2.506-0.741
						c-1.021,0-1.885,0.171-2.582,0.512s-1.277,0.802-1.738,1.381c-0.461,0.58-0.794,1.245-0.996,1.994
						c-0.205,0.751-0.309,1.534-0.309,2.354v13.397h-6.138L654.12,397.63L654.12,397.63z"/>
					<path d="M702.909,418.496h-0.104c-0.887,1.501-2.08,2.592-3.58,3.271c-1.501,0.684-3.119,1.022-4.856,1.022
						c-1.91,0-3.605-0.332-5.089-0.997c-1.484-0.665-2.754-1.576-3.812-2.736c-1.058-1.156-1.857-2.521-2.402-4.091
						c-0.548-1.566-0.818-3.256-0.818-5.062c0-1.809,0.289-3.494,0.87-5.062c0.579-1.566,1.389-2.933,2.429-4.092
						c1.04-1.158,2.293-2.071,3.759-2.736c1.467-0.664,3.068-0.997,4.81-0.997c1.158,0,2.182,0.12,3.066,0.358
						c0.888,0.238,1.67,0.546,2.354,0.92c0.682,0.376,1.261,0.776,1.739,1.202c0.477,0.427,0.867,0.844,1.176,1.253h0.151v-17.234
						h6.14v38.663h-5.83L702.909,418.496L702.909,418.496z M688.385,409.905c0,0.955,0.161,1.876,0.485,2.762
						c0.324,0.888,0.801,1.671,1.432,2.353c0.631,0.685,1.392,1.229,2.276,1.639s1.893,0.613,3.018,0.613s2.13-0.204,3.02-0.613
						c0.886-0.409,1.645-0.954,2.273-1.639c0.631-0.682,1.107-1.465,1.434-2.353c0.322-0.886,0.484-1.807,0.484-2.762
						c0-0.954-0.161-1.874-0.484-2.764c-0.324-0.886-0.803-1.67-1.434-2.353c-0.631-0.682-1.39-1.229-2.273-1.636
						c-0.89-0.409-1.895-0.614-3.02-0.614s-2.132,0.205-3.018,0.614c-0.887,0.406-1.646,0.954-2.276,1.636
						c-0.631,0.683-1.105,1.467-1.432,2.353C688.546,408.031,688.385,408.95,688.385,409.905z"/>
				</g>
				<g enable-background="new    ">
					<path d="M377.241,447.341h14.115c1.361,0,2.711,0.162,4.04,0.486c1.328,0.324,2.514,0.853,3.555,1.585
						c1.039,0.734,1.883,1.68,2.531,2.839c0.646,1.159,0.973,2.557,0.973,4.193c0,2.046-0.58,3.731-1.739,5.062
						c-1.159,1.329-2.677,2.284-4.552,2.863v0.103c1.125,0.139,2.174,0.452,3.145,0.946c0.975,0.495,1.801,1.125,2.48,1.893
						c0.682,0.769,1.219,1.654,1.611,2.659c0.392,1.006,0.588,2.089,0.588,3.247c0,1.979-0.395,3.623-1.178,4.938
						c-0.783,1.312-1.813,2.37-3.094,3.171c-1.277,0.802-2.745,1.373-4.396,1.713c-1.654,0.342-3.333,0.512-5.037,0.512h-13.042
						V447.341z M383.686,462.072h5.883c2.146,0,3.76-0.417,4.833-1.253c1.072-0.835,1.609-1.937,1.609-3.301
						c0-1.566-0.555-2.734-1.662-3.503c-1.106-0.768-2.89-1.149-5.345-1.149h-5.318V462.072L383.686,462.072z M383.686,478.028
						h5.934c0.816,0,1.696-0.053,2.635-0.153c0.938-0.103,1.798-0.341,2.582-0.716s1.432-0.912,1.943-1.611
						c0.512-0.698,0.768-1.645,0.768-2.838c0-1.909-0.623-3.239-1.867-3.989s-3.18-1.125-5.805-1.125h-6.188v10.433H383.686z"/>
					<path d="M409.051,450.666c0-0.988,0.367-1.849,1.102-2.582c0.731-0.733,1.661-1.1,2.786-1.1c1.127,0,2.071,0.35,2.84,1.048
						c0.767,0.699,1.149,1.578,1.149,2.634c0,1.058-0.385,1.936-1.149,2.634c-0.769,0.699-1.713,1.049-2.84,1.049
						c-1.125,0-2.055-0.364-2.786-1.1C409.418,452.516,409.051,451.656,409.051,450.666z M409.921,459.002h6.137v24.548h-6.137
						V459.002z"/>
					<path d="M421.889,471.277c0-1.943,0.351-3.707,1.05-5.293c0.696-1.585,1.645-2.94,2.839-4.065
						c1.19-1.125,2.605-1.995,4.242-2.608c1.639-0.612,3.375-0.921,5.219-0.921c1.841,0,3.58,0.309,5.217,0.921
						c1.636,0.613,3.051,1.483,4.244,2.608c1.191,1.125,2.139,2.48,2.838,4.065c0.699,1.586,1.049,3.35,1.049,5.293
						c0,1.941-0.35,3.708-1.049,5.294c-0.699,1.585-1.646,2.938-2.838,4.063c-1.193,1.125-2.608,1.994-4.244,2.608
						c-1.637,0.613-3.376,0.92-5.217,0.92c-1.844,0-3.58-0.307-5.219-0.92c-1.637-0.614-3.052-1.483-4.242-2.608
						c-1.194-1.125-2.143-2.479-2.839-4.063C422.237,474.985,421.889,473.219,421.889,471.277z M428.025,471.277
						c0,0.955,0.159,1.876,0.483,2.762c0.323,0.888,0.801,1.671,1.435,2.353c0.63,0.685,1.389,1.229,2.273,1.639
						c0.886,0.407,1.895,0.612,3.02,0.612s2.13-0.203,3.018-0.612c0.886-0.409,1.646-0.954,2.275-1.639
						c0.631-0.682,1.105-1.465,1.432-2.353c0.324-0.886,0.486-1.807,0.486-2.762c0-0.954-0.162-1.874-0.486-2.764
						c-0.324-0.886-0.801-1.67-1.432-2.353s-1.392-1.229-2.275-1.636c-0.888-0.409-1.893-0.614-3.018-0.614s-2.131,0.205-3.02,0.614
						c-0.887,0.406-1.646,0.954-2.273,1.636c-0.634,0.683-1.109,1.467-1.435,2.353C428.188,469.403,428.025,470.323,428.025,471.277
						z"/>
					<path d="M453.544,450.666c0-0.988,0.366-1.849,1.1-2.582c0.734-0.733,1.662-1.1,2.787-1.1c1.126,0,2.071,0.35,2.839,1.048
						c0.769,0.699,1.15,1.578,1.15,2.634c0,1.058-0.384,1.936-1.15,2.634c-0.768,0.699-1.713,1.049-2.839,1.049
						c-1.125,0-2.054-0.364-2.787-1.1C453.91,452.516,453.544,451.656,453.544,450.666z M454.414,459.002h6.137v24.548h-6.137
						V459.002z"/>
					<path d="M467.607,459.002h5.829v3.938h0.104c0.578-1.229,1.465-2.293,2.658-3.196c1.191-0.903,2.812-1.355,4.857-1.355
						c1.639,0,3.025,0.273,4.168,0.818c1.144,0.546,2.071,1.262,2.787,2.148c0.716,0.886,1.229,1.907,1.534,3.066
						c0.309,1.159,0.46,2.37,0.46,3.631v15.496h-6.137v-12.428c0-0.682-0.034-1.439-0.104-2.275
						c-0.067-0.835-0.248-1.619-0.536-2.353c-0.29-0.733-0.741-1.347-1.354-1.842c-0.613-0.493-1.449-0.741-2.506-0.741
						c-1.023,0-1.885,0.171-2.583,0.512c-0.699,0.341-1.278,0.802-1.739,1.381c-0.46,0.58-0.793,1.245-0.997,1.994
						c-0.204,0.751-0.307,1.534-0.307,2.354v13.397h-6.14v-24.548L467.607,459.002L467.607,459.002z"/>
					<path d="M499.162,464.218H494.1v-5.216h5.062v-3.478c0-1.705,0.119-3.248,0.355-4.631c0.238-1.381,0.691-2.563,1.355-3.555
						c0.665-0.988,1.594-1.746,2.787-2.273c1.191-0.528,2.744-0.793,4.654-0.793c1.396,0,2.691,0.118,3.887,0.356l-0.408,5.216
						c-0.444-0.102-0.87-0.187-1.279-0.255c-0.407-0.066-0.836-0.103-1.276-0.103c-0.854,0-1.534,0.137-2.046,0.409
						c-0.514,0.271-0.912,0.639-1.201,1.1c-0.291,0.46-0.479,0.997-0.562,1.61c-0.086,0.612-0.129,1.262-0.129,1.941V459h5.678
						v5.216h-5.678v19.332h-6.137V464.218L499.162,464.218z"/>
					<path d="M513.737,471.277c0-1.943,0.349-3.707,1.048-5.293c0.699-1.585,1.645-2.94,2.839-4.065
						c1.192-1.125,2.608-1.995,4.245-2.608c1.637-0.612,3.375-0.921,5.216-0.921s3.58,0.309,5.217,0.921
						c1.636,0.613,3.051,1.483,4.245,2.608c1.192,1.125,2.139,2.48,2.838,4.065c0.698,1.586,1.049,3.35,1.049,5.293
						c0,1.941-0.351,3.708-1.049,5.294c-0.699,1.585-1.646,2.938-2.838,4.063c-1.194,1.125-2.609,1.994-4.245,2.608
						c-1.637,0.613-3.376,0.92-5.217,0.92s-3.579-0.307-5.216-0.92c-1.637-0.614-3.053-1.483-4.245-2.608
						c-1.194-1.125-2.14-2.479-2.839-4.063C514.086,474.985,513.737,473.219,513.737,471.277z M519.874,471.277
						c0,0.955,0.161,1.876,0.485,2.762c0.322,0.888,0.801,1.671,1.433,2.353c0.63,0.685,1.389,1.229,2.276,1.639
						c0.886,0.407,1.892,0.612,3.017,0.612c1.126,0,2.13-0.203,3.019-0.612c0.887-0.409,1.646-0.954,2.275-1.639
						c0.63-0.682,1.107-1.465,1.432-2.353c0.323-0.886,0.486-1.807,0.486-2.762c0-0.954-0.163-1.874-0.486-2.764
						c-0.322-0.886-0.802-1.67-1.432-2.353c-0.632-0.684-1.391-1.229-2.275-1.636c-0.889-0.409-1.893-0.614-3.019-0.614
						c-1.125,0-2.131,0.205-3.017,0.614c-0.89,0.406-1.646,0.954-2.276,1.636c-0.632,0.683-1.108,1.467-1.433,2.353
						C520.035,469.403,519.874,470.323,519.874,471.277z"/>
					<path d="M546.16,459.002h6.137v3.887h0.104c0.682-1.433,1.651-2.54,2.915-3.322c1.262-0.784,2.711-1.179,4.348-1.179
						c0.375,0,0.741,0.034,1.1,0.104c0.357,0.066,0.726,0.151,1.102,0.256v5.933c-0.514-0.136-1.018-0.247-1.512-0.333
						c-0.492-0.084-0.979-0.128-1.455-0.128c-1.434,0-2.582,0.267-3.452,0.793c-0.869,0.529-1.534,1.136-1.994,1.815
						c-0.46,0.683-0.77,1.364-0.921,2.046c-0.153,0.683-0.23,1.193-0.23,1.534v13.144h-6.137v-24.549L546.16,459.002L546.16,459.002
						z"/>
					<path d="M566.719,459.002h5.83v3.835h0.104c0.545-1.158,1.424-2.188,2.635-3.094c1.209-0.903,2.838-1.355,4.884-1.355
						c3.854,0,6.409,1.52,7.671,4.554c0.889-1.567,1.995-2.721,3.324-3.452c1.33-0.732,2.916-1.102,4.757-1.102
						c1.636,0,3.019,0.273,4.144,0.818c1.126,0.546,2.035,1.296,2.734,2.25c0.699,0.955,1.202,2.071,1.512,3.351
						c0.307,1.278,0.459,2.651,0.459,4.116v14.627h-6.139v-13.911c0-0.749-0.066-1.474-0.204-2.173
						c-0.137-0.698-0.376-1.312-0.716-1.842c-0.342-0.527-0.802-0.945-1.381-1.253c-0.58-0.307-1.33-0.46-2.25-0.46
						c-0.955,0-1.766,0.179-2.43,0.537c-0.665,0.356-1.211,0.836-1.639,1.432c-0.427,0.598-0.731,1.279-0.92,2.046
						c-0.188,0.77-0.279,1.543-0.279,2.327v13.297h-6.14v-14.627c0-1.534-0.323-2.753-0.972-3.656
						c-0.648-0.901-1.723-1.354-3.222-1.354c-1.022,0-1.886,0.171-2.583,0.512c-0.699,0.341-1.278,0.802-1.738,1.381
						c-0.461,0.58-0.793,1.245-0.998,1.994c-0.204,0.751-0.307,1.534-0.307,2.354v13.397h-6.139L566.719,459.002L566.719,459.002z"
						/>
					<path d="M626.811,480.175h-0.151c-0.89,1.398-2.015,2.412-3.376,3.043c-1.363,0.63-2.863,0.945-4.5,0.945
						c-1.125,0-2.227-0.153-3.299-0.46c-1.074-0.307-2.029-0.769-2.863-1.381c-0.836-0.613-1.51-1.381-2.021-2.301
						c-0.512-0.923-0.767-1.995-0.767-3.225c0-1.329,0.237-2.463,0.715-3.398c0.479-0.938,1.117-1.724,1.918-2.354
						c0.802-0.631,1.73-1.134,2.787-1.509c1.058-0.375,2.156-0.656,3.299-0.844c1.145-0.188,2.293-0.31,3.452-0.358
						s2.251-0.076,3.273-0.076h1.534v-0.665c0-1.534-0.529-2.686-1.587-3.452c-1.058-0.768-2.402-1.149-4.038-1.149
						c-1.299,0-2.509,0.229-3.634,0.688c-1.125,0.461-2.097,1.083-2.915,1.867l-3.222-3.222c1.362-1.398,2.957-2.404,4.782-3.02
						c1.822-0.612,3.707-0.921,5.648-0.921c1.738,0,3.205,0.196,4.398,0.588c1.193,0.395,2.182,0.896,2.967,1.511
						c0.783,0.612,1.39,1.32,1.814,2.123c0.425,0.801,0.731,1.608,0.921,2.429c0.187,0.817,0.298,1.61,0.333,2.378
						c0.033,0.768,0.051,1.441,0.051,2.021v14.115h-5.521L626.811,480.175L626.811,480.175z M626.453,472.555h-1.279
						c-0.853,0-1.808,0.034-2.863,0.104c-1.058,0.067-2.055,0.229-2.99,0.484c-0.938,0.258-1.73,0.633-2.379,1.125
						c-0.647,0.494-0.973,1.187-0.973,2.071c0,0.58,0.127,1.065,0.383,1.457c0.258,0.395,0.59,0.728,0.998,0.998
						c0.408,0.272,0.869,0.469,1.381,0.588c0.514,0.12,1.022,0.179,1.533,0.179c2.114,0,3.674-0.503,4.682-1.509
						c1.006-1.005,1.51-2.378,1.51-4.116L626.453,472.555L626.453,472.555z"/>
					<path d="M636.066,464.218v-5.216h5.062v-7.109h6.138v7.109h6.751v5.216h-6.751v10.74c0,1.228,0.229,2.199,0.69,2.915
						c0.46,0.716,1.372,1.074,2.736,1.074c0.545,0,1.142-0.062,1.789-0.182c0.646-0.116,1.157-0.312,1.533-0.588v5.166
						c-0.646,0.309-1.439,0.521-2.379,0.641c-0.938,0.117-1.764,0.179-2.479,0.179c-1.639,0-2.977-0.179-4.016-0.536
						c-1.041-0.358-1.857-0.903-2.455-1.637s-1.006-1.646-1.228-2.736s-0.333-2.353-0.333-3.784v-11.252H636.066L636.066,464.218z"
						/>
					<path d="M658.107,450.666c0-0.988,0.365-1.849,1.1-2.582c0.732-0.733,1.662-1.1,2.787-1.1c1.126,0,2.072,0.35,2.839,1.048
						c0.767,0.699,1.151,1.578,1.151,2.634c0,1.058-0.387,1.936-1.151,2.634c-0.767,0.699-1.713,1.049-2.839,1.049
						c-1.125,0-2.055-0.364-2.787-1.1C658.475,452.516,658.107,451.656,658.107,450.666z M658.979,459.002h6.138v24.548h-6.138
						V459.002z"/>
					<path d="M688.945,466.367c-0.715-0.75-1.465-1.349-2.25-1.79c-0.783-0.442-1.584-0.665-2.402-0.665
						c-1.125,0-2.133,0.205-3.018,0.614c-0.889,0.406-1.646,0.954-2.276,1.636c-0.632,0.683-1.108,1.467-1.433,2.353
						c-0.324,0.89-0.485,1.81-0.485,2.764c0,0.955,0.161,1.876,0.485,2.762c0.322,0.888,0.801,1.671,1.433,2.353
						c0.63,0.685,1.39,1.229,2.276,1.639c0.885,0.408,1.893,0.612,3.018,0.612c0.953,0,1.84-0.194,2.658-0.589
						c0.818-0.392,1.518-0.963,2.098-1.713l4.092,4.398c-0.613,0.611-1.32,1.143-2.123,1.585c-0.801,0.441-1.609,0.802-2.43,1.074
						c-0.817,0.271-1.604,0.468-2.352,0.588c-0.752,0.119-1.398,0.179-1.943,0.179c-1.842,0-3.58-0.307-5.217-0.92
						c-1.637-0.614-3.053-1.483-4.245-2.608c-1.194-1.125-2.14-2.479-2.839-4.063c-0.699-1.586-1.048-3.353-1.048-5.294
						c0-1.943,0.349-3.707,1.048-5.293c0.699-1.585,1.645-2.94,2.839-4.065c1.192-1.125,2.608-1.995,4.245-2.607
						c1.637-0.613,3.375-0.922,5.217-0.922c1.566,0,3.146,0.301,4.73,0.896c1.584,0.597,2.973,1.543,4.168,2.838L688.945,466.367z"
						/>
					<path d="M709.914,465.804c-1.194-1.67-2.796-2.506-4.808-2.506c-0.818,0-1.62,0.204-2.403,0.613
						c-0.785,0.409-1.177,1.074-1.177,1.995c0,0.75,0.322,1.296,0.972,1.636c0.646,0.342,1.466,0.632,2.455,0.87
						c0.988,0.238,2.054,0.483,3.196,0.741c1.142,0.256,2.206,0.646,3.194,1.176s1.809,1.254,2.455,2.174
						c0.647,0.921,0.973,2.183,0.973,3.785c0,1.466-0.314,2.702-0.945,3.707c-0.631,1.007-1.449,1.813-2.455,2.43
						c-1.006,0.613-2.141,1.059-3.4,1.329c-1.262,0.273-2.521,0.409-3.785,0.409c-1.907,0-3.664-0.272-5.268-0.817
						c-1.604-0.546-3.035-1.535-4.296-2.967l4.092-3.836c0.784,0.888,1.628,1.611,2.531,2.174c0.903,0.563,2.003,0.844,3.299,0.844
						c0.442,0,0.903-0.051,1.381-0.151c0.479-0.104,0.921-0.272,1.33-0.514c0.408-0.235,0.741-0.535,0.997-0.895
						s0.383-0.775,0.383-1.253c0-0.852-0.324-1.483-0.972-1.893c-0.648-0.41-1.466-0.741-2.454-0.997
						c-0.989-0.258-2.055-0.494-3.196-0.718c-1.143-0.222-2.208-0.579-3.194-1.072c-0.989-0.494-1.81-1.187-2.455-2.071
						c-0.648-0.886-0.974-2.113-0.974-3.685c0-1.36,0.281-2.548,0.846-3.554c0.562-1.006,1.304-1.833,2.225-2.479
						c0.921-0.647,1.977-1.125,3.171-1.434c1.193-0.308,2.403-0.461,3.631-0.461c1.639,0,3.256,0.281,4.858,0.844
						c1.602,0.563,2.896,1.526,3.887,2.892L709.914,465.804z"/>
				</g>
			</g>
			<g id="OICR-Logo_CMYK_ENGLISH">
				<path id="Fill-1" fill="#61B345" d="M129.139,303.232V279.37h-0.284c-5.682,0-11.081,0.28-16.763,1.137l3.125,23.582
					C119.763,303.52,124.309,303.232,129.139,303.232L129.139,303.232"/>
				<path id="Fill-2" fill="#61B345" d="M49.585,396.71l23.298,3.125c0.284-2.557,0.853-4.83,1.421-7.104
					c0.568-2.271,1.42-4.547,2.273-6.814l-43.755-18.473c-1.705,4.266-3.125,8.521-4.262,12.785l-23.298-6.25
					c-1.42,5.396-2.557,10.797-3.125,16.479l23.866,3.125L49.585,396.71"/>
				<path id="Fill-3" fill="#61B345" d="M162.098,283.914l-6.251,23.018c4.262,1.137,8.808,2.557,12.786,4.262l9.092-21.877
					C172.894,287.039,167.496,285.333,162.098,283.914"/>
				<path id="Fill-4" fill="#61B345" d="M80.27,470.298c-2.841-1.988-5.398-4.547-7.955-6.812l-17.047,17.047
					c3.125,3.125,6.535,6.252,10.228,9.092L80.27,470.298"/>
				<path id="Fill-5" fill="#61B345" d="M51.858,427.679l22.73-5.967c-1.421-4.83-1.989-9.66-1.989-14.49H49.301
					c0,3.41,0.284,7.104,0.853,10.52l-23.866,3.125c-0.568-4.547-0.853-9.1-0.853-13.645H1c0,5.688,0.284,11.08,1.137,16.479
					c0.568,5.396,1.705,11.082,3.125,16.479L51.858,427.679"/>
				<path id="Fill-6" fill="#61B345" d="M83.964,441.319c-1.421-1.988-2.841-3.979-3.978-6.25c-1.136-1.988-2.273-4.27-3.125-6.535
					l-21.877,9.092c1.42,3.125,2.841,6.535,4.546,9.377l-41.482,24.15c2.841,4.83,5.967,9.375,9.376,13.922
					c3.41,4.545,7.103,8.52,11.081,12.502l17.047-17.049c-3.41-3.408-6.251-6.818-9.092-10.229L83.964,441.319"/>
				<path id="Fill-7" fill="#61B345" d="M143.629,352.389c2.273,0.565,4.546,1.42,6.819,2.271l9.092-21.599
					c-3.125-1.42-6.535-2.558-9.944-3.406L143.629,352.389"/>
				<path id="Fill-8" fill="#61B345" d="M118.343,327.953l-3.125-23.582c-4.546,0.564-8.808,1.42-13.354,2.561l-6.25-23.018
					c-5.398,1.422-10.797,3.125-15.911,5.396l18.468,44.039c-3.125,1.42-6.25,2.84-9.376,4.545l11.649,20.174
					c1.989-1.137,4.262-2.271,6.535-3.407c2.273-0.854,4.546-1.705,7.103-2.271c2.273-0.566,4.83-1.141,7.104-1.424
					c2.557-0.279,5.114-0.564,7.671-0.564h0.284v-23.299h-0.284C125.162,327.102,121.752,327.384,118.343,327.953"/>
				<path id="Fill-9" fill="#61B345" d="M129.139,327.102c3.41,0,6.819,0.28,10.513,0.565l3.125-23.867
					c-4.546-0.563-9.092-0.852-13.638-0.852V327.102"/>
				<path id="Fill-10" fill="#61B345" d="M65.496,324.828l-14.49-19.037c-4.546,3.41-8.523,7.104-12.501,11.082l33.811,33.812
					c2.557-2.561,5.114-4.83,7.955-6.819c2.841-2.271,5.683-3.979,8.808-5.966l-11.933-20.74
					C72.883,319.432,69.189,321.984,65.496,324.828"/>
				<path id="Fill-11" fill="#61B345" d="M83.964,372.843c1.42-1.985,3.125-3.977,4.83-5.682l-16.479-16.479
					c-2.557,2.561-4.83,5.111-6.819,7.955L83.964,372.843"/>
				<path id="Fill-12" fill="#61B345" d="M27.423,329.373c-3.409,4.547-6.535,9.092-9.376,13.922l20.741,11.938l20.741,12.219
					c1.705-3.125,3.693-5.969,5.683-8.811L27.423,329.373"/>
				<path id="Fill-13" fill="#61B345" d="M193.067,296.699l-23.866,41.193c3.125,1.705,5.966,3.691,8.808,5.967l28.696-37.783
					C202.443,302.666,197.897,299.541,193.067,296.699"/>
				<path id="Fill-14" fill="#1A1919" d="M181.134,317.156c-3.978-2.273-7.956-4.266-12.217-5.971l-9.376,22.162
					c3.125,1.42,6.25,2.842,9.376,4.547L181.134,317.156"/>
				<path id="Fill-15" fill="#1A1919" d="M139.652,327.953l-3.125,23.014c2.557,0.285,4.83,0.854,7.103,1.424l5.967-22.445
					C146.471,329.089,143.062,328.234,139.652,327.953"/>
				<path id="Fill-16" fill="#1A1919" d="M128.855,303.232c-4.546,0-9.092,0.283-13.638,0.854l3.125,23.865
					c3.409-0.568,7.103-0.568,10.796-0.854h0.284L128.855,303.232L128.855,303.232"/>
				<path id="Fill-17" fill="#1A1919" d="M32.822,367.443l22.162,9.097c1.42-3.125,2.841-6.25,4.546-9.097l-20.741-11.932
					C36.515,359.207,34.526,363.186,32.822,367.443"/>
				<path id="Fill-18" fill="#1A1919" d="M55.552,480.528l17.047-17.053c-2.557-2.559-4.831-5.107-7.104-7.949l-19.036,14.77
					C49.301,473.707,52.142,477.117,55.552,480.528"/>
				<path id="Fill-19" fill="#1A1919" d="M59.529,367.443l20.173,11.649c1.136-2.272,2.557-4.264,3.978-6.252l-18.468-14.205
					C63.223,361.479,61.518,364.318,59.529,367.443"/>
				<path id="Fill-20" fill="#1A1919" d="M49.017,406.938L49.017,406.938h23.298l0,0c0-2.558,0.284-4.825,0.568-7.388l-23.298-3.127
					C49.301,400.121,49.017,403.531,49.017,406.938"/>
				<path id="Fill-21" fill="#1A1919" d="M33.106,446.716l22.162-9.092c-1.421-3.125-2.557-6.535-3.41-9.945l-23.014,6.252
					C29.696,438.476,31.117,442.74,33.106,446.716"/>
				<path id="Fill-22" fill="#1A1919" d="M80.27,343.861l14.207,18.472c1.989-1.42,3.978-2.84,6.25-4.267l-11.649-20.172
					C85.668,339.604,82.827,341.589,80.27,343.861"/>
				<path id="Fill-23" fill="#1A1919" d="M108.398,462.912c1.705,0,3.125-0.568,4.262-1.705c0.568-0.568,0.853-1.137,1.137-1.99
					c0.284-0.852,0.568-1.703,0.568-2.27c0-0.855,0-1.705-0.568-2.273c-0.284-0.852-0.568-1.42-1.137-1.988
					c-1.137-1.137-2.557-1.699-4.262-1.699c-0.853,0-1.705,0.277-2.273,0.562c-0.568,0.283-1.421,0.854-1.989,1.42
					c-0.568,0.568-0.853,1.145-1.137,1.988c-0.284,0.854-0.568,1.705-0.568,2.271c0,0.854,0,1.704,0.568,2.271
					c0.284,0.854,0.568,1.422,1.137,1.99c0.568,0.562,1.136,1.137,1.989,1.42C106.693,462.912,107.546,462.912,108.398,462.912z
					 M108.398,464.901c-1.137,0-2.273-0.283-3.41-0.568c-1.989-0.854-3.409-2.271-4.262-4.262c-0.853-1.988-0.853-4.268,0-6.533
					c0.853-1.99,2.273-3.41,4.262-4.262c1.989-0.855,4.546-0.855,6.535,0c0.853,0.275,1.989,0.852,2.557,1.697
					c3.125,3.408,3.125,8.523,0,11.648c-0.852,0.854-1.705,1.42-2.557,1.705C110.671,464.901,109.535,464.901,108.398,464.901z"/>
				<path id="Fill-24" fill="#1A1919" d="M119.195,454.103h1.989v1.703l0,0c0.284-0.562,0.852-1.137,1.42-1.42
					c1.136-0.562,2.273-0.562,3.693-0.277c0.568,0,0.853,0.277,1.137,0.562c0.284,0.285,0.568,0.855,0.853,1.137
					c0.284,0.568,0.284,1.145,0.284,1.705v6.818h-1.989v-5.965c0-0.285,0-0.855-0.284-1.145c0-0.277-0.284-0.562-0.568-0.852
					s-0.568-0.285-0.853-0.568c-0.284,0-0.568,0-0.853,0s-0.852,0-1.136,0.283c-0.284,0-0.568,0.285-0.853,0.568
					c-0.285,0.281-0.568,0.562-0.568,1.137c-0.284,0.568-0.284,1.137-0.284,1.42v5.398h-1.989L119.195,454.103"/>
				<path id="Fill-25" fill="#1A1919" d="M137.095,455.806h-2.841v4.83c0,0.285,0,0.568,0,0.855c0,0.285,0,0.562,0.284,0.852
					c0,0.285,0.284,0.568,0.568,0.568s0.568,0.285,0.852,0.285h0.853c0.284,0,0.568-0.285,0.568-0.285v1.705
					c-0.284,0-0.568,0.283-0.853,0.283h-0.852c-0.568,0-1.137,0-1.705-0.283c-0.284-0.285-0.568-0.568-0.852-0.855
					c-0.284-0.277-0.284-0.852-0.284-1.137c0-0.283,0-0.854,0-1.137v-5.398h-2.273v-1.705h2.273v-2.84h1.989v2.84h2.841
					L137.095,455.806"/>
				<path id="Fill-26" fill="#1A1919" d="M145.334,459.501c-0.568,0-0.853,0-1.421,0s-0.852,0-1.42,0.283
					c-0.284,0-0.568,0.285-0.853,0.562c-0.285,0.283-0.284,0.568-0.284,1.143c0,0.562,0.284,1.137,0.568,1.137
					c0.568,0.285,1.137,0.568,1.705,0.285c0.568,0,0.853,0,1.421-0.285c0.284-0.283,0.568-0.568,0.852-0.852
					c0.284-0.285,0.284-0.568,0.568-0.855c0-0.283,0-0.852,0-1.137v-0.568L145.334,459.501z M139.652,455.526
					c0.568-0.568,1.136-0.855,1.989-1.145c0.853-0.281,1.421-0.281,2.273-0.281c0.568,0,1.421,0,1.989,0.281
					c0.568,0.285,0.853,0.568,1.421,0.855c0.284,0.281,0.568,0.562,0.852,1.137c0.284,0.283,0.284,0.852,0.284,1.42v5.398
					c0,0.277,0,0.562,0,1.137c0,0.283,0,0.564,0,0.852h-1.705c0-0.562,0-1.137,0-1.697l0,0c-0.284,0.562-0.853,1.137-1.42,1.42
					c-0.568,0.277-1.421,0.562-1.989,0.562c-0.568,0-0.852,0-1.42-0.285c-0.284-0.277-0.568-0.277-0.853-0.562
					c-0.285-0.285-0.568-0.568-0.852-0.855c-0.284-0.277-0.284-0.852-0.284-1.42c0-0.562,0-1.137,0.568-1.705
					c0.284-0.562,0.852-0.854,1.136-1.137c0.568-0.285,1.137-0.568,1.705-0.568c0.853,0,1.421-0.277,2.273-0.277h1.421v-0.568
					c0-0.283,0-0.568,0-0.852c-0.284-0.568-0.568-1.145-1.137-1.145c-1.136-0.562-1.42-0.562-1.989-0.562c-0.284,0-0.568,0-0.852,0
					s-0.568,0.277-0.853,0.277s-0.568,0.283-0.568,0.283l-0.568,0.568L139.652,455.526L139.652,455.526z"/>
				<path id="Fill-27" fill="#1A1919" d="M151.017,454.103h1.989v1.703l0,0c0-0.277,0.284-0.562,0.568-0.852
					c0.284-0.285,0.568-0.285,0.568-0.568c0.284-0.277,0.568-0.277,0.853-0.277c0.284,0,0.568,0,0.852,0c0.284,0,0.568,0,0.853,0
					v2.271h-0.568h-0.568c-0.852,0-1.705,0.283-2.273,0.854c-0.568,0.854-0.852,1.699-0.852,2.557v5.115h-1.989L151.017,454.103"/>
				<path id="Fill-28" fill="#1A1919" d="M159.256,464.615h1.989v-10.518h-1.989V464.615z M158.688,450.41
					c0-0.855,0.568-1.42,1.42-1.42c0.853,0,1.421,0.562,1.421,1.42c0,0.852-0.568,1.42-1.421,1.42c-0.284,0-0.852-0.283-1.136-0.283
					C158.688,451.261,158.688,450.696,158.688,450.41z"/>
				<path id="Fill-29" fill="#1A1919" d="M165.791,459.216c0,0.568,0,1.137,0.284,1.422c0.284,0.283,0.284,0.854,0.568,1.143
					c0.284,0.277,0.568,0.562,1.136,0.854c0.568,0.283,0.853,0.283,1.421,0.283c0.568,0,0.852,0,1.42-0.283
					c0.853-0.285,1.421-1.137,1.705-1.99c0.284-0.562,0.284-0.852,0.284-1.42c0-0.562,0-0.852-0.284-1.42
					c0-0.562-0.284-0.854-0.568-1.137c-0.284-0.285-0.568-0.568-1.137-0.855c-0.569-0.277-0.853-0.277-1.42-0.277
					c-0.568,0-0.853,0-1.421,0.277c-0.284,0.285-0.852,0.285-1.136,0.855c-0.284,0.283-0.568,0.852-0.568,1.137
					C165.791,458.365,165.791,458.933,165.791,459.216z M163.802,459.216c0-1.42,0.568-2.84,1.42-3.688
					c1.137-1.145,2.557-1.705,3.978-1.705c0.852,0,1.42,0,2.273,0.562c0.568,0.285,1.136,0.568,1.705,1.145
					c0.569,0.562,0.853,1.137,1.137,1.703c0.284,0.562,0.568,1.422,0.568,2.271c0,0.854,0,1.42-0.568,2.273
					c-0.284,0.562-0.568,1.137-1.137,1.703c-0.568,0.562-1.136,0.854-1.705,1.137c-0.569,0.285-1.421,0.562-2.273,0.562
					c-1.421,0-2.841-0.562-3.978-1.699c-0.568-0.566-0.852-1.143-1.136-1.703C163.802,460.921,163.518,460.071,163.802,459.216
					L163.802,459.216z"/>
				<polygon id="Fill-30" fill="#1A1919" points="183.975,464.615 186.248,464.615 186.248,448.99 183.975,448.99 				"/>
				<path id="Fill-31" fill="#1A1919" d="M189.373,454.103h1.989v1.703l0,0c0.284-0.562,0.852-1.137,1.42-1.42
					c1.137-0.562,2.273-0.562,3.694-0.277c0.568,0,0.852,0.277,1.136,0.562c0.284,0.285,0.568,0.855,0.853,1.137
					c0.284,0.568,0.284,1.145,0.284,1.705v6.818h-1.989v-5.965c0-0.285,0-0.855-0.284-1.145c-0.284-0.562-0.568-1.137-1.421-1.42
					c-0.284,0-0.568,0-0.853,0c-0.284,0-0.852,0-1.136,0.283c-0.284,0-0.568,0.285-0.853,0.568
					c-0.285,0.281-0.568,0.562-0.568,1.137s-0.284,0.854-0.284,1.42v5.398h-1.989L189.373,454.103"/>
				<path id="Fill-32" fill="#1A1919" d="M207.273,456.66c-0.284-0.283-0.568-0.568-0.853-0.854
					c-0.284-0.277-0.852-0.277-1.136-0.277c-0.568,0-0.853,0-1.137,0.277c-0.284,0.283-0.568,0.568-0.568,0.854
					c0,0.287,0,0.562,0.284,0.854c0.284,0.283,0.568,0.283,0.568,0.568c0.284,0,0.568,0.283,0.853,0.283l0.853,0.285
					c0.284,0,0.852,0.277,1.136,0.277s0.568,0.283,0.853,0.566c0.285,0.285,0.568,0.566,0.568,0.854
					c0.284,0.283,0.284,0.854,0.284,1.143c0,0.562,0,1.137-0.284,1.422c-0.284,0.283-0.568,0.852-0.852,1.135
					c-0.284,0.285-0.853,0.568-1.421,0.568s-1.136,0.277-1.42,0.277c-0.853,0-1.42,0-2.273-0.277
					c-0.853-0.283-1.421-0.854-1.705-1.42l1.42-1.143c0.284,0.283,0.568,0.568,1.137,0.854c0.568,0.285,0.852,0.285,1.42,0.285
					h0.568c0.284,0,0.568,0,0.568-0.285c0.284,0,0.284-0.283,0.568-0.568c0-0.283,0.284-0.283,0.284-0.562
					c0-0.285,0-0.568-0.284-0.568c-0.284-0.285-0.284-0.285-0.568-0.568c-0.284,0-0.568-0.283-0.853-0.283l-0.853-0.279
					l-1.136-0.283c-0.284,0-0.568-0.285-0.853-0.568c-0.284-0.279-0.568-0.562-0.568-0.852c-0.284-0.285-0.284-0.854-0.284-1.422
					c0-0.568,0-0.854,0.284-1.42c0.284-0.285,0.568-0.855,0.853-0.855c0.284-0.282,0.853-0.562,1.136-0.562
					c0.568,0,0.853-0.283,1.421-0.283c0.568,0,1.42,0,1.989,0.283c0.568,0.278,1.137,0.852,1.42,1.42L207.273,456.66"/>
				<path id="Fill-33" fill="#1A1919" d="M217.501,455.806h-2.841v5.688c0,0.285,0,0.562,0.284,0.854
					c0,0.283,0.284,0.283,0.568,0.568c0.284,0,0.568,0.283,0.852,0.283h0.568c0.284,0,0.568,0,0.568-0.283v1.703
					c-0.284,0-0.568,0.285-0.853,0.285h-0.852c-0.568,0-1.137,0-1.705-0.285c-0.284-0.283-0.568-0.568-0.852-0.854
					c-0.284-0.277-0.284-0.854-0.284-1.137c0-0.568,0-0.854,0-1.137v-5.398h-2.273v-1.705h2.273v-2.842h1.989v2.842h2.841
					L217.501,455.806"/>
				<path id="Fill-34" fill="#1A1919" d="M219.774,464.615h1.989v-10.518h-1.989V464.615z M219.206,450.41
					c0-0.855,0.568-1.42,1.421-1.42c0.852,0,1.42,0.562,1.42,1.42c0,0.852-0.568,1.42-1.42,1.42c-0.284,0-0.853-0.283-1.137-0.283
					C219.49,451.261,219.206,450.696,219.206,450.41z"/>
				<path id="Fill-35" fill="#1A1919" d="M230.571,455.806h-2.841v4.83c0,0.285,0,0.568,0,0.855c0,0.285,0,0.562,0.284,0.852
					c0,0.285,0.284,0.285,0.568,0.568c0.284,0,0.568,0.285,0.853,0.285h0.853c0.284,0,0.568-0.285,0.568-0.285v1.705
					c-0.284,0-0.568,0.283-0.852,0.283h-0.853c-0.568,0-1.137,0-1.705-0.283c-0.284-0.285-0.568-0.568-0.853-0.855
					c-0.284-0.277-0.284-0.852-0.284-1.137c0-0.283,0-0.854,0-1.137v-5.398h-2.273v-1.705h2.273v-2.84h1.989v2.84h2.841
					L230.571,455.806"/>
				<path id="Fill-36" fill="#1A1919" d="M241.936,464.615h-1.989v-1.703l0,0c-0.284,0.562-0.853,1.135-1.421,1.42
					c-0.568,0.283-1.42,0.568-2.273,0.568c-0.568,0-0.853,0-1.42-0.285c-0.568,0-0.853-0.283-1.137-0.568
					c-0.284-0.283-0.568-0.852-0.852-1.135c-0.284-0.568-0.284-1.137-0.284-1.705v-6.82h1.989v6.252c0,0.283,0,0.854,0.284,1.143
					c0,0.277,0.284,0.562,0.568,0.854c0.284,0.283,0.568,0.283,0.853,0.568c0.284,0,0.568,0,0.853,0s0.852,0,1.136-0.285
					c0.284,0,0.568-0.283,0.853-0.568c0.285-0.279,0.568-0.562,0.568-1.137c0.284-0.568,0.284-1.137,0.284-1.42v-5.115h1.989
					L241.936,464.615"/>
				<path id="Fill-37" fill="#1A1919" d="M250.744,455.806h-2.841v5.688c0,0.285,0,0.562,0.284,0.854
					c0,0.283,0.284,0.283,0.568,0.568c0.284,0,0.568,0.283,0.853,0.283h0.852c0.284,0,0.568,0,0.568-0.283v1.703
					c-0.284,0-0.568,0.285-0.853,0.285h-0.852c-0.568,0-1.137,0-1.705-0.285c-0.284-0.283-0.568-0.568-0.852-0.854
					c-0.284-0.277-0.284-0.854-0.284-1.137c0-0.568,0-0.854,0-1.137v-5.398h-2.273v-1.705h2.273v-2.842h1.705v2.842h2.841
					L250.744,455.806"/>
				<path id="Fill-38" fill="#1A1919" d="M260.688,458.365c0-0.283,0-0.854-0.284-1.143c0-0.277-0.284-0.562-0.568-0.854
					c-0.284-0.283-0.568-0.568-0.852-0.568c-0.284-0.277-0.853-0.277-1.137-0.277c-0.568,0-0.852,0-1.42,0.277
					c-0.284,0.285-0.853,0.285-1.137,0.568c-0.284,0.285-0.568,0.566-0.568,0.854s-0.284,0.568-0.284,1.143H260.688z
					 M254.438,460.071c0,0.562,0,0.854,0.284,1.137c0.284,0.285,0.568,0.568,0.852,0.854c0.284,0.284,0.853,0.567,1.137,0.567
					c0.284,0.283,0.852,0.283,1.42,0.283c0.568,0,1.137-0.283,1.705-0.568c0.568-0.282,0.853-0.562,1.137-1.137l1.42,1.137
					c-1.136,1.422-2.841,2.273-4.546,2.273c-0.852,0-1.42,0-2.273-0.568c-0.568-0.283-1.136-0.562-1.705-1.137
					c-0.569-0.568-0.853-1.137-1.137-1.705c-0.284-0.568-0.284-1.42-0.284-2.271c0-0.854,0-1.423,0.284-2.271
					c0.284-0.568,0.568-1.137,1.137-1.705c0.569-0.568,1.136-0.852,1.705-1.135c0.569-0.285,1.421-0.568,2.273-0.568
					c0.853,0,1.705,0.283,2.273,0.568c1.137,0.562,1.989,1.703,2.557,3.125c0.284,0.562,0.284,1.42,0.284,1.982v0.566
					L254.438,460.071z"/>
				<path id="Fill-39" fill="#1A1919" d="M104.137,479.673h-2.273v-1.703h2.273v-2.271c0-1.143,0.284-2.271,0.852-3.125
					c0.853-0.854,1.705-1.143,2.841-1.143h0.568c0.284,0,0.568,0,0.852,0l-0.284,1.705h-0.568h-0.568c-0.284,0-0.568,0-0.853,0.283
					c-0.284,0-0.284,0.283-0.568,0.568c0,0.281-0.284,0.562-0.284,0.852s0,0.568,0,0.855v2.27h2.273v1.705h-2.273v8.812h-1.989
					L104.137,479.673"/>
				<path id="Fill-40" fill="#1A1919" d="M112.092,483.367c0,0.562,0,0.854,0.284,1.422s0.284,0.852,0.568,1.137
					c0.284,0.283,0.568,0.568,1.136,0.854c0.853,0.277,1.989,0.277,2.841,0c0.284-0.283,0.853-0.283,1.137-0.854
					c0.284-0.285,0.568-0.854,0.568-1.137c0.284-0.568,0.284-0.855,0.284-1.422c0-0.567,0-1.135-0.284-1.42
					c-0.284-0.283-0.284-0.854-0.568-1.143c-0.284-0.277-0.568-0.562-1.137-0.854c-0.569-0.285-0.852-0.283-1.42-0.283
					s-0.853,0-1.421,0.283c-0.284,0.285-0.852,0.285-1.136,0.854c-0.284,0.283-0.568,0.854-0.568,1.143
					C112.092,482.233,112.092,482.8,112.092,483.367z M109.819,483.367c0-0.854,0-1.42,0.568-2.271
					c0.284-0.562,0.568-1.137,1.136-1.705c0.568-0.562,1.137-0.854,1.705-1.137c1.42-0.568,2.841-0.568,4.262,0
					c0.568,0.283,1.137,0.568,1.705,1.137c0.568,0.568,0.853,1.143,1.137,1.705c0.568,1.42,0.568,2.84,0,4.268
					c-0.284,0.562-0.568,1.137-1.137,1.705c-0.568,0.562-1.136,0.854-1.705,1.137c-1.42,0.562-2.841,0.562-4.262,0
					c-0.568-0.283-1.137-0.568-1.705-1.137c-0.568-0.569-0.852-1.143-1.136-1.705C109.819,484.789,109.819,483.935,109.819,483.367
					L109.819,483.367z"/>
				<path id="Fill-41" fill="#1A1919" d="M123.457,477.968h1.989v1.705l0,0c0-0.285,0.284-0.562,0.568-0.854
					c0.284-0.283,0.568-0.283,0.852-0.566c0.284-0.285,0.568-0.285,0.853-0.285c0.285,0,0.568,0,0.852-0.283
					c0.284,0,0.568,0,0.853,0.283v2.273h-0.568h-0.568c-0.853,0-1.705,0.283-2.273,0.852c-0.568,0.855-0.853,1.705-0.853,2.562
					v5.107h-1.989L123.457,477.968"/>
				<path id="Fill-42" fill="#1A1919" d="M149.312,476.263c-0.568-0.562-1.137-1.137-1.705-1.42
					c-0.568-0.285-1.421-0.562-1.989-0.562c-0.852,0-1.705,0.277-2.273,0.562c-0.568,0.283-1.42,0.854-1.705,1.42
					c-0.568,0.568-0.853,1.145-1.136,1.99c-0.568,1.42-0.568,3.125,0,4.83c0.568,1.42,1.42,2.557,2.841,3.408
					c0.853,0.285,1.705,0.562,2.557,0.562c0.853,0,1.705-0.277,2.273-0.562c0.568-0.283,1.137-0.854,1.705-1.42l1.705,1.42
					c-0.284,0.285-0.284,0.562-0.568,0.562c-0.284,0.283-0.852,0.568-1.136,0.854c-0.568,0.283-1.137,0.564-1.705,0.852
					c-0.852,0.285-1.42,0.285-2.273,0.285c-1.136,0-2.273-0.285-3.409-0.562c-0.853-0.566-1.705-1.143-2.557-1.988
					c-0.568-0.854-1.137-1.705-1.705-2.562c-0.284-0.852-0.568-1.98-0.568-2.84c0-1.137,0.284-2.271,0.568-3.41
					c0.284-0.852,0.852-1.982,1.705-2.557c0.852-0.855,1.705-1.422,2.557-1.705c1.136-0.283,2.273-0.566,3.409-0.566
					c1.137,0,1.989,0.283,3.125,0.566c0.853,0.283,1.705,1.137,2.557,1.705L149.312,476.263"/>
				<path id="Fill-43" fill="#1A1919" d="M159.256,483.367c-0.568,0-0.853,0-1.421,0s-0.852,0-1.42,0.285
					c-0.284,0-0.853,0.277-0.853,0.562c-0.284,0.285-0.284,0.568-0.284,0.855c0,0.562,0.284,1.137,0.568,1.42
					c0.568,0.285,1.137,0.285,1.705,0.285c0.568,0,0.852,0,1.42-0.285c0.284-0.283,0.568-0.283,0.853-0.568
					c0.284-0.283,0.284-0.562,0.568-0.852c0-0.285,0-0.855,0-1.145v-0.562L159.256,483.367L159.256,483.367z M153.574,479.388
					c0.568-0.562,1.137-0.852,1.989-1.135c0.568-0.285,1.421-0.285,2.273-0.285c0.568,0,1.421,0,1.989,0.285
					c0.568,0.283,0.852,0.566,1.42,0.854c0.284,0.277,0.568,0.562,0.853,1.137c0.284,0.285,0.284,0.854,0.284,1.422v5.398
					c0,0.277,0,0.562,0,0.852s0,0.568,0,0.852h-2.273c0-0.562,0-1.135,0-1.697l0,0c-0.284,0.562-0.852,1.137-1.42,1.422
					c-0.568,0.275-1.42,0.562-1.989,0.562c-0.569,0-0.853,0-1.421-0.285c-0.284,0-0.852-0.275-1.136-0.562
					c-0.284-0.283-0.568-0.568-0.853-0.854c-0.285-0.281-0.284-0.854-0.284-1.422c0-0.562,0-1.137,0.568-1.705
					c0.284-0.562,0.853-0.852,1.137-1.135c0.568-0.285,1.136-0.564,1.989-0.564c0.853,0,1.42-0.281,2.273-0.281h1.136v-0.568
					c0-0.285,0-0.564,0-0.854c0-0.285-0.284-0.568-0.568-0.568c-0.284-0.283-0.568-0.283-0.853-0.568
					c-0.284,0-0.853-0.277-1.136-0.277c-0.284,0-0.568,0-1.137,0c-0.284,0-0.568,0.277-0.853,0.277s-0.568,0.285-0.568,0.285
					l-0.568,0.568L153.574,479.388L153.574,479.388z"/>
				<path id="Fill-44" fill="#1A1919" d="M164.938,477.968h1.989v1.705l0,0c0.284-0.562,0.852-1.137,1.42-1.42
					c0.568-0.285,1.42-0.568,2.273-0.568c0.568,0,0.853,0,1.421,0.283c0.568,0.285,0.852,0.285,1.136,0.568
					c0.284,0.283,0.568,0.852,0.853,1.137c0.284,0.854,0.284,1.42,0.284,1.988v6.816h-1.989v-6.25c0-0.281,0-0.854-0.284-1.141
					c0-0.285-0.284-0.562-0.568-0.854c-0.284-0.285-0.568-0.283-0.853-0.568c-0.284,0-0.568,0-0.853,0c-0.284,0-0.852,0-1.136,0.285
					c-0.284,0-0.568,0.283-0.853,0.564c-0.285,0.281-0.568,0.564-0.568,1.141c-0.284,0.562-0.284,1.137-0.284,1.42v5.396h-1.989
					L164.938,477.968"/>
				<path id="Fill-45" fill="#1A1919" d="M184.827,480.81c-0.284-0.277-0.852-0.562-1.136-0.854
					c-0.568-0.283-0.853-0.283-1.421-0.283s-0.852,0-1.42,0.283c-0.284,0.285-0.853,0.568-0.853,0.854
					c-0.284,0.283-0.568,0.854-0.568,1.143c0,0.562-0.284,0.854-0.284,1.42c0,0.562,0,0.854,0.284,1.422
					c0.284,0.283,0.284,0.853,0.568,1.137c0.284,0.283,0.568,0.568,1.137,0.854c0.569,0.285,0.852,0.283,1.42,0.283
					c0.568,0,0.853,0,1.421-0.283c0.284-0.283,0.852-0.568,1.136-0.854l1.421,1.42c-0.568,0.568-1.137,0.855-1.705,1.143
					c-0.568,0.278-1.42,0.278-2.273,0.278c-0.852,0-1.42,0-2.273-0.278c-0.568-0.283-1.136-0.566-1.705-1.143
					c-0.569-0.562-0.853-1.137-1.137-1.704c-0.284-0.562-0.284-1.421-0.284-2.271c0-0.854,0.284-1.42,0.284-2.272
					c0.284-0.562,0.568-1.138,1.137-1.7c0.569-0.566,1.136-0.855,1.705-1.141c0.568-0.285,1.421-0.285,2.273-0.285
					c0.853,0,1.421,0,2.273,0.285c0.568,0.283,1.421,0.566,1.705,1.141L184.827,480.81"/>
				<path id="Fill-46" fill="#1A1919" d="M195.624,482.233c0-0.568,0-0.854-0.284-1.143c0-0.285-0.284-0.562-0.568-0.854
					s-0.568-0.568-0.852-0.568c-0.284-0.283-0.853-0.283-1.421-0.283s-0.852,0-1.42,0.283c-0.284,0.285-0.853,0.285-1.137,0.568
					c-0.284,0.281-0.568,0.562-0.568,0.854c-0.284,0.283-0.284,0.568-0.284,1.143H195.624z M189.373,483.935
					c0,0.568,0,0.854,0.284,1.143c0.284,0.285,0.568,0.562,0.853,0.854c0.285,0.285,0.853,0.568,1.137,0.568s0.852,0.283,1.42,0.283
					s1.136,0,1.705-0.568c0.568-0.283,0.853-0.567,1.137-1.137l1.42,1.137c-1.136,1.422-2.841,2.273-4.546,2.273
					c-0.853,0-1.42,0-2.273-0.568c-1.42-0.568-2.273-1.42-2.841-2.842c-0.568-1.42-0.568-2.84,0-4.268
					c0.284-0.562,0.568-1.137,1.137-1.699c0.568-0.566,1.136-0.854,1.705-1.143c0.569-0.283,1.42-0.562,2.273-0.562
					c0.853,0,1.705,0.277,2.273,0.562c0.568,0.285,1.137,0.855,1.705,1.143c0.284,0.562,0.853,1.137,0.853,1.699
					c0.284,0.568,0.284,1.428,0.284,1.988v1.137H189.373z"/>
				<path id="Fill-47" fill="#1A1919" d="M200.17,477.968h1.989v1.705l0,0c0-0.285,0.284-0.562,0.568-0.854
					c0.284-0.285,0.568-0.283,0.853-0.566c0.284-0.285,0.568-0.285,0.852-0.285c0.284,0,0.568,0,0.853-0.283
					c0.284,0,0.568,0,0.853,0.283v2.273h-0.568H205c-0.853,0-1.705,0.283-2.273,0.852c-0.568,0.855-0.853,1.705-0.853,2.562v5.107
					h-1.989L200.17,477.968"/>
				<path id="Fill-48" fill="#1A1919" d="M217.217,479.673h2.841c0.284,0,0.852,0,1.136,0c0.284,0,0.853-0.283,1.137-0.283
					c0.284-0.277,0.568-0.562,0.853-0.854c0.284-0.283,0.284-0.854,0.284-1.135c0-0.568,0-0.855-0.284-1.424
					c-0.284-0.281-0.568-0.566-0.853-0.566c-0.284-0.283-0.568-0.283-1.137-0.283c-0.284,0-0.852,0-1.136,0h-2.841V479.673z
					 M214.944,472.858h5.398c0.852,0,1.705,0,2.557,0.562c0.568,0.283,1.136,0.568,1.42,1.137c0.284,0.283,0.568,0.854,0.853,1.426
					c0,0.562,0.284,1.139,0.284,1.422c0,0.562,0,0.854-0.284,1.42c-0.284,0.562-0.284,0.854-0.853,1.137
					c-0.284,0.285-0.853,0.854-1.136,0.854c-0.568,0.281-1.137,0.281-1.705,0.566l4.546,7.104h-2.557l-3.978-6.818h-2.273v6.818
					h-2.273L214.944,472.858L214.944,472.858z"/>
				<path id="Fill-49" fill="#1A1919" d="M235.401,482.233c0-0.283,0-0.854-0.284-1.143c0-0.285-0.284-0.562-0.568-0.854
					c-0.284-0.285-0.568-0.568-0.853-0.568c-0.284-0.283-0.852-0.283-1.42-0.283c-0.568,0-0.853,0-1.421,0.283
					c-0.284,0.285-0.852,0.285-1.136,0.568c-0.284,0.281-0.568,0.562-0.568,0.854c-0.284,0.283-0.284,0.568-0.284,1.143H235.401z
					 M229.15,483.935c0,0.568,0,0.854,0.284,1.143c0.284,0.285,0.568,0.562,0.853,0.854c0.285,0.285,0.852,0.568,1.136,0.568
					c0.284,0,0.853,0.283,1.421,0.283c0.568,0,1.136,0,1.705-0.568c0.568-0.283,0.853-0.567,1.136-1.137l1.421,1.137
					c-1.137,1.422-2.841,2.273-4.546,2.273c-0.853,0-1.421,0-2.273-0.568c-1.421-0.568-2.273-1.42-2.841-2.842
					c-0.568-1.42-0.568-2.84,0-4.268c0.284-0.562,0.568-1.137,1.136-1.699c0.568-0.566,1.137-0.854,1.705-1.143
					c0.568-0.283,1.42-0.562,2.273-0.562c0.852,0,1.705,0.277,2.273,0.562c0.568,0.285,1.136,0.855,1.705,1.143
					c0.284,0.562,0.853,1.137,0.853,1.699c0.284,0.568,0.284,1.428,0.284,1.988v1.137H229.15z"/>
				<path id="Fill-50" fill="#1A1919" d="M245.629,480.528c-0.284-0.283-0.568-0.568-0.852-0.854
					c-0.284-0.285-0.853-0.285-1.137-0.285c-0.568,0-0.853,0-1.137,0.285c-0.284,0.283-0.568,0.568-0.568,0.854
					c0,0.279,0,0.562,0.284,0.854c0.284,0.283,0.568,0.283,0.568,0.568c0.284,0,0.568,0.283,0.853,0.283h0.853
					c0.284,0,0.852,0.277,1.136,0.277c0.284,0,0.568,0.285,0.853,0.568c0.284,0.283,0.568,0.564,0.568,0.852
					c0.284,0.285,0.284,0.855,0.284,1.145c0,1.137-0.568,1.982-1.421,2.557c-0.284,0.285-0.853,0.568-1.42,0.568
					c-0.568,0-1.137,0.278-1.421,0.278c-0.852,0-1.42,0-2.273-0.278c-0.568-0.283-1.42-0.855-1.705-1.42l1.42-1.145
					c0.284,0.285,0.568,0.568,1.137,0.855c0.569,0.285,0.853,0.283,1.42,0.283c0.284,0,0.568,0,0.853,0c0.285,0,0.568,0,0.568-0.283
					c0.284,0,0.284-0.285,0.568-0.285c0-0.283,0.284-0.283,0.284-0.568c0-0.277,0-0.562-0.284-0.562
					c-0.284-0.285-0.568-0.285-0.568-0.568l-1.137-0.566h-0.852l-1.137-0.279c-0.284,0-0.568-0.285-0.853-0.568
					c-0.284-0.283-0.568-0.562-0.568-0.852s-0.284-0.855-0.284-1.145c0-0.562,0-0.852,0.284-1.42
					c0.284-0.285,0.568-0.854,0.852-0.854c0.284-0.283,0.853-0.566,1.137-0.566c0.568,0,0.852-0.285,1.42-0.285s1.421,0,1.989,0.285
					c0.568,0.283,1.137,0.854,1.705,1.42L245.629,480.528"/>
				<path id="Fill-51" fill="#1A1919" d="M257.562,482.233c0-0.283,0-0.854-0.284-1.143c0-0.285-0.284-0.562-0.568-0.854
					s-0.568-0.568-0.853-0.568c-0.284-0.283-0.853-0.283-1.42-0.283c-0.568,0-0.853,0-1.421,0.283
					c-0.284,0.285-0.852,0.285-1.136,0.568c-0.284,0.281-0.568,0.562-0.568,0.854c-0.284,0.283-0.284,0.568-0.284,1.143H257.562z
					 M251.312,483.935c0,0.568,0,0.854,0.284,1.143c0.284,0.285,0.568,0.562,0.852,0.854c0.284,0.283,0.568,0.568,1.137,0.568
					s0.853,0.283,1.42,0.283c0.568,0,1.137,0,1.705-0.568c0.568-0.283,0.852-0.567,1.136-1.137l1.421,1.137
					c-1.705,1.988-4.546,2.558-6.819,1.705c-0.568-0.283-1.136-0.568-1.705-1.137c-0.569-0.568-0.852-1.143-1.136-1.705
					c-0.284-0.568-0.284-1.42-0.284-2.271c0-0.854,0-1.422,0.568-2.271c0.284-0.568,0.568-1.143,1.136-1.705
					c1.137-1.135,2.557-1.703,3.978-1.703c0.853,0,1.705,0.283,2.273,0.566c1.137,0.562,1.989,1.699,2.557,3.125
					c0.284,0.562,0.284,1.422,0.284,1.984v1.141L251.312,483.935L251.312,483.935z"/>
				<path id="Fill-52" fill="#1A1919" d="M267.507,483.367c-0.568,0-0.852,0-1.42,0s-0.853,0-1.421,0.285
					c-0.284,0-0.852,0.277-0.852,0.562c-0.568,0.568-0.568,1.705,0,2.273l0,0c0.852,0.562,1.989,0.562,3.125,0
					c0.284-0.283,0.568-0.283,0.853-0.568c0.285-0.283,0.284-0.562,0.568-0.852c0-0.285,0.284-0.855,0.284-1.145v-0.562
					L267.507,483.367L267.507,483.367z M261.825,479.388c0.568-0.562,1.136-0.852,1.989-1.135c0.568-0.285,1.42-0.285,2.273-0.285
					c0.568,0,1.42,0,1.989,0.285c0.568,0.283,0.853,0.566,1.42,0.854c0.284,0.277,0.568,0.562,0.853,1.137
					c0.284,0.285,0.284,0.854,0.284,1.422v5.398c0,0.277,0,0.562,0,0.852s0,0.568,0,0.852h-1.705c0-0.562,0-1.135,0-1.697l0,0
					c-0.284,0.562-0.853,1.137-1.705,1.422c-0.568,0.275-1.42,0.562-1.989,0.562c-0.568,0-0.852,0-1.42-0.285
					c-0.284,0-0.853-0.275-1.137-0.562c-0.284-0.283-0.568-0.568-0.852-0.854c-0.284-0.281-0.284-0.854-0.284-1.422
					c0-0.562,0-1.137,0.568-1.705c0.284-0.562,0.853-0.852,1.137-1.135c0.568-0.285,1.137-0.564,1.705-0.564
					c0.853,0,1.421-0.281,2.273-0.281h1.421v-0.568c0-0.285,0-0.564-0.284-0.854c0-0.283-0.284-0.568-0.568-0.568
					c-0.284-0.283-0.568-0.283-0.853-0.568c-0.284,0-0.852-0.277-1.136-0.277c-0.284,0-0.568,0-0.853,0s-0.568,0.277-0.852,0.277
					s-0.568,0.285-0.568,0.285l-0.568,0.568L261.825,479.388L261.825,479.388z"/>
				<path id="Fill-53" fill="#1A1919" d="M273.758,477.968h1.989v1.705l0,0c0-0.285,0.284-0.562,0.568-0.854
					c0.284-0.283,0.568-0.283,0.852-0.566c0.284-0.285,0.568-0.285,0.853-0.285s0.568,0,0.853-0.283c0.284,0,0.568,0,0.852,0.283
					v2.273h-0.568h-0.568c-0.853,0-1.705,0.283-2.273,0.852c-0.568,0.855-0.853,1.705-0.853,2.562v5.107h-1.705V477.968"/>
				<path id="Fill-54" fill="#1A1919" d="M288.532,480.81c-0.284-0.277-0.853-0.562-1.137-0.854
					c-0.568-0.283-0.853-0.283-1.42-0.283c-0.853,0-1.989,0.283-2.557,1.137c-0.284,0.283-0.568,0.854-0.568,1.143
					c-0.284,0.562-0.284,0.854-0.284,1.42c0,0.562,0,0.854,0.284,1.422c0,0.568,0.284,0.853,0.568,1.137
					c0.284,0.283,0.568,0.568,1.136,0.854c0.568,0.285,0.853,0.283,1.421,0.283s0.852,0,1.42-0.283
					c0.284-0.283,0.853-0.568,1.137-0.854l1.42,1.42c-0.568,0.568-1.137,0.855-1.705,1.143c-0.568,0.278-1.421,0.278-2.273,0.278
					c-0.853,0-1.421,0-2.273-0.278c-0.568-0.283-1.137-0.566-1.705-1.143c-0.568-0.562-0.852-1.137-1.136-1.704
					c-0.284-0.562-0.284-1.421-0.284-2.271c0-0.854,0-1.42,0.284-2.272c0.284-0.562,0.568-1.138,1.136-1.7
					c0.568-0.566,1.137-0.855,1.705-1.141c1.42-0.562,3.125-0.562,4.546,0c0.568,0.283,1.42,0.566,1.705,1.141L288.532,480.81"/>
				<path id="Fill-55" fill="#1A1919" d="M291.941,471.718h1.989v7.955l0,0c0.284-0.562,0.853-1.137,1.421-1.42
					s1.42-0.568,2.273-0.568c0.568,0,0.853,0,1.42,0.285c0.568,0.283,0.853,0.283,1.137,0.566c0.284,0.285,0.568,0.854,0.852,1.137
					c0.284,0.568,0.284,1.137,0.284,1.705v6.818h-1.989v-6.25c0-0.283,0-0.854-0.284-1.143c0-0.277-0.284-0.562-0.568-0.854
					c-0.284-0.283-0.568-0.283-0.853-0.568c-0.284,0-0.568,0-0.853,0s-0.852,0-1.136,0.285c-0.284,0-0.568,0.283-0.853,0.568
					c-0.285,0.277-0.568,0.562-0.568,1.137c-0.284,0.567-0.284,1.137-0.284,1.705v5.395h-1.989L291.941,471.718"/>
				<path id="Fill-56" fill="#1A1919" d="M148.459,406.371c0.568,11.08-8.239,20.457-19.32,21.02c-0.284,0-0.568,0-0.852,0
					c-11.365,0-20.457-9.375-20.173-20.457c0-0.277,0-0.562,0-0.562v-0.285c-0.568-11.08,8.24-20.457,19.32-21.021
					c0.284,0,0.568,0,0.853,0c11.365,0,20.457,9.375,20.172,20.453C148.459,405.802,148.459,406.085,148.459,406.371
					L148.459,406.371z M128.287,375.398c-16.764-0.278-30.97,13.069-31.254,29.839c0,0.277,0,0.562,0,0.852v0.283
					c-0.284,16.764,13.07,30.396,29.833,30.686c0.284,0,0.853,0,1.137,0c16.763,0.285,30.969-13.062,31.253-29.832
					c0-0.277,0-0.562,0-0.854v-0.283c0.284-16.765-13.07-30.397-29.833-30.688C129.139,375.398,128.855,375.398,128.287,375.398z"/>
				<polygon id="Fill-57" fill="#1A1919" points="168.632,435.919 179.145,435.919 179.145,376.253 168.632,376.253 				"/>
				<path id="Fill-58" fill="#1A1919" d="M218.638,427.399c-11.365,0-19.604-9.66-19.604-21.312V405.8
					c0-11.646,8.24-21.022,19.604-21.022c6.251,0,12.217,2.845,16.763,7.392l6.819-7.672c-6.251-6.25-14.49-9.66-23.298-9.375
					c-16.763-0.285-30.401,13.065-30.685,29.549c0,0.283,0,0.854,0,1.135v0.285c-0.284,16.479,12.786,30.4,29.265,30.688
					c0.284,0,0.568,0,1.136,0c9.092,0.277,18.184-3.693,24.15-10.52l-6.819-6.812C230.571,424.274,226.025,427.399,218.638,427.399"
					/>
				<path id="Fill-59" fill="#1A1919" d="M261.541,405.802v-19.889h15.058c7.671,0,12.218,3.41,12.218,9.94l0,0
					c0,5.97-4.83,9.942-12.218,9.942L261.541,405.802L261.541,405.802z M285.407,413.472c8.24-2.27,14.206-8.232,14.206-17.895
					v-0.285c0-4.83-1.705-9.375-4.83-12.785c-4.83-4.262-10.797-6.25-17.047-5.967h-26.708v59.666h10.513v-20.74h13.069
					l14.774,20.74h12.217L285.407,413.472L285.407,413.472z"/>
			</g>
		</g>
	</g>
</g>
</svg>
